<svg width="95" height="87" viewBox="0 0 95 87" fill="none" xmlns="http://www.w3.org/2000/svg">
<path fill-rule="evenodd" clip-rule="evenodd" d="M48.3471 15.5411C45.6759 15.3737 43.0354 16.187 40.9213 17.8285C38.8073 19.47 37.3651 21.8266 36.8655 24.4561C36.3659 27.0855 36.8433 29.8069 38.2079 32.1094C38.3477 32.3451 38.3845 32.6279 38.3099 32.8917L37.1387 37.0283L41.2753 35.8571L41.5477 36.8192L42.0576 35.959C44.36 37.3237 47.0814 37.801 49.7109 37.3014C52.3403 36.8018 54.697 35.3596 56.3384 33.2456C57.9799 31.1316 58.7933 28.4911 58.6259 25.8198C58.4585 23.1486 57.3218 20.6303 55.4292 18.7377C53.5367 16.8451 51.0184 15.7085 48.3471 15.5411ZM41.4168 37.8956C44.0553 39.3421 47.1192 39.8296 50.0842 39.2663C53.1922 38.6757 55.9779 36.971 57.9181 34.4722C59.8584 31.9733 60.8198 28.8522 60.622 25.6947C60.4241 22.5372 59.0805 19.5606 56.8434 17.3235C54.6064 15.0864 51.6297 13.7429 48.4722 13.545C45.3147 13.3471 42.1936 14.3085 39.6948 16.2488C37.1959 18.189 35.4912 20.9747 34.9007 24.0828C34.3373 27.0477 34.8249 30.1116 36.2713 32.7501L35.2115 36.4934C35.1128 36.8342 35.1071 37.1952 35.195 37.539C35.2834 37.8844 35.463 38.1997 35.7151 38.4518C35.9672 38.7039 36.2825 38.8836 36.628 38.9719C36.9718 39.0599 37.3328 39.0542 37.6736 38.9554L41.4168 37.8956Z" fill="white"/>
<path d="M47.6729 27.9941C48.5013 27.9941 49.1729 27.3226 49.1729 26.4941C49.1729 25.6657 48.5013 24.9941 47.6729 24.9941C46.8444 24.9941 46.1729 25.6657 46.1729 26.4941C46.1729 27.3226 46.8444 27.9941 47.6729 27.9941Z" fill="white"/>
<path d="M41.6729 27.9941C42.5013 27.9941 43.1729 27.3226 43.1729 26.4941C43.1729 25.6657 42.5013 24.9941 41.6729 24.9941C40.8444 24.9941 40.1729 25.6657 40.1729 26.4941C40.1729 27.3226 40.8444 27.9941 41.6729 27.9941Z" fill="white"/>
<path d="M53.6729 27.9941C54.5013 27.9941 55.1729 27.3226 55.1729 26.4941C55.1729 25.6657 54.5013 24.9941 53.6729 24.9941C52.8444 24.9941 52.1729 25.6657 52.1729 26.4941C52.1729 27.3226 52.8444 27.9941 53.6729 27.9941Z" fill="white"/>
<path d="M12.4329 69.4941C12.3262 69.4941 12.2355 69.4621 12.1609 69.3981C12.0969 69.3235 12.0649 69.2328 12.0649 69.1261V58.6781C12.0649 58.5608 12.0969 58.4701 12.1609 58.4061C12.2355 58.3315 12.3262 58.2941 12.4329 58.2941H13.2329C13.3609 58.2941 13.4569 58.3261 13.5209 58.3901C13.5849 58.4541 13.6222 58.5075 13.6329 58.5501L17.0249 65.0141L20.4329 58.5501C20.4542 58.5075 20.4915 58.4541 20.5449 58.3901C20.6089 58.3261 20.7049 58.2941 20.8329 58.2941H21.6169C21.7342 58.2941 21.8249 58.3315 21.8889 58.4061C21.9635 58.4701 22.0009 58.5608 22.0009 58.6781V69.1261C22.0009 69.2328 21.9635 69.3235 21.8889 69.3981C21.8249 69.4621 21.7342 69.4941 21.6169 69.4941H20.8329C20.7262 69.4941 20.6355 69.4621 20.5609 69.3981C20.4969 69.3235 20.4649 69.2328 20.4649 69.1261V61.2541L17.7929 66.4701C17.7502 66.5768 17.6862 66.6621 17.6009 66.7261C17.5155 66.7795 17.4089 66.8061 17.2809 66.8061H16.7849C16.6462 66.8061 16.5342 66.7795 16.4489 66.7261C16.3742 66.6621 16.3102 66.5768 16.2569 66.4701L13.5849 61.2541V69.1261C13.5849 69.2328 13.5475 69.3235 13.4729 69.3981C13.4089 69.4621 13.3235 69.4941 13.2169 69.4941H12.4329ZM27.872 69.6541C26.7733 69.6541 25.8986 69.3181 25.248 68.6461C24.5973 67.9635 24.24 67.0355 24.176 65.8621C24.1653 65.7235 24.16 65.5475 24.16 65.3341C24.16 65.1101 24.1653 64.9288 24.176 64.7901C24.2186 64.0328 24.3946 63.3715 24.704 62.8061C25.0133 62.2301 25.4346 61.7875 25.968 61.4781C26.512 61.1688 27.1466 61.0141 27.872 61.0141C28.6826 61.0141 29.36 61.1848 29.904 61.5261C30.4586 61.8675 30.88 62.3528 31.168 62.9821C31.456 63.6115 31.6 64.3475 31.6 65.1901V65.4621C31.6 65.5795 31.5626 65.6701 31.488 65.7341C31.424 65.7981 31.3386 65.8301 31.232 65.8301H25.696C25.696 65.8408 25.696 65.8621 25.696 65.8941C25.696 65.9261 25.696 65.9528 25.696 65.9741C25.7173 66.4115 25.8133 66.8221 25.984 67.2061C26.1546 67.5795 26.4 67.8835 26.72 68.1181C27.04 68.3528 27.424 68.4701 27.872 68.4701C28.256 68.4701 28.576 68.4115 28.832 68.2941C29.088 68.1768 29.296 68.0488 29.456 67.9101C29.616 67.7608 29.7226 67.6488 29.776 67.5741C29.872 67.4355 29.9466 67.3555 30 67.3341C30.0533 67.3021 30.1386 67.2861 30.256 67.2861H31.024C31.1306 67.2861 31.216 67.3181 31.28 67.3821C31.3546 67.4355 31.3866 67.5155 31.376 67.6221C31.3653 67.7821 31.28 67.9795 31.12 68.2141C30.96 68.4381 30.7306 68.6621 30.432 68.8861C30.1333 69.1101 29.7706 69.2968 29.344 69.4461C28.9173 69.5848 28.4266 69.6541 27.872 69.6541ZM25.696 64.7261H30.08V64.6781C30.08 64.1981 29.9893 63.7715 29.808 63.3981C29.6373 63.0248 29.3866 62.7315 29.056 62.5181C28.7253 62.2941 28.3306 62.1821 27.872 62.1821C27.4133 62.1821 27.0186 62.2941 26.688 62.5181C26.368 62.7315 26.1226 63.0248 25.952 63.3981C25.7813 63.7715 25.696 64.1981 25.696 64.6781V64.7261ZM36.3931 69.6541C35.7958 69.6541 35.2838 69.5795 34.8571 69.4301C34.4304 69.2808 34.0838 69.0995 33.8171 68.8861C33.5504 68.6728 33.3478 68.4595 33.2091 68.2461C33.0811 68.0328 33.0118 67.8621 33.0011 67.7341C32.9904 67.6168 33.0278 67.5261 33.1131 67.4621C33.1984 67.3981 33.2838 67.3661 33.3691 67.3661H34.0731C34.1371 67.3661 34.1851 67.3768 34.2171 67.3981C34.2598 67.4088 34.3131 67.4515 34.3771 67.5261C34.5158 67.6755 34.6704 67.8248 34.8411 67.9741C35.0118 68.1235 35.2198 68.2461 35.4651 68.3421C35.7211 68.4381 36.0358 68.4861 36.4091 68.4861C36.9531 68.4861 37.4011 68.3848 37.7531 68.1821C38.1051 67.9688 38.2811 67.6595 38.2811 67.2541C38.2811 66.9875 38.2064 66.7741 38.0571 66.6141C37.9184 66.4541 37.6624 66.3101 37.2891 66.1821C36.9264 66.0541 36.4251 65.9208 35.7851 65.7821C35.1451 65.6328 34.6384 65.4515 34.2651 65.2381C33.8918 65.0141 33.6251 64.7528 33.4651 64.4541C33.3051 64.1448 33.2251 63.7981 33.2251 63.4141C33.2251 63.0195 33.3424 62.6408 33.5771 62.2781C33.8118 61.9048 34.1531 61.6008 34.6011 61.3661C35.0598 61.1315 35.6304 61.0141 36.3131 61.0141C36.8678 61.0141 37.3424 61.0835 37.7371 61.2221C38.1318 61.3608 38.4571 61.5368 38.7131 61.7501C38.9691 61.9528 39.1611 62.1555 39.2891 62.3581C39.4171 62.5608 39.4864 62.7315 39.4971 62.8701C39.5078 62.9768 39.4758 63.0675 39.4011 63.1421C39.3264 63.2061 39.2411 63.2381 39.1451 63.2381H38.4731C38.3984 63.2381 38.3344 63.2221 38.2811 63.1901C38.2384 63.1581 38.1958 63.1208 38.1531 63.0781C38.0464 62.9395 37.9184 62.8008 37.7691 62.6621C37.6304 62.5235 37.4438 62.4115 37.2091 62.3261C36.9851 62.2301 36.6864 62.1821 36.3131 62.1821C35.7798 62.1821 35.3798 62.2941 35.1131 62.5181C34.8464 62.7421 34.7131 63.0248 34.7131 63.3661C34.7131 63.5688 34.7718 63.7501 34.8891 63.9101C35.0064 64.0701 35.2304 64.2141 35.5611 64.3421C35.8918 64.4701 36.3824 64.6088 37.0331 64.7581C37.7371 64.8968 38.2918 65.0835 38.6971 65.3181C39.1024 65.5528 39.3904 65.8248 39.5611 66.1341C39.7318 66.4435 39.8171 66.8008 39.8171 67.2061C39.8171 67.6541 39.6838 68.0648 39.4171 68.4381C39.1611 68.8115 38.7771 69.1101 38.2651 69.3341C37.7638 69.5475 37.1398 69.6541 36.3931 69.6541ZM44.5494 69.6541C43.952 69.6541 43.44 69.5795 43.0134 69.4301C42.5867 69.2808 42.24 69.0995 41.9734 68.8861C41.7067 68.6728 41.504 68.4595 41.3654 68.2461C41.2374 68.0328 41.168 67.8621 41.1574 67.7341C41.1467 67.6168 41.184 67.5261 41.2694 67.4621C41.3547 67.3981 41.44 67.3661 41.5254 67.3661H42.2294C42.2934 67.3661 42.3414 67.3768 42.3734 67.3981C42.416 67.4088 42.4694 67.4515 42.5334 67.5261C42.672 67.6755 42.8267 67.8248 42.9974 67.9741C43.168 68.1235 43.376 68.2461 43.6214 68.3421C43.8774 68.4381 44.192 68.4861 44.5654 68.4861C45.1094 68.4861 45.5574 68.3848 45.9094 68.1821C46.2614 67.9688 46.4374 67.6595 46.4374 67.2541C46.4374 66.9875 46.3627 66.7741 46.2134 66.6141C46.0747 66.4541 45.8187 66.3101 45.4454 66.1821C45.0827 66.0541 44.5814 65.9208 43.9414 65.7821C43.3014 65.6328 42.7947 65.4515 42.4214 65.2381C42.048 65.0141 41.7814 64.7528 41.6214 64.4541C41.4614 64.1448 41.3814 63.7981 41.3814 63.4141C41.3814 63.0195 41.4987 62.6408 41.7334 62.2781C41.968 61.9048 42.3094 61.6008 42.7574 61.3661C43.216 61.1315 43.7867 61.0141 44.4694 61.0141C45.024 61.0141 45.4987 61.0835 45.8934 61.2221C46.288 61.3608 46.6134 61.5368 46.8694 61.7501C47.1254 61.9528 47.3174 62.1555 47.4454 62.3581C47.5734 62.5608 47.6427 62.7315 47.6534 62.8701C47.664 62.9768 47.632 63.0675 47.5574 63.1421C47.4827 63.2061 47.3974 63.2381 47.3014 63.2381H46.6294C46.5547 63.2381 46.4907 63.2221 46.4374 63.1901C46.3947 63.1581 46.352 63.1208 46.3094 63.0781C46.2027 62.9395 46.0747 62.8008 45.9254 62.6621C45.7867 62.5235 45.6 62.4115 45.3654 62.3261C45.1414 62.2301 44.8427 62.1821 44.4694 62.1821C43.936 62.1821 43.536 62.2941 43.2694 62.5181C43.0027 62.7421 42.8694 63.0248 42.8694 63.3661C42.8694 63.5688 42.928 63.7501 43.0454 63.9101C43.1627 64.0701 43.3867 64.2141 43.7174 64.3421C44.048 64.4701 44.5387 64.6088 45.1894 64.7581C45.8934 64.8968 46.448 65.0835 46.8534 65.3181C47.2587 65.5528 47.5467 65.8248 47.7174 66.1341C47.888 66.4435 47.9734 66.8008 47.9734 67.2061C47.9734 67.6541 47.84 68.0648 47.5734 68.4381C47.3174 68.8115 46.9334 69.1101 46.4214 69.3341C45.92 69.5475 45.296 69.6541 44.5494 69.6541ZM52.1456 69.6541C51.6123 69.6541 51.1269 69.5475 50.6896 69.3341C50.2523 69.1208 49.9003 68.8328 49.6336 68.4701C49.3669 68.1075 49.2336 67.6968 49.2336 67.2381C49.2336 66.5021 49.5323 65.9155 50.1296 65.4781C50.7269 65.0408 51.5056 64.7528 52.4656 64.6141L54.8496 64.2781V63.8141C54.8496 63.3021 54.7003 62.9021 54.4016 62.6141C54.1136 62.3261 53.6389 62.1821 52.9776 62.1821C52.4976 62.1821 52.1083 62.2781 51.8096 62.4701C51.5216 62.6621 51.3189 62.9075 51.2016 63.2061C51.1376 63.3661 51.0256 63.4461 50.8656 63.4461H50.1456C50.0283 63.4461 49.9376 63.4141 49.8736 63.3501C49.8203 63.2755 49.7936 63.1901 49.7936 63.0941C49.7936 62.9341 49.8523 62.7368 49.9696 62.5021C50.0976 62.2675 50.2896 62.0381 50.5456 61.8141C50.8016 61.5901 51.1269 61.4035 51.5216 61.2541C51.9269 61.0941 52.4176 61.0141 52.9936 61.0141C53.6336 61.0141 54.1723 61.0995 54.6096 61.2701C55.0469 61.4301 55.3883 61.6488 55.6336 61.9261C55.8896 62.2035 56.0709 62.5181 56.1776 62.8701C56.2949 63.2221 56.3536 63.5795 56.3536 63.9421V69.1261C56.3536 69.2328 56.3163 69.3235 56.2416 69.3981C56.1776 69.4621 56.0923 69.4941 55.9856 69.4941H55.2496C55.1323 69.4941 55.0416 69.4621 54.9776 69.3981C54.9136 69.3235 54.8816 69.2328 54.8816 69.1261V68.4381C54.7429 68.6301 54.5563 68.8221 54.3216 69.0141C54.0869 69.1955 53.7936 69.3501 53.4416 69.4781C53.0896 69.5955 52.6576 69.6541 52.1456 69.6541ZM52.4816 68.4541C52.9189 68.4541 53.3189 68.3635 53.6816 68.1821C54.0443 67.9901 54.3269 67.6968 54.5296 67.3021C54.7429 66.9075 54.8496 66.4115 54.8496 65.8141V65.3661L52.9936 65.6381C52.2363 65.7448 51.6656 65.9261 51.2816 66.1821C50.8976 66.4275 50.7056 66.7421 50.7056 67.1261C50.7056 67.4248 50.7909 67.6755 50.9616 67.8781C51.1429 68.0701 51.3669 68.2141 51.6336 68.3101C51.9109 68.4061 52.1936 68.4541 52.4816 68.4541ZM62.0617 73.0141C61.3364 73.0141 60.7391 72.9181 60.2697 72.7261C59.8111 72.5341 59.4484 72.2995 59.1817 72.0221C58.9257 71.7555 58.7391 71.4835 58.6217 71.2061C58.5151 70.9395 58.4564 70.7261 58.4457 70.5661C58.4351 70.4595 58.4671 70.3688 58.5417 70.2941C58.6271 70.2195 58.7177 70.1821 58.8137 70.1821H59.5817C59.6777 70.1821 59.7577 70.2035 59.8217 70.2461C59.8857 70.2888 59.9391 70.3795 59.9817 70.5181C60.0457 70.6781 60.1417 70.8541 60.2697 71.0461C60.3977 71.2488 60.5951 71.4195 60.8617 71.5581C61.1284 71.7075 61.5017 71.7821 61.9817 71.7821C62.4831 71.7821 62.9044 71.7128 63.2457 71.5741C63.5871 71.4461 63.8431 71.2115 64.0137 70.8701C64.1951 70.5395 64.2857 70.0808 64.2857 69.4941V68.4061C64.0297 68.7368 63.6937 69.0141 63.2777 69.2381C62.8617 69.4515 62.3391 69.5581 61.7097 69.5581C61.1124 69.5581 60.6004 69.4568 60.1737 69.2541C59.7471 69.0408 59.3951 68.7581 59.1177 68.4061C58.8511 68.0435 58.6484 67.6328 58.5097 67.1741C58.3817 66.7155 58.3071 66.2355 58.2857 65.7341C58.2751 65.4355 58.2751 65.1421 58.2857 64.8541C58.3071 64.3528 58.3817 63.8728 58.5097 63.4141C58.6484 62.9555 58.8511 62.5448 59.1177 62.1821C59.3951 61.8195 59.7471 61.5368 60.1737 61.3341C60.6004 61.1208 61.1124 61.0141 61.7097 61.0141C62.3497 61.0141 62.8777 61.1368 63.2937 61.3821C63.7204 61.6168 64.0671 61.9048 64.3337 62.2461V61.5581C64.3337 61.4515 64.3657 61.3608 64.4297 61.2861C64.5044 61.2115 64.5951 61.1741 64.7017 61.1741H65.4377C65.5444 61.1741 65.6351 61.2115 65.7097 61.2861C65.7844 61.3608 65.8217 61.4515 65.8217 61.5581V69.3181C65.8217 70.0328 65.6991 70.6675 65.4537 71.2221C65.2191 71.7768 64.8244 72.2141 64.2697 72.5341C63.7257 72.8541 62.9897 73.0141 62.0617 73.0141ZM62.0297 68.2781C62.5631 68.2781 62.9897 68.1555 63.3097 67.9101C63.6404 67.6648 63.8804 67.3555 64.0297 66.9821C64.1897 66.6088 64.2751 66.2301 64.2857 65.8461C64.2964 65.6968 64.3017 65.5155 64.3017 65.3021C64.3017 65.0781 64.2964 64.8915 64.2857 64.7421C64.2751 64.3581 64.1897 63.9795 64.0297 63.6061C63.8804 63.2328 63.6404 62.9235 63.3097 62.6781C62.9897 62.4328 62.5631 62.3101 62.0297 62.3101C61.4964 62.3101 61.0697 62.4328 60.7497 62.6781C60.4297 62.9128 60.2004 63.2275 60.0617 63.6221C59.9231 64.0061 59.8431 64.4221 59.8217 64.8701C59.8111 65.1475 59.8111 65.4301 59.8217 65.7181C59.8431 66.1661 59.9231 66.5875 60.0617 66.9821C60.2004 67.3661 60.4297 67.6808 60.7497 67.9261C61.0697 68.1608 61.4964 68.2781 62.0297 68.2781ZM71.5126 69.6541C70.4139 69.6541 69.5393 69.3181 68.8886 68.6461C68.2379 67.9635 67.8806 67.0355 67.8166 65.8621C67.8059 65.7235 67.8006 65.5475 67.8006 65.3341C67.8006 65.1101 67.8059 64.9288 67.8166 64.7901C67.8593 64.0328 68.0353 63.3715 68.3446 62.8061C68.6539 62.2301 69.0753 61.7875 69.6086 61.4781C70.1526 61.1688 70.7873 61.0141 71.5126 61.0141C72.3233 61.0141 73.0006 61.1848 73.5446 61.5261C74.0993 61.8675 74.5206 62.3528 74.8086 62.9821C75.0966 63.6115 75.2406 64.3475 75.2406 65.1901V65.4621C75.2406 65.5795 75.2033 65.6701 75.1286 65.7341C75.0646 65.7981 74.9793 65.8301 74.8726 65.8301H69.3366C69.3366 65.8408 69.3366 65.8621 69.3366 65.8941C69.3366 65.9261 69.3366 65.9528 69.3366 65.9741C69.3579 66.4115 69.4539 66.8221 69.6246 67.2061C69.7953 67.5795 70.0406 67.8835 70.3606 68.1181C70.6806 68.3528 71.0646 68.4701 71.5126 68.4701C71.8966 68.4701 72.2166 68.4115 72.4726 68.2941C72.7286 68.1768 72.9366 68.0488 73.0966 67.9101C73.2566 67.7608 73.3633 67.6488 73.4166 67.5741C73.5126 67.4355 73.5873 67.3555 73.6406 67.3341C73.6939 67.3021 73.7793 67.2861 73.8966 67.2861H74.6646C74.7713 67.2861 74.8566 67.3181 74.9206 67.3821C74.9953 67.4355 75.0273 67.5155 75.0166 67.6221C75.0059 67.7821 74.9206 67.9795 74.7606 68.2141C74.6006 68.4381 74.3713 68.6621 74.0726 68.8861C73.7739 69.1101 73.4113 69.2968 72.9846 69.4461C72.5579 69.5848 72.0673 69.6541 71.5126 69.6541ZM69.3366 64.7261H73.7206V64.6781C73.7206 64.1981 73.6299 63.7715 73.4486 63.3981C73.2779 63.0248 73.0273 62.7315 72.6966 62.5181C72.3659 62.2941 71.9713 62.1821 71.5126 62.1821C71.0539 62.1821 70.6593 62.2941 70.3286 62.5181C70.0086 62.7315 69.7633 63.0248 69.5926 63.3981C69.4219 63.7715 69.3366 64.1981 69.3366 64.6781V64.7261ZM80.0337 69.6541C79.4364 69.6541 78.9244 69.5795 78.4977 69.4301C78.0711 69.2808 77.7244 69.0995 77.4577 68.8861C77.1911 68.6728 76.9884 68.4595 76.8497 68.2461C76.7217 68.0328 76.6524 67.8621 76.6417 67.7341C76.6311 67.6168 76.6684 67.5261 76.7537 67.4621C76.8391 67.3981 76.9244 67.3661 77.0097 67.3661H77.7137C77.7777 67.3661 77.8257 67.3768 77.8577 67.3981C77.9004 67.4088 77.9537 67.4515 78.0177 67.5261C78.1564 67.6755 78.3111 67.8248 78.4817 67.9741C78.6524 68.1235 78.8604 68.2461 79.1057 68.3421C79.3617 68.4381 79.6764 68.4861 80.0497 68.4861C80.5937 68.4861 81.0417 68.3848 81.3937 68.1821C81.7457 67.9688 81.9217 67.6595 81.9217 67.2541C81.9217 66.9875 81.8471 66.7741 81.6977 66.6141C81.5591 66.4541 81.3031 66.3101 80.9297 66.1821C80.5671 66.0541 80.0657 65.9208 79.4257 65.7821C78.7857 65.6328 78.2791 65.4515 77.9057 65.2381C77.5324 65.0141 77.2657 64.7528 77.1057 64.4541C76.9457 64.1448 76.8657 63.7981 76.8657 63.4141C76.8657 63.0195 76.9831 62.6408 77.2177 62.2781C77.4524 61.9048 77.7937 61.6008 78.2417 61.3661C78.7004 61.1315 79.2711 61.0141 79.9537 61.0141C80.5084 61.0141 80.9831 61.0835 81.3777 61.2221C81.7724 61.3608 82.0977 61.5368 82.3537 61.7501C82.6097 61.9528 82.8017 62.1555 82.9297 62.3581C83.0577 62.5608 83.1271 62.7315 83.1377 62.8701C83.1484 62.9768 83.1164 63.0675 83.0417 63.1421C82.9671 63.2061 82.8817 63.2381 82.7857 63.2381H82.1137C82.0391 63.2381 81.9751 63.2221 81.9217 63.1901C81.8791 63.1581 81.8364 63.1208 81.7937 63.0781C81.6871 62.9395 81.5591 62.8008 81.4097 62.6621C81.2711 62.5235 81.0844 62.4115 80.8497 62.3261C80.6257 62.2301 80.3271 62.1821 79.9537 62.1821C79.4204 62.1821 79.0204 62.2941 78.7537 62.5181C78.4871 62.7421 78.3537 63.0248 78.3537 63.3661C78.3537 63.5688 78.4124 63.7501 78.5297 63.9101C78.6471 64.0701 78.8711 64.2141 79.2017 64.3421C79.5324 64.4701 80.0231 64.6088 80.6737 64.7581C81.3777 64.8968 81.9324 65.0835 82.3377 65.3181C82.7431 65.5528 83.0311 65.8248 83.2017 66.1341C83.3724 66.4435 83.4577 66.8008 83.4577 67.2061C83.4577 67.6541 83.3244 68.0648 83.0577 68.4381C82.8017 68.8115 82.4177 69.1101 81.9057 69.3341C81.4044 69.5475 80.7804 69.6541 80.0337 69.6541Z" fill="white"/>
<g filter="url(#filter0_f_2_26593)">
<path fill-rule="evenodd" clip-rule="evenodd" d="M48.3471 15.5411C45.6759 15.3737 43.0354 16.187 40.9213 17.8285C38.8073 19.47 37.3651 21.8266 36.8655 24.4561C36.3659 27.0855 36.8433 29.8069 38.2079 32.1094C38.3477 32.3451 38.3845 32.6279 38.3099 32.8917L37.1387 37.0283L41.2753 35.8571L41.5477 36.8192L42.0576 35.959C44.36 37.3237 47.0814 37.801 49.7109 37.3014C52.3403 36.8018 54.697 35.3596 56.3384 33.2456C57.9799 31.1316 58.7933 28.4911 58.6259 25.8198C58.4585 23.1486 57.3218 20.6303 55.4292 18.7377C53.5367 16.8451 51.0184 15.7085 48.3471 15.5411ZM41.4168 37.8956C44.0553 39.3421 47.1192 39.8296 50.0842 39.2663C53.1922 38.6757 55.9779 36.971 57.9181 34.4722C59.8584 31.9733 60.8198 28.8522 60.622 25.6947C60.4241 22.5372 59.0805 19.5606 56.8434 17.3235C54.6064 15.0864 51.6297 13.7429 48.4722 13.545C45.3147 13.3471 42.1936 14.3085 39.6948 16.2488C37.1959 18.189 35.4912 20.9747 34.9007 24.0828C34.3373 27.0477 34.8249 30.1116 36.2713 32.7501L35.2115 36.4934C35.1128 36.8342 35.1071 37.1952 35.195 37.539C35.2834 37.8844 35.463 38.1997 35.7151 38.4518C35.9672 38.7039 36.2825 38.8836 36.628 38.9719C36.9718 39.0599 37.3328 39.0542 37.6736 38.9554L41.4168 37.8956Z" fill="white"/>
<path d="M47.6729 27.9941C48.5013 27.9941 49.1729 27.3226 49.1729 26.4941C49.1729 25.6657 48.5013 24.9941 47.6729 24.9941C46.8444 24.9941 46.1729 25.6657 46.1729 26.4941C46.1729 27.3226 46.8444 27.9941 47.6729 27.9941Z" fill="white"/>
<path d="M41.6729 27.9941C42.5013 27.9941 43.1729 27.3226 43.1729 26.4941C43.1729 25.6657 42.5013 24.9941 41.6729 24.9941C40.8444 24.9941 40.1729 25.6657 40.1729 26.4941C40.1729 27.3226 40.8444 27.9941 41.6729 27.9941Z" fill="white"/>
<path d="M53.6729 27.9941C54.5013 27.9941 55.1729 27.3226 55.1729 26.4941C55.1729 25.6657 54.5013 24.9941 53.6729 24.9941C52.8444 24.9941 52.1729 25.6657 52.1729 26.4941C52.1729 27.3226 52.8444 27.9941 53.6729 27.9941Z" fill="white"/>
<path d="M12.4329 69.4941C12.3262 69.4941 12.2355 69.4621 12.1609 69.3981C12.0969 69.3235 12.0649 69.2328 12.0649 69.1261V58.6781C12.0649 58.5608 12.0969 58.4701 12.1609 58.4061C12.2355 58.3315 12.3262 58.2941 12.4329 58.2941H13.2329C13.3609 58.2941 13.4569 58.3261 13.5209 58.3901C13.5849 58.4541 13.6222 58.5075 13.6329 58.5501L17.0249 65.0141L20.4329 58.5501C20.4542 58.5075 20.4915 58.4541 20.5449 58.3901C20.6089 58.3261 20.7049 58.2941 20.8329 58.2941H21.6169C21.7342 58.2941 21.8249 58.3315 21.8889 58.4061C21.9635 58.4701 22.0009 58.5608 22.0009 58.6781V69.1261C22.0009 69.2328 21.9635 69.3235 21.8889 69.3981C21.8249 69.4621 21.7342 69.4941 21.6169 69.4941H20.8329C20.7262 69.4941 20.6355 69.4621 20.5609 69.3981C20.4969 69.3235 20.4649 69.2328 20.4649 69.1261V61.2541L17.7929 66.4701C17.7502 66.5768 17.6862 66.6621 17.6009 66.7261C17.5155 66.7795 17.4089 66.8061 17.2809 66.8061H16.7849C16.6462 66.8061 16.5342 66.7795 16.4489 66.7261C16.3742 66.6621 16.3102 66.5768 16.2569 66.4701L13.5849 61.2541V69.1261C13.5849 69.2328 13.5475 69.3235 13.4729 69.3981C13.4089 69.4621 13.3235 69.4941 13.2169 69.4941H12.4329ZM27.872 69.6541C26.7733 69.6541 25.8986 69.3181 25.248 68.6461C24.5973 67.9635 24.24 67.0355 24.176 65.8621C24.1653 65.7235 24.16 65.5475 24.16 65.3341C24.16 65.1101 24.1653 64.9288 24.176 64.7901C24.2186 64.0328 24.3946 63.3715 24.704 62.8061C25.0133 62.2301 25.4346 61.7875 25.968 61.4781C26.512 61.1688 27.1466 61.0141 27.872 61.0141C28.6826 61.0141 29.36 61.1848 29.904 61.5261C30.4586 61.8675 30.88 62.3528 31.168 62.9821C31.456 63.6115 31.6 64.3475 31.6 65.1901V65.4621C31.6 65.5795 31.5626 65.6701 31.488 65.7341C31.424 65.7981 31.3386 65.8301 31.232 65.8301H25.696C25.696 65.8408 25.696 65.8621 25.696 65.8941C25.696 65.9261 25.696 65.9528 25.696 65.9741C25.7173 66.4115 25.8133 66.8221 25.984 67.2061C26.1546 67.5795 26.4 67.8835 26.72 68.1181C27.04 68.3528 27.424 68.4701 27.872 68.4701C28.256 68.4701 28.576 68.4115 28.832 68.2941C29.088 68.1768 29.296 68.0488 29.456 67.9101C29.616 67.7608 29.7226 67.6488 29.776 67.5741C29.872 67.4355 29.9466 67.3555 30 67.3341C30.0533 67.3021 30.1386 67.2861 30.256 67.2861H31.024C31.1306 67.2861 31.216 67.3181 31.28 67.3821C31.3546 67.4355 31.3866 67.5155 31.376 67.6221C31.3653 67.7821 31.28 67.9795 31.12 68.2141C30.96 68.4381 30.7306 68.6621 30.432 68.8861C30.1333 69.1101 29.7706 69.2968 29.344 69.4461C28.9173 69.5848 28.4266 69.6541 27.872 69.6541ZM25.696 64.7261H30.08V64.6781C30.08 64.1981 29.9893 63.7715 29.808 63.3981C29.6373 63.0248 29.3866 62.7315 29.056 62.5181C28.7253 62.2941 28.3306 62.1821 27.872 62.1821C27.4133 62.1821 27.0186 62.2941 26.688 62.5181C26.368 62.7315 26.1226 63.0248 25.952 63.3981C25.7813 63.7715 25.696 64.1981 25.696 64.6781V64.7261ZM36.3931 69.6541C35.7958 69.6541 35.2838 69.5795 34.8571 69.4301C34.4304 69.2808 34.0838 69.0995 33.8171 68.8861C33.5504 68.6728 33.3478 68.4595 33.2091 68.2461C33.0811 68.0328 33.0118 67.8621 33.0011 67.7341C32.9904 67.6168 33.0278 67.5261 33.1131 67.4621C33.1984 67.3981 33.2838 67.3661 33.3691 67.3661H34.0731C34.1371 67.3661 34.1851 67.3768 34.2171 67.3981C34.2598 67.4088 34.3131 67.4515 34.3771 67.5261C34.5158 67.6755 34.6704 67.8248 34.8411 67.9741C35.0118 68.1235 35.2198 68.2461 35.4651 68.3421C35.7211 68.4381 36.0358 68.4861 36.4091 68.4861C36.9531 68.4861 37.4011 68.3848 37.7531 68.1821C38.1051 67.9688 38.2811 67.6595 38.2811 67.2541C38.2811 66.9875 38.2064 66.7741 38.0571 66.6141C37.9184 66.4541 37.6624 66.3101 37.2891 66.1821C36.9264 66.0541 36.4251 65.9208 35.7851 65.7821C35.1451 65.6328 34.6384 65.4515 34.2651 65.2381C33.8918 65.0141 33.6251 64.7528 33.4651 64.4541C33.3051 64.1448 33.2251 63.7981 33.2251 63.4141C33.2251 63.0195 33.3424 62.6408 33.5771 62.2781C33.8118 61.9048 34.1531 61.6008 34.6011 61.3661C35.0598 61.1315 35.6304 61.0141 36.3131 61.0141C36.8678 61.0141 37.3424 61.0835 37.7371 61.2221C38.1318 61.3608 38.4571 61.5368 38.7131 61.7501C38.9691 61.9528 39.1611 62.1555 39.2891 62.3581C39.4171 62.5608 39.4864 62.7315 39.4971 62.8701C39.5078 62.9768 39.4758 63.0675 39.4011 63.1421C39.3264 63.2061 39.2411 63.2381 39.1451 63.2381H38.4731C38.3984 63.2381 38.3344 63.2221 38.2811 63.1901C38.2384 63.1581 38.1958 63.1208 38.1531 63.0781C38.0464 62.9395 37.9184 62.8008 37.7691 62.6621C37.6304 62.5235 37.4438 62.4115 37.2091 62.3261C36.9851 62.2301 36.6864 62.1821 36.3131 62.1821C35.7798 62.1821 35.3798 62.2941 35.1131 62.5181C34.8464 62.7421 34.7131 63.0248 34.7131 63.3661C34.7131 63.5688 34.7718 63.7501 34.8891 63.9101C35.0064 64.0701 35.2304 64.2141 35.5611 64.3421C35.8918 64.4701 36.3824 64.6088 37.0331 64.7581C37.7371 64.8968 38.2918 65.0835 38.6971 65.3181C39.1024 65.5528 39.3904 65.8248 39.5611 66.1341C39.7318 66.4435 39.8171 66.8008 39.8171 67.2061C39.8171 67.6541 39.6838 68.0648 39.4171 68.4381C39.1611 68.8115 38.7771 69.1101 38.2651 69.3341C37.7638 69.5475 37.1398 69.6541 36.3931 69.6541ZM44.5494 69.6541C43.952 69.6541 43.44 69.5795 43.0134 69.4301C42.5867 69.2808 42.24 69.0995 41.9734 68.8861C41.7067 68.6728 41.504 68.4595 41.3654 68.2461C41.2374 68.0328 41.168 67.8621 41.1574 67.7341C41.1467 67.6168 41.184 67.5261 41.2694 67.4621C41.3547 67.3981 41.44 67.3661 41.5254 67.3661H42.2294C42.2934 67.3661 42.3414 67.3768 42.3734 67.3981C42.416 67.4088 42.4694 67.4515 42.5334 67.5261C42.672 67.6755 42.8267 67.8248 42.9974 67.9741C43.168 68.1235 43.376 68.2461 43.6214 68.3421C43.8774 68.4381 44.192 68.4861 44.5654 68.4861C45.1094 68.4861 45.5574 68.3848 45.9094 68.1821C46.2614 67.9688 46.4374 67.6595 46.4374 67.2541C46.4374 66.9875 46.3627 66.7741 46.2134 66.6141C46.0747 66.4541 45.8187 66.3101 45.4454 66.1821C45.0827 66.0541 44.5814 65.9208 43.9414 65.7821C43.3014 65.6328 42.7947 65.4515 42.4214 65.2381C42.048 65.0141 41.7814 64.7528 41.6214 64.4541C41.4614 64.1448 41.3814 63.7981 41.3814 63.4141C41.3814 63.0195 41.4987 62.6408 41.7334 62.2781C41.968 61.9048 42.3094 61.6008 42.7574 61.3661C43.216 61.1315 43.7867 61.0141 44.4694 61.0141C45.024 61.0141 45.4987 61.0835 45.8934 61.2221C46.288 61.3608 46.6134 61.5368 46.8694 61.7501C47.1254 61.9528 47.3174 62.1555 47.4454 62.3581C47.5734 62.5608 47.6427 62.7315 47.6534 62.8701C47.664 62.9768 47.632 63.0675 47.5574 63.1421C47.4827 63.2061 47.3974 63.2381 47.3014 63.2381H46.6294C46.5547 63.2381 46.4907 63.2221 46.4374 63.1901C46.3947 63.1581 46.352 63.1208 46.3094 63.0781C46.2027 62.9395 46.0747 62.8008 45.9254 62.6621C45.7867 62.5235 45.6 62.4115 45.3654 62.3261C45.1414 62.2301 44.8427 62.1821 44.4694 62.1821C43.936 62.1821 43.536 62.2941 43.2694 62.5181C43.0027 62.7421 42.8694 63.0248 42.8694 63.3661C42.8694 63.5688 42.928 63.7501 43.0454 63.9101C43.1627 64.0701 43.3867 64.2141 43.7174 64.3421C44.048 64.4701 44.5387 64.6088 45.1894 64.7581C45.8934 64.8968 46.448 65.0835 46.8534 65.3181C47.2587 65.5528 47.5467 65.8248 47.7174 66.1341C47.888 66.4435 47.9734 66.8008 47.9734 67.2061C47.9734 67.6541 47.84 68.0648 47.5734 68.4381C47.3174 68.8115 46.9334 69.1101 46.4214 69.3341C45.92 69.5475 45.296 69.6541 44.5494 69.6541ZM52.1456 69.6541C51.6123 69.6541 51.1269 69.5475 50.6896 69.3341C50.2523 69.1208 49.9003 68.8328 49.6336 68.4701C49.3669 68.1075 49.2336 67.6968 49.2336 67.2381C49.2336 66.5021 49.5323 65.9155 50.1296 65.4781C50.7269 65.0408 51.5056 64.7528 52.4656 64.6141L54.8496 64.2781V63.8141C54.8496 63.3021 54.7003 62.9021 54.4016 62.6141C54.1136 62.3261 53.6389 62.1821 52.9776 62.1821C52.4976 62.1821 52.1083 62.2781 51.8096 62.4701C51.5216 62.6621 51.3189 62.9075 51.2016 63.2061C51.1376 63.3661 51.0256 63.4461 50.8656 63.4461H50.1456C50.0283 63.4461 49.9376 63.4141 49.8736 63.3501C49.8203 63.2755 49.7936 63.1901 49.7936 63.0941C49.7936 62.9341 49.8523 62.7368 49.9696 62.5021C50.0976 62.2675 50.2896 62.0381 50.5456 61.8141C50.8016 61.5901 51.1269 61.4035 51.5216 61.2541C51.9269 61.0941 52.4176 61.0141 52.9936 61.0141C53.6336 61.0141 54.1723 61.0995 54.6096 61.2701C55.0469 61.4301 55.3883 61.6488 55.6336 61.9261C55.8896 62.2035 56.0709 62.5181 56.1776 62.8701C56.2949 63.2221 56.3536 63.5795 56.3536 63.9421V69.1261C56.3536 69.2328 56.3163 69.3235 56.2416 69.3981C56.1776 69.4621 56.0923 69.4941 55.9856 69.4941H55.2496C55.1323 69.4941 55.0416 69.4621 54.9776 69.3981C54.9136 69.3235 54.8816 69.2328 54.8816 69.1261V68.4381C54.7429 68.6301 54.5563 68.8221 54.3216 69.0141C54.0869 69.1955 53.7936 69.3501 53.4416 69.4781C53.0896 69.5955 52.6576 69.6541 52.1456 69.6541ZM52.4816 68.4541C52.9189 68.4541 53.3189 68.3635 53.6816 68.1821C54.0443 67.9901 54.3269 67.6968 54.5296 67.3021C54.7429 66.9075 54.8496 66.4115 54.8496 65.8141V65.3661L52.9936 65.6381C52.2363 65.7448 51.6656 65.9261 51.2816 66.1821C50.8976 66.4275 50.7056 66.7421 50.7056 67.1261C50.7056 67.4248 50.7909 67.6755 50.9616 67.8781C51.1429 68.0701 51.3669 68.2141 51.6336 68.3101C51.9109 68.4061 52.1936 68.4541 52.4816 68.4541ZM62.0617 73.0141C61.3364 73.0141 60.7391 72.9181 60.2697 72.7261C59.8111 72.5341 59.4484 72.2995 59.1817 72.0221C58.9257 71.7555 58.7391 71.4835 58.6217 71.2061C58.5151 70.9395 58.4564 70.7261 58.4457 70.5661C58.4351 70.4595 58.4671 70.3688 58.5417 70.2941C58.6271 70.2195 58.7177 70.1821 58.8137 70.1821H59.5817C59.6777 70.1821 59.7577 70.2035 59.8217 70.2461C59.8857 70.2888 59.9391 70.3795 59.9817 70.5181C60.0457 70.6781 60.1417 70.8541 60.2697 71.0461C60.3977 71.2488 60.5951 71.4195 60.8617 71.5581C61.1284 71.7075 61.5017 71.7821 61.9817 71.7821C62.4831 71.7821 62.9044 71.7128 63.2457 71.5741C63.5871 71.4461 63.8431 71.2115 64.0137 70.8701C64.1951 70.5395 64.2857 70.0808 64.2857 69.4941V68.4061C64.0297 68.7368 63.6937 69.0141 63.2777 69.2381C62.8617 69.4515 62.3391 69.5581 61.7097 69.5581C61.1124 69.5581 60.6004 69.4568 60.1737 69.2541C59.7471 69.0408 59.3951 68.7581 59.1177 68.4061C58.8511 68.0435 58.6484 67.6328 58.5097 67.1741C58.3817 66.7155 58.3071 66.2355 58.2857 65.7341C58.2751 65.4355 58.2751 65.1421 58.2857 64.8541C58.3071 64.3528 58.3817 63.8728 58.5097 63.4141C58.6484 62.9555 58.8511 62.5448 59.1177 62.1821C59.3951 61.8195 59.7471 61.5368 60.1737 61.3341C60.6004 61.1208 61.1124 61.0141 61.7097 61.0141C62.3497 61.0141 62.8777 61.1368 63.2937 61.3821C63.7204 61.6168 64.0671 61.9048 64.3337 62.2461V61.5581C64.3337 61.4515 64.3657 61.3608 64.4297 61.2861C64.5044 61.2115 64.5951 61.1741 64.7017 61.1741H65.4377C65.5444 61.1741 65.6351 61.2115 65.7097 61.2861C65.7844 61.3608 65.8217 61.4515 65.8217 61.5581V69.3181C65.8217 70.0328 65.6991 70.6675 65.4537 71.2221C65.2191 71.7768 64.8244 72.2141 64.2697 72.5341C63.7257 72.8541 62.9897 73.0141 62.0617 73.0141ZM62.0297 68.2781C62.5631 68.2781 62.9897 68.1555 63.3097 67.9101C63.6404 67.6648 63.8804 67.3555 64.0297 66.9821C64.1897 66.6088 64.2751 66.2301 64.2857 65.8461C64.2964 65.6968 64.3017 65.5155 64.3017 65.3021C64.3017 65.0781 64.2964 64.8915 64.2857 64.7421C64.2751 64.3581 64.1897 63.9795 64.0297 63.6061C63.8804 63.2328 63.6404 62.9235 63.3097 62.6781C62.9897 62.4328 62.5631 62.3101 62.0297 62.3101C61.4964 62.3101 61.0697 62.4328 60.7497 62.6781C60.4297 62.9128 60.2004 63.2275 60.0617 63.6221C59.9231 64.0061 59.8431 64.4221 59.8217 64.8701C59.8111 65.1475 59.8111 65.4301 59.8217 65.7181C59.8431 66.1661 59.9231 66.5875 60.0617 66.9821C60.2004 67.3661 60.4297 67.6808 60.7497 67.9261C61.0697 68.1608 61.4964 68.2781 62.0297 68.2781ZM71.5126 69.6541C70.4139 69.6541 69.5393 69.3181 68.8886 68.6461C68.2379 67.9635 67.8806 67.0355 67.8166 65.8621C67.8059 65.7235 67.8006 65.5475 67.8006 65.3341C67.8006 65.1101 67.8059 64.9288 67.8166 64.7901C67.8593 64.0328 68.0353 63.3715 68.3446 62.8061C68.6539 62.2301 69.0753 61.7875 69.6086 61.4781C70.1526 61.1688 70.7873 61.0141 71.5126 61.0141C72.3233 61.0141 73.0006 61.1848 73.5446 61.5261C74.0993 61.8675 74.5206 62.3528 74.8086 62.9821C75.0966 63.6115 75.2406 64.3475 75.2406 65.1901V65.4621C75.2406 65.5795 75.2033 65.6701 75.1286 65.7341C75.0646 65.7981 74.9793 65.8301 74.8726 65.8301H69.3366C69.3366 65.8408 69.3366 65.8621 69.3366 65.8941C69.3366 65.9261 69.3366 65.9528 69.3366 65.9741C69.3579 66.4115 69.4539 66.8221 69.6246 67.2061C69.7953 67.5795 70.0406 67.8835 70.3606 68.1181C70.6806 68.3528 71.0646 68.4701 71.5126 68.4701C71.8966 68.4701 72.2166 68.4115 72.4726 68.2941C72.7286 68.1768 72.9366 68.0488 73.0966 67.9101C73.2566 67.7608 73.3633 67.6488 73.4166 67.5741C73.5126 67.4355 73.5873 67.3555 73.6406 67.3341C73.6939 67.3021 73.7793 67.2861 73.8966 67.2861H74.6646C74.7713 67.2861 74.8566 67.3181 74.9206 67.3821C74.9953 67.4355 75.0273 67.5155 75.0166 67.6221C75.0059 67.7821 74.9206 67.9795 74.7606 68.2141C74.6006 68.4381 74.3713 68.6621 74.0726 68.8861C73.7739 69.1101 73.4113 69.2968 72.9846 69.4461C72.5579 69.5848 72.0673 69.6541 71.5126 69.6541ZM69.3366 64.7261H73.7206V64.6781C73.7206 64.1981 73.6299 63.7715 73.4486 63.3981C73.2779 63.0248 73.0273 62.7315 72.6966 62.5181C72.3659 62.2941 71.9713 62.1821 71.5126 62.1821C71.0539 62.1821 70.6593 62.2941 70.3286 62.5181C70.0086 62.7315 69.7633 63.0248 69.5926 63.3981C69.4219 63.7715 69.3366 64.1981 69.3366 64.6781V64.7261ZM80.0337 69.6541C79.4364 69.6541 78.9244 69.5795 78.4977 69.4301C78.0711 69.2808 77.7244 69.0995 77.4577 68.8861C77.1911 68.6728 76.9884 68.4595 76.8497 68.2461C76.7217 68.0328 76.6524 67.8621 76.6417 67.7341C76.6311 67.6168 76.6684 67.5261 76.7537 67.4621C76.8391 67.3981 76.9244 67.3661 77.0097 67.3661H77.7137C77.7777 67.3661 77.8257 67.3768 77.8577 67.3981C77.9004 67.4088 77.9537 67.4515 78.0177 67.5261C78.1564 67.6755 78.3111 67.8248 78.4817 67.9741C78.6524 68.1235 78.8604 68.2461 79.1057 68.3421C79.3617 68.4381 79.6764 68.4861 80.0497 68.4861C80.5937 68.4861 81.0417 68.3848 81.3937 68.1821C81.7457 67.9688 81.9217 67.6595 81.9217 67.2541C81.9217 66.9875 81.8471 66.7741 81.6977 66.6141C81.5591 66.4541 81.3031 66.3101 80.9297 66.1821C80.5671 66.0541 80.0657 65.9208 79.4257 65.7821C78.7857 65.6328 78.2791 65.4515 77.9057 65.2381C77.5324 65.0141 77.2657 64.7528 77.1057 64.4541C76.9457 64.1448 76.8657 63.7981 76.8657 63.4141C76.8657 63.0195 76.9831 62.6408 77.2177 62.2781C77.4524 61.9048 77.7937 61.6008 78.2417 61.3661C78.7004 61.1315 79.2711 61.0141 79.9537 61.0141C80.5084 61.0141 80.9831 61.0835 81.3777 61.2221C81.7724 61.3608 82.0977 61.5368 82.3537 61.7501C82.6097 61.9528 82.8017 62.1555 82.9297 62.3581C83.0577 62.5608 83.1271 62.7315 83.1377 62.8701C83.1484 62.9768 83.1164 63.0675 83.0417 63.1421C82.9671 63.2061 82.8817 63.2381 82.7857 63.2381H82.1137C82.0391 63.2381 81.9751 63.2221 81.9217 63.1901C81.8791 63.1581 81.8364 63.1208 81.7937 63.0781C81.6871 62.9395 81.5591 62.8008 81.4097 62.6621C81.2711 62.5235 81.0844 62.4115 80.8497 62.3261C80.6257 62.2301 80.3271 62.1821 79.9537 62.1821C79.4204 62.1821 79.0204 62.2941 78.7537 62.5181C78.4871 62.7421 78.3537 63.0248 78.3537 63.3661C78.3537 63.5688 78.4124 63.7501 78.5297 63.9101C78.6471 64.0701 78.8711 64.2141 79.2017 64.3421C79.5324 64.4701 80.0231 64.6088 80.6737 64.7581C81.3777 64.8968 81.9324 65.0835 82.3377 65.3181C82.7431 65.5528 83.0311 65.8248 83.2017 66.1341C83.3724 66.4435 83.4577 66.8008 83.4577 67.2061C83.4577 67.6541 83.3244 68.0648 83.0577 68.4381C82.8017 68.8115 82.4177 69.1101 81.9057 69.3341C81.4044 69.5475 80.7804 69.6541 80.0337 69.6541Z" fill="white"/>
</g>
<g filter="url(#filter1_f_2_26593)">
<path fill-rule="evenodd" clip-rule="evenodd" d="M47.6743 15.5411C45.003 15.3737 42.3625 16.187 40.2485 17.8285C38.1345 19.47 36.6923 21.8266 36.1927 24.4561C35.6931 27.0855 36.1704 29.8069 37.5351 32.1094C37.6748 32.3451 37.7117 32.6279 37.637 32.8917L36.4658 37.0283L40.6024 35.8571L40.8749 36.8192L41.3847 35.959C43.6872 37.3237 46.4086 37.801 49.038 37.3014C51.6674 36.8018 54.0241 35.3596 55.6656 33.2456C57.3071 31.1316 58.1204 28.4911 57.953 25.8198C57.7856 23.1486 56.6489 20.6303 54.7564 18.7377C52.8638 16.8451 50.3455 15.7085 47.6743 15.5411ZM40.744 37.8956C43.3825 39.3421 46.4464 39.8296 49.4113 39.2663C52.5194 38.6757 55.305 36.971 57.2453 34.4722C59.1856 31.9733 60.147 28.8522 59.9491 25.6947C59.7512 22.5372 58.4076 19.5606 56.1706 17.3235C53.9335 15.0864 50.9569 13.7429 47.7994 13.545C44.6419 13.3471 41.5208 14.3085 39.0219 16.2488C36.5231 18.189 34.8184 20.9747 34.2278 24.0828C33.6645 27.0477 34.152 30.1116 35.5985 32.7501L34.5386 36.4934C34.4399 36.8342 34.4342 37.1952 34.5221 37.539C34.6105 37.8844 34.7902 38.1997 35.0423 38.4518C35.2944 38.7039 35.6097 38.8836 35.9551 38.9719C36.2989 39.0599 36.6599 39.0542 37.0007 38.9554L40.744 37.8956Z" fill="white"/>
<path d="M47 27.9941C47.8284 27.9941 48.5 27.3226 48.5 26.4941C48.5 25.6657 47.8284 24.9941 47 24.9941C46.1716 24.9941 45.5 25.6657 45.5 26.4941C45.5 27.3226 46.1716 27.9941 47 27.9941Z" fill="white"/>
<path d="M41 27.9941C41.8284 27.9941 42.5 27.3226 42.5 26.4941C42.5 25.6657 41.8284 24.9941 41 24.9941C40.1716 24.9941 39.5 25.6657 39.5 26.4941C39.5 27.3226 40.1716 27.9941 41 27.9941Z" fill="white"/>
<path d="M53 27.9941C53.8284 27.9941 54.5 27.3226 54.5 26.4941C54.5 25.6657 53.8284 24.9941 53 24.9941C52.1716 24.9941 51.5 25.6657 51.5 26.4941C51.5 27.3226 52.1716 27.9941 53 27.9941Z" fill="white"/>
<path d="M11.76 69.4941C11.6533 69.4941 11.5627 69.4621 11.488 69.3981C11.424 69.3235 11.392 69.2328 11.392 69.1261V58.6781C11.392 58.5608 11.424 58.4701 11.488 58.4061C11.5627 58.3315 11.6533 58.2941 11.76 58.2941H12.56C12.688 58.2941 12.784 58.3261 12.848 58.3901C12.912 58.4541 12.9493 58.5075 12.96 58.5501L16.352 65.0141L19.76 58.5501C19.7813 58.5075 19.8187 58.4541 19.872 58.3901C19.936 58.3261 20.032 58.2941 20.16 58.2941H20.944C21.0613 58.2941 21.152 58.3315 21.216 58.4061C21.2907 58.4701 21.328 58.5608 21.328 58.6781V69.1261C21.328 69.2328 21.2907 69.3235 21.216 69.3981C21.152 69.4621 21.0613 69.4941 20.944 69.4941H20.16C20.0533 69.4941 19.9627 69.4621 19.888 69.3981C19.824 69.3235 19.792 69.2328 19.792 69.1261V61.2541L17.12 66.4701C17.0773 66.5768 17.0133 66.6621 16.928 66.7261C16.8427 66.7795 16.736 66.8061 16.608 66.8061H16.112C15.9733 66.8061 15.8613 66.7795 15.776 66.7261C15.7013 66.6621 15.6373 66.5768 15.584 66.4701L12.912 61.2541V69.1261C12.912 69.2328 12.8747 69.3235 12.8 69.3981C12.736 69.4621 12.6507 69.4941 12.544 69.4941H11.76ZM27.1991 69.6541C26.1005 69.6541 25.2258 69.3181 24.5751 68.6461C23.9245 67.9635 23.5671 67.0355 23.5031 65.8621C23.4925 65.7235 23.4871 65.5475 23.4871 65.3341C23.4871 65.1101 23.4925 64.9288 23.5031 64.7901C23.5458 64.0328 23.7218 63.3715 24.0311 62.8061C24.3405 62.2301 24.7618 61.7875 25.2951 61.4781C25.8391 61.1688 26.4738 61.0141 27.1991 61.0141C28.0098 61.0141 28.6871 61.1848 29.2311 61.5261C29.7858 61.8675 30.2071 62.3528 30.4951 62.9821C30.7831 63.6115 30.9271 64.3475 30.9271 65.1901V65.4621C30.9271 65.5795 30.8898 65.6701 30.8151 65.7341C30.7511 65.7981 30.6658 65.8301 30.5591 65.8301H25.0231C25.0231 65.8408 25.0231 65.8621 25.0231 65.8941C25.0231 65.9261 25.0231 65.9528 25.0231 65.9741C25.0445 66.4115 25.1405 66.8221 25.3111 67.2061C25.4818 67.5795 25.7271 67.8835 26.0471 68.1181C26.3671 68.3528 26.7511 68.4701 27.1991 68.4701C27.5831 68.4701 27.9031 68.4115 28.1591 68.2941C28.4151 68.1768 28.6231 68.0488 28.7831 67.9101C28.9431 67.7608 29.0498 67.6488 29.1031 67.5741C29.1991 67.4355 29.2738 67.3555 29.3271 67.3341C29.3805 67.3021 29.4658 67.2861 29.5831 67.2861H30.3511C30.4578 67.2861 30.5431 67.3181 30.6071 67.3821C30.6818 67.4355 30.7138 67.5155 30.7031 67.6221C30.6925 67.7821 30.6071 67.9795 30.4471 68.2141C30.2871 68.4381 30.0578 68.6621 29.7591 68.8861C29.4605 69.1101 29.0978 69.2968 28.6711 69.4461C28.2445 69.5848 27.7538 69.6541 27.1991 69.6541ZM25.0231 64.7261H29.4071V64.6781C29.4071 64.1981 29.3165 63.7715 29.1351 63.3981C28.9645 63.0248 28.7138 62.7315 28.3831 62.5181C28.0525 62.2941 27.6578 62.1821 27.1991 62.1821C26.7405 62.1821 26.3458 62.2941 26.0151 62.5181C25.6951 62.7315 25.4498 63.0248 25.2791 63.3981C25.1085 63.7715 25.0231 64.1981 25.0231 64.6781V64.7261ZM35.7203 69.6541C35.1229 69.6541 34.6109 69.5795 34.1843 69.4301C33.7576 69.2808 33.4109 69.0995 33.1443 68.8861C32.8776 68.6728 32.6749 68.4595 32.5363 68.2461C32.4083 68.0328 32.3389 67.8621 32.3283 67.7341C32.3176 67.6168 32.3549 67.5261 32.4403 67.4621C32.5256 67.3981 32.6109 67.3661 32.6963 67.3661H33.4003C33.4643 67.3661 33.5123 67.3768 33.5443 67.3981C33.5869 67.4088 33.6403 67.4515 33.7043 67.5261C33.8429 67.6755 33.9976 67.8248 34.1683 67.9741C34.3389 68.1235 34.5469 68.2461 34.7923 68.3421C35.0483 68.4381 35.3629 68.4861 35.7363 68.4861C36.2803 68.4861 36.7283 68.3848 37.0803 68.1821C37.4323 67.9688 37.6083 67.6595 37.6083 67.2541C37.6083 66.9875 37.5336 66.7741 37.3843 66.6141C37.2456 66.4541 36.9896 66.3101 36.6163 66.1821C36.2536 66.0541 35.7523 65.9208 35.1123 65.7821C34.4723 65.6328 33.9656 65.4515 33.5923 65.2381C33.2189 65.0141 32.9523 64.7528 32.7923 64.4541C32.6323 64.1448 32.5523 63.7981 32.5523 63.4141C32.5523 63.0195 32.6696 62.6408 32.9043 62.2781C33.1389 61.9048 33.4803 61.6008 33.9283 61.3661C34.3869 61.1315 34.9576 61.0141 35.6403 61.0141C36.1949 61.0141 36.6696 61.0835 37.0643 61.2221C37.4589 61.3608 37.7843 61.5368 38.0403 61.7501C38.2963 61.9528 38.4883 62.1555 38.6163 62.3581C38.7443 62.5608 38.8136 62.7315 38.8243 62.8701C38.8349 62.9768 38.8029 63.0675 38.7283 63.1421C38.6536 63.2061 38.5683 63.2381 38.4723 63.2381H37.8003C37.7256 63.2381 37.6616 63.2221 37.6083 63.1901C37.5656 63.1581 37.5229 63.1208 37.4803 63.0781C37.3736 62.9395 37.2456 62.8008 37.0963 62.6621C36.9576 62.5235 36.7709 62.4115 36.5363 62.3261C36.3123 62.2301 36.0136 62.1821 35.6403 62.1821C35.1069 62.1821 34.7069 62.2941 34.4403 62.5181C34.1736 62.7421 34.0403 63.0248 34.0403 63.3661C34.0403 63.5688 34.0989 63.7501 34.2163 63.9101C34.3336 64.0701 34.5576 64.2141 34.8883 64.3421C35.2189 64.4701 35.7096 64.6088 36.3602 64.7581C37.0643 64.8968 37.6189 65.0835 38.0243 65.3181C38.4296 65.5528 38.7176 65.8248 38.8883 66.1341C39.0589 66.4435 39.1443 66.8008 39.1443 67.2061C39.1443 67.6541 39.0109 68.0648 38.7443 68.4381C38.4883 68.8115 38.1043 69.1101 37.5923 69.3341C37.0909 69.5475 36.4669 69.6541 35.7203 69.6541ZM43.8765 69.6541C43.2792 69.6541 42.7672 69.5795 42.3405 69.4301C41.9138 69.2808 41.5672 69.0995 41.3005 68.8861C41.0338 68.6728 40.8312 68.4595 40.6925 68.2461C40.5645 68.0328 40.4952 67.8621 40.4845 67.7341C40.4738 67.6168 40.5112 67.5261 40.5965 67.4621C40.6818 67.3981 40.7672 67.3661 40.8525 67.3661H41.5565C41.6205 67.3661 41.6685 67.3768 41.7005 67.3981C41.7432 67.4088 41.7965 67.4515 41.8605 67.5261C41.9992 67.6755 42.1538 67.8248 42.3245 67.9741C42.4952 68.1235 42.7032 68.2461 42.9485 68.3421C43.2045 68.4381 43.5192 68.4861 43.8925 68.4861C44.4365 68.4861 44.8845 68.3848 45.2365 68.1821C45.5885 67.9688 45.7645 67.6595 45.7645 67.2541C45.7645 66.9875 45.6898 66.7741 45.5405 66.6141C45.4018 66.4541 45.1458 66.3101 44.7725 66.1821C44.4098 66.0541 43.9085 65.9208 43.2685 65.7821C42.6285 65.6328 42.1218 65.4515 41.7485 65.2381C41.3752 65.0141 41.1085 64.7528 40.9485 64.4541C40.7885 64.1448 40.7085 63.7981 40.7085 63.4141C40.7085 63.0195 40.8258 62.6408 41.0605 62.2781C41.2952 61.9048 41.6365 61.6008 42.0845 61.3661C42.5432 61.1315 43.1138 61.0141 43.7965 61.0141C44.3512 61.0141 44.8258 61.0835 45.2205 61.2221C45.6152 61.3608 45.9405 61.5368 46.1965 61.7501C46.4525 61.9528 46.6445 62.1555 46.7725 62.3581C46.9005 62.5608 46.9698 62.7315 46.9805 62.8701C46.9912 62.9768 46.9592 63.0675 46.8845 63.1421C46.8098 63.2061 46.7245 63.2381 46.6285 63.2381H45.9565C45.8818 63.2381 45.8178 63.2221 45.7645 63.1901C45.7218 63.1581 45.6792 63.1208 45.6365 63.0781C45.5298 62.9395 45.4018 62.8008 45.2525 62.6621C45.1138 62.5235 44.9272 62.4115 44.6925 62.3261C44.4685 62.2301 44.1698 62.1821 43.7965 62.1821C43.2632 62.1821 42.8632 62.2941 42.5965 62.5181C42.3298 62.7421 42.1965 63.0248 42.1965 63.3661C42.1965 63.5688 42.2552 63.7501 42.3725 63.9101C42.4898 64.0701 42.7138 64.2141 43.0445 64.3421C43.3752 64.4701 43.8658 64.6088 44.5165 64.7581C45.2205 64.8968 45.7752 65.0835 46.1805 65.3181C46.5858 65.5528 46.8738 65.8248 47.0445 66.1341C47.2152 66.4435 47.3005 66.8008 47.3005 67.2061C47.3005 67.6541 47.1672 68.0648 46.9005 68.4381C46.6445 68.8115 46.2605 69.1101 45.7485 69.3341C45.2472 69.5475 44.6232 69.6541 43.8765 69.6541ZM51.4728 69.6541C50.9394 69.6541 50.4541 69.5475 50.0168 69.3341C49.5794 69.1208 49.2274 68.8328 48.9608 68.4701C48.6941 68.1075 48.5608 67.6968 48.5608 67.2381C48.5608 66.5021 48.8594 65.9155 49.4568 65.4781C50.0541 65.0408 50.8328 64.7528 51.7928 64.6141L54.1768 64.2781V63.8141C54.1768 63.3021 54.0274 62.9021 53.7288 62.6141C53.4408 62.3261 52.9661 62.1821 52.3048 62.1821C51.8248 62.1821 51.4354 62.2781 51.1368 62.4701C50.8488 62.6621 50.6461 62.9075 50.5288 63.2061C50.4648 63.3661 50.3528 63.4461 50.1928 63.4461H49.4728C49.3554 63.4461 49.2648 63.4141 49.2008 63.3501C49.1474 63.2755 49.1208 63.1901 49.1208 63.0941C49.1208 62.9341 49.1794 62.7368 49.2968 62.5021C49.4248 62.2675 49.6168 62.0381 49.8728 61.8141C50.1288 61.5901 50.4541 61.4035 50.8488 61.2541C51.2541 61.0941 51.7448 61.0141 52.3208 61.0141C52.9608 61.0141 53.4994 61.0995 53.9368 61.2701C54.3741 61.4301 54.7154 61.6488 54.9608 61.9261C55.2168 62.2035 55.3981 62.5181 55.5048 62.8701C55.6221 63.2221 55.6808 63.5795 55.6808 63.9421V69.1261C55.6808 69.2328 55.6434 69.3235 55.5688 69.3981C55.5048 69.4621 55.4194 69.4941 55.3128 69.4941H54.5768C54.4594 69.4941 54.3688 69.4621 54.3048 69.3981C54.2408 69.3235 54.2088 69.2328 54.2088 69.1261V68.4381C54.0701 68.6301 53.8834 68.8221 53.6488 69.0141C53.4141 69.1955 53.1208 69.3501 52.7688 69.4781C52.4168 69.5955 51.9848 69.6541 51.4728 69.6541ZM51.8088 68.4541C52.2461 68.4541 52.6461 68.3635 53.0088 68.1821C53.3714 67.9901 53.6541 67.6968 53.8568 67.3021C54.0701 66.9075 54.1768 66.4115 54.1768 65.8141V65.3661L52.3208 65.6381C51.5634 65.7448 50.9928 65.9261 50.6088 66.1821C50.2248 66.4275 50.0328 66.7421 50.0328 67.1261C50.0328 67.4248 50.1181 67.6755 50.2888 67.8781C50.4701 68.0701 50.6941 68.2141 50.9608 68.3101C51.2381 68.4061 51.5208 68.4541 51.8088 68.4541ZM61.3889 73.0141C60.6635 73.0141 60.0662 72.9181 59.5969 72.7261C59.1382 72.5341 58.7755 72.2995 58.5089 72.0221C58.2529 71.7555 58.0662 71.4835 57.9489 71.2061C57.8422 70.9395 57.7835 70.7261 57.7729 70.5661C57.7622 70.4595 57.7942 70.3688 57.8689 70.2941C57.9542 70.2195 58.0449 70.1821 58.1409 70.1821H58.9089C59.0049 70.1821 59.0849 70.2035 59.1489 70.2461C59.2129 70.2888 59.2662 70.3795 59.3089 70.5181C59.3729 70.6781 59.4689 70.8541 59.5969 71.0461C59.7249 71.2488 59.9222 71.4195 60.1889 71.5581C60.4555 71.7075 60.8289 71.7821 61.3089 71.7821C61.8102 71.7821 62.2315 71.7128 62.5729 71.5741C62.9142 71.4461 63.1702 71.2115 63.3409 70.8701C63.5222 70.5395 63.6129 70.0808 63.6129 69.4941V68.4061C63.3569 68.7368 63.0209 69.0141 62.6049 69.2381C62.1889 69.4515 61.6662 69.5581 61.0369 69.5581C60.4395 69.5581 59.9275 69.4568 59.5009 69.2541C59.0742 69.0408 58.7222 68.7581 58.4449 68.4061C58.1782 68.0435 57.9755 67.6328 57.8369 67.1741C57.7089 66.7155 57.6342 66.2355 57.6129 65.7341C57.6022 65.4355 57.6022 65.1421 57.6129 64.8541C57.6342 64.3528 57.7089 63.8728 57.8369 63.4141C57.9755 62.9555 58.1782 62.5448 58.4449 62.1821C58.7222 61.8195 59.0742 61.5368 59.5009 61.3341C59.9275 61.1208 60.4395 61.0141 61.0369 61.0141C61.6769 61.0141 62.2049 61.1368 62.6209 61.3821C63.0475 61.6168 63.3942 61.9048 63.6609 62.2461V61.5581C63.6609 61.4515 63.6929 61.3608 63.7569 61.2861C63.8315 61.2115 63.9222 61.1741 64.0289 61.1741H64.7649C64.8715 61.1741 64.9622 61.2115 65.0369 61.2861C65.1115 61.3608 65.1489 61.4515 65.1489 61.5581V69.3181C65.1489 70.0328 65.0262 70.6675 64.7809 71.2221C64.5462 71.7768 64.1515 72.2141 63.5969 72.5341C63.0529 72.8541 62.3169 73.0141 61.3889 73.0141ZM61.3569 68.2781C61.8902 68.2781 62.3169 68.1555 62.6369 67.9101C62.9675 67.6648 63.2075 67.3555 63.3569 66.9821C63.5169 66.6088 63.6022 66.2301 63.6129 65.8461C63.6235 65.6968 63.6289 65.5155 63.6289 65.3021C63.6289 65.0781 63.6235 64.8915 63.6129 64.7421C63.6022 64.3581 63.5169 63.9795 63.3569 63.6061C63.2075 63.2328 62.9675 62.9235 62.6369 62.6781C62.3169 62.4328 61.8902 62.3101 61.3569 62.3101C60.8235 62.3101 60.3969 62.4328 60.0769 62.6781C59.7569 62.9128 59.5275 63.2275 59.3889 63.6221C59.2502 64.0061 59.1702 64.4221 59.1489 64.8701C59.1382 65.1475 59.1382 65.4301 59.1489 65.7181C59.1702 66.1661 59.2502 66.5875 59.3889 66.9821C59.5275 67.3661 59.7569 67.6808 60.0769 67.9261C60.3969 68.1608 60.8235 68.2781 61.3569 68.2781ZM70.8398 69.6541C69.7411 69.6541 68.8664 69.3181 68.2158 68.6461C67.5651 67.9635 67.2078 67.0355 67.1438 65.8621C67.1331 65.7235 67.1278 65.5475 67.1278 65.3341C67.1278 65.1101 67.1331 64.9288 67.1438 64.7901C67.1864 64.0328 67.3624 63.3715 67.6718 62.8061C67.9811 62.2301 68.4024 61.7875 68.9358 61.4781C69.4798 61.1688 70.1144 61.0141 70.8398 61.0141C71.6504 61.0141 72.3278 61.1848 72.8718 61.5261C73.4264 61.8675 73.8478 62.3528 74.1358 62.9821C74.4238 63.6115 74.5677 64.3475 74.5677 65.1901V65.4621C74.5677 65.5795 74.5304 65.6701 74.4558 65.7341C74.3918 65.7981 74.3064 65.8301 74.1998 65.8301H68.6638C68.6638 65.8408 68.6638 65.8621 68.6638 65.8941C68.6638 65.9261 68.6638 65.9528 68.6638 65.9741C68.6851 66.4115 68.7811 66.8221 68.9518 67.2061C69.1224 67.5795 69.3678 67.8835 69.6878 68.1181C70.0078 68.3528 70.3918 68.4701 70.8398 68.4701C71.2238 68.4701 71.5438 68.4115 71.7998 68.2941C72.0558 68.1768 72.2638 68.0488 72.4238 67.9101C72.5838 67.7608 72.6904 67.6488 72.7438 67.5741C72.8398 67.4355 72.9144 67.3555 72.9678 67.3341C73.0211 67.3021 73.1064 67.2861 73.2238 67.2861H73.9918C74.0984 67.2861 74.1838 67.3181 74.2478 67.3821C74.3224 67.4355 74.3544 67.5155 74.3438 67.6221C74.3331 67.7821 74.2478 67.9795 74.0878 68.2141C73.9278 68.4381 73.6984 68.6621 73.3998 68.8861C73.1011 69.1101 72.7384 69.2968 72.3118 69.4461C71.8851 69.5848 71.3944 69.6541 70.8398 69.6541ZM68.6638 64.7261H73.0478V64.6781C73.0478 64.1981 72.9571 63.7715 72.7758 63.3981C72.6051 63.0248 72.3544 62.7315 72.0238 62.5181C71.6931 62.2941 71.2984 62.1821 70.8398 62.1821C70.3811 62.1821 69.9864 62.2941 69.6558 62.5181C69.3358 62.7315 69.0904 63.0248 68.9198 63.3981C68.7491 63.7715 68.6638 64.1981 68.6638 64.6781V64.7261ZM79.3609 69.6541C78.7635 69.6541 78.2515 69.5795 77.8249 69.4301C77.3982 69.2808 77.0515 69.0995 76.7849 68.8861C76.5182 68.6728 76.3155 68.4595 76.1769 68.2461C76.0489 68.0328 75.9795 67.8621 75.9689 67.7341C75.9582 67.6168 75.9955 67.5261 76.0809 67.4621C76.1662 67.3981 76.2515 67.3661 76.3369 67.3661H77.0409C77.1049 67.3661 77.1529 67.3768 77.1849 67.3981C77.2275 67.4088 77.2809 67.4515 77.3449 67.5261C77.4835 67.6755 77.6382 67.8248 77.8089 67.9741C77.9795 68.1235 78.1875 68.2461 78.4329 68.3421C78.6889 68.4381 79.0035 68.4861 79.3769 68.4861C79.9209 68.4861 80.3689 68.3848 80.7209 68.1821C81.0729 67.9688 81.2489 67.6595 81.2489 67.2541C81.2489 66.9875 81.1742 66.7741 81.0249 66.6141C80.8862 66.4541 80.6302 66.3101 80.2569 66.1821C79.8942 66.0541 79.3929 65.9208 78.7529 65.7821C78.1129 65.6328 77.6062 65.4515 77.2329 65.2381C76.8595 65.0141 76.5929 64.7528 76.4329 64.4541C76.2729 64.1448 76.1929 63.7981 76.1929 63.4141C76.1929 63.0195 76.3102 62.6408 76.5449 62.2781C76.7795 61.9048 77.1209 61.6008 77.5689 61.3661C78.0275 61.1315 78.5982 61.0141 79.2809 61.0141C79.8355 61.0141 80.3102 61.0835 80.7049 61.2221C81.0995 61.3608 81.4249 61.5368 81.6809 61.7501C81.9369 61.9528 82.1289 62.1555 82.2569 62.3581C82.3849 62.5608 82.4542 62.7315 82.4649 62.8701C82.4755 62.9768 82.4435 63.0675 82.3689 63.1421C82.2942 63.2061 82.2089 63.2381 82.1129 63.2381H81.4409C81.3662 63.2381 81.3022 63.2221 81.2489 63.1901C81.2062 63.1581 81.1635 63.1208 81.1209 63.0781C81.0142 62.9395 80.8862 62.8008 80.7369 62.6621C80.5982 62.5235 80.4115 62.4115 80.1769 62.3261C79.9529 62.2301 79.6542 62.1821 79.2809 62.1821C78.7475 62.1821 78.3475 62.2941 78.0809 62.5181C77.8142 62.7421 77.6809 63.0248 77.6809 63.3661C77.6809 63.5688 77.7395 63.7501 77.8569 63.9101C77.9742 64.0701 78.1982 64.2141 78.5289 64.3421C78.8595 64.4701 79.3502 64.6088 80.0009 64.7581C80.7049 64.8968 81.2595 65.0835 81.6649 65.3181C82.0702 65.5528 82.3582 65.8248 82.5289 66.1341C82.6995 66.4435 82.7849 66.8008 82.7849 67.2061C82.7849 67.6541 82.6515 68.0648 82.3849 68.4381C82.1289 68.8115 81.7449 69.1101 81.2329 69.3341C80.7315 69.5475 80.1075 69.6541 79.3609 69.6541Z" fill="white"/>
</g>
<g filter="url(#filter2_f_2_26593)">
<path fill-rule="evenodd" clip-rule="evenodd" d="M47.6743 15.5411C45.003 15.3737 42.3625 16.187 40.2485 17.8285C38.1345 19.47 36.6923 21.8266 36.1927 24.4561C35.6931 27.0855 36.1704 29.8069 37.5351 32.1094C37.6748 32.3451 37.7117 32.6279 37.637 32.8917L36.4658 37.0283L40.6024 35.8571L40.8749 36.8192L41.3847 35.959C43.6872 37.3237 46.4086 37.801 49.038 37.3014C51.6674 36.8018 54.0241 35.3596 55.6656 33.2456C57.3071 31.1316 58.1204 28.4911 57.953 25.8198C57.7856 23.1486 56.6489 20.6303 54.7564 18.7377C52.8638 16.8451 50.3455 15.7085 47.6743 15.5411ZM40.744 37.8956C43.3825 39.3421 46.4464 39.8296 49.4113 39.2663C52.5194 38.6757 55.305 36.971 57.2453 34.4722C59.1856 31.9733 60.147 28.8522 59.9491 25.6947C59.7512 22.5372 58.4076 19.5606 56.1706 17.3235C53.9335 15.0864 50.9569 13.7429 47.7994 13.545C44.6419 13.3471 41.5208 14.3085 39.0219 16.2488C36.5231 18.189 34.8184 20.9747 34.2278 24.0828C33.6645 27.0477 34.152 30.1116 35.5985 32.7501L34.5386 36.4934C34.4399 36.8342 34.4342 37.1952 34.5221 37.539C34.6105 37.8844 34.7902 38.1997 35.0423 38.4518C35.2944 38.7039 35.6097 38.8836 35.9551 38.9719C36.2989 39.0599 36.6599 39.0542 37.0007 38.9554L40.744 37.8956Z" fill="white"/>
<path d="M47 27.9941C47.8284 27.9941 48.5 27.3226 48.5 26.4941C48.5 25.6657 47.8284 24.9941 47 24.9941C46.1716 24.9941 45.5 25.6657 45.5 26.4941C45.5 27.3226 46.1716 27.9941 47 27.9941Z" fill="white"/>
<path d="M41 27.9941C41.8284 27.9941 42.5 27.3226 42.5 26.4941C42.5 25.6657 41.8284 24.9941 41 24.9941C40.1716 24.9941 39.5 25.6657 39.5 26.4941C39.5 27.3226 40.1716 27.9941 41 27.9941Z" fill="white"/>
<path d="M53 27.9941C53.8284 27.9941 54.5 27.3226 54.5 26.4941C54.5 25.6657 53.8284 24.9941 53 24.9941C52.1716 24.9941 51.5 25.6657 51.5 26.4941C51.5 27.3226 52.1716 27.9941 53 27.9941Z" fill="white"/>
<path d="M11.76 69.4941C11.6533 69.4941 11.5627 69.4621 11.488 69.3981C11.424 69.3235 11.392 69.2328 11.392 69.1261V58.6781C11.392 58.5608 11.424 58.4701 11.488 58.4061C11.5627 58.3315 11.6533 58.2941 11.76 58.2941H12.56C12.688 58.2941 12.784 58.3261 12.848 58.3901C12.912 58.4541 12.9493 58.5075 12.96 58.5501L16.352 65.0141L19.76 58.5501C19.7813 58.5075 19.8187 58.4541 19.872 58.3901C19.936 58.3261 20.032 58.2941 20.16 58.2941H20.944C21.0613 58.2941 21.152 58.3315 21.216 58.4061C21.2907 58.4701 21.328 58.5608 21.328 58.6781V69.1261C21.328 69.2328 21.2907 69.3235 21.216 69.3981C21.152 69.4621 21.0613 69.4941 20.944 69.4941H20.16C20.0533 69.4941 19.9627 69.4621 19.888 69.3981C19.824 69.3235 19.792 69.2328 19.792 69.1261V61.2541L17.12 66.4701C17.0773 66.5768 17.0133 66.6621 16.928 66.7261C16.8427 66.7795 16.736 66.8061 16.608 66.8061H16.112C15.9733 66.8061 15.8613 66.7795 15.776 66.7261C15.7013 66.6621 15.6373 66.5768 15.584 66.4701L12.912 61.2541V69.1261C12.912 69.2328 12.8747 69.3235 12.8 69.3981C12.736 69.4621 12.6507 69.4941 12.544 69.4941H11.76ZM27.1991 69.6541C26.1005 69.6541 25.2258 69.3181 24.5751 68.6461C23.9245 67.9635 23.5671 67.0355 23.5031 65.8621C23.4925 65.7235 23.4871 65.5475 23.4871 65.3341C23.4871 65.1101 23.4925 64.9288 23.5031 64.7901C23.5458 64.0328 23.7218 63.3715 24.0311 62.8061C24.3405 62.2301 24.7618 61.7875 25.2951 61.4781C25.8391 61.1688 26.4738 61.0141 27.1991 61.0141C28.0098 61.0141 28.6871 61.1848 29.2311 61.5261C29.7858 61.8675 30.2071 62.3528 30.4951 62.9821C30.7831 63.6115 30.9271 64.3475 30.9271 65.1901V65.4621C30.9271 65.5795 30.8898 65.6701 30.8151 65.7341C30.7511 65.7981 30.6658 65.8301 30.5591 65.8301H25.0231C25.0231 65.8408 25.0231 65.8621 25.0231 65.8941C25.0231 65.9261 25.0231 65.9528 25.0231 65.9741C25.0445 66.4115 25.1405 66.8221 25.3111 67.2061C25.4818 67.5795 25.7271 67.8835 26.0471 68.1181C26.3671 68.3528 26.7511 68.4701 27.1991 68.4701C27.5831 68.4701 27.9031 68.4115 28.1591 68.2941C28.4151 68.1768 28.6231 68.0488 28.7831 67.9101C28.9431 67.7608 29.0498 67.6488 29.1031 67.5741C29.1991 67.4355 29.2738 67.3555 29.3271 67.3341C29.3805 67.3021 29.4658 67.2861 29.5831 67.2861H30.3511C30.4578 67.2861 30.5431 67.3181 30.6071 67.3821C30.6818 67.4355 30.7138 67.5155 30.7031 67.6221C30.6925 67.7821 30.6071 67.9795 30.4471 68.2141C30.2871 68.4381 30.0578 68.6621 29.7591 68.8861C29.4605 69.1101 29.0978 69.2968 28.6711 69.4461C28.2445 69.5848 27.7538 69.6541 27.1991 69.6541ZM25.0231 64.7261H29.4071V64.6781C29.4071 64.1981 29.3165 63.7715 29.1351 63.3981C28.9645 63.0248 28.7138 62.7315 28.3831 62.5181C28.0525 62.2941 27.6578 62.1821 27.1991 62.1821C26.7405 62.1821 26.3458 62.2941 26.0151 62.5181C25.6951 62.7315 25.4498 63.0248 25.2791 63.3981C25.1085 63.7715 25.0231 64.1981 25.0231 64.6781V64.7261ZM35.7203 69.6541C35.1229 69.6541 34.6109 69.5795 34.1843 69.4301C33.7576 69.2808 33.4109 69.0995 33.1443 68.8861C32.8776 68.6728 32.6749 68.4595 32.5363 68.2461C32.4083 68.0328 32.3389 67.8621 32.3283 67.7341C32.3176 67.6168 32.3549 67.5261 32.4403 67.4621C32.5256 67.3981 32.6109 67.3661 32.6963 67.3661H33.4003C33.4643 67.3661 33.5123 67.3768 33.5443 67.3981C33.5869 67.4088 33.6403 67.4515 33.7043 67.5261C33.8429 67.6755 33.9976 67.8248 34.1683 67.9741C34.3389 68.1235 34.5469 68.2461 34.7923 68.3421C35.0483 68.4381 35.3629 68.4861 35.7363 68.4861C36.2803 68.4861 36.7283 68.3848 37.0803 68.1821C37.4323 67.9688 37.6083 67.6595 37.6083 67.2541C37.6083 66.9875 37.5336 66.7741 37.3843 66.6141C37.2456 66.4541 36.9896 66.3101 36.6163 66.1821C36.2536 66.0541 35.7523 65.9208 35.1123 65.7821C34.4723 65.6328 33.9656 65.4515 33.5923 65.2381C33.2189 65.0141 32.9523 64.7528 32.7923 64.4541C32.6323 64.1448 32.5523 63.7981 32.5523 63.4141C32.5523 63.0195 32.6696 62.6408 32.9043 62.2781C33.1389 61.9048 33.4803 61.6008 33.9283 61.3661C34.3869 61.1315 34.9576 61.0141 35.6403 61.0141C36.1949 61.0141 36.6696 61.0835 37.0643 61.2221C37.4589 61.3608 37.7843 61.5368 38.0403 61.7501C38.2963 61.9528 38.4883 62.1555 38.6163 62.3581C38.7443 62.5608 38.8136 62.7315 38.8243 62.8701C38.8349 62.9768 38.8029 63.0675 38.7283 63.1421C38.6536 63.2061 38.5683 63.2381 38.4723 63.2381H37.8003C37.7256 63.2381 37.6616 63.2221 37.6083 63.1901C37.5656 63.1581 37.5229 63.1208 37.4803 63.0781C37.3736 62.9395 37.2456 62.8008 37.0963 62.6621C36.9576 62.5235 36.7709 62.4115 36.5363 62.3261C36.3123 62.2301 36.0136 62.1821 35.6403 62.1821C35.1069 62.1821 34.7069 62.2941 34.4403 62.5181C34.1736 62.7421 34.0403 63.0248 34.0403 63.3661C34.0403 63.5688 34.0989 63.7501 34.2163 63.9101C34.3336 64.0701 34.5576 64.2141 34.8883 64.3421C35.2189 64.4701 35.7096 64.6088 36.3602 64.7581C37.0643 64.8968 37.6189 65.0835 38.0243 65.3181C38.4296 65.5528 38.7176 65.8248 38.8883 66.1341C39.0589 66.4435 39.1443 66.8008 39.1443 67.2061C39.1443 67.6541 39.0109 68.0648 38.7443 68.4381C38.4883 68.8115 38.1043 69.1101 37.5923 69.3341C37.0909 69.5475 36.4669 69.6541 35.7203 69.6541ZM43.8765 69.6541C43.2792 69.6541 42.7672 69.5795 42.3405 69.4301C41.9138 69.2808 41.5672 69.0995 41.3005 68.8861C41.0338 68.6728 40.8312 68.4595 40.6925 68.2461C40.5645 68.0328 40.4952 67.8621 40.4845 67.7341C40.4738 67.6168 40.5112 67.5261 40.5965 67.4621C40.6818 67.3981 40.7672 67.3661 40.8525 67.3661H41.5565C41.6205 67.3661 41.6685 67.3768 41.7005 67.3981C41.7432 67.4088 41.7965 67.4515 41.8605 67.5261C41.9992 67.6755 42.1538 67.8248 42.3245 67.9741C42.4952 68.1235 42.7032 68.2461 42.9485 68.3421C43.2045 68.4381 43.5192 68.4861 43.8925 68.4861C44.4365 68.4861 44.8845 68.3848 45.2365 68.1821C45.5885 67.9688 45.7645 67.6595 45.7645 67.2541C45.7645 66.9875 45.6898 66.7741 45.5405 66.6141C45.4018 66.4541 45.1458 66.3101 44.7725 66.1821C44.4098 66.0541 43.9085 65.9208 43.2685 65.7821C42.6285 65.6328 42.1218 65.4515 41.7485 65.2381C41.3752 65.0141 41.1085 64.7528 40.9485 64.4541C40.7885 64.1448 40.7085 63.7981 40.7085 63.4141C40.7085 63.0195 40.8258 62.6408 41.0605 62.2781C41.2952 61.9048 41.6365 61.6008 42.0845 61.3661C42.5432 61.1315 43.1138 61.0141 43.7965 61.0141C44.3512 61.0141 44.8258 61.0835 45.2205 61.2221C45.6152 61.3608 45.9405 61.5368 46.1965 61.7501C46.4525 61.9528 46.6445 62.1555 46.7725 62.3581C46.9005 62.5608 46.9698 62.7315 46.9805 62.8701C46.9912 62.9768 46.9592 63.0675 46.8845 63.1421C46.8098 63.2061 46.7245 63.2381 46.6285 63.2381H45.9565C45.8818 63.2381 45.8178 63.2221 45.7645 63.1901C45.7218 63.1581 45.6792 63.1208 45.6365 63.0781C45.5298 62.9395 45.4018 62.8008 45.2525 62.6621C45.1138 62.5235 44.9272 62.4115 44.6925 62.3261C44.4685 62.2301 44.1698 62.1821 43.7965 62.1821C43.2632 62.1821 42.8632 62.2941 42.5965 62.5181C42.3298 62.7421 42.1965 63.0248 42.1965 63.3661C42.1965 63.5688 42.2552 63.7501 42.3725 63.9101C42.4898 64.0701 42.7138 64.2141 43.0445 64.3421C43.3752 64.4701 43.8658 64.6088 44.5165 64.7581C45.2205 64.8968 45.7752 65.0835 46.1805 65.3181C46.5858 65.5528 46.8738 65.8248 47.0445 66.1341C47.2152 66.4435 47.3005 66.8008 47.3005 67.2061C47.3005 67.6541 47.1672 68.0648 46.9005 68.4381C46.6445 68.8115 46.2605 69.1101 45.7485 69.3341C45.2472 69.5475 44.6232 69.6541 43.8765 69.6541ZM51.4728 69.6541C50.9394 69.6541 50.4541 69.5475 50.0168 69.3341C49.5794 69.1208 49.2274 68.8328 48.9608 68.4701C48.6941 68.1075 48.5608 67.6968 48.5608 67.2381C48.5608 66.5021 48.8594 65.9155 49.4568 65.4781C50.0541 65.0408 50.8328 64.7528 51.7928 64.6141L54.1768 64.2781V63.8141C54.1768 63.3021 54.0274 62.9021 53.7288 62.6141C53.4408 62.3261 52.9661 62.1821 52.3048 62.1821C51.8248 62.1821 51.4354 62.2781 51.1368 62.4701C50.8488 62.6621 50.6461 62.9075 50.5288 63.2061C50.4648 63.3661 50.3528 63.4461 50.1928 63.4461H49.4728C49.3554 63.4461 49.2648 63.4141 49.2008 63.3501C49.1474 63.2755 49.1208 63.1901 49.1208 63.0941C49.1208 62.9341 49.1794 62.7368 49.2968 62.5021C49.4248 62.2675 49.6168 62.0381 49.8728 61.8141C50.1288 61.5901 50.4541 61.4035 50.8488 61.2541C51.2541 61.0941 51.7448 61.0141 52.3208 61.0141C52.9608 61.0141 53.4994 61.0995 53.9368 61.2701C54.3741 61.4301 54.7154 61.6488 54.9608 61.9261C55.2168 62.2035 55.3981 62.5181 55.5048 62.8701C55.6221 63.2221 55.6808 63.5795 55.6808 63.9421V69.1261C55.6808 69.2328 55.6434 69.3235 55.5688 69.3981C55.5048 69.4621 55.4194 69.4941 55.3128 69.4941H54.5768C54.4594 69.4941 54.3688 69.4621 54.3048 69.3981C54.2408 69.3235 54.2088 69.2328 54.2088 69.1261V68.4381C54.0701 68.6301 53.8834 68.8221 53.6488 69.0141C53.4141 69.1955 53.1208 69.3501 52.7688 69.4781C52.4168 69.5955 51.9848 69.6541 51.4728 69.6541ZM51.8088 68.4541C52.2461 68.4541 52.6461 68.3635 53.0088 68.1821C53.3714 67.9901 53.6541 67.6968 53.8568 67.3021C54.0701 66.9075 54.1768 66.4115 54.1768 65.8141V65.3661L52.3208 65.6381C51.5634 65.7448 50.9928 65.9261 50.6088 66.1821C50.2248 66.4275 50.0328 66.7421 50.0328 67.1261C50.0328 67.4248 50.1181 67.6755 50.2888 67.8781C50.4701 68.0701 50.6941 68.2141 50.9608 68.3101C51.2381 68.4061 51.5208 68.4541 51.8088 68.4541ZM61.3889 73.0141C60.6635 73.0141 60.0662 72.9181 59.5969 72.7261C59.1382 72.5341 58.7755 72.2995 58.5089 72.0221C58.2529 71.7555 58.0662 71.4835 57.9489 71.2061C57.8422 70.9395 57.7835 70.7261 57.7729 70.5661C57.7622 70.4595 57.7942 70.3688 57.8689 70.2941C57.9542 70.2195 58.0449 70.1821 58.1409 70.1821H58.9089C59.0049 70.1821 59.0849 70.2035 59.1489 70.2461C59.2129 70.2888 59.2662 70.3795 59.3089 70.5181C59.3729 70.6781 59.4689 70.8541 59.5969 71.0461C59.7249 71.2488 59.9222 71.4195 60.1889 71.5581C60.4555 71.7075 60.8289 71.7821 61.3089 71.7821C61.8102 71.7821 62.2315 71.7128 62.5729 71.5741C62.9142 71.4461 63.1702 71.2115 63.3409 70.8701C63.5222 70.5395 63.6129 70.0808 63.6129 69.4941V68.4061C63.3569 68.7368 63.0209 69.0141 62.6049 69.2381C62.1889 69.4515 61.6662 69.5581 61.0369 69.5581C60.4395 69.5581 59.9275 69.4568 59.5009 69.2541C59.0742 69.0408 58.7222 68.7581 58.4449 68.4061C58.1782 68.0435 57.9755 67.6328 57.8369 67.1741C57.7089 66.7155 57.6342 66.2355 57.6129 65.7341C57.6022 65.4355 57.6022 65.1421 57.6129 64.8541C57.6342 64.3528 57.7089 63.8728 57.8369 63.4141C57.9755 62.9555 58.1782 62.5448 58.4449 62.1821C58.7222 61.8195 59.0742 61.5368 59.5009 61.3341C59.9275 61.1208 60.4395 61.0141 61.0369 61.0141C61.6769 61.0141 62.2049 61.1368 62.6209 61.3821C63.0475 61.6168 63.3942 61.9048 63.6609 62.2461V61.5581C63.6609 61.4515 63.6929 61.3608 63.7569 61.2861C63.8315 61.2115 63.9222 61.1741 64.0289 61.1741H64.7649C64.8715 61.1741 64.9622 61.2115 65.0369 61.2861C65.1115 61.3608 65.1489 61.4515 65.1489 61.5581V69.3181C65.1489 70.0328 65.0262 70.6675 64.7809 71.2221C64.5462 71.7768 64.1515 72.2141 63.5969 72.5341C63.0529 72.8541 62.3169 73.0141 61.3889 73.0141ZM61.3569 68.2781C61.8902 68.2781 62.3169 68.1555 62.6369 67.9101C62.9675 67.6648 63.2075 67.3555 63.3569 66.9821C63.5169 66.6088 63.6022 66.2301 63.6129 65.8461C63.6235 65.6968 63.6289 65.5155 63.6289 65.3021C63.6289 65.0781 63.6235 64.8915 63.6129 64.7421C63.6022 64.3581 63.5169 63.9795 63.3569 63.6061C63.2075 63.2328 62.9675 62.9235 62.6369 62.6781C62.3169 62.4328 61.8902 62.3101 61.3569 62.3101C60.8235 62.3101 60.3969 62.4328 60.0769 62.6781C59.7569 62.9128 59.5275 63.2275 59.3889 63.6221C59.2502 64.0061 59.1702 64.4221 59.1489 64.8701C59.1382 65.1475 59.1382 65.4301 59.1489 65.7181C59.1702 66.1661 59.2502 66.5875 59.3889 66.9821C59.5275 67.3661 59.7569 67.6808 60.0769 67.9261C60.3969 68.1608 60.8235 68.2781 61.3569 68.2781ZM70.8398 69.6541C69.7411 69.6541 68.8664 69.3181 68.2158 68.6461C67.5651 67.9635 67.2078 67.0355 67.1438 65.8621C67.1331 65.7235 67.1278 65.5475 67.1278 65.3341C67.1278 65.1101 67.1331 64.9288 67.1438 64.7901C67.1864 64.0328 67.3624 63.3715 67.6718 62.8061C67.9811 62.2301 68.4024 61.7875 68.9358 61.4781C69.4798 61.1688 70.1144 61.0141 70.8398 61.0141C71.6504 61.0141 72.3278 61.1848 72.8718 61.5261C73.4264 61.8675 73.8478 62.3528 74.1358 62.9821C74.4238 63.6115 74.5677 64.3475 74.5677 65.1901V65.4621C74.5677 65.5795 74.5304 65.6701 74.4558 65.7341C74.3918 65.7981 74.3064 65.8301 74.1998 65.8301H68.6638C68.6638 65.8408 68.6638 65.8621 68.6638 65.8941C68.6638 65.9261 68.6638 65.9528 68.6638 65.9741C68.6851 66.4115 68.7811 66.8221 68.9518 67.2061C69.1224 67.5795 69.3678 67.8835 69.6878 68.1181C70.0078 68.3528 70.3918 68.4701 70.8398 68.4701C71.2238 68.4701 71.5438 68.4115 71.7998 68.2941C72.0558 68.1768 72.2638 68.0488 72.4238 67.9101C72.5838 67.7608 72.6904 67.6488 72.7438 67.5741C72.8398 67.4355 72.9144 67.3555 72.9678 67.3341C73.0211 67.3021 73.1064 67.2861 73.2238 67.2861H73.9918C74.0984 67.2861 74.1838 67.3181 74.2478 67.3821C74.3224 67.4355 74.3544 67.5155 74.3438 67.6221C74.3331 67.7821 74.2478 67.9795 74.0878 68.2141C73.9278 68.4381 73.6984 68.6621 73.3998 68.8861C73.1011 69.1101 72.7384 69.2968 72.3118 69.4461C71.8851 69.5848 71.3944 69.6541 70.8398 69.6541ZM68.6638 64.7261H73.0478V64.6781C73.0478 64.1981 72.9571 63.7715 72.7758 63.3981C72.6051 63.0248 72.3544 62.7315 72.0238 62.5181C71.6931 62.2941 71.2984 62.1821 70.8398 62.1821C70.3811 62.1821 69.9864 62.2941 69.6558 62.5181C69.3358 62.7315 69.0904 63.0248 68.9198 63.3981C68.7491 63.7715 68.6638 64.1981 68.6638 64.6781V64.7261ZM79.3609 69.6541C78.7635 69.6541 78.2515 69.5795 77.8249 69.4301C77.3982 69.2808 77.0515 69.0995 76.7849 68.8861C76.5182 68.6728 76.3155 68.4595 76.1769 68.2461C76.0489 68.0328 75.9795 67.8621 75.9689 67.7341C75.9582 67.6168 75.9955 67.5261 76.0809 67.4621C76.1662 67.3981 76.2515 67.3661 76.3369 67.3661H77.0409C77.1049 67.3661 77.1529 67.3768 77.1849 67.3981C77.2275 67.4088 77.2809 67.4515 77.3449 67.5261C77.4835 67.6755 77.6382 67.8248 77.8089 67.9741C77.9795 68.1235 78.1875 68.2461 78.4329 68.3421C78.6889 68.4381 79.0035 68.4861 79.3769 68.4861C79.9209 68.4861 80.3689 68.3848 80.7209 68.1821C81.0729 67.9688 81.2489 67.6595 81.2489 67.2541C81.2489 66.9875 81.1742 66.7741 81.0249 66.6141C80.8862 66.4541 80.6302 66.3101 80.2569 66.1821C79.8942 66.0541 79.3929 65.9208 78.7529 65.7821C78.1129 65.6328 77.6062 65.4515 77.2329 65.2381C76.8595 65.0141 76.5929 64.7528 76.4329 64.4541C76.2729 64.1448 76.1929 63.7981 76.1929 63.4141C76.1929 63.0195 76.3102 62.6408 76.5449 62.2781C76.7795 61.9048 77.1209 61.6008 77.5689 61.3661C78.0275 61.1315 78.5982 61.0141 79.2809 61.0141C79.8355 61.0141 80.3102 61.0835 80.7049 61.2221C81.0995 61.3608 81.4249 61.5368 81.6809 61.7501C81.9369 61.9528 82.1289 62.1555 82.2569 62.3581C82.3849 62.5608 82.4542 62.7315 82.4649 62.8701C82.4755 62.9768 82.4435 63.0675 82.3689 63.1421C82.2942 63.2061 82.2089 63.2381 82.1129 63.2381H81.4409C81.3662 63.2381 81.3022 63.2221 81.2489 63.1901C81.2062 63.1581 81.1635 63.1208 81.1209 63.0781C81.0142 62.9395 80.8862 62.8008 80.7369 62.6621C80.5982 62.5235 80.4115 62.4115 80.1769 62.3261C79.9529 62.2301 79.6542 62.1821 79.2809 62.1821C78.7475 62.1821 78.3475 62.2941 78.0809 62.5181C77.8142 62.7421 77.6809 63.0248 77.6809 63.3661C77.6809 63.5688 77.7395 63.7501 77.8569 63.9101C77.9742 64.0701 78.1982 64.2141 78.5289 64.3421C78.8595 64.4701 79.3502 64.6088 80.0009 64.7581C80.7049 64.8968 81.2595 65.0835 81.6649 65.3181C82.0702 65.5528 82.3582 65.8248 82.5289 66.1341C82.6995 66.4435 82.7849 66.8008 82.7849 67.2061C82.7849 67.6541 82.6515 68.0648 82.3849 68.4381C82.1289 68.8115 81.7449 69.1101 81.2329 69.3341C80.7315 69.5475 80.1075 69.6541 79.3609 69.6541Z" fill="white"/>
</g>
<defs>
<filter id="filter0_f_2_26593" x="-0.327148" y="-0.505859" width="96" height="88" filterUnits="userSpaceOnUse" color-interpolation-filters="sRGB">
<feFlood flood-opacity="0" result="BackgroundImageFix"/>
<feBlend mode="normal" in="SourceGraphic" in2="BackgroundImageFix" result="shape"/>
<feGaussianBlur stdDeviation="0.5" result="effect1_foregroundBlur_2_26593"/>
</filter>
<filter id="filter1_f_2_26593" x="-2" y="-1.50586" width="98" height="90" filterUnits="userSpaceOnUse" color-interpolation-filters="sRGB">
<feFlood flood-opacity="0" result="BackgroundImageFix"/>
<feBlend mode="normal" in="SourceGraphic" in2="BackgroundImageFix" result="shape"/>
<feGaussianBlur stdDeviation="1" result="effect1_foregroundBlur_2_26593"/>
</filter>
<filter id="filter2_f_2_26593" x="-4" y="-3.50586" width="102" height="94" filterUnits="userSpaceOnUse" color-interpolation-filters="sRGB">
<feFlood flood-opacity="0" result="BackgroundImageFix"/>
<feBlend mode="normal" in="SourceGraphic" in2="BackgroundImageFix" result="shape"/>
<feGaussianBlur stdDeviation="2" result="effect1_foregroundBlur_2_26593"/>
</filter>
</defs>
</svg>
