<svg width="83" height="86" viewBox="0 0 83 86" fill="none" xmlns="http://www.w3.org/2000/svg">
<g filter="url(#filter0_f_2_26555)">
<g clip-path="url(#clip0_2_26555)">
<path d="M48.1668 38V35.3333C48.1668 33.9188 47.6049 32.5623 46.6047 31.5621C45.6045 30.5619 44.248 30 42.8335 30H32.1668C30.7523 30 29.3958 30.5619 28.3956 31.5621C27.3954 32.5623 26.8335 33.9188 26.8335 35.3333V38" stroke="white" stroke-width="2" stroke-linecap="round" stroke-linejoin="round"/>
<path d="M37.4998 24.6667C40.4454 24.6667 42.8332 22.2789 42.8332 19.3333C42.8332 16.3878 40.4454 14 37.4998 14C34.5543 14 32.1665 16.3878 32.1665 19.3333C32.1665 22.2789 34.5543 24.6667 37.4998 24.6667Z" stroke="white" stroke-width="2" stroke-linecap="round" stroke-linejoin="round"/>
<path d="M56.1665 38.0005V35.3338C56.1656 34.1521 55.7723 33.0042 55.0483 32.0702C54.3243 31.1363 53.3107 30.4693 52.1665 30.1738" stroke="white" stroke-width="2" stroke-linecap="round" stroke-linejoin="round"/>
<path d="M46.8335 14.1738C47.9807 14.4676 48.9975 15.1348 49.7237 16.0702C50.4498 17.0057 50.844 18.1563 50.844 19.3405C50.844 20.5247 50.4498 21.6753 49.7237 22.6107C48.9975 23.5462 47.9807 24.2134 46.8335 24.5072" stroke="white" stroke-width="2" stroke-linecap="round" stroke-linejoin="round"/>
</g>
<path d="M11.76 69C11.6427 69 11.552 68.968 11.488 68.904C11.424 68.8293 11.392 68.7387 11.392 68.632V58.184C11.392 58.0667 11.424 57.976 11.488 57.912C11.552 57.8373 11.6427 57.8 11.76 57.8H12.496C12.624 57.8 12.72 57.832 12.784 57.896C12.848 57.9493 12.8853 57.992 12.896 58.024L18.208 66.184V58.184C18.208 58.0667 18.24 57.976 18.304 57.912C18.368 57.8373 18.4587 57.8 18.576 57.8H19.344C19.4613 57.8 19.552 57.8373 19.616 57.912C19.6907 57.976 19.728 58.0667 19.728 58.184V68.616C19.728 68.7227 19.6907 68.8133 19.616 68.888C19.552 68.9627 19.4667 69 19.36 69H18.592C18.4747 69 18.384 68.968 18.32 68.904C18.2667 68.84 18.2293 68.7973 18.208 68.776L12.912 60.696V68.632C12.912 68.7387 12.8747 68.8293 12.8 68.904C12.736 68.968 12.6453 69 12.528 69H11.76ZM25.6054 69.16C24.5067 69.16 23.632 68.824 22.9814 68.152C22.3307 67.4693 21.9734 66.5413 21.9094 65.368C21.8987 65.2293 21.8934 65.0533 21.8934 64.84C21.8934 64.616 21.8987 64.4347 21.9094 64.296C21.952 63.5387 22.128 62.8773 22.4374 62.312C22.7467 61.736 23.168 61.2933 23.7014 60.984C24.2454 60.6747 24.88 60.52 25.6054 60.52C26.416 60.52 27.0934 60.6907 27.6374 61.032C28.192 61.3733 28.6134 61.8587 28.9014 62.488C29.1894 63.1173 29.3334 63.8533 29.3334 64.696V64.968C29.3334 65.0853 29.296 65.176 29.2214 65.24C29.1574 65.304 29.072 65.336 28.9654 65.336H23.4294C23.4294 65.3467 23.4294 65.368 23.4294 65.4C23.4294 65.432 23.4294 65.4587 23.4294 65.48C23.4507 65.9173 23.5467 66.328 23.7174 66.712C23.888 67.0853 24.1334 67.3893 24.4534 67.624C24.7734 67.8587 25.1574 67.976 25.6054 67.976C25.9894 67.976 26.3094 67.9173 26.5654 67.8C26.8214 67.6827 27.0294 67.5547 27.1894 67.416C27.3494 67.2667 27.456 67.1547 27.5094 67.08C27.6054 66.9413 27.68 66.8613 27.7334 66.84C27.7867 66.808 27.872 66.792 27.9894 66.792H28.7574C28.864 66.792 28.9494 66.824 29.0134 66.888C29.088 66.9413 29.12 67.0213 29.1094 67.128C29.0987 67.288 29.0134 67.4853 28.8534 67.72C28.6934 67.944 28.464 68.168 28.1654 68.392C27.8667 68.616 27.504 68.8027 27.0774 68.952C26.6507 69.0907 26.16 69.16 25.6054 69.16ZM23.4294 64.232H27.8134V64.184C27.8134 63.704 27.7227 63.2773 27.5414 62.904C27.3707 62.5307 27.12 62.2373 26.7894 62.024C26.4587 61.8 26.064 61.688 25.6054 61.688C25.1467 61.688 24.752 61.8 24.4214 62.024C24.1014 62.2373 23.856 62.5307 23.6854 62.904C23.5147 63.2773 23.4294 63.704 23.4294 64.184V64.232ZM34.4476 69C33.8503 69 33.365 68.888 32.9916 68.664C32.6183 68.4293 32.3463 68.104 32.1756 67.688C32.005 67.2613 31.9196 66.76 31.9196 66.184V61.96H30.6716C30.565 61.96 30.4743 61.928 30.3996 61.864C30.3356 61.7893 30.3036 61.6987 30.3036 61.592V61.048C30.3036 60.9413 30.3356 60.856 30.3996 60.792C30.4743 60.7173 30.565 60.68 30.6716 60.68H31.9196V58.008C31.9196 57.9013 31.9516 57.816 32.0156 57.752C32.0903 57.6773 32.181 57.64 32.2876 57.64H33.0396C33.1463 57.64 33.2316 57.6773 33.2956 57.752C33.3703 57.816 33.4076 57.9013 33.4076 58.008V60.68H35.3916C35.4983 60.68 35.5836 60.7173 35.6476 60.792C35.7223 60.856 35.7596 60.9413 35.7596 61.048V61.592C35.7596 61.6987 35.7223 61.7893 35.6476 61.864C35.5836 61.928 35.4983 61.96 35.3916 61.96H33.4076V66.072C33.4076 66.5733 33.493 66.968 33.6636 67.256C33.8343 67.544 34.1383 67.688 34.5756 67.688H35.5516C35.6583 67.688 35.7436 67.7253 35.8076 67.8C35.8823 67.864 35.9196 67.9493 35.9196 68.056V68.632C35.9196 68.7387 35.8823 68.8293 35.8076 68.904C35.7436 68.968 35.6583 69 35.5516 69H34.4476ZM39.6576 69C39.519 69 39.4123 68.968 39.3376 68.904C39.263 68.8293 39.199 68.728 39.1456 68.6L36.8736 61.176C36.8523 61.1227 36.8416 61.0693 36.8416 61.016C36.8416 60.92 36.8736 60.84 36.9376 60.776C37.0123 60.712 37.0923 60.68 37.1776 60.68H37.8816C37.999 60.68 38.0896 60.712 38.1536 60.776C38.2176 60.84 38.2603 60.8987 38.2816 60.952L40.0576 66.984L41.9616 61.016C41.983 60.9413 42.0256 60.8667 42.0896 60.792C42.1643 60.7173 42.271 60.68 42.4096 60.68H42.9536C43.0923 60.68 43.199 60.7173 43.2736 60.792C43.3483 60.8667 43.391 60.9413 43.4016 61.016L45.3056 66.984L47.0816 60.952C47.0923 60.8987 47.1296 60.84 47.1936 60.776C47.2576 60.712 47.3483 60.68 47.4656 60.68H48.1696C48.2656 60.68 48.3456 60.712 48.4096 60.776C48.4736 60.84 48.5056 60.92 48.5056 61.016C48.5056 61.0693 48.495 61.1227 48.4736 61.176L46.2016 68.6C46.1696 68.728 46.111 68.8293 46.0256 68.904C45.951 68.968 45.839 69 45.6896 69H45.0656C44.927 69 44.8096 68.968 44.7136 68.904C44.6283 68.8293 44.5696 68.728 44.5376 68.6L42.6816 62.872L40.8256 68.6C40.783 68.728 40.719 68.8293 40.6336 68.904C40.5483 68.968 40.431 69 40.2816 69H39.6576ZM53.467 69.16C52.6563 69.16 51.979 69.0053 51.435 68.696C50.891 68.3867 50.475 67.96 50.187 67.416C49.899 66.8613 49.739 66.232 49.707 65.528C49.6963 65.3467 49.691 65.1173 49.691 64.84C49.691 64.552 49.6963 64.3227 49.707 64.152C49.739 63.4373 49.899 62.808 50.187 62.264C50.4857 61.72 50.907 61.2933 51.451 60.984C51.995 60.6747 52.667 60.52 53.467 60.52C54.267 60.52 54.939 60.6747 55.483 60.984C56.027 61.2933 56.443 61.72 56.731 62.264C57.0297 62.808 57.195 63.4373 57.227 64.152C57.2377 64.3227 57.243 64.552 57.243 64.84C57.243 65.1173 57.2377 65.3467 57.227 65.528C57.195 66.232 57.035 66.8613 56.747 67.416C56.459 67.96 56.043 68.3867 55.499 68.696C54.955 69.0053 54.2777 69.16 53.467 69.16ZM53.467 67.928C54.1283 67.928 54.6563 67.72 55.051 67.304C55.4457 66.8773 55.659 66.2587 55.691 65.448C55.7017 65.288 55.707 65.0853 55.707 64.84C55.707 64.5947 55.7017 64.392 55.691 64.232C55.659 63.4213 55.4457 62.808 55.051 62.392C54.6563 61.9653 54.1283 61.752 53.467 61.752C52.8057 61.752 52.2723 61.9653 51.867 62.392C51.4723 62.808 51.2643 63.4213 51.243 64.232C51.2323 64.392 51.227 64.5947 51.227 64.84C51.227 65.0853 51.2323 65.288 51.243 65.448C51.2643 66.2587 51.4723 66.8773 51.867 67.304C52.2723 67.72 52.8057 67.928 53.467 67.928ZM59.6145 69C59.5078 69 59.4172 68.968 59.3425 68.904C59.2785 68.8293 59.2465 68.7387 59.2465 68.632V61.064C59.2465 60.9573 59.2785 60.8667 59.3425 60.792C59.4172 60.7173 59.5078 60.68 59.6145 60.68H60.3505C60.4572 60.68 60.5478 60.7173 60.6225 60.792C60.6972 60.8667 60.7345 60.9573 60.7345 61.064V61.768C60.9478 61.4053 61.2412 61.1333 61.6145 60.952C61.9878 60.7707 62.4358 60.68 62.9585 60.68H63.5985C63.7052 60.68 63.7905 60.7173 63.8545 60.792C63.9185 60.856 63.9505 60.9413 63.9505 61.048V61.704C63.9505 61.8107 63.9185 61.896 63.8545 61.96C63.7905 62.024 63.7052 62.056 63.5985 62.056H62.6385C62.0625 62.056 61.6092 62.2267 61.2785 62.568C60.9478 62.8987 60.7825 63.352 60.7825 63.928V68.632C60.7825 68.7387 60.7452 68.8293 60.6705 68.904C60.5958 68.968 60.5052 69 60.3985 69H59.6145ZM65.7086 69C65.602 69 65.5113 68.968 65.4366 68.904C65.3726 68.8293 65.3406 68.7387 65.3406 68.632V58.008C65.3406 57.9013 65.3726 57.816 65.4366 57.752C65.5113 57.6773 65.602 57.64 65.7086 57.64H66.4606C66.5673 57.64 66.6526 57.6773 66.7166 57.752C66.7913 57.816 66.8286 57.9013 66.8286 58.008V63.576L69.9806 60.952C70.1086 60.8453 70.2046 60.776 70.2686 60.744C70.3433 60.7013 70.4606 60.68 70.6206 60.68H71.4686C71.5646 60.68 71.6446 60.712 71.7086 60.776C71.7726 60.84 71.8046 60.92 71.8046 61.016C71.8046 61.0587 71.7886 61.1067 71.7566 61.16C71.7353 61.2133 71.6873 61.2667 71.6126 61.32L67.9166 64.392L72.0126 68.376C72.1406 68.4827 72.2046 68.5787 72.2046 68.664C72.2046 68.76 72.1726 68.84 72.1086 68.904C72.0446 68.968 71.9646 69 71.8686 69H71.0366C70.8766 69 70.7593 68.984 70.6846 68.952C70.61 68.9093 70.514 68.8347 70.3966 68.728L66.8286 65.32V68.632C66.8286 68.7387 66.7913 68.8293 66.7166 68.904C66.6526 68.968 66.5673 69 66.4606 69H65.7086Z" fill="white"/>
</g>
<g filter="url(#filter1_f_2_26555)">
<g clip-path="url(#clip1_2_26555)">
<path d="M48.1668 38V35.3333C48.1668 33.9188 47.6049 32.5623 46.6047 31.5621C45.6045 30.5619 44.248 30 42.8335 30H32.1668C30.7523 30 29.3958 30.5619 28.3956 31.5621C27.3954 32.5623 26.8335 33.9188 26.8335 35.3333V38" stroke="white" stroke-width="2" stroke-linecap="round" stroke-linejoin="round"/>
<path d="M37.4998 24.6667C40.4454 24.6667 42.8332 22.2789 42.8332 19.3333C42.8332 16.3878 40.4454 14 37.4998 14C34.5543 14 32.1665 16.3878 32.1665 19.3333C32.1665 22.2789 34.5543 24.6667 37.4998 24.6667Z" stroke="white" stroke-width="2" stroke-linecap="round" stroke-linejoin="round"/>
<path d="M56.1665 38.0005V35.3338C56.1656 34.1521 55.7723 33.0042 55.0483 32.0702C54.3243 31.1363 53.3107 30.4693 52.1665 30.1738" stroke="white" stroke-width="2" stroke-linecap="round" stroke-linejoin="round"/>
<path d="M46.8335 14.1738C47.9807 14.4676 48.9975 15.1348 49.7237 16.0702C50.4498 17.0057 50.844 18.1563 50.844 19.3405C50.844 20.5247 50.4498 21.6753 49.7237 22.6107C48.9975 23.5462 47.9807 24.2134 46.8335 24.5072" stroke="white" stroke-width="2" stroke-linecap="round" stroke-linejoin="round"/>
</g>
<path d="M11.76 69C11.6427 69 11.552 68.968 11.488 68.904C11.424 68.8293 11.392 68.7387 11.392 68.632V58.184C11.392 58.0667 11.424 57.976 11.488 57.912C11.552 57.8373 11.6427 57.8 11.76 57.8H12.496C12.624 57.8 12.72 57.832 12.784 57.896C12.848 57.9493 12.8853 57.992 12.896 58.024L18.208 66.184V58.184C18.208 58.0667 18.24 57.976 18.304 57.912C18.368 57.8373 18.4587 57.8 18.576 57.8H19.344C19.4613 57.8 19.552 57.8373 19.616 57.912C19.6907 57.976 19.728 58.0667 19.728 58.184V68.616C19.728 68.7227 19.6907 68.8133 19.616 68.888C19.552 68.9627 19.4667 69 19.36 69H18.592C18.4747 69 18.384 68.968 18.32 68.904C18.2667 68.84 18.2293 68.7973 18.208 68.776L12.912 60.696V68.632C12.912 68.7387 12.8747 68.8293 12.8 68.904C12.736 68.968 12.6453 69 12.528 69H11.76ZM25.6054 69.16C24.5067 69.16 23.632 68.824 22.9814 68.152C22.3307 67.4693 21.9734 66.5413 21.9094 65.368C21.8987 65.2293 21.8934 65.0533 21.8934 64.84C21.8934 64.616 21.8987 64.4347 21.9094 64.296C21.952 63.5387 22.128 62.8773 22.4374 62.312C22.7467 61.736 23.168 61.2933 23.7014 60.984C24.2454 60.6747 24.88 60.52 25.6054 60.52C26.416 60.52 27.0934 60.6907 27.6374 61.032C28.192 61.3733 28.6134 61.8587 28.9014 62.488C29.1894 63.1173 29.3334 63.8533 29.3334 64.696V64.968C29.3334 65.0853 29.296 65.176 29.2214 65.24C29.1574 65.304 29.072 65.336 28.9654 65.336H23.4294C23.4294 65.3467 23.4294 65.368 23.4294 65.4C23.4294 65.432 23.4294 65.4587 23.4294 65.48C23.4507 65.9173 23.5467 66.328 23.7174 66.712C23.888 67.0853 24.1334 67.3893 24.4534 67.624C24.7734 67.8587 25.1574 67.976 25.6054 67.976C25.9894 67.976 26.3094 67.9173 26.5654 67.8C26.8214 67.6827 27.0294 67.5547 27.1894 67.416C27.3494 67.2667 27.456 67.1547 27.5094 67.08C27.6054 66.9413 27.68 66.8613 27.7334 66.84C27.7867 66.808 27.872 66.792 27.9894 66.792H28.7574C28.864 66.792 28.9494 66.824 29.0134 66.888C29.088 66.9413 29.12 67.0213 29.1094 67.128C29.0987 67.288 29.0134 67.4853 28.8534 67.72C28.6934 67.944 28.464 68.168 28.1654 68.392C27.8667 68.616 27.504 68.8027 27.0774 68.952C26.6507 69.0907 26.16 69.16 25.6054 69.16ZM23.4294 64.232H27.8134V64.184C27.8134 63.704 27.7227 63.2773 27.5414 62.904C27.3707 62.5307 27.12 62.2373 26.7894 62.024C26.4587 61.8 26.064 61.688 25.6054 61.688C25.1467 61.688 24.752 61.8 24.4214 62.024C24.1014 62.2373 23.856 62.5307 23.6854 62.904C23.5147 63.2773 23.4294 63.704 23.4294 64.184V64.232ZM34.4476 69C33.8503 69 33.365 68.888 32.9916 68.664C32.6183 68.4293 32.3463 68.104 32.1756 67.688C32.005 67.2613 31.9196 66.76 31.9196 66.184V61.96H30.6716C30.565 61.96 30.4743 61.928 30.3996 61.864C30.3356 61.7893 30.3036 61.6987 30.3036 61.592V61.048C30.3036 60.9413 30.3356 60.856 30.3996 60.792C30.4743 60.7173 30.565 60.68 30.6716 60.68H31.9196V58.008C31.9196 57.9013 31.9516 57.816 32.0156 57.752C32.0903 57.6773 32.181 57.64 32.2876 57.64H33.0396C33.1463 57.64 33.2316 57.6773 33.2956 57.752C33.3703 57.816 33.4076 57.9013 33.4076 58.008V60.68H35.3916C35.4983 60.68 35.5836 60.7173 35.6476 60.792C35.7223 60.856 35.7596 60.9413 35.7596 61.048V61.592C35.7596 61.6987 35.7223 61.7893 35.6476 61.864C35.5836 61.928 35.4983 61.96 35.3916 61.96H33.4076V66.072C33.4076 66.5733 33.493 66.968 33.6636 67.256C33.8343 67.544 34.1383 67.688 34.5756 67.688H35.5516C35.6583 67.688 35.7436 67.7253 35.8076 67.8C35.8823 67.864 35.9196 67.9493 35.9196 68.056V68.632C35.9196 68.7387 35.8823 68.8293 35.8076 68.904C35.7436 68.968 35.6583 69 35.5516 69H34.4476ZM39.6576 69C39.519 69 39.4123 68.968 39.3376 68.904C39.263 68.8293 39.199 68.728 39.1456 68.6L36.8736 61.176C36.8523 61.1227 36.8416 61.0693 36.8416 61.016C36.8416 60.92 36.8736 60.84 36.9376 60.776C37.0123 60.712 37.0923 60.68 37.1776 60.68H37.8816C37.999 60.68 38.0896 60.712 38.1536 60.776C38.2176 60.84 38.2603 60.8987 38.2816 60.952L40.0576 66.984L41.9616 61.016C41.983 60.9413 42.0256 60.8667 42.0896 60.792C42.1643 60.7173 42.271 60.68 42.4096 60.68H42.9536C43.0923 60.68 43.199 60.7173 43.2736 60.792C43.3483 60.8667 43.391 60.9413 43.4016 61.016L45.3056 66.984L47.0816 60.952C47.0923 60.8987 47.1296 60.84 47.1936 60.776C47.2576 60.712 47.3483 60.68 47.4656 60.68H48.1696C48.2656 60.68 48.3456 60.712 48.4096 60.776C48.4736 60.84 48.5056 60.92 48.5056 61.016C48.5056 61.0693 48.495 61.1227 48.4736 61.176L46.2016 68.6C46.1696 68.728 46.111 68.8293 46.0256 68.904C45.951 68.968 45.839 69 45.6896 69H45.0656C44.927 69 44.8096 68.968 44.7136 68.904C44.6283 68.8293 44.5696 68.728 44.5376 68.6L42.6816 62.872L40.8256 68.6C40.783 68.728 40.719 68.8293 40.6336 68.904C40.5483 68.968 40.431 69 40.2816 69H39.6576ZM53.467 69.16C52.6563 69.16 51.979 69.0053 51.435 68.696C50.891 68.3867 50.475 67.96 50.187 67.416C49.899 66.8613 49.739 66.232 49.707 65.528C49.6963 65.3467 49.691 65.1173 49.691 64.84C49.691 64.552 49.6963 64.3227 49.707 64.152C49.739 63.4373 49.899 62.808 50.187 62.264C50.4857 61.72 50.907 61.2933 51.451 60.984C51.995 60.6747 52.667 60.52 53.467 60.52C54.267 60.52 54.939 60.6747 55.483 60.984C56.027 61.2933 56.443 61.72 56.731 62.264C57.0297 62.808 57.195 63.4373 57.227 64.152C57.2377 64.3227 57.243 64.552 57.243 64.84C57.243 65.1173 57.2377 65.3467 57.227 65.528C57.195 66.232 57.035 66.8613 56.747 67.416C56.459 67.96 56.043 68.3867 55.499 68.696C54.955 69.0053 54.2777 69.16 53.467 69.16ZM53.467 67.928C54.1283 67.928 54.6563 67.72 55.051 67.304C55.4457 66.8773 55.659 66.2587 55.691 65.448C55.7017 65.288 55.707 65.0853 55.707 64.84C55.707 64.5947 55.7017 64.392 55.691 64.232C55.659 63.4213 55.4457 62.808 55.051 62.392C54.6563 61.9653 54.1283 61.752 53.467 61.752C52.8057 61.752 52.2723 61.9653 51.867 62.392C51.4723 62.808 51.2643 63.4213 51.243 64.232C51.2323 64.392 51.227 64.5947 51.227 64.84C51.227 65.0853 51.2323 65.288 51.243 65.448C51.2643 66.2587 51.4723 66.8773 51.867 67.304C52.2723 67.72 52.8057 67.928 53.467 67.928ZM59.6145 69C59.5078 69 59.4172 68.968 59.3425 68.904C59.2785 68.8293 59.2465 68.7387 59.2465 68.632V61.064C59.2465 60.9573 59.2785 60.8667 59.3425 60.792C59.4172 60.7173 59.5078 60.68 59.6145 60.68H60.3505C60.4572 60.68 60.5478 60.7173 60.6225 60.792C60.6972 60.8667 60.7345 60.9573 60.7345 61.064V61.768C60.9478 61.4053 61.2412 61.1333 61.6145 60.952C61.9878 60.7707 62.4358 60.68 62.9585 60.68H63.5985C63.7052 60.68 63.7905 60.7173 63.8545 60.792C63.9185 60.856 63.9505 60.9413 63.9505 61.048V61.704C63.9505 61.8107 63.9185 61.896 63.8545 61.96C63.7905 62.024 63.7052 62.056 63.5985 62.056H62.6385C62.0625 62.056 61.6092 62.2267 61.2785 62.568C60.9478 62.8987 60.7825 63.352 60.7825 63.928V68.632C60.7825 68.7387 60.7452 68.8293 60.6705 68.904C60.5958 68.968 60.5052 69 60.3985 69H59.6145ZM65.7086 69C65.602 69 65.5113 68.968 65.4366 68.904C65.3726 68.8293 65.3406 68.7387 65.3406 68.632V58.008C65.3406 57.9013 65.3726 57.816 65.4366 57.752C65.5113 57.6773 65.602 57.64 65.7086 57.64H66.4606C66.5673 57.64 66.6526 57.6773 66.7166 57.752C66.7913 57.816 66.8286 57.9013 66.8286 58.008V63.576L69.9806 60.952C70.1086 60.8453 70.2046 60.776 70.2686 60.744C70.3433 60.7013 70.4606 60.68 70.6206 60.68H71.4686C71.5646 60.68 71.6446 60.712 71.7086 60.776C71.7726 60.84 71.8046 60.92 71.8046 61.016C71.8046 61.0587 71.7886 61.1067 71.7566 61.16C71.7353 61.2133 71.6873 61.2667 71.6126 61.32L67.9166 64.392L72.0126 68.376C72.1406 68.4827 72.2046 68.5787 72.2046 68.664C72.2046 68.76 72.1726 68.84 72.1086 68.904C72.0446 68.968 71.9646 69 71.8686 69H71.0366C70.8766 69 70.7593 68.984 70.6846 68.952C70.61 68.9093 70.514 68.8347 70.3966 68.728L66.8286 65.32V68.632C66.8286 68.7387 66.7913 68.8293 66.7166 68.904C66.6526 68.968 66.5673 69 66.4606 69H65.7086Z" fill="white"/>
</g>
<g filter="url(#filter2_f_2_26555)">
<g clip-path="url(#clip2_2_26555)">
<path d="M48.1668 38V35.3333C48.1668 33.9188 47.6049 32.5623 46.6047 31.5621C45.6045 30.5619 44.248 30 42.8335 30H32.1668C30.7523 30 29.3958 30.5619 28.3956 31.5621C27.3954 32.5623 26.8335 33.9188 26.8335 35.3333V38" stroke="white" stroke-width="2" stroke-linecap="round" stroke-linejoin="round"/>
<path d="M37.4998 24.6667C40.4454 24.6667 42.8332 22.2789 42.8332 19.3333C42.8332 16.3878 40.4454 14 37.4998 14C34.5543 14 32.1665 16.3878 32.1665 19.3333C32.1665 22.2789 34.5543 24.6667 37.4998 24.6667Z" stroke="white" stroke-width="2" stroke-linecap="round" stroke-linejoin="round"/>
<path d="M56.1665 38.0005V35.3338C56.1656 34.1521 55.7723 33.0042 55.0483 32.0702C54.3243 31.1363 53.3107 30.4693 52.1665 30.1738" stroke="white" stroke-width="2" stroke-linecap="round" stroke-linejoin="round"/>
<path d="M46.8335 14.1738C47.9807 14.4676 48.9975 15.1348 49.7237 16.0702C50.4498 17.0057 50.844 18.1563 50.844 19.3405C50.844 20.5247 50.4498 21.6753 49.7237 22.6107C48.9975 23.5462 47.9807 24.2134 46.8335 24.5072" stroke="white" stroke-width="2" stroke-linecap="round" stroke-linejoin="round"/>
</g>
<path d="M11.76 69C11.6427 69 11.552 68.968 11.488 68.904C11.424 68.8293 11.392 68.7387 11.392 68.632V58.184C11.392 58.0667 11.424 57.976 11.488 57.912C11.552 57.8373 11.6427 57.8 11.76 57.8H12.496C12.624 57.8 12.72 57.832 12.784 57.896C12.848 57.9493 12.8853 57.992 12.896 58.024L18.208 66.184V58.184C18.208 58.0667 18.24 57.976 18.304 57.912C18.368 57.8373 18.4587 57.8 18.576 57.8H19.344C19.4613 57.8 19.552 57.8373 19.616 57.912C19.6907 57.976 19.728 58.0667 19.728 58.184V68.616C19.728 68.7227 19.6907 68.8133 19.616 68.888C19.552 68.9627 19.4667 69 19.36 69H18.592C18.4747 69 18.384 68.968 18.32 68.904C18.2667 68.84 18.2293 68.7973 18.208 68.776L12.912 60.696V68.632C12.912 68.7387 12.8747 68.8293 12.8 68.904C12.736 68.968 12.6453 69 12.528 69H11.76ZM25.6054 69.16C24.5067 69.16 23.632 68.824 22.9814 68.152C22.3307 67.4693 21.9734 66.5413 21.9094 65.368C21.8987 65.2293 21.8934 65.0533 21.8934 64.84C21.8934 64.616 21.8987 64.4347 21.9094 64.296C21.952 63.5387 22.128 62.8773 22.4374 62.312C22.7467 61.736 23.168 61.2933 23.7014 60.984C24.2454 60.6747 24.88 60.52 25.6054 60.52C26.416 60.52 27.0934 60.6907 27.6374 61.032C28.192 61.3733 28.6134 61.8587 28.9014 62.488C29.1894 63.1173 29.3334 63.8533 29.3334 64.696V64.968C29.3334 65.0853 29.296 65.176 29.2214 65.24C29.1574 65.304 29.072 65.336 28.9654 65.336H23.4294C23.4294 65.3467 23.4294 65.368 23.4294 65.4C23.4294 65.432 23.4294 65.4587 23.4294 65.48C23.4507 65.9173 23.5467 66.328 23.7174 66.712C23.888 67.0853 24.1334 67.3893 24.4534 67.624C24.7734 67.8587 25.1574 67.976 25.6054 67.976C25.9894 67.976 26.3094 67.9173 26.5654 67.8C26.8214 67.6827 27.0294 67.5547 27.1894 67.416C27.3494 67.2667 27.456 67.1547 27.5094 67.08C27.6054 66.9413 27.68 66.8613 27.7334 66.84C27.7867 66.808 27.872 66.792 27.9894 66.792H28.7574C28.864 66.792 28.9494 66.824 29.0134 66.888C29.088 66.9413 29.12 67.0213 29.1094 67.128C29.0987 67.288 29.0134 67.4853 28.8534 67.72C28.6934 67.944 28.464 68.168 28.1654 68.392C27.8667 68.616 27.504 68.8027 27.0774 68.952C26.6507 69.0907 26.16 69.16 25.6054 69.16ZM23.4294 64.232H27.8134V64.184C27.8134 63.704 27.7227 63.2773 27.5414 62.904C27.3707 62.5307 27.12 62.2373 26.7894 62.024C26.4587 61.8 26.064 61.688 25.6054 61.688C25.1467 61.688 24.752 61.8 24.4214 62.024C24.1014 62.2373 23.856 62.5307 23.6854 62.904C23.5147 63.2773 23.4294 63.704 23.4294 64.184V64.232ZM34.4476 69C33.8503 69 33.365 68.888 32.9916 68.664C32.6183 68.4293 32.3463 68.104 32.1756 67.688C32.005 67.2613 31.9196 66.76 31.9196 66.184V61.96H30.6716C30.565 61.96 30.4743 61.928 30.3996 61.864C30.3356 61.7893 30.3036 61.6987 30.3036 61.592V61.048C30.3036 60.9413 30.3356 60.856 30.3996 60.792C30.4743 60.7173 30.565 60.68 30.6716 60.68H31.9196V58.008C31.9196 57.9013 31.9516 57.816 32.0156 57.752C32.0903 57.6773 32.181 57.64 32.2876 57.64H33.0396C33.1463 57.64 33.2316 57.6773 33.2956 57.752C33.3703 57.816 33.4076 57.9013 33.4076 58.008V60.68H35.3916C35.4983 60.68 35.5836 60.7173 35.6476 60.792C35.7223 60.856 35.7596 60.9413 35.7596 61.048V61.592C35.7596 61.6987 35.7223 61.7893 35.6476 61.864C35.5836 61.928 35.4983 61.96 35.3916 61.96H33.4076V66.072C33.4076 66.5733 33.493 66.968 33.6636 67.256C33.8343 67.544 34.1383 67.688 34.5756 67.688H35.5516C35.6583 67.688 35.7436 67.7253 35.8076 67.8C35.8823 67.864 35.9196 67.9493 35.9196 68.056V68.632C35.9196 68.7387 35.8823 68.8293 35.8076 68.904C35.7436 68.968 35.6583 69 35.5516 69H34.4476ZM39.6576 69C39.519 69 39.4123 68.968 39.3376 68.904C39.263 68.8293 39.199 68.728 39.1456 68.6L36.8736 61.176C36.8523 61.1227 36.8416 61.0693 36.8416 61.016C36.8416 60.92 36.8736 60.84 36.9376 60.776C37.0123 60.712 37.0923 60.68 37.1776 60.68H37.8816C37.999 60.68 38.0896 60.712 38.1536 60.776C38.2176 60.84 38.2603 60.8987 38.2816 60.952L40.0576 66.984L41.9616 61.016C41.983 60.9413 42.0256 60.8667 42.0896 60.792C42.1643 60.7173 42.271 60.68 42.4096 60.68H42.9536C43.0923 60.68 43.199 60.7173 43.2736 60.792C43.3483 60.8667 43.391 60.9413 43.4016 61.016L45.3056 66.984L47.0816 60.952C47.0923 60.8987 47.1296 60.84 47.1936 60.776C47.2576 60.712 47.3483 60.68 47.4656 60.68H48.1696C48.2656 60.68 48.3456 60.712 48.4096 60.776C48.4736 60.84 48.5056 60.92 48.5056 61.016C48.5056 61.0693 48.495 61.1227 48.4736 61.176L46.2016 68.6C46.1696 68.728 46.111 68.8293 46.0256 68.904C45.951 68.968 45.839 69 45.6896 69H45.0656C44.927 69 44.8096 68.968 44.7136 68.904C44.6283 68.8293 44.5696 68.728 44.5376 68.6L42.6816 62.872L40.8256 68.6C40.783 68.728 40.719 68.8293 40.6336 68.904C40.5483 68.968 40.431 69 40.2816 69H39.6576ZM53.467 69.16C52.6563 69.16 51.979 69.0053 51.435 68.696C50.891 68.3867 50.475 67.96 50.187 67.416C49.899 66.8613 49.739 66.232 49.707 65.528C49.6963 65.3467 49.691 65.1173 49.691 64.84C49.691 64.552 49.6963 64.3227 49.707 64.152C49.739 63.4373 49.899 62.808 50.187 62.264C50.4857 61.72 50.907 61.2933 51.451 60.984C51.995 60.6747 52.667 60.52 53.467 60.52C54.267 60.52 54.939 60.6747 55.483 60.984C56.027 61.2933 56.443 61.72 56.731 62.264C57.0297 62.808 57.195 63.4373 57.227 64.152C57.2377 64.3227 57.243 64.552 57.243 64.84C57.243 65.1173 57.2377 65.3467 57.227 65.528C57.195 66.232 57.035 66.8613 56.747 67.416C56.459 67.96 56.043 68.3867 55.499 68.696C54.955 69.0053 54.2777 69.16 53.467 69.16ZM53.467 67.928C54.1283 67.928 54.6563 67.72 55.051 67.304C55.4457 66.8773 55.659 66.2587 55.691 65.448C55.7017 65.288 55.707 65.0853 55.707 64.84C55.707 64.5947 55.7017 64.392 55.691 64.232C55.659 63.4213 55.4457 62.808 55.051 62.392C54.6563 61.9653 54.1283 61.752 53.467 61.752C52.8057 61.752 52.2723 61.9653 51.867 62.392C51.4723 62.808 51.2643 63.4213 51.243 64.232C51.2323 64.392 51.227 64.5947 51.227 64.84C51.227 65.0853 51.2323 65.288 51.243 65.448C51.2643 66.2587 51.4723 66.8773 51.867 67.304C52.2723 67.72 52.8057 67.928 53.467 67.928ZM59.6145 69C59.5078 69 59.4172 68.968 59.3425 68.904C59.2785 68.8293 59.2465 68.7387 59.2465 68.632V61.064C59.2465 60.9573 59.2785 60.8667 59.3425 60.792C59.4172 60.7173 59.5078 60.68 59.6145 60.68H60.3505C60.4572 60.68 60.5478 60.7173 60.6225 60.792C60.6972 60.8667 60.7345 60.9573 60.7345 61.064V61.768C60.9478 61.4053 61.2412 61.1333 61.6145 60.952C61.9878 60.7707 62.4358 60.68 62.9585 60.68H63.5985C63.7052 60.68 63.7905 60.7173 63.8545 60.792C63.9185 60.856 63.9505 60.9413 63.9505 61.048V61.704C63.9505 61.8107 63.9185 61.896 63.8545 61.96C63.7905 62.024 63.7052 62.056 63.5985 62.056H62.6385C62.0625 62.056 61.6092 62.2267 61.2785 62.568C60.9478 62.8987 60.7825 63.352 60.7825 63.928V68.632C60.7825 68.7387 60.7452 68.8293 60.6705 68.904C60.5958 68.968 60.5052 69 60.3985 69H59.6145ZM65.7086 69C65.602 69 65.5113 68.968 65.4366 68.904C65.3726 68.8293 65.3406 68.7387 65.3406 68.632V58.008C65.3406 57.9013 65.3726 57.816 65.4366 57.752C65.5113 57.6773 65.602 57.64 65.7086 57.64H66.4606C66.5673 57.64 66.6526 57.6773 66.7166 57.752C66.7913 57.816 66.8286 57.9013 66.8286 58.008V63.576L69.9806 60.952C70.1086 60.8453 70.2046 60.776 70.2686 60.744C70.3433 60.7013 70.4606 60.68 70.6206 60.68H71.4686C71.5646 60.68 71.6446 60.712 71.7086 60.776C71.7726 60.84 71.8046 60.92 71.8046 61.016C71.8046 61.0587 71.7886 61.1067 71.7566 61.16C71.7353 61.2133 71.6873 61.2667 71.6126 61.32L67.9166 64.392L72.0126 68.376C72.1406 68.4827 72.2046 68.5787 72.2046 68.664C72.2046 68.76 72.1726 68.84 72.1086 68.904C72.0446 68.968 71.9646 69 71.8686 69H71.0366C70.8766 69 70.7593 68.984 70.6846 68.952C70.61 68.9093 70.514 68.8347 70.3966 68.728L66.8286 65.32V68.632C66.8286 68.7387 66.7913 68.8293 66.7166 68.904C66.6526 68.968 66.5673 69 66.4606 69H65.7086Z" fill="white"/>
</g>
<g clip-path="url(#clip3_2_26555)">
<path d="M48.1668 38V35.3333C48.1668 33.9188 47.6049 32.5623 46.6047 31.5621C45.6045 30.5619 44.248 30 42.8335 30H32.1668C30.7523 30 29.3958 30.5619 28.3956 31.5621C27.3954 32.5623 26.8335 33.9188 26.8335 35.3333V38" stroke="white" stroke-width="2" stroke-linecap="round" stroke-linejoin="round"/>
<path d="M37.4998 24.6667C40.4454 24.6667 42.8332 22.2789 42.8332 19.3333C42.8332 16.3878 40.4454 14 37.4998 14C34.5543 14 32.1665 16.3878 32.1665 19.3333C32.1665 22.2789 34.5543 24.6667 37.4998 24.6667Z" stroke="white" stroke-width="2" stroke-linecap="round" stroke-linejoin="round"/>
<path d="M56.1665 38.0005V35.3338C56.1656 34.1521 55.7723 33.0042 55.0483 32.0702C54.3243 31.1363 53.3107 30.4693 52.1665 30.1738" stroke="white" stroke-width="2" stroke-linecap="round" stroke-linejoin="round"/>
<path d="M46.8335 14.1738C47.9807 14.4676 48.9975 15.1348 49.7237 16.0702C50.4498 17.0057 50.844 18.1563 50.844 19.3405C50.844 20.5247 50.4498 21.6753 49.7237 22.6107C48.9975 23.5462 47.9807 24.2134 46.8335 24.5072" stroke="white" stroke-width="2" stroke-linecap="round" stroke-linejoin="round"/>
</g>
<path d="M11.76 69C11.6427 69 11.552 68.968 11.488 68.904C11.424 68.8293 11.392 68.7387 11.392 68.632V58.184C11.392 58.0667 11.424 57.976 11.488 57.912C11.552 57.8373 11.6427 57.8 11.76 57.8H12.496C12.624 57.8 12.72 57.832 12.784 57.896C12.848 57.9493 12.8853 57.992 12.896 58.024L18.208 66.184V58.184C18.208 58.0667 18.24 57.976 18.304 57.912C18.368 57.8373 18.4587 57.8 18.576 57.8H19.344C19.4613 57.8 19.552 57.8373 19.616 57.912C19.6907 57.976 19.728 58.0667 19.728 58.184V68.616C19.728 68.7227 19.6907 68.8133 19.616 68.888C19.552 68.9627 19.4667 69 19.36 69H18.592C18.4747 69 18.384 68.968 18.32 68.904C18.2667 68.84 18.2293 68.7973 18.208 68.776L12.912 60.696V68.632C12.912 68.7387 12.8747 68.8293 12.8 68.904C12.736 68.968 12.6453 69 12.528 69H11.76ZM25.6054 69.16C24.5067 69.16 23.632 68.824 22.9814 68.152C22.3307 67.4693 21.9734 66.5413 21.9094 65.368C21.8987 65.2293 21.8934 65.0533 21.8934 64.84C21.8934 64.616 21.8987 64.4347 21.9094 64.296C21.952 63.5387 22.128 62.8773 22.4374 62.312C22.7467 61.736 23.168 61.2933 23.7014 60.984C24.2454 60.6747 24.88 60.52 25.6054 60.52C26.416 60.52 27.0934 60.6907 27.6374 61.032C28.192 61.3733 28.6134 61.8587 28.9014 62.488C29.1894 63.1173 29.3334 63.8533 29.3334 64.696V64.968C29.3334 65.0853 29.296 65.176 29.2214 65.24C29.1574 65.304 29.072 65.336 28.9654 65.336H23.4294C23.4294 65.3467 23.4294 65.368 23.4294 65.4C23.4294 65.432 23.4294 65.4587 23.4294 65.48C23.4507 65.9173 23.5467 66.328 23.7174 66.712C23.888 67.0853 24.1334 67.3893 24.4534 67.624C24.7734 67.8587 25.1574 67.976 25.6054 67.976C25.9894 67.976 26.3094 67.9173 26.5654 67.8C26.8214 67.6827 27.0294 67.5547 27.1894 67.416C27.3494 67.2667 27.456 67.1547 27.5094 67.08C27.6054 66.9413 27.68 66.8613 27.7334 66.84C27.7867 66.808 27.872 66.792 27.9894 66.792H28.7574C28.864 66.792 28.9494 66.824 29.0134 66.888C29.088 66.9413 29.12 67.0213 29.1094 67.128C29.0987 67.288 29.0134 67.4853 28.8534 67.72C28.6934 67.944 28.464 68.168 28.1654 68.392C27.8667 68.616 27.504 68.8027 27.0774 68.952C26.6507 69.0907 26.16 69.16 25.6054 69.16ZM23.4294 64.232H27.8134V64.184C27.8134 63.704 27.7227 63.2773 27.5414 62.904C27.3707 62.5307 27.12 62.2373 26.7894 62.024C26.4587 61.8 26.064 61.688 25.6054 61.688C25.1467 61.688 24.752 61.8 24.4214 62.024C24.1014 62.2373 23.856 62.5307 23.6854 62.904C23.5147 63.2773 23.4294 63.704 23.4294 64.184V64.232ZM34.4476 69C33.8503 69 33.365 68.888 32.9916 68.664C32.6183 68.4293 32.3463 68.104 32.1756 67.688C32.005 67.2613 31.9196 66.76 31.9196 66.184V61.96H30.6716C30.565 61.96 30.4743 61.928 30.3996 61.864C30.3356 61.7893 30.3036 61.6987 30.3036 61.592V61.048C30.3036 60.9413 30.3356 60.856 30.3996 60.792C30.4743 60.7173 30.565 60.68 30.6716 60.68H31.9196V58.008C31.9196 57.9013 31.9516 57.816 32.0156 57.752C32.0903 57.6773 32.181 57.64 32.2876 57.64H33.0396C33.1463 57.64 33.2316 57.6773 33.2956 57.752C33.3703 57.816 33.4076 57.9013 33.4076 58.008V60.68H35.3916C35.4983 60.68 35.5836 60.7173 35.6476 60.792C35.7223 60.856 35.7596 60.9413 35.7596 61.048V61.592C35.7596 61.6987 35.7223 61.7893 35.6476 61.864C35.5836 61.928 35.4983 61.96 35.3916 61.96H33.4076V66.072C33.4076 66.5733 33.493 66.968 33.6636 67.256C33.8343 67.544 34.1383 67.688 34.5756 67.688H35.5516C35.6583 67.688 35.7436 67.7253 35.8076 67.8C35.8823 67.864 35.9196 67.9493 35.9196 68.056V68.632C35.9196 68.7387 35.8823 68.8293 35.8076 68.904C35.7436 68.968 35.6583 69 35.5516 69H34.4476ZM39.6576 69C39.519 69 39.4123 68.968 39.3376 68.904C39.263 68.8293 39.199 68.728 39.1456 68.6L36.8736 61.176C36.8523 61.1227 36.8416 61.0693 36.8416 61.016C36.8416 60.92 36.8736 60.84 36.9376 60.776C37.0123 60.712 37.0923 60.68 37.1776 60.68H37.8816C37.999 60.68 38.0896 60.712 38.1536 60.776C38.2176 60.84 38.2603 60.8987 38.2816 60.952L40.0576 66.984L41.9616 61.016C41.983 60.9413 42.0256 60.8667 42.0896 60.792C42.1643 60.7173 42.271 60.68 42.4096 60.68H42.9536C43.0923 60.68 43.199 60.7173 43.2736 60.792C43.3483 60.8667 43.391 60.9413 43.4016 61.016L45.3056 66.984L47.0816 60.952C47.0923 60.8987 47.1296 60.84 47.1936 60.776C47.2576 60.712 47.3483 60.68 47.4656 60.68H48.1696C48.2656 60.68 48.3456 60.712 48.4096 60.776C48.4736 60.84 48.5056 60.92 48.5056 61.016C48.5056 61.0693 48.495 61.1227 48.4736 61.176L46.2016 68.6C46.1696 68.728 46.111 68.8293 46.0256 68.904C45.951 68.968 45.839 69 45.6896 69H45.0656C44.927 69 44.8096 68.968 44.7136 68.904C44.6283 68.8293 44.5696 68.728 44.5376 68.6L42.6816 62.872L40.8256 68.6C40.783 68.728 40.719 68.8293 40.6336 68.904C40.5483 68.968 40.431 69 40.2816 69H39.6576ZM53.467 69.16C52.6563 69.16 51.979 69.0053 51.435 68.696C50.891 68.3867 50.475 67.96 50.187 67.416C49.899 66.8613 49.739 66.232 49.707 65.528C49.6963 65.3467 49.691 65.1173 49.691 64.84C49.691 64.552 49.6963 64.3227 49.707 64.152C49.739 63.4373 49.899 62.808 50.187 62.264C50.4857 61.72 50.907 61.2933 51.451 60.984C51.995 60.6747 52.667 60.52 53.467 60.52C54.267 60.52 54.939 60.6747 55.483 60.984C56.027 61.2933 56.443 61.72 56.731 62.264C57.0297 62.808 57.195 63.4373 57.227 64.152C57.2377 64.3227 57.243 64.552 57.243 64.84C57.243 65.1173 57.2377 65.3467 57.227 65.528C57.195 66.232 57.035 66.8613 56.747 67.416C56.459 67.96 56.043 68.3867 55.499 68.696C54.955 69.0053 54.2777 69.16 53.467 69.16ZM53.467 67.928C54.1283 67.928 54.6563 67.72 55.051 67.304C55.4457 66.8773 55.659 66.2587 55.691 65.448C55.7017 65.288 55.707 65.0853 55.707 64.84C55.707 64.5947 55.7017 64.392 55.691 64.232C55.659 63.4213 55.4457 62.808 55.051 62.392C54.6563 61.9653 54.1283 61.752 53.467 61.752C52.8057 61.752 52.2723 61.9653 51.867 62.392C51.4723 62.808 51.2643 63.4213 51.243 64.232C51.2323 64.392 51.227 64.5947 51.227 64.84C51.227 65.0853 51.2323 65.288 51.243 65.448C51.2643 66.2587 51.4723 66.8773 51.867 67.304C52.2723 67.72 52.8057 67.928 53.467 67.928ZM59.6145 69C59.5078 69 59.4172 68.968 59.3425 68.904C59.2785 68.8293 59.2465 68.7387 59.2465 68.632V61.064C59.2465 60.9573 59.2785 60.8667 59.3425 60.792C59.4172 60.7173 59.5078 60.68 59.6145 60.68H60.3505C60.4572 60.68 60.5478 60.7173 60.6225 60.792C60.6972 60.8667 60.7345 60.9573 60.7345 61.064V61.768C60.9478 61.4053 61.2412 61.1333 61.6145 60.952C61.9878 60.7707 62.4358 60.68 62.9585 60.68H63.5985C63.7052 60.68 63.7905 60.7173 63.8545 60.792C63.9185 60.856 63.9505 60.9413 63.9505 61.048V61.704C63.9505 61.8107 63.9185 61.896 63.8545 61.96C63.7905 62.024 63.7052 62.056 63.5985 62.056H62.6385C62.0625 62.056 61.6092 62.2267 61.2785 62.568C60.9478 62.8987 60.7825 63.352 60.7825 63.928V68.632C60.7825 68.7387 60.7452 68.8293 60.6705 68.904C60.5958 68.968 60.5052 69 60.3985 69H59.6145ZM65.7086 69C65.602 69 65.5113 68.968 65.4366 68.904C65.3726 68.8293 65.3406 68.7387 65.3406 68.632V58.008C65.3406 57.9013 65.3726 57.816 65.4366 57.752C65.5113 57.6773 65.602 57.64 65.7086 57.64H66.4606C66.5673 57.64 66.6526 57.6773 66.7166 57.752C66.7913 57.816 66.8286 57.9013 66.8286 58.008V63.576L69.9806 60.952C70.1086 60.8453 70.2046 60.776 70.2686 60.744C70.3433 60.7013 70.4606 60.68 70.6206 60.68H71.4686C71.5646 60.68 71.6446 60.712 71.7086 60.776C71.7726 60.84 71.8046 60.92 71.8046 61.016C71.8046 61.0587 71.7886 61.1067 71.7566 61.16C71.7353 61.2133 71.6873 61.2667 71.6126 61.32L67.9166 64.392L72.0126 68.376C72.1406 68.4827 72.2046 68.5787 72.2046 68.664C72.2046 68.76 72.1726 68.84 72.1086 68.904C72.0446 68.968 71.9646 69 71.8686 69H71.0366C70.8766 69 70.7593 68.984 70.6846 68.952C70.61 68.9093 70.514 68.8347 70.3966 68.728L66.8286 65.32V68.632C66.8286 68.7387 66.7913 68.8293 66.7166 68.904C66.6526 68.968 66.5673 69 66.4606 69H65.7086Z" fill="white"/>
<defs>
<filter id="filter0_f_2_26555" x="-4" y="-4" width="91" height="94" filterUnits="userSpaceOnUse" color-interpolation-filters="sRGB">
<feFlood flood-opacity="0" result="BackgroundImageFix"/>
<feBlend mode="normal" in="SourceGraphic" in2="BackgroundImageFix" result="shape"/>
<feGaussianBlur stdDeviation="2" result="effect1_foregroundBlur_2_26555"/>
</filter>
<filter id="filter1_f_2_26555" x="-2" y="-2" width="87" height="90" filterUnits="userSpaceOnUse" color-interpolation-filters="sRGB">
<feFlood flood-opacity="0" result="BackgroundImageFix"/>
<feBlend mode="normal" in="SourceGraphic" in2="BackgroundImageFix" result="shape"/>
<feGaussianBlur stdDeviation="1" result="effect1_foregroundBlur_2_26555"/>
</filter>
<filter id="filter2_f_2_26555" x="-1" y="-1" width="85" height="88" filterUnits="userSpaceOnUse" color-interpolation-filters="sRGB">
<feFlood flood-opacity="0" result="BackgroundImageFix"/>
<feBlend mode="normal" in="SourceGraphic" in2="BackgroundImageFix" result="shape"/>
<feGaussianBlur stdDeviation="0.5" result="effect1_foregroundBlur_2_26555"/>
</filter>
<clipPath id="clip0_2_26555">
<rect width="32" height="32" fill="white" transform="translate(25.5 10)"/>
</clipPath>
<clipPath id="clip1_2_26555">
<rect width="32" height="32" fill="white" transform="translate(25.5 10)"/>
</clipPath>
<clipPath id="clip2_2_26555">
<rect width="32" height="32" fill="white" transform="translate(25.5 10)"/>
</clipPath>
<clipPath id="clip3_2_26555">
<rect width="32" height="32" fill="white" transform="translate(25.5 10)"/>
</clipPath>
</defs>
</svg>
