<svg width="319" height="24" viewBox="0 0 319 24" fill="none" xmlns="http://www.w3.org/2000/svg">
<path d="M19 21L12 16L5 21V5C5 4.46957 5.21071 3.96086 5.58579 3.58579C5.96086 3.21071 6.46957 3 7 3H17C17.5304 3 18.0391 3.21071 18.4142 3.58579C18.7893 3.96086 19 4.46957 19 5V21Z" stroke="#6C5CE7" stroke-width="2" stroke-linecap="round" stroke-linejoin="round"/>
<path d="M37.4451 17.16C36.5171 17.16 35.7385 17.0213 35.1091 16.744C34.4798 16.456 33.9945 16.088 33.6531 15.64C33.3225 15.1813 33.1465 14.696 33.1251 14.184C33.1251 14.0987 33.1571 14.024 33.2211 13.96C33.2958 13.8853 33.3811 13.848 33.4771 13.848H34.2931C34.4211 13.848 34.5171 13.88 34.5811 13.944C34.6451 14.008 34.6878 14.0827 34.7091 14.168C34.7625 14.424 34.8905 14.68 35.0931 14.936C35.3065 15.1813 35.5998 15.3893 35.9731 15.56C36.3571 15.72 36.8478 15.8 37.4451 15.8C38.3625 15.8 39.0345 15.64 39.4611 15.32C39.8985 14.9893 40.1171 14.552 40.1171 14.008C40.1171 13.6347 39.9998 13.336 39.7651 13.112C39.5411 12.8773 39.1945 12.6693 38.7251 12.488C38.2558 12.3067 37.6478 12.1093 36.9011 11.896C36.1225 11.672 35.4771 11.4267 34.9651 11.16C34.4531 10.8933 34.0691 10.5627 33.8131 10.168C33.5678 9.77333 33.4451 9.272 33.4451 8.664C33.4451 8.088 33.5998 7.576 33.9091 7.128C34.2185 6.66933 34.6611 6.30667 35.2371 6.04C35.8238 5.77333 36.5331 5.64 37.3651 5.64C38.0265 5.64 38.6025 5.73067 39.0931 5.912C39.5945 6.08267 40.0105 6.31733 40.3411 6.616C40.6718 6.904 40.9225 7.21867 41.0931 7.56C41.2638 7.89067 41.3545 8.216 41.3651 8.536C41.3651 8.61067 41.3385 8.68533 41.2851 8.76C41.2318 8.824 41.1465 8.856 41.0291 8.856H40.1811C40.1065 8.856 40.0265 8.83467 39.9411 8.792C39.8665 8.74933 39.8078 8.66933 39.7651 8.552C39.7011 8.11467 39.4558 7.74667 39.0291 7.448C38.6025 7.14933 38.0478 7 37.3651 7C36.6718 7 36.1065 7.13333 35.6691 7.4C35.2425 7.66667 35.0291 8.08267 35.0291 8.648C35.0291 9.01067 35.1305 9.31467 35.3331 9.56C35.5358 9.79467 35.8558 10.0027 36.2931 10.184C36.7305 10.3653 37.3011 10.5573 38.0051 10.76C38.8585 10.9947 39.5571 11.2453 40.1011 11.512C40.6451 11.768 41.0451 12.0933 41.3011 12.488C41.5678 12.872 41.7011 13.368 41.7011 13.976C41.7011 14.648 41.5251 15.224 41.1731 15.704C40.8211 16.1733 40.3251 16.536 39.6851 16.792C39.0558 17.0373 38.3091 17.16 37.4451 17.16ZM45.9103 17.16C45.3769 17.16 44.8916 17.0533 44.4543 16.84C44.0169 16.6267 43.6649 16.3387 43.3983 15.976C43.1316 15.6133 42.9983 15.2027 42.9983 14.744C42.9983 14.008 43.2969 13.4213 43.8943 12.984C44.4916 12.5467 45.2703 12.2587 46.2303 12.12L48.6143 11.784V11.32C48.6143 10.808 48.4649 10.408 48.1663 10.12C47.8783 9.832 47.4036 9.688 46.7423 9.688C46.2623 9.688 45.8729 9.784 45.5743 9.976C45.2863 10.168 45.0836 10.4133 44.9663 10.712C44.9023 10.872 44.7903 10.952 44.6303 10.952H43.9103C43.7929 10.952 43.7023 10.92 43.6383 10.856C43.5849 10.7813 43.5583 10.696 43.5583 10.6C43.5583 10.44 43.6169 10.2427 43.7343 10.008C43.8623 9.77333 44.0543 9.544 44.3103 9.32C44.5663 9.096 44.8916 8.90933 45.2863 8.76C45.6916 8.6 46.1823 8.52 46.7583 8.52C47.3983 8.52 47.9369 8.60533 48.3743 8.776C48.8116 8.936 49.1529 9.15467 49.3983 9.432C49.6543 9.70933 49.8356 10.024 49.9423 10.376C50.0596 10.728 50.1183 11.0853 50.1183 11.448V16.632C50.1183 16.7387 50.0809 16.8293 50.0063 16.904C49.9423 16.968 49.8569 17 49.7503 17H49.0143C48.8969 17 48.8063 16.968 48.7423 16.904C48.6783 16.8293 48.6463 16.7387 48.6463 16.632V15.944C48.5076 16.136 48.3209 16.328 48.0863 16.52C47.8516 16.7013 47.5583 16.856 47.2063 16.984C46.8543 17.1013 46.4223 17.16 45.9103 17.16ZM46.2463 15.96C46.6836 15.96 47.0836 15.8693 47.4463 15.688C47.8089 15.496 48.0916 15.2027 48.2943 14.808C48.5076 14.4133 48.6143 13.9173 48.6143 13.32V12.872L46.7583 13.144C46.0009 13.2507 45.4303 13.432 45.0463 13.688C44.6623 13.9333 44.4703 14.248 44.4703 14.632C44.4703 14.9307 44.5556 15.1813 44.7263 15.384C44.9076 15.576 45.1316 15.72 45.3983 15.816C45.6756 15.912 45.9583 15.96 46.2463 15.96ZM55.1581 17C54.9981 17 54.8701 16.9627 54.7741 16.888C54.6888 16.8133 54.6195 16.7173 54.5661 16.6L51.6061 9.176C51.5848 9.12267 51.5741 9.06933 51.5741 9.016C51.5741 8.92 51.6061 8.84 51.6701 8.776C51.7341 8.712 51.8141 8.68 51.9101 8.68H52.6781C52.7955 8.68 52.8861 8.712 52.9501 8.776C53.0141 8.84 53.0515 8.89867 53.0621 8.952L55.5101 15.256L57.9421 8.952C57.9635 8.89867 58.0008 8.84 58.0541 8.776C58.1181 8.712 58.2088 8.68 58.3261 8.68H59.1101C59.1955 8.68 59.2701 8.712 59.3341 8.776C59.4088 8.84 59.4461 8.92 59.4461 9.016C59.4461 9.06933 59.4355 9.12267 59.4141 9.176L56.4381 16.6C56.3955 16.7173 56.3261 16.8133 56.2301 16.888C56.1448 16.9627 56.0168 17 55.8461 17H55.1581ZM64.1366 17.16C63.038 17.16 62.1633 16.824 61.5126 16.152C60.862 15.4693 60.5046 14.5413 60.4406 13.368C60.43 13.2293 60.4246 13.0533 60.4246 12.84C60.4246 12.616 60.43 12.4347 60.4406 12.296C60.4833 11.5387 60.6593 10.8773 60.9686 10.312C61.278 9.736 61.6993 9.29333 62.2326 8.984C62.7766 8.67467 63.4113 8.52 64.1366 8.52C64.9473 8.52 65.6246 8.69067 66.1686 9.032C66.7233 9.37333 67.1446 9.85867 67.4326 10.488C67.7206 11.1173 67.8646 11.8533 67.8646 12.696V12.968C67.8646 13.0853 67.8273 13.176 67.7526 13.24C67.6886 13.304 67.6033 13.336 67.4966 13.336H61.9606C61.9606 13.3467 61.9606 13.368 61.9606 13.4C61.9606 13.432 61.9606 13.4587 61.9606 13.48C61.982 13.9173 62.078 14.328 62.2486 14.712C62.4193 15.0853 62.6646 15.3893 62.9846 15.624C63.3046 15.8587 63.6886 15.976 64.1366 15.976C64.5206 15.976 64.8406 15.9173 65.0966 15.8C65.3526 15.6827 65.5606 15.5547 65.7206 15.416C65.8806 15.2667 65.9873 15.1547 66.0406 15.08C66.1366 14.9413 66.2113 14.8613 66.2646 14.84C66.318 14.808 66.4033 14.792 66.5206 14.792H67.2886C67.3953 14.792 67.4806 14.824 67.5446 14.888C67.6193 14.9413 67.6513 15.0213 67.6406 15.128C67.63 15.288 67.5446 15.4853 67.3846 15.72C67.2246 15.944 66.9953 16.168 66.6966 16.392C66.398 16.616 66.0353 16.8027 65.6086 16.952C65.182 17.0907 64.6913 17.16 64.1366 17.16ZM61.9606 12.232H66.3446V12.184C66.3446 11.704 66.254 11.2773 66.0726 10.904C65.902 10.5307 65.6513 10.2373 65.3206 10.024C64.99 9.8 64.5953 9.688 64.1366 9.688C63.678 9.688 63.2833 9.8 62.9526 10.024C62.6326 10.2373 62.3873 10.5307 62.2166 10.904C62.046 11.2773 61.9606 11.704 61.9606 12.184V12.232ZM72.8177 17.16C72.2311 17.16 71.7244 17.0587 71.2978 16.856C70.8711 16.6427 70.5191 16.36 70.2418 16.008C69.9751 15.6453 69.7724 15.2347 69.6338 14.776C69.5058 14.3173 69.4311 13.832 69.4098 13.32C69.3991 13.1493 69.3938 12.9893 69.3938 12.84C69.3938 12.6907 69.3991 12.5307 69.4098 12.36C69.4311 11.8587 69.5058 11.3787 69.6338 10.92C69.7724 10.4613 69.9751 10.0507 70.2418 9.688C70.5191 9.32533 70.8711 9.04267 71.2978 8.84C71.7244 8.62667 72.2311 8.52 72.8177 8.52C73.4471 8.52 73.9698 8.632 74.3858 8.856C74.8018 9.08 75.1431 9.35733 75.4098 9.688V6.008C75.4098 5.90133 75.4418 5.816 75.5058 5.752C75.5804 5.67733 75.6711 5.64 75.7778 5.64H76.5458C76.6524 5.64 76.7378 5.67733 76.8018 5.752C76.8764 5.816 76.9138 5.90133 76.9138 6.008V16.632C76.9138 16.7387 76.8764 16.8293 76.8018 16.904C76.7378 16.968 76.6524 17 76.5458 17H75.8258C75.7084 17 75.6178 16.968 75.5538 16.904C75.4898 16.8293 75.4578 16.7387 75.4578 16.632V15.96C75.1911 16.3013 74.8444 16.5893 74.4178 16.824C73.9911 17.048 73.4578 17.16 72.8177 17.16ZM73.1538 15.864C73.6871 15.864 74.1138 15.7413 74.4338 15.496C74.7538 15.2507 74.9938 14.9413 75.1538 14.568C75.3138 14.184 75.3991 13.7947 75.4098 13.4C75.4204 13.2293 75.4258 13.0267 75.4258 12.792C75.4258 12.5467 75.4204 12.3387 75.4098 12.168C75.3991 11.7947 75.3084 11.4267 75.1378 11.064C74.9778 10.7013 74.7324 10.4027 74.4018 10.168C74.0818 9.93333 73.6658 9.816 73.1538 9.816C72.6098 9.816 72.1778 9.93867 71.8578 10.184C71.5378 10.4187 71.3084 10.7333 71.1698 11.128C71.0311 11.512 70.9511 11.928 70.9298 12.376C70.9191 12.6853 70.9191 12.9947 70.9298 13.304C70.9511 13.752 71.0311 14.1733 71.1698 14.568C71.3084 14.952 71.5378 15.2667 71.8578 15.512C72.1778 15.7467 72.6098 15.864 73.1538 15.864ZM86.5273 17.16C85.4286 17.16 84.5539 16.824 83.9033 16.152C83.2526 15.4693 82.8953 14.5413 82.8313 13.368C82.8206 13.2293 82.8153 13.0533 82.8153 12.84C82.8153 12.616 82.8206 12.4347 82.8313 12.296C82.8739 11.5387 83.0499 10.8773 83.3593 10.312C83.6686 9.736 84.0899 9.29333 84.6233 8.984C85.1673 8.67467 85.8019 8.52 86.5273 8.52C87.3379 8.52 88.0153 8.69067 88.5593 9.032C89.1139 9.37333 89.5353 9.85867 89.8233 10.488C90.1113 11.1173 90.2552 11.8533 90.2552 12.696V12.968C90.2552 13.0853 90.2179 13.176 90.1433 13.24C90.0793 13.304 89.9939 13.336 89.8873 13.336H84.3513C84.3513 13.3467 84.3513 13.368 84.3513 13.4C84.3513 13.432 84.3513 13.4587 84.3513 13.48C84.3726 13.9173 84.4686 14.328 84.6393 14.712C84.8099 15.0853 85.0553 15.3893 85.3753 15.624C85.6953 15.8587 86.0793 15.976 86.5273 15.976C86.9113 15.976 87.2313 15.9173 87.4873 15.8C87.7433 15.6827 87.9513 15.5547 88.1113 15.416C88.2713 15.2667 88.3779 15.1547 88.4313 15.08C88.5273 14.9413 88.6019 14.8613 88.6553 14.84C88.7086 14.808 88.7939 14.792 88.9113 14.792H89.6793C89.7859 14.792 89.8713 14.824 89.9353 14.888C90.0099 14.9413 90.0419 15.0213 90.0312 15.128C90.0206 15.288 89.9353 15.4853 89.7753 15.72C89.6153 15.944 89.3859 16.168 89.0873 16.392C88.7886 16.616 88.4259 16.8027 87.9993 16.952C87.5726 17.0907 87.0819 17.16 86.5273 17.16ZM84.3513 12.232H88.7353V12.184C88.7353 11.704 88.6446 11.2773 88.4633 10.904C88.2926 10.5307 88.0419 10.2373 87.7113 10.024C87.3806 9.8 86.9859 9.688 86.5273 9.688C86.0686 9.688 85.6739 9.8 85.3433 10.024C85.0233 10.2373 84.7779 10.5307 84.6073 10.904C84.4366 11.2773 84.3513 11.704 84.3513 12.184V12.232ZM92.5524 17C92.4457 17 92.355 16.968 92.2804 16.904C92.2164 16.8293 92.1844 16.7387 92.1844 16.632V6.008C92.1844 5.90133 92.2164 5.816 92.2804 5.752C92.355 5.67733 92.4457 5.64 92.5524 5.64H93.3044C93.4217 5.64 93.5124 5.67733 93.5764 5.752C93.6404 5.816 93.6724 5.90133 93.6724 6.008V16.632C93.6724 16.7387 93.6404 16.8293 93.5764 16.904C93.5124 16.968 93.4217 17 93.3044 17H92.5524ZM99.371 17.16C98.2723 17.16 97.3977 16.824 96.747 16.152C96.0963 15.4693 95.739 14.5413 95.675 13.368C95.6643 13.2293 95.659 13.0533 95.659 12.84C95.659 12.616 95.6643 12.4347 95.675 12.296C95.7177 11.5387 95.8937 10.8773 96.203 10.312C96.5123 9.736 96.9337 9.29333 97.467 8.984C98.011 8.67467 98.6457 8.52 99.371 8.52C100.182 8.52 100.859 8.69067 101.403 9.032C101.958 9.37333 102.379 9.85867 102.667 10.488C102.955 11.1173 103.099 11.8533 103.099 12.696V12.968C103.099 13.0853 103.062 13.176 102.987 13.24C102.923 13.304 102.838 13.336 102.731 13.336H97.195C97.195 13.3467 97.195 13.368 97.195 13.4C97.195 13.432 97.195 13.4587 97.195 13.48C97.2163 13.9173 97.3123 14.328 97.483 14.712C97.6537 15.0853 97.899 15.3893 98.219 15.624C98.539 15.8587 98.923 15.976 99.371 15.976C99.755 15.976 100.075 15.9173 100.331 15.8C100.587 15.6827 100.795 15.5547 100.955 15.416C101.115 15.2667 101.222 15.1547 101.275 15.08C101.371 14.9413 101.446 14.8613 101.499 14.84C101.552 14.808 101.638 14.792 101.755 14.792H102.523C102.63 14.792 102.715 14.824 102.779 14.888C102.854 14.9413 102.886 15.0213 102.875 15.128C102.864 15.288 102.779 15.4853 102.619 15.72C102.459 15.944 102.23 16.168 101.931 16.392C101.632 16.616 101.27 16.8027 100.843 16.952C100.416 17.0907 99.9257 17.16 99.371 17.16ZM97.195 12.232H101.579V12.184C101.579 11.704 101.488 11.2773 101.307 10.904C101.136 10.5307 100.886 10.2373 100.555 10.024C100.224 9.8 99.8297 9.688 99.371 9.688C98.9123 9.688 98.5177 9.8 98.187 10.024C97.867 10.2373 97.6217 10.5307 97.451 10.904C97.2803 11.2773 97.195 11.704 97.195 12.184V12.232ZM105.38 17C105.273 17 105.183 16.968 105.108 16.904C105.044 16.8293 105.012 16.7387 105.012 16.632V9.048C105.012 8.94133 105.044 8.856 105.108 8.792C105.183 8.71733 105.273 8.68 105.38 8.68H106.1C106.207 8.68 106.292 8.71733 106.356 8.792C106.431 8.856 106.468 8.94133 106.468 9.048V9.608C106.713 9.27733 107.023 9.016 107.396 8.824C107.769 8.62133 108.217 8.52 108.74 8.52C109.945 8.50933 110.799 9 111.3 9.992C111.545 9.544 111.903 9.18667 112.372 8.92C112.841 8.65333 113.375 8.52 113.972 8.52C114.527 8.52 115.028 8.648 115.476 8.904C115.935 9.16 116.292 9.54933 116.548 10.072C116.815 10.584 116.948 11.2293 116.948 12.008V16.632C116.948 16.7387 116.911 16.8293 116.836 16.904C116.772 16.968 116.687 17 116.58 17H115.828C115.721 17 115.631 16.968 115.556 16.904C115.492 16.8293 115.46 16.7387 115.46 16.632V12.152C115.46 11.5547 115.375 11.0853 115.204 10.744C115.033 10.4027 114.804 10.1627 114.516 10.024C114.228 9.88533 113.913 9.816 113.572 9.816C113.295 9.816 113.012 9.88533 112.724 10.024C112.436 10.1627 112.196 10.4027 112.004 10.744C111.823 11.0853 111.732 11.5547 111.732 12.152V16.632C111.732 16.7387 111.695 16.8293 111.62 16.904C111.556 16.968 111.471 17 111.364 17H110.612C110.505 17 110.415 16.968 110.34 16.904C110.276 16.8293 110.244 16.7387 110.244 16.632V12.152C110.244 11.5547 110.153 11.0853 109.972 10.744C109.791 10.4027 109.556 10.1627 109.268 10.024C108.98 9.88533 108.676 9.816 108.356 9.816C108.079 9.816 107.796 9.88533 107.508 10.024C107.22 10.1627 106.98 10.4027 106.788 10.744C106.607 11.0853 106.516 11.5493 106.516 12.136V16.632C106.516 16.7387 106.479 16.8293 106.404 16.904C106.34 16.968 106.255 17 106.148 17H105.38ZM122.543 17.16C121.444 17.16 120.57 16.824 119.919 16.152C119.268 15.4693 118.911 14.5413 118.847 13.368C118.836 13.2293 118.831 13.0533 118.831 12.84C118.831 12.616 118.836 12.4347 118.847 12.296C118.89 11.5387 119.066 10.8773 119.375 10.312C119.684 9.736 120.106 9.29333 120.639 8.984C121.183 8.67467 121.818 8.52 122.543 8.52C123.354 8.52 124.031 8.69067 124.575 9.032C125.13 9.37333 125.551 9.85867 125.839 10.488C126.127 11.1173 126.271 11.8533 126.271 12.696V12.968C126.271 13.0853 126.234 13.176 126.159 13.24C126.095 13.304 126.01 13.336 125.903 13.336H120.367C120.367 13.3467 120.367 13.368 120.367 13.4C120.367 13.432 120.367 13.4587 120.367 13.48C120.388 13.9173 120.484 14.328 120.655 14.712C120.826 15.0853 121.071 15.3893 121.391 15.624C121.711 15.8587 122.095 15.976 122.543 15.976C122.927 15.976 123.247 15.9173 123.503 15.8C123.759 15.6827 123.967 15.5547 124.127 15.416C124.287 15.2667 124.394 15.1547 124.447 15.08C124.543 14.9413 124.618 14.8613 124.671 14.84C124.724 14.808 124.81 14.792 124.927 14.792H125.695C125.802 14.792 125.887 14.824 125.951 14.888C126.026 14.9413 126.058 15.0213 126.047 15.128C126.036 15.288 125.951 15.4853 125.791 15.72C125.631 15.944 125.402 16.168 125.103 16.392C124.804 16.616 124.442 16.8027 124.015 16.952C123.588 17.0907 123.098 17.16 122.543 17.16ZM120.367 12.232H124.751V12.184C124.751 11.704 124.66 11.2773 124.479 10.904C124.308 10.5307 124.058 10.2373 123.727 10.024C123.396 9.8 123.002 9.688 122.543 9.688C122.084 9.688 121.69 9.8 121.359 10.024C121.039 10.2373 120.794 10.5307 120.623 10.904C120.452 11.2773 120.367 11.704 120.367 12.184V12.232ZM128.552 17C128.445 17 128.355 16.968 128.28 16.904C128.216 16.8293 128.184 16.7387 128.184 16.632V9.048C128.184 8.94133 128.216 8.856 128.28 8.792C128.355 8.71733 128.445 8.68 128.552 8.68H129.304C129.411 8.68 129.496 8.71733 129.56 8.792C129.635 8.856 129.672 8.94133 129.672 9.048V9.752C129.949 9.38933 130.296 9.096 130.712 8.872C131.139 8.63733 131.683 8.52 132.344 8.52C133.037 8.52 133.624 8.67467 134.104 8.984C134.595 9.28267 134.963 9.704 135.208 10.248C135.453 10.7813 135.576 11.4053 135.576 12.12V16.632C135.576 16.7387 135.544 16.8293 135.48 16.904C135.416 16.968 135.331 17 135.224 17H134.424C134.317 17 134.227 16.968 134.152 16.904C134.088 16.8293 134.056 16.7387 134.056 16.632V12.2C134.056 11.4533 133.875 10.872 133.512 10.456C133.149 10.0293 132.616 9.816 131.912 9.816C131.251 9.816 130.717 10.0293 130.312 10.456C129.917 10.872 129.72 11.4533 129.72 12.2V16.632C129.72 16.7387 129.683 16.8293 129.608 16.904C129.544 16.968 129.459 17 129.352 17H128.552ZM141.026 17C140.428 17 139.943 16.888 139.57 16.664C139.196 16.4293 138.924 16.104 138.754 15.688C138.583 15.2613 138.498 14.76 138.498 14.184V9.96H137.25C137.143 9.96 137.052 9.928 136.978 9.864C136.914 9.78933 136.882 9.69867 136.882 9.592V9.048C136.882 8.94133 136.914 8.856 136.978 8.792C137.052 8.71733 137.143 8.68 137.25 8.68H138.498V6.008C138.498 5.90133 138.53 5.816 138.594 5.752C138.668 5.67733 138.759 5.64 138.866 5.64H139.618C139.724 5.64 139.81 5.67733 139.874 5.752C139.948 5.816 139.986 5.90133 139.986 6.008V8.68H141.97C142.076 8.68 142.162 8.71733 142.226 8.792C142.3 8.856 142.338 8.94133 142.338 9.048V9.592C142.338 9.69867 142.3 9.78933 142.226 9.864C142.162 9.928 142.076 9.96 141.97 9.96H139.986V14.072C139.986 14.5733 140.071 14.968 140.242 15.256C140.412 15.544 140.716 15.688 141.154 15.688H142.13C142.236 15.688 142.322 15.7253 142.386 15.8C142.46 15.864 142.498 15.9493 142.498 16.056V16.632C142.498 16.7387 142.46 16.8293 142.386 16.904C142.322 16.968 142.236 17 142.13 17H141.026ZM146.908 17.16C146.31 17.16 145.798 17.0853 145.372 16.936C144.945 16.7867 144.598 16.6053 144.332 16.392C144.065 16.1787 143.862 15.9653 143.724 15.752C143.596 15.5387 143.526 15.368 143.516 15.24C143.505 15.1227 143.542 15.032 143.628 14.968C143.713 14.904 143.798 14.872 143.884 14.872H144.588C144.652 14.872 144.7 14.8827 144.732 14.904C144.774 14.9147 144.828 14.9573 144.892 15.032C145.03 15.1813 145.185 15.3307 145.356 15.48C145.526 15.6293 145.734 15.752 145.98 15.848C146.236 15.944 146.55 15.992 146.924 15.992C147.468 15.992 147.916 15.8907 148.268 15.688C148.62 15.4747 148.796 15.1653 148.796 14.76C148.796 14.4933 148.721 14.28 148.572 14.12C148.433 13.96 148.177 13.816 147.804 13.688C147.441 13.56 146.94 13.4267 146.3 13.288C145.66 13.1387 145.153 12.9573 144.78 12.744C144.406 12.52 144.14 12.2587 143.98 11.96C143.82 11.6507 143.74 11.304 143.74 10.92C143.74 10.5253 143.857 10.1467 144.092 9.784C144.326 9.41067 144.668 9.10667 145.116 8.872C145.574 8.63733 146.145 8.52 146.828 8.52C147.382 8.52 147.857 8.58933 148.252 8.728C148.646 8.86667 148.972 9.04267 149.228 9.256C149.484 9.45867 149.676 9.66133 149.804 9.864C149.932 10.0667 150.001 10.2373 150.012 10.376C150.022 10.4827 149.99 10.5733 149.916 10.648C149.841 10.712 149.756 10.744 149.66 10.744H148.988C148.913 10.744 148.849 10.728 148.796 10.696C148.753 10.664 148.71 10.6267 148.668 10.584C148.561 10.4453 148.433 10.3067 148.284 10.168C148.145 10.0293 147.958 9.91733 147.724 9.832C147.5 9.736 147.201 9.688 146.828 9.688C146.294 9.688 145.894 9.8 145.628 10.024C145.361 10.248 145.228 10.5307 145.228 10.872C145.228 11.0747 145.286 11.256 145.404 11.416C145.521 11.576 145.745 11.72 146.076 11.848C146.406 11.976 146.897 12.1147 147.548 12.264C148.252 12.4027 148.806 12.5893 149.212 12.824C149.617 13.0587 149.905 13.3307 150.076 13.64C150.246 13.9493 150.332 14.3067 150.332 14.712C150.332 15.16 150.198 15.5707 149.932 15.944C149.676 16.3173 149.292 16.616 148.78 16.84C148.278 17.0533 147.654 17.16 146.908 17.16Z" fill="#6C5CE7"/>
</svg>
