<svg width="16" height="20" viewBox="0 0 16 20" fill="none" xmlns="http://www.w3.org/2000/svg">
<path fill-rule="evenodd" clip-rule="evenodd" d="M5 2C3.34315 2 2 3.34315 2 5V15C2 16.6569 3.34315 18 5 18H11C12.6569 18 14 16.6569 14 15V8H11C9.34315 8 8 6.65685 8 5V2H5ZM10 3.41421L12.5858 6H11C10.4477 6 10 5.55228 10 5V3.41421ZM0 5C0 2.23858 2.23858 0 5 0H9C9.26522 0 9.51957 0.105357 9.70711 0.292893L15.7071 6.29289C15.8946 6.48043 16 6.73478 16 7V15C16 17.7614 13.7614 20 11 20H5C2.23858 20 0 17.7614 0 15V5ZM5.29289 11.2929L7.29289 9.29289C7.68342 8.90237 8.31658 8.90237 8.70711 9.29289L10.7071 11.2929C11.0976 11.6834 11.0976 12.3166 10.7071 12.7071C10.3166 13.0976 9.68342 13.0976 9.29289 12.7071L9 12.4142V15C9 15.5523 8.55228 16 8 16C7.44772 16 7 15.5523 7 15L7 12.4142L6.70711 12.7071C6.31658 13.0976 5.68342 13.0976 5.29289 12.7071C4.90237 12.3166 4.90237 11.6834 5.29289 11.2929Z" fill="#2D3436"/>
</svg>
