<svg width="32" height="32" viewBox="0 0 32 32" fill="none" xmlns="http://www.w3.org/2000/svg">
<path fill-rule="evenodd" clip-rule="evenodd" d="M16 27C22.0751 27 27 22.0751 27 16C27 9.92487 22.0751 5 16 5C9.92487 5 5 9.92487 5 16C5 22.0751 9.92487 27 16 27ZM29 16C29 23.1797 23.1797 29 16 29C8.8203 29 3 23.1797 3 16C3 8.8203 8.8203 3 16 3C23.1797 3 29 8.8203 29 16Z" fill="#FFFDFD"/>
<path fill-rule="evenodd" clip-rule="evenodd" d="M21.169 18.2433C20.7584 18.6127 20.1262 18.5795 19.7567 18.169L16 13.9948L12.2433 18.169C11.8738 18.5795 11.2415 18.6127 10.831 18.2433C10.4205 17.8738 10.3872 17.2415 10.7567 16.831L15.2567 11.831C15.4463 11.6203 15.7165 11.5 16 11.5C16.2835 11.5 16.5536 11.6203 16.7433 11.831L21.2433 16.831C21.6127 17.2415 21.5795 17.8738 21.169 18.2433Z" fill="#FFFDFD"/>
</svg>
