<svg width="110" height="44" viewBox="0 0 110 44" fill="none" xmlns="http://www.w3.org/2000/svg">
<g clip-path="url(#clip0_2_27382)">
<path d="M33 29C33 29.5304 32.7893 30.0391 32.4142 30.4142C32.0391 30.7893 31.5304 31 31 31H13C12.4696 31 11.9609 30.7893 11.5858 30.4142C11.2107 30.0391 11 29.5304 11 29V18C11 17.4696 11.2107 16.9609 11.5858 16.5858C11.9609 16.2107 12.4696 16 13 16H17L19 13H25L27 16H31C31.5304 16 32.0391 16.2107 32.4142 16.5858C32.7893 16.9609 33 17.4696 33 18V29Z" stroke="#6C5CE7" stroke-width="2" stroke-linecap="round" stroke-linejoin="round"/>
<path d="M22 27C24.2091 27 26 25.2091 26 23C26 20.7909 24.2091 19 22 19C19.7909 19 18 20.7909 18 23C18 25.2091 19.7909 27 22 27Z" stroke="#6C5CE7" stroke-width="2" stroke-linecap="round" stroke-linejoin="round"/>
</g>
<path d="M46.2 29C46.0533 29 45.94 28.96 45.86 28.88C45.78 28.7867 45.74 28.6733 45.74 28.54V15.48C45.74 15.3333 45.78 15.22 45.86 15.14C45.94 15.0467 46.0533 15 46.2 15H51.28C52.2667 15 53.12 15.16 53.84 15.48C54.5733 15.8 55.14 16.28 55.54 16.92C55.94 17.5467 56.14 18.3333 56.14 19.28C56.14 20.2267 55.94 21.0133 55.54 21.64C55.14 22.2667 54.5733 22.74 53.84 23.06C53.12 23.38 52.2667 23.54 51.28 23.54H47.74V28.54C47.74 28.6733 47.6933 28.7867 47.6 28.88C47.52 28.96 47.4067 29 47.26 29H46.2ZM47.72 21.86H51.18C52.1667 21.86 52.9067 21.64 53.4 21.2C53.8933 20.76 54.14 20.12 54.14 19.28C54.14 18.4533 53.9 17.8133 53.42 17.36C52.94 16.9067 52.1933 16.68 51.18 16.68H47.72V21.86ZM58.792 29C58.6587 29 58.5454 28.96 58.452 28.88C58.372 28.7867 58.332 28.6733 58.332 28.54V15.26C58.332 15.1267 58.372 15.02 58.452 14.94C58.5454 14.8467 58.6587 14.8 58.792 14.8H59.792C59.9387 14.8 60.052 14.8467 60.132 14.94C60.212 15.02 60.252 15.1267 60.252 15.26V19.92C60.612 19.4667 61.052 19.1 61.572 18.82C62.092 18.54 62.752 18.4 63.552 18.4C64.4187 18.4 65.152 18.5933 65.752 18.98C66.3654 19.3533 66.8254 19.88 67.132 20.56C67.452 21.2267 67.612 22.0067 67.612 22.9V28.54C67.612 28.6733 67.572 28.7867 67.492 28.88C67.412 28.96 67.2987 29 67.152 29H66.152C66.0187 29 65.9054 28.96 65.812 28.88C65.732 28.7867 65.692 28.6733 65.692 28.54V23C65.692 22.0667 65.4654 21.34 65.012 20.82C64.5587 20.2867 63.892 20.02 63.012 20.02C62.1854 20.02 61.5187 20.2867 61.012 20.82C60.5054 21.34 60.252 22.0667 60.252 23V28.54C60.252 28.6733 60.212 28.7867 60.132 28.88C60.052 28.96 59.9387 29 59.792 29H58.792ZM74.7595 29.2C73.7462 29.2 72.8995 29.0067 72.2195 28.62C71.5395 28.2333 71.0195 27.7 70.6595 27.02C70.2995 26.3267 70.0995 25.54 70.0595 24.66C70.0462 24.4333 70.0395 24.1467 70.0395 23.8C70.0395 23.44 70.0462 23.1533 70.0595 22.94C70.0995 22.0467 70.2995 21.26 70.6595 20.58C71.0329 19.9 71.5595 19.3667 72.2395 18.98C72.9195 18.5933 73.7595 18.4 74.7595 18.4C75.7595 18.4 76.5995 18.5933 77.2795 18.98C77.9595 19.3667 78.4795 19.9 78.8395 20.58C79.2129 21.26 79.4195 22.0467 79.4595 22.94C79.4729 23.1533 79.4795 23.44 79.4795 23.8C79.4795 24.1467 79.4729 24.4333 79.4595 24.66C79.4195 25.54 79.2195 26.3267 78.8595 27.02C78.4995 27.7 77.9795 28.2333 77.2995 28.62C76.6195 29.0067 75.7729 29.2 74.7595 29.2ZM74.7595 27.66C75.5862 27.66 76.2462 27.4 76.7395 26.88C77.2329 26.3467 77.4995 25.5733 77.5395 24.56C77.5529 24.36 77.5595 24.1067 77.5595 23.8C77.5595 23.4933 77.5529 23.24 77.5395 23.04C77.4995 22.0267 77.2329 21.26 76.7395 20.74C76.2462 20.2067 75.5862 19.94 74.7595 19.94C73.9329 19.94 73.2662 20.2067 72.7595 20.74C72.2662 21.26 72.0062 22.0267 71.9795 23.04C71.9662 23.24 71.9595 23.4933 71.9595 23.8C71.9595 24.1067 71.9662 24.36 71.9795 24.56C72.0062 25.5733 72.2662 26.3467 72.7595 26.88C73.2662 27.4 73.9329 27.66 74.7595 27.66ZM85.9463 29C85.1996 29 84.5929 28.86 84.1263 28.58C83.6596 28.2867 83.3196 27.88 83.1063 27.36C82.8929 26.8267 82.7863 26.2 82.7863 25.48V20.2H81.2263C81.0929 20.2 80.9796 20.16 80.8863 20.08C80.8063 19.9867 80.7663 19.8733 80.7663 19.74V19.06C80.7663 18.9267 80.8063 18.82 80.8863 18.74C80.9796 18.6467 81.0929 18.6 81.2263 18.6H82.7863V15.26C82.7863 15.1267 82.8263 15.02 82.9062 14.94C82.9996 14.8467 83.1129 14.8 83.2463 14.8H84.1863C84.3196 14.8 84.4263 14.8467 84.5063 14.94C84.5996 15.02 84.6463 15.1267 84.6463 15.26V18.6H87.1263C87.2596 18.6 87.3663 18.6467 87.4463 18.74C87.5396 18.82 87.5863 18.9267 87.5863 19.06V19.74C87.5863 19.8733 87.5396 19.9867 87.4463 20.08C87.3663 20.16 87.2596 20.2 87.1263 20.2H84.6463V25.34C84.6463 25.9667 84.7529 26.46 84.9663 26.82C85.1796 27.18 85.5596 27.36 86.1063 27.36H87.3263C87.4596 27.36 87.5663 27.4067 87.6463 27.5C87.7396 27.58 87.7863 27.6867 87.7863 27.82V28.54C87.7863 28.6733 87.7396 28.7867 87.6463 28.88C87.5663 28.96 87.4596 29 87.3263 29H85.9463ZM93.9588 29.2C92.9454 29.2 92.0988 29.0067 91.4188 28.62C90.7388 28.2333 90.2188 27.7 89.8588 27.02C89.4988 26.3267 89.2988 25.54 89.2588 24.66C89.2454 24.4333 89.2388 24.1467 89.2388 23.8C89.2388 23.44 89.2454 23.1533 89.2588 22.94C89.2988 22.0467 89.4988 21.26 89.8588 20.58C90.2321 19.9 90.7588 19.3667 91.4388 18.98C92.1188 18.5933 92.9588 18.4 93.9588 18.4C94.9588 18.4 95.7988 18.5933 96.4788 18.98C97.1588 19.3667 97.6788 19.9 98.0388 20.58C98.4121 21.26 98.6188 22.0467 98.6588 22.94C98.6721 23.1533 98.6788 23.44 98.6788 23.8C98.6788 24.1467 98.6721 24.4333 98.6588 24.66C98.6188 25.54 98.4188 26.3267 98.0588 27.02C97.6988 27.7 97.1788 28.2333 96.4988 28.62C95.8188 29.0067 94.9721 29.2 93.9588 29.2ZM93.9588 27.66C94.7854 27.66 95.4454 27.4 95.9388 26.88C96.4321 26.3467 96.6988 25.5733 96.7388 24.56C96.7521 24.36 96.7588 24.1067 96.7588 23.8C96.7588 23.4933 96.7521 23.24 96.7388 23.04C96.6988 22.0267 96.4321 21.26 95.9388 20.74C95.4454 20.2067 94.7854 19.94 93.9588 19.94C93.1321 19.94 92.4654 20.2067 91.9588 20.74C91.4654 21.26 91.2054 22.0267 91.1788 23.04C91.1654 23.24 91.1587 23.4933 91.1587 23.8C91.1587 24.1067 91.1654 24.36 91.1788 24.56C91.2054 25.5733 91.4654 26.3467 91.9588 26.88C92.4654 27.4 93.1321 27.66 93.9588 27.66Z" fill="#2D3436"/>
<defs>
<clipPath id="clip0_2_27382">
<rect width="24" height="24" fill="white" transform="translate(10 10)"/>
</clipPath>
</defs>
</svg>
