<svg width="146" height="44" viewBox="0 0 146 44" fill="none" xmlns="http://www.w3.org/2000/svg">
<path d="M31 21.5C31.0034 22.8199 30.6951 24.1219 30.1 25.3C29.3944 26.7118 28.3098 27.8992 26.9674 28.7293C25.6251 29.5594 24.0782 29.9994 22.5 30C21.1801 30.0035 19.8781 29.6951 18.7 29.1L13 31L14.9 25.3C14.3049 24.1219 13.9966 22.8199 14 21.5C14.0006 19.9218 14.4406 18.3749 15.2707 17.0326C16.1008 15.6903 17.2883 14.6056 18.7 13.9C19.8781 13.305 21.1801 12.9966 22.5 13H23C25.0843 13.115 27.053 13.9948 28.5291 15.4709C30.0052 16.947 30.885 18.9157 31 21V21.5Z" stroke="#6C5CE7" stroke-width="2" stroke-linecap="round" stroke-linejoin="round"/>
<path d="M50.78 29.2C49.5533 29.2 48.5333 28.9733 47.72 28.52C46.92 28.0667 46.3133 27.4333 45.9 26.62C45.4867 25.8067 45.26 24.86 45.22 23.78C45.2067 23.2333 45.2 22.6467 45.2 22.02C45.2 21.3933 45.2067 20.7933 45.22 20.22C45.26 19.14 45.4867 18.1933 45.9 17.38C46.3133 16.5667 46.92 15.9333 47.72 15.48C48.5333 15.0267 49.5533 14.8 50.78 14.8C51.7 14.8 52.5067 14.9267 53.2 15.18C53.8933 15.4333 54.4667 15.7733 54.92 16.2C55.3867 16.6267 55.74 17.1067 55.98 17.64C56.22 18.16 56.3533 18.7 56.38 19.26C56.3933 19.38 56.3533 19.48 56.26 19.56C56.18 19.64 56.08 19.68 55.96 19.68H54.86C54.74 19.68 54.6333 19.6467 54.54 19.58C54.46 19.5133 54.4 19.3933 54.36 19.22C54.1333 18.18 53.7067 17.4667 53.08 17.08C52.4667 16.6933 51.6933 16.5 50.76 16.5C49.6933 16.5 48.8467 16.8067 48.22 17.42C47.5933 18.02 47.2533 18.9867 47.2 20.32C47.16 21.4133 47.16 22.5333 47.2 23.68C47.2533 25.0133 47.5933 25.9867 48.22 26.6C48.8467 27.2 49.6933 27.5 50.76 27.5C51.6933 27.5 52.4667 27.3067 53.08 26.92C53.7067 26.5333 54.1333 25.82 54.36 24.78C54.4 24.6067 54.46 24.4867 54.54 24.42C54.6333 24.3533 54.74 24.32 54.86 24.32H55.96C56.08 24.32 56.18 24.36 56.26 24.44C56.3533 24.52 56.3933 24.62 56.38 24.74C56.3533 25.3 56.22 25.8467 55.98 26.38C55.74 26.9 55.3867 27.3733 54.92 27.8C54.4667 28.2267 53.8933 28.5667 53.2 28.82C52.5067 29.0733 51.7 29.2 50.78 29.2ZM63.0603 29.2C62.047 29.2 61.2003 29.0067 60.5203 28.62C59.8403 28.2333 59.3203 27.7 58.9603 27.02C58.6003 26.3267 58.4003 25.54 58.3603 24.66C58.347 24.4333 58.3403 24.1467 58.3403 23.8C58.3403 23.44 58.347 23.1533 58.3603 22.94C58.4003 22.0467 58.6003 21.26 58.9603 20.58C59.3336 19.9 59.8603 19.3667 60.5403 18.98C61.2203 18.5933 62.0603 18.4 63.0603 18.4C64.0603 18.4 64.9003 18.5933 65.5803 18.98C66.2603 19.3667 66.7803 19.9 67.1403 20.58C67.5136 21.26 67.7203 22.0467 67.7603 22.94C67.7736 23.1533 67.7803 23.44 67.7803 23.8C67.7803 24.1467 67.7736 24.4333 67.7603 24.66C67.7203 25.54 67.5203 26.3267 67.1603 27.02C66.8003 27.7 66.2803 28.2333 65.6003 28.62C64.9203 29.0067 64.0736 29.2 63.0603 29.2ZM63.0603 27.66C63.887 27.66 64.547 27.4 65.0403 26.88C65.5336 26.3467 65.8003 25.5733 65.8403 24.56C65.8536 24.36 65.8603 24.1067 65.8603 23.8C65.8603 23.4933 65.8536 23.24 65.8403 23.04C65.8003 22.0267 65.5336 21.26 65.0403 20.74C64.547 20.2067 63.887 19.94 63.0603 19.94C62.2336 19.94 61.567 20.2067 61.0603 20.74C60.567 21.26 60.307 22.0267 60.2803 23.04C60.267 23.24 60.2603 23.4933 60.2603 23.8C60.2603 24.1067 60.267 24.36 60.2803 24.56C60.307 25.5733 60.567 26.3467 61.0603 26.88C61.567 27.4 62.2336 27.66 63.0603 27.66ZM70.7447 29C70.6114 29 70.498 28.96 70.4047 28.88C70.3247 28.7867 70.2847 28.6733 70.2847 28.54V19.06C70.2847 18.9267 70.3247 18.82 70.4047 18.74C70.498 18.6467 70.6114 18.6 70.7447 18.6H71.6447C71.778 18.6 71.8847 18.6467 71.9647 18.74C72.058 18.82 72.1047 18.9267 72.1047 19.06V19.76C72.4114 19.3467 72.798 19.02 73.2647 18.78C73.7314 18.5267 74.2914 18.4 74.9447 18.4C76.4514 18.3867 77.518 19 78.1447 20.24C78.4514 19.68 78.898 19.2333 79.4847 18.9C80.0714 18.5667 80.738 18.4 81.4847 18.4C82.178 18.4 82.8047 18.56 83.3647 18.88C83.938 19.2 84.3847 19.6867 84.7047 20.34C85.038 20.98 85.2047 21.7867 85.2047 22.76V28.54C85.2047 28.6733 85.158 28.7867 85.0647 28.88C84.9847 28.96 84.878 29 84.7447 29H83.8047C83.6714 29 83.558 28.96 83.4647 28.88C83.3847 28.7867 83.3447 28.6733 83.3447 28.54V22.94C83.3447 22.1933 83.238 21.6067 83.0247 21.18C82.8114 20.7533 82.5247 20.4533 82.1647 20.28C81.8047 20.1067 81.4114 20.02 80.9847 20.02C80.638 20.02 80.2847 20.1067 79.9247 20.28C79.5647 20.4533 79.2647 20.7533 79.0247 21.18C78.798 21.6067 78.6847 22.1933 78.6847 22.94V28.54C78.6847 28.6733 78.638 28.7867 78.5447 28.88C78.4647 28.96 78.358 29 78.2247 29H77.2847C77.1514 29 77.038 28.96 76.9447 28.88C76.8647 28.7867 76.8247 28.6733 76.8247 28.54V22.94C76.8247 22.1933 76.7114 21.6067 76.4847 21.18C76.258 20.7533 75.9647 20.4533 75.6047 20.28C75.2447 20.1067 74.8647 20.02 74.4647 20.02C74.118 20.02 73.7647 20.1067 73.4047 20.28C73.0447 20.4533 72.7447 20.7533 72.5047 21.18C72.278 21.6067 72.1647 22.1867 72.1647 22.92V28.54C72.1647 28.6733 72.118 28.7867 72.0247 28.88C71.9447 28.96 71.838 29 71.7047 29H70.7447ZM88.5181 29C88.3848 29 88.2715 28.96 88.1781 28.88C88.0981 28.7867 88.0581 28.6733 88.0581 28.54V19.06C88.0581 18.9267 88.0981 18.82 88.1781 18.74C88.2715 18.6467 88.3848 18.6 88.5181 18.6H89.4181C89.5515 18.6 89.6581 18.6467 89.7381 18.74C89.8315 18.82 89.8781 18.9267 89.8781 19.06V19.76C90.1848 19.3467 90.5715 19.02 91.0381 18.78C91.5048 18.5267 92.0648 18.4 92.7181 18.4C94.2248 18.3867 95.2915 19 95.9181 20.24C96.2248 19.68 96.6715 19.2333 97.2581 18.9C97.8448 18.5667 98.5115 18.4 99.2581 18.4C99.9515 18.4 100.578 18.56 101.138 18.88C101.711 19.2 102.158 19.6867 102.478 20.34C102.811 20.98 102.978 21.7867 102.978 22.76V28.54C102.978 28.6733 102.931 28.7867 102.838 28.88C102.758 28.96 102.651 29 102.518 29H101.578C101.445 29 101.331 28.96 101.238 28.88C101.158 28.7867 101.118 28.6733 101.118 28.54V22.94C101.118 22.1933 101.011 21.6067 100.798 21.18C100.585 20.7533 100.298 20.4533 99.9381 20.28C99.5781 20.1067 99.1848 20.02 98.7581 20.02C98.4115 20.02 98.0581 20.1067 97.6981 20.28C97.3381 20.4533 97.0381 20.7533 96.7981 21.18C96.5715 21.6067 96.4581 22.1933 96.4581 22.94V28.54C96.4581 28.6733 96.4115 28.7867 96.3181 28.88C96.2381 28.96 96.1315 29 95.9981 29H95.0581C94.9248 29 94.8115 28.96 94.7181 28.88C94.6381 28.7867 94.5981 28.6733 94.5981 28.54V22.94C94.5981 22.1933 94.4848 21.6067 94.2581 21.18C94.0315 20.7533 93.7381 20.4533 93.3781 20.28C93.0181 20.1067 92.6381 20.02 92.2381 20.02C91.8915 20.02 91.5381 20.1067 91.1781 20.28C90.8181 20.4533 90.5181 20.7533 90.2781 21.18C90.0515 21.6067 89.9381 22.1867 89.9381 22.92V28.54C89.9381 28.6733 89.8915 28.7867 89.7981 28.88C89.7181 28.96 89.6115 29 89.4781 29H88.5181ZM109.972 29.2C108.598 29.2 107.505 28.78 106.692 27.94C105.878 27.0867 105.432 25.9267 105.352 24.46C105.338 24.2867 105.332 24.0667 105.332 23.8C105.332 23.52 105.338 23.2933 105.352 23.12C105.405 22.1733 105.625 21.3467 106.012 20.64C106.398 19.92 106.925 19.3667 107.592 18.98C108.272 18.5933 109.065 18.4 109.972 18.4C110.985 18.4 111.832 18.6133 112.512 19.04C113.205 19.4667 113.732 20.0733 114.092 20.86C114.452 21.6467 114.632 22.5667 114.632 23.62V23.96C114.632 24.1067 114.585 24.22 114.492 24.3C114.412 24.38 114.305 24.42 114.172 24.42H107.252C107.252 24.4333 107.252 24.46 107.252 24.5C107.252 24.54 107.252 24.5733 107.252 24.6C107.278 25.1467 107.398 25.66 107.612 26.14C107.825 26.6067 108.132 26.9867 108.532 27.28C108.932 27.5733 109.412 27.72 109.972 27.72C110.452 27.72 110.852 27.6467 111.172 27.5C111.492 27.3533 111.752 27.1933 111.952 27.02C112.152 26.8333 112.285 26.6933 112.352 26.6C112.472 26.4267 112.565 26.3267 112.632 26.3C112.698 26.26 112.805 26.24 112.952 26.24H113.912C114.045 26.24 114.152 26.28 114.232 26.36C114.325 26.4267 114.365 26.5267 114.352 26.66C114.338 26.86 114.232 27.1067 114.032 27.4C113.832 27.68 113.545 27.96 113.172 28.24C112.798 28.52 112.345 28.7533 111.812 28.94C111.278 29.1133 110.665 29.2 109.972 29.2ZM107.252 23.04H112.732V22.98C112.732 22.38 112.618 21.8467 112.392 21.38C112.178 20.9133 111.865 20.5467 111.452 20.28C111.038 20 110.545 19.86 109.972 19.86C109.398 19.86 108.905 20 108.492 20.28C108.092 20.5467 107.785 20.9133 107.572 21.38C107.358 21.8467 107.252 22.38 107.252 22.98V23.04ZM117.483 29C117.35 29 117.236 28.96 117.143 28.88C117.063 28.7867 117.023 28.6733 117.023 28.54V19.06C117.023 18.9267 117.063 18.82 117.143 18.74C117.236 18.6467 117.35 18.6 117.483 18.6H118.423C118.556 18.6 118.663 18.6467 118.743 18.74C118.836 18.82 118.883 18.9267 118.883 19.06V19.94C119.23 19.4867 119.663 19.12 120.183 18.84C120.716 18.5467 121.396 18.4 122.223 18.4C123.09 18.4 123.823 18.5933 124.423 18.98C125.036 19.3533 125.496 19.88 125.803 20.56C126.11 21.2267 126.263 22.0067 126.263 22.9V28.54C126.263 28.6733 126.223 28.7867 126.143 28.88C126.063 28.96 125.956 29 125.823 29H124.823C124.69 29 124.576 28.96 124.483 28.88C124.403 28.7867 124.363 28.6733 124.363 28.54V23C124.363 22.0667 124.136 21.34 123.683 20.82C123.23 20.2867 122.563 20.02 121.683 20.02C120.856 20.02 120.19 20.2867 119.683 20.82C119.19 21.34 118.943 22.0667 118.943 23V28.54C118.943 28.6733 118.896 28.7867 118.803 28.88C118.723 28.96 118.616 29 118.483 29H117.483ZM133.075 29C132.328 29 131.722 28.86 131.255 28.58C130.788 28.2867 130.448 27.88 130.235 27.36C130.022 26.8267 129.915 26.2 129.915 25.48V20.2H128.355C128.222 20.2 128.108 20.16 128.015 20.08C127.935 19.9867 127.895 19.8733 127.895 19.74V19.06C127.895 18.9267 127.935 18.82 128.015 18.74C128.108 18.6467 128.222 18.6 128.355 18.6H129.915V15.26C129.915 15.1267 129.955 15.02 130.035 14.94C130.128 14.8467 130.242 14.8 130.375 14.8H131.315C131.448 14.8 131.555 14.8467 131.635 14.94C131.728 15.02 131.775 15.1267 131.775 15.26V18.6H134.255C134.388 18.6 134.495 18.6467 134.575 18.74C134.668 18.82 134.715 18.9267 134.715 19.06V19.74C134.715 19.8733 134.668 19.9867 134.575 20.08C134.495 20.16 134.388 20.2 134.255 20.2H131.775V25.34C131.775 25.9667 131.882 26.46 132.095 26.82C132.308 27.18 132.688 27.36 133.235 27.36H134.455C134.588 27.36 134.695 27.4067 134.775 27.5C134.868 27.58 134.915 27.6867 134.915 27.82V28.54C134.915 28.6733 134.868 28.7867 134.775 28.88C134.695 28.96 134.588 29 134.455 29H133.075Z" fill="#2D3436"/>
</svg>
