<svg width="195" height="240" viewBox="0 0 195 240" fill="none" xmlns="http://www.w3.org/2000/svg">
<path d="M24.0006 10.1172H188.654C192.167 10.1172 194.863 12.9913 194.645 16.5043L181.222 232.835C181.004 236.348 177.951 239.222 174.438 239.222H9.7846C6.2716 239.222 3.57559 236.348 3.79359 232.835L17.2176 16.5043C17.4346 12.9913 20.4876 10.1172 24.0006 10.1172Z" fill="#A29BFE"/>
<path opacity="0.4" d="M24.0006 10.1172H188.654C192.167 10.1172 194.863 12.9913 194.645 16.5043L181.222 232.835C181.004 236.348 177.951 239.222 174.438 239.222H9.7846C6.2716 239.222 3.57559 236.348 3.79359 232.835L17.2176 16.5043C17.4346 12.9913 20.4876 10.1172 24.0006 10.1172Z" fill="black"/>
<path d="M20.2199 10.1172H184.874C188.387 10.1172 191.083 12.9913 190.865 16.5043L177.442 232.835C177.224 236.348 174.171 239.222 170.658 239.222H6.00294C2.49034 239.222 -0.205656 236.348 0.0123437 232.835L13.4359 16.5043C13.6539 12.9913 16.7069 10.1172 20.2199 10.1172Z" fill="#A29BFE"/>
<path opacity="0.4" d="M8.93359 227.542L169.196 229.464L182.197 19.9434H21.8156L8.93359 227.542Z" fill="black"/>
<path d="M4.25391 225.422C58.3539 225.422 112.453 225.422 166.552 225.422C175.497 143.516 178.241 99.2966 179.461 17.3906C125.362 17.3906 71.2619 17.3906 17.1629 17.3906C15.9429 99.2966 13.1989 143.515 4.25391 225.422Z" fill="white"/>
<path opacity="0.3" d="M160.079 74.364H132.134C131.565 74.364 131.021 74.129 130.631 73.714C130.24 73.299 130.039 72.741 130.074 72.173L131.808 44.229C131.876 43.141 132.778 42.293 133.868 42.293H161.813C162.382 42.293 162.926 42.528 163.316 42.943C163.707 43.358 163.908 43.916 163.873 44.484L162.139 72.428C162.071 73.516 161.169 74.364 160.079 74.364ZM134.329 70.237H158.139L159.618 46.42H135.807L134.329 70.237Z" fill="#A29BFE"/>
<path opacity="0.3" d="M157.438 116.931H129.494C128.925 116.931 128.381 116.696 127.991 116.281C127.6 115.866 127.399 115.308 127.434 114.74L129.167 86.7954C129.235 85.7074 130.137 84.8594 131.227 84.8594H159.172C159.741 84.8594 160.285 85.0944 160.675 85.5094C161.066 85.9244 161.267 86.4824 161.232 87.0504L159.498 114.995C159.429 116.084 158.528 116.931 157.438 116.931ZM131.689 112.804H155.499L156.978 88.9864H133.167L131.689 112.804Z" fill="#A29BFE"/>
<path opacity="0.3" d="M154.794 159.498H126.849C126.28 159.498 125.736 159.263 125.346 158.848C124.955 158.433 124.754 157.875 124.789 157.307L126.523 129.362C126.591 128.274 127.493 127.426 128.583 127.426H156.527C157.096 127.426 157.64 127.661 158.03 128.076C158.421 128.491 158.622 129.049 158.587 129.617L156.854 157.562C156.785 158.65 155.884 159.498 154.794 159.498ZM129.044 155.371H152.855L154.333 131.553H130.523L129.044 155.371Z" fill="#A29BFE"/>
<path opacity="0.3" d="M152.152 202.062H124.208C123.639 202.062 123.095 201.827 122.705 201.412C122.314 200.997 122.113 200.439 122.148 199.871L123.881 171.926C123.949 170.838 124.851 169.99 125.941 169.99H153.886C154.455 169.99 154.999 170.225 155.389 170.64C155.78 171.055 155.981 171.613 155.946 172.181L154.212 200.126C154.144 201.215 153.242 202.062 152.152 202.062ZM126.404 197.935H150.214L151.692 174.117H127.881L126.404 197.935Z" fill="#A29BFE"/>
<path opacity="0.3" d="M44.4742 54.6735H107.763C109.684 54.6735 111.354 53.1015 111.473 51.1805C111.592 49.2595 110.118 47.6875 108.197 47.6875H44.9082C42.9872 47.6875 41.3172 49.2595 41.1982 51.1805C41.0782 53.1015 42.5532 54.6735 44.4742 54.6735Z" fill="#A29BFE"/>
<path opacity="0.3" d="M55.6227 68.9704H106.877C108.798 68.9704 110.468 67.3984 110.587 65.4774C110.706 63.5564 109.232 61.9844 107.311 61.9844H56.0567C54.1357 61.9844 52.4657 63.5564 52.3467 65.4774C52.2267 67.3984 53.7007 68.9704 55.6227 68.9704Z" fill="#A29BFE"/>
<path opacity="0.3" d="M41.3809 104.551H104.67C106.591 104.551 108.066 106.123 107.946 108.044C107.827 109.965 106.157 111.537 104.236 111.537H40.9469C39.0259 111.537 37.5509 109.965 37.6709 108.044C37.7909 106.123 39.4599 104.551 41.3809 104.551Z" fill="#A29BFE"/>
<path opacity="0.3" d="M54.3028 90.252H105.557C107.478 90.252 108.953 91.824 108.833 93.745C108.714 95.666 107.044 97.238 105.123 97.238H53.8688C51.9478 97.238 50.4728 95.666 50.5928 93.745C50.7118 91.824 52.3818 90.252 54.3028 90.252Z" fill="#A29BFE"/>
<path opacity="0.3" d="M39.193 139.804H102.482C104.403 139.804 106.073 138.232 106.192 136.311C106.311 134.39 104.837 132.818 102.916 132.818H39.627C37.706 132.818 36.036 134.39 35.917 136.311C35.797 138.232 37.271 139.804 39.193 139.804Z" fill="#A29BFE"/>
<path opacity="0.3" d="M76.1265 154.101H101.591C103.512 154.101 105.182 152.529 105.301 150.608C105.42 148.687 103.946 147.115 102.025 147.115H76.5605C74.6395 147.115 72.9695 148.687 72.8505 150.608C72.7315 152.529 74.2055 154.101 76.1265 154.101Z" fill="#A29BFE"/>
<path opacity="0.3" d="M50.3374 154.101H63.7674C65.6884 154.101 67.3584 152.529 67.4774 150.608C67.5964 148.687 66.1224 147.115 64.2014 147.115H50.7714C48.8504 147.115 47.1804 148.687 47.0614 150.608C46.9424 152.529 48.4164 154.101 50.3374 154.101Z" fill="#A29BFE"/>
<path opacity="0.3" d="M36.5523 182.371H99.8413C101.762 182.371 103.432 180.799 103.551 178.878C103.67 176.957 102.196 175.385 100.275 175.385H36.9863C35.0653 175.385 33.3953 176.957 33.2763 178.878C33.1573 180.799 34.6313 182.371 36.5523 182.371Z" fill="#A29BFE"/>
<path opacity="0.3" d="M47.6969 196.668H98.9509C100.872 196.668 102.542 195.096 102.661 193.175C102.78 191.254 101.306 189.682 99.3849 189.682H48.1309C46.2099 189.682 44.5399 191.254 44.4209 193.175C44.3009 195.096 45.7759 196.668 47.6969 196.668Z" fill="#A29BFE"/>
<path d="M144.704 66.7173C144.303 66.7173 143.897 66.6003 143.542 66.3573L132.774 59.0023C131.834 58.3593 131.591 57.0763 132.235 56.1353C132.877 55.1953 134.158 54.9513 135.102 55.5963L144.301 61.8803C147.658 57.8293 157.241 46.8443 165.211 43.2903C166.247 42.8273 167.471 43.2933 167.936 44.3353C168.4 45.3753 167.932 46.5963 166.891 47.0603C158.19 50.9383 146.445 65.7813 146.326 65.9303C145.922 66.4443 145.318 66.7173 144.704 66.7173Z" fill="#A29BFE"/>
<path d="M139.69 108.456C139.173 108.456 138.658 108.263 138.258 107.878L128.885 98.8434C128.065 98.0524 128.04 96.7463 128.831 95.9263C129.623 95.1063 130.929 95.0833 131.748 95.8723L139.727 103.563C143.672 100.035 154.744 90.6284 163.084 88.3474C164.183 88.0454 165.317 88.6953 165.618 89.7933C165.919 90.8923 165.271 92.0263 164.172 92.3273C155.05 94.8213 141.242 107.763 141.104 107.893C140.707 108.268 140.198 108.456 139.69 108.456Z" fill="#A29BFE"/>
<path opacity="0.4" d="M122.164 22.3462L125.208 22.3762C128.58 22.4092 131.357 19.6802 131.381 16.3112L131.42 10.7352C131.423 10.3882 131.153 10.1172 130.805 10.1172H122.327C121.952 10.1172 121.634 10.4322 121.631 10.8072L121.555 21.7282C121.553 22.0722 121.819 22.3422 122.164 22.3462Z" fill="black"/>
<path d="M76.1449 0H127.207C130.375 0 132.617 2.592 132.189 5.759L130.653 17.136C130.225 20.304 127.284 22.896 124.116 22.896H73.0539C69.8859 22.896 67.6439 20.304 68.0719 17.136L69.6079 5.759C70.0349 2.592 72.9769 0 76.1449 0Z" fill="#A29BFE"/>
<path opacity="0.6" d="M76.1449 0H127.207C130.375 0 132.617 2.592 132.189 5.759L130.653 17.136C130.225 20.304 127.284 22.896 124.116 22.896H73.0539C69.8859 22.896 67.6439 20.304 68.0719 17.136L69.6079 5.759C70.0349 2.592 72.9769 0 76.1449 0Z" fill="white"/>
<path opacity="0.5" d="M125.878 5.5022H102.926C102.072 5.5022 101.379 4.8102 101.379 3.9552C101.379 3.1012 102.071 2.4082 102.926 2.4082H125.878C126.732 2.4082 127.425 3.1002 127.425 3.9552C127.425 4.8092 126.733 5.5022 125.878 5.5022Z" fill="white"/>
<path opacity="0.5" d="M95.2346 5.5022H92.8126C91.9586 5.5022 91.2656 4.8102 91.2656 3.9552C91.2656 3.1012 91.9576 2.4082 92.8126 2.4082H95.2346C96.0886 2.4082 96.7816 3.1002 96.7816 3.9552C96.7816 4.8092 96.0886 5.5022 95.2346 5.5022Z" fill="white"/>
</svg>
