<svg width="135" height="44" viewBox="0 0 135 44" fill="none" xmlns="http://www.w3.org/2000/svg">
<path d="M17 32H14C13.4696 32 12.9609 31.7893 12.5858 31.4142C12.2107 31.0391 12 30.5304 12 30V23C12 22.4696 12.2107 21.9609 12.5858 21.5858C12.9609 21.2107 13.4696 21 14 21H17M24 19V15C24 14.2044 23.6839 13.4413 23.1213 12.8787C22.5587 12.3161 21.7956 12 21 12L17 21V32H28.28C28.7623 32.0055 29.2304 31.8364 29.5979 31.524C29.9654 31.2116 30.2077 30.7769 30.28 30.3L31.66 21.3C31.7035 21.0134 31.6842 20.7207 31.6033 20.4423C31.5225 20.1638 31.3821 19.9063 31.1919 19.6875C31.0016 19.4687 30.7661 19.2939 30.5016 19.1752C30.2371 19.0565 29.9499 18.9967 29.66 19H24Z" stroke="#6C5CE7" stroke-width="2" stroke-linecap="round" stroke-linejoin="round"/>
<path d="M46.64 30C46.464 30 46.328 29.952 46.232 29.856C46.136 29.744 46.088 29.608 46.088 29.448V13.752C46.088 13.592 46.136 13.464 46.232 13.368C46.328 13.256 46.464 13.2 46.64 13.2H47.912C48.072 13.2 48.2 13.256 48.296 13.368C48.392 13.464 48.44 13.592 48.44 13.752V27.912H56.432C56.608 27.912 56.744 27.968 56.84 28.08C56.936 28.176 56.984 28.312 56.984 28.488V29.448C56.984 29.608 56.936 29.744 56.84 29.856C56.744 29.952 56.608 30 56.432 30H46.64ZM59.8514 30C59.6914 30 59.5554 29.952 59.4434 29.856C59.3474 29.744 59.2994 29.608 59.2994 29.448V18.072C59.2994 17.912 59.3474 17.784 59.4434 17.688C59.5554 17.576 59.6914 17.52 59.8514 17.52H61.0034C61.1634 17.52 61.2914 17.576 61.3874 17.688C61.4834 17.784 61.5314 17.912 61.5314 18.072V29.448C61.5314 29.608 61.4834 29.744 61.3874 29.856C61.2914 29.952 61.1634 30 61.0034 30H59.8514ZM59.6594 15.192C59.4994 15.192 59.3634 15.144 59.2514 15.048C59.1554 14.936 59.1074 14.8 59.1074 14.64V13.344C59.1074 13.184 59.1554 13.056 59.2514 12.96C59.3634 12.848 59.4994 12.792 59.6594 12.792H61.1714C61.3314 12.792 61.4594 12.848 61.5554 12.96C61.6674 13.056 61.7234 13.184 61.7234 13.344V14.64C61.7234 14.8 61.6674 14.936 61.5554 15.048C61.4594 15.144 61.3314 15.192 61.1714 15.192H59.6594ZM65.6879 30C65.5279 30 65.3919 29.952 65.2799 29.856C65.1839 29.744 65.1359 29.608 65.1359 29.448V13.512C65.1359 13.352 65.1839 13.224 65.2799 13.128C65.3919 13.016 65.5279 12.96 65.6879 12.96H66.8159C66.9759 12.96 67.1039 13.016 67.1999 13.128C67.3119 13.224 67.3679 13.352 67.3679 13.512V21.864L72.0959 17.928C72.2879 17.768 72.4319 17.664 72.5279 17.616C72.6399 17.552 72.8159 17.52 73.0559 17.52H74.3279C74.4719 17.52 74.5919 17.568 74.6879 17.664C74.7839 17.76 74.8319 17.88 74.8319 18.024C74.8319 18.088 74.8079 18.16 74.7599 18.24C74.7279 18.32 74.6559 18.4 74.5439 18.48L68.9999 23.088L75.1439 29.064C75.3359 29.224 75.4319 29.368 75.4319 29.496C75.4319 29.64 75.3839 29.76 75.2879 29.856C75.1919 29.952 75.0719 30 74.9279 30H73.6799C73.4399 30 73.2639 29.976 73.1519 29.928C73.0399 29.864 72.8959 29.752 72.7199 29.592L67.3679 24.48V29.448C67.3679 29.608 67.3119 29.744 67.1999 29.856C67.1039 29.952 66.9759 30 66.8159 30H65.6879ZM81.869 30.24C80.221 30.24 78.909 29.736 77.933 28.728C76.957 27.704 76.421 26.312 76.325 24.552C76.309 24.344 76.301 24.08 76.301 23.76C76.301 23.424 76.309 23.152 76.325 22.944C76.389 21.808 76.653 20.816 77.117 19.968C77.581 19.104 78.213 18.44 79.013 17.976C79.829 17.512 80.781 17.28 81.869 17.28C83.085 17.28 84.101 17.536 84.917 18.048C85.749 18.56 86.381 19.288 86.813 20.232C87.245 21.176 87.461 22.28 87.461 23.544V23.952C87.461 24.128 87.405 24.264 87.293 24.36C87.197 24.456 87.069 24.504 86.909 24.504H78.605C78.605 24.52 78.605 24.552 78.605 24.6C78.605 24.648 78.605 24.688 78.605 24.72C78.637 25.376 78.781 25.992 79.037 26.568C79.293 27.128 79.661 27.584 80.141 27.936C80.621 28.288 81.197 28.464 81.869 28.464C82.445 28.464 82.925 28.376 83.309 28.2C83.693 28.024 84.005 27.832 84.245 27.624C84.485 27.4 84.645 27.232 84.725 27.12C84.869 26.912 84.981 26.792 85.061 26.76C85.141 26.712 85.269 26.688 85.445 26.688H86.597C86.757 26.688 86.885 26.736 86.981 26.832C87.093 26.912 87.141 27.032 87.125 27.192C87.109 27.432 86.981 27.728 86.741 28.08C86.501 28.416 86.157 28.752 85.709 29.088C85.261 29.424 84.717 29.704 84.077 29.928C83.437 30.136 82.701 30.24 81.869 30.24ZM78.605 22.848H85.181V22.776C85.181 22.056 85.045 21.416 84.773 20.856C84.517 20.296 84.141 19.856 83.645 19.536C83.149 19.2 82.557 19.032 81.869 19.032C81.181 19.032 80.589 19.2 80.093 19.536C79.613 19.856 79.245 20.296 78.989 20.856C78.733 21.416 78.605 22.056 78.605 22.776V22.848Z" fill="black"/>
<path d="M107.02 29C106.887 29 106.773 28.96 106.68 28.88C106.6 28.7867 106.56 28.6733 106.56 28.54V25.66H100.08C99.9467 25.66 99.8333 25.62 99.74 25.54C99.66 25.4467 99.62 25.3333 99.62 25.2V24.4C99.62 24.3467 99.6333 24.2667 99.66 24.16C99.7 24.04 99.76 23.92 99.84 23.8L105.84 15.34C106 15.1133 106.247 15 106.58 15H108.02C108.153 15 108.26 15.0467 108.34 15.14C108.433 15.22 108.48 15.3267 108.48 15.46V23.92H110.28C110.427 23.92 110.54 23.9667 110.62 24.06C110.713 24.14 110.76 24.2467 110.76 24.38V25.2C110.76 25.3333 110.713 25.4467 110.62 25.54C110.54 25.62 110.433 25.66 110.3 25.66H108.48V28.54C108.48 28.6733 108.433 28.7867 108.34 28.88C108.26 28.96 108.153 29 108.02 29H107.02ZM101.76 23.96H106.58V17.1L101.76 23.96ZM117.782 29.2C117.009 29.2 116.295 29.1067 115.642 28.92C115.002 28.72 114.449 28.44 113.982 28.08C113.529 27.7067 113.175 27.26 112.922 26.74C112.669 26.22 112.542 25.6333 112.542 24.98C112.542 24.1667 112.735 23.4667 113.122 22.88C113.522 22.2933 114.049 21.8467 114.702 21.54C114.182 21.2333 113.775 20.8333 113.482 20.34C113.189 19.8467 113.042 19.26 113.042 18.58C113.042 17.78 113.235 17.1067 113.622 16.56C114.022 16 114.575 15.5667 115.282 15.26C116.002 14.9533 116.835 14.8 117.782 14.8C118.715 14.8 119.535 14.9533 120.242 15.26C120.962 15.5533 121.515 15.98 121.902 16.54C122.302 17.1 122.502 17.7733 122.502 18.56C122.502 19.24 122.355 19.8333 122.062 20.34C121.769 20.8333 121.369 21.2333 120.862 21.54C121.515 21.8467 122.035 22.2933 122.422 22.88C122.822 23.4667 123.022 24.1667 123.022 24.98C123.022 25.8467 122.802 26.6 122.362 27.24C121.922 27.8667 121.309 28.3533 120.522 28.7C119.735 29.0333 118.822 29.2 117.782 29.2ZM117.782 27.6C118.395 27.6 118.949 27.4933 119.442 27.28C119.935 27.0667 120.329 26.7667 120.622 26.38C120.915 25.98 121.062 25.5133 121.062 24.98C121.062 24.4333 120.915 23.9733 120.622 23.6C120.329 23.2133 119.935 22.92 119.442 22.72C118.949 22.5067 118.395 22.4 117.782 22.4C117.169 22.4 116.609 22.5067 116.102 22.72C115.609 22.92 115.215 23.2133 114.922 23.6C114.629 23.9733 114.482 24.4333 114.482 24.98C114.482 25.5133 114.629 25.98 114.922 26.38C115.215 26.7667 115.609 27.0667 116.102 27.28C116.609 27.4933 117.169 27.6 117.782 27.6ZM117.782 20.82C118.289 20.82 118.755 20.7267 119.182 20.54C119.622 20.3533 119.969 20.1 120.222 19.78C120.489 19.46 120.622 19.0733 120.622 18.62C120.622 18.1667 120.495 17.7733 120.242 17.44C120.002 17.1067 119.662 16.8533 119.222 16.68C118.795 16.4933 118.315 16.4 117.782 16.4C117.249 16.4 116.762 16.4933 116.322 16.68C115.895 16.8533 115.555 17.1067 115.302 17.44C115.049 17.7733 114.922 18.1667 114.922 18.62C114.922 19.0867 115.049 19.4867 115.302 19.82C115.555 20.14 115.895 20.3867 116.322 20.56C116.762 20.7333 117.249 20.82 117.782 20.82Z" fill="black"/>
</svg>
