<svg width="109" height="44" viewBox="0 0 109 44" fill="none" xmlns="http://www.w3.org/2000/svg">
<path d="M28 18C29.6569 18 31 16.6569 31 15C31 13.3431 29.6569 12 28 12C26.3431 12 25 13.3431 25 15C25 16.6569 26.3431 18 28 18Z" stroke="#6C5CE7" stroke-width="2" stroke-linecap="round" stroke-linejoin="round"/>
<path d="M16 25C17.6569 25 19 23.6569 19 22C19 20.3431 17.6569 19 16 19C14.3431 19 13 20.3431 13 22C13 23.6569 14.3431 25 16 25Z" stroke="#6C5CE7" stroke-width="2" stroke-linecap="round" stroke-linejoin="round"/>
<path d="M28 32C29.6569 32 31 30.6569 31 29C31 27.3431 29.6569 26 28 26C26.3431 26 25 27.3431 25 29C25 30.6569 26.3431 32 28 32Z" stroke="#6C5CE7" stroke-width="2" stroke-linecap="round" stroke-linejoin="round"/>
<path d="M18.5898 23.5098L25.4198 27.4898" stroke="#6C5CE7" stroke-width="2" stroke-linecap="round" stroke-linejoin="round"/>
<path d="M25.4098 16.5098L18.5898 20.4898" stroke="#6C5CE7" stroke-width="2" stroke-linecap="round" stroke-linejoin="round"/>
<path d="M50.24 29.2C49.08 29.2 48.1067 29.0267 47.32 28.68C46.5333 28.32 45.9267 27.86 45.5 27.3C45.0867 26.7267 44.8667 26.12 44.84 25.48C44.84 25.3733 44.88 25.28 44.96 25.2C45.0533 25.1067 45.16 25.06 45.28 25.06H46.3C46.46 25.06 46.58 25.1 46.66 25.18C46.74 25.26 46.7933 25.3533 46.82 25.46C46.8867 25.78 47.0467 26.1 47.3 26.42C47.5667 26.7267 47.9333 26.9867 48.4 27.2C48.88 27.4 49.4933 27.5 50.24 27.5C51.3867 27.5 52.2267 27.3 52.76 26.9C53.3067 26.4867 53.58 25.94 53.58 25.26C53.58 24.7933 53.4333 24.42 53.14 24.14C52.86 23.8467 52.4267 23.5867 51.84 23.36C51.2533 23.1333 50.4933 22.8867 49.56 22.62C48.5867 22.34 47.78 22.0333 47.14 21.7C46.5 21.3667 46.02 20.9533 45.7 20.46C45.3933 19.9667 45.24 19.34 45.24 18.58C45.24 17.86 45.4333 17.22 45.82 16.66C46.2067 16.0867 46.76 15.6333 47.48 15.3C48.2133 14.9667 49.1 14.8 50.14 14.8C50.9667 14.8 51.6867 14.9133 52.3 15.14C52.9267 15.3533 53.4467 15.6467 53.86 16.02C54.2733 16.38 54.5867 16.7733 54.8 17.2C55.0133 17.6133 55.1267 18.02 55.14 18.42C55.14 18.5133 55.1067 18.6067 55.04 18.7C54.9733 18.78 54.8667 18.82 54.72 18.82H53.66C53.5667 18.82 53.4667 18.7933 53.36 18.74C53.2667 18.6867 53.1933 18.5867 53.14 18.44C53.06 17.8933 52.7533 17.4333 52.22 17.06C51.6867 16.6867 50.9933 16.5 50.14 16.5C49.2733 16.5 48.5667 16.6667 48.02 17C47.4867 17.3333 47.22 17.8533 47.22 18.56C47.22 19.0133 47.3467 19.3933 47.6 19.7C47.8533 19.9933 48.2533 20.2533 48.8 20.48C49.3467 20.7067 50.06 20.9467 50.94 21.2C52.0067 21.4933 52.88 21.8067 53.56 22.14C54.24 22.46 54.74 22.8667 55.06 23.36C55.3933 23.84 55.56 24.46 55.56 25.22C55.56 26.06 55.34 26.78 54.9 27.38C54.46 27.9667 53.84 28.42 53.04 28.74C52.2533 29.0467 51.32 29.2 50.24 29.2ZM58.4014 29C58.2681 29 58.1547 28.96 58.0614 28.88C57.9814 28.7867 57.9414 28.6733 57.9414 28.54V15.26C57.9414 15.1267 57.9814 15.02 58.0614 14.94C58.1547 14.8467 58.2681 14.8 58.4014 14.8H59.4014C59.5481 14.8 59.6614 14.8467 59.7414 14.94C59.8214 15.02 59.8614 15.1267 59.8614 15.26V19.92C60.2214 19.4667 60.6614 19.1 61.1814 18.82C61.7014 18.54 62.3614 18.4 63.1614 18.4C64.0281 18.4 64.7614 18.5933 65.3614 18.98C65.9747 19.3533 66.4347 19.88 66.7414 20.56C67.0614 21.2267 67.2214 22.0067 67.2214 22.9V28.54C67.2214 28.6733 67.1814 28.7867 67.1014 28.88C67.0214 28.96 66.9081 29 66.7614 29H65.7614C65.6281 29 65.5147 28.96 65.4214 28.88C65.3414 28.7867 65.3014 28.6733 65.3014 28.54V23C65.3014 22.0667 65.0747 21.34 64.6214 20.82C64.1681 20.2867 63.5014 20.02 62.6214 20.02C61.7947 20.02 61.1281 20.2867 60.6214 20.82C60.1147 21.34 59.8614 22.0667 59.8614 23V28.54C59.8614 28.6733 59.8214 28.7867 59.7414 28.88C59.6614 28.96 59.5481 29 59.4014 29H58.4014ZM73.0089 29.2C72.3422 29.2 71.7356 29.0667 71.1889 28.8C70.6422 28.5333 70.2022 28.1733 69.8689 27.72C69.5356 27.2667 69.3689 26.7533 69.3689 26.18C69.3689 25.26 69.7422 24.5267 70.4889 23.98C71.2356 23.4333 72.2089 23.0733 73.4089 22.9L76.3889 22.48V21.9C76.3889 21.26 76.2022 20.76 75.8289 20.4C75.4689 20.04 74.8756 19.86 74.0489 19.86C73.4489 19.86 72.9622 19.98 72.5889 20.22C72.2289 20.46 71.9756 20.7667 71.8289 21.14C71.7489 21.34 71.6089 21.44 71.4089 21.44H70.5089C70.3622 21.44 70.2489 21.4 70.1689 21.32C70.1022 21.2267 70.0689 21.12 70.0689 21C70.0689 20.8 70.1422 20.5533 70.2889 20.26C70.4489 19.9667 70.6889 19.68 71.0089 19.4C71.3289 19.12 71.7356 18.8867 72.2289 18.7C72.7356 18.5 73.3489 18.4 74.0689 18.4C74.8689 18.4 75.5422 18.5067 76.0889 18.72C76.6356 18.92 77.0622 19.1933 77.3689 19.54C77.6889 19.8867 77.9156 20.28 78.0489 20.72C78.1956 21.16 78.2689 21.6067 78.2689 22.06V28.54C78.2689 28.6733 78.2222 28.7867 78.1289 28.88C78.0489 28.96 77.9422 29 77.8089 29H76.8889C76.7422 29 76.6289 28.96 76.5489 28.88C76.4689 28.7867 76.4289 28.6733 76.4289 28.54V27.68C76.2556 27.92 76.0222 28.16 75.7289 28.4C75.4356 28.6267 75.0689 28.82 74.6289 28.98C74.1889 29.1267 73.6489 29.2 73.0089 29.2ZM73.4289 27.7C73.9756 27.7 74.4756 27.5867 74.9289 27.36C75.3822 27.12 75.7356 26.7533 75.9889 26.26C76.2556 25.7667 76.3889 25.1467 76.3889 24.4V23.84L74.0689 24.18C73.1222 24.3133 72.4089 24.54 71.9289 24.86C71.4489 25.1667 71.2089 25.56 71.2089 26.04C71.2089 26.4133 71.3156 26.7267 71.5289 26.98C71.7556 27.22 72.0356 27.4 72.3689 27.52C72.7156 27.64 73.0689 27.7 73.4289 27.7ZM81.6041 29C81.4707 29 81.3574 28.96 81.2641 28.88C81.1841 28.7867 81.1441 28.6733 81.1441 28.54V19.08C81.1441 18.9467 81.1841 18.8333 81.2641 18.74C81.3574 18.6467 81.4707 18.6 81.6041 18.6H82.5241C82.6574 18.6 82.7707 18.6467 82.8641 18.74C82.9574 18.8333 83.0041 18.9467 83.0041 19.08V19.96C83.2707 19.5067 83.6374 19.1667 84.1041 18.94C84.5707 18.7133 85.1307 18.6 85.7841 18.6H86.5841C86.7174 18.6 86.8241 18.6467 86.9041 18.74C86.9841 18.82 87.0241 18.9267 87.0241 19.06V19.88C87.0241 20.0133 86.9841 20.12 86.9041 20.2C86.8241 20.28 86.7174 20.32 86.5841 20.32H85.3841C84.6641 20.32 84.0974 20.5333 83.6841 20.96C83.2707 21.3733 83.0641 21.94 83.0641 22.66V28.54C83.0641 28.6733 83.0174 28.7867 82.9241 28.88C82.8307 28.96 82.7174 29 82.5841 29H81.6041ZM92.6864 29.2C91.3131 29.2 90.2197 28.78 89.4064 27.94C88.5931 27.0867 88.1464 25.9267 88.0664 24.46C88.0531 24.2867 88.0464 24.0667 88.0464 23.8C88.0464 23.52 88.0531 23.2933 88.0664 23.12C88.1197 22.1733 88.3397 21.3467 88.7264 20.64C89.1131 19.92 89.6397 19.3667 90.3064 18.98C90.9864 18.5933 91.7797 18.4 92.6864 18.4C93.6997 18.4 94.5464 18.6133 95.2264 19.04C95.9197 19.4667 96.4464 20.0733 96.8064 20.86C97.1664 21.6467 97.3464 22.5667 97.3464 23.62V23.96C97.3464 24.1067 97.2997 24.22 97.2064 24.3C97.1264 24.38 97.0197 24.42 96.8864 24.42H89.9664C89.9664 24.4333 89.9664 24.46 89.9664 24.5C89.9664 24.54 89.9664 24.5733 89.9664 24.6C89.9931 25.1467 90.1131 25.66 90.3264 26.14C90.5397 26.6067 90.8464 26.9867 91.2464 27.28C91.6464 27.5733 92.1264 27.72 92.6864 27.72C93.1664 27.72 93.5664 27.6467 93.8864 27.5C94.2064 27.3533 94.4664 27.1933 94.6664 27.02C94.8664 26.8333 94.9997 26.6933 95.0664 26.6C95.1864 26.4267 95.2797 26.3267 95.3464 26.3C95.4131 26.26 95.5197 26.24 95.6664 26.24H96.6264C96.7597 26.24 96.8664 26.28 96.9464 26.36C97.0397 26.4267 97.0797 26.5267 97.0664 26.66C97.0531 26.86 96.9464 27.1067 96.7464 27.4C96.5464 27.68 96.2597 27.96 95.8864 28.24C95.5131 28.52 95.0597 28.7533 94.5264 28.94C93.9931 29.1133 93.3797 29.2 92.6864 29.2ZM89.9664 23.04H95.4464V22.98C95.4464 22.38 95.3331 21.8467 95.1064 21.38C94.8931 20.9133 94.5797 20.5467 94.1664 20.28C93.7531 20 93.2597 19.86 92.6864 19.86C92.1131 19.86 91.6197 20 91.2064 20.28C90.8064 20.5467 90.4997 20.9133 90.2864 21.38C90.0731 21.8467 89.9664 22.38 89.9664 22.98V23.04Z" fill="#2D3436"/>
</svg>
