<svg width="102" height="44" viewBox="0 0 102 44" fill="none" xmlns="http://www.w3.org/2000/svg">
<path d="M32 12L21 23" stroke="#6C5CE7" stroke-width="2" stroke-linecap="round" stroke-linejoin="round"/>
<path d="M32 12L25 32L21 23L12 19L32 12Z" stroke="#6C5CE7" stroke-width="2" stroke-linecap="round" stroke-linejoin="round"/>
<path d="M50.24 29.2C49.08 29.2 48.1067 29.0267 47.32 28.68C46.5333 28.32 45.9267 27.86 45.5 27.3C45.0867 26.7267 44.8667 26.12 44.84 25.48C44.84 25.3733 44.88 25.28 44.96 25.2C45.0533 25.1067 45.16 25.06 45.28 25.06H46.3C46.46 25.06 46.58 25.1 46.66 25.18C46.74 25.26 46.7933 25.3533 46.82 25.46C46.8867 25.78 47.0467 26.1 47.3 26.42C47.5667 26.7267 47.9333 26.9867 48.4 27.2C48.88 27.4 49.4933 27.5 50.24 27.5C51.3867 27.5 52.2267 27.3 52.76 26.9C53.3067 26.4867 53.58 25.94 53.58 25.26C53.58 24.7933 53.4333 24.42 53.14 24.14C52.86 23.8467 52.4267 23.5867 51.84 23.36C51.2533 23.1333 50.4933 22.8867 49.56 22.62C48.5867 22.34 47.78 22.0333 47.14 21.7C46.5 21.3667 46.02 20.9533 45.7 20.46C45.3933 19.9667 45.24 19.34 45.24 18.58C45.24 17.86 45.4333 17.22 45.82 16.66C46.2067 16.0867 46.76 15.6333 47.48 15.3C48.2133 14.9667 49.1 14.8 50.14 14.8C50.9667 14.8 51.6867 14.9133 52.3 15.14C52.9267 15.3533 53.4467 15.6467 53.86 16.02C54.2733 16.38 54.5867 16.7733 54.8 17.2C55.0133 17.6133 55.1267 18.02 55.14 18.42C55.14 18.5133 55.1067 18.6067 55.04 18.7C54.9733 18.78 54.8667 18.82 54.72 18.82H53.66C53.5667 18.82 53.4667 18.7933 53.36 18.74C53.2667 18.6867 53.1933 18.5867 53.14 18.44C53.06 17.8933 52.7533 17.4333 52.22 17.06C51.6867 16.6867 50.9933 16.5 50.14 16.5C49.2733 16.5 48.5667 16.6667 48.02 17C47.4867 17.3333 47.22 17.8533 47.22 18.56C47.22 19.0133 47.3467 19.3933 47.6 19.7C47.8533 19.9933 48.2533 20.2533 48.8 20.48C49.3467 20.7067 50.06 20.9467 50.94 21.2C52.0067 21.4933 52.88 21.8067 53.56 22.14C54.24 22.46 54.74 22.8667 55.06 23.36C55.3933 23.84 55.56 24.46 55.56 25.22C55.56 26.06 55.34 26.78 54.9 27.38C54.46 27.9667 53.84 28.42 53.04 28.74C52.2533 29.0467 51.32 29.2 50.24 29.2ZM62.0614 29.2C60.6881 29.2 59.5947 28.78 58.7814 27.94C57.9681 27.0867 57.5214 25.9267 57.4414 24.46C57.4281 24.2867 57.4214 24.0667 57.4214 23.8C57.4214 23.52 57.4281 23.2933 57.4414 23.12C57.4947 22.1733 57.7147 21.3467 58.1014 20.64C58.4881 19.92 59.0147 19.3667 59.6814 18.98C60.3614 18.5933 61.1547 18.4 62.0614 18.4C63.0747 18.4 63.9214 18.6133 64.6014 19.04C65.2947 19.4667 65.8214 20.0733 66.1814 20.86C66.5414 21.6467 66.7214 22.5667 66.7214 23.62V23.96C66.7214 24.1067 66.6747 24.22 66.5814 24.3C66.5014 24.38 66.3947 24.42 66.2614 24.42H59.3414C59.3414 24.4333 59.3414 24.46 59.3414 24.5C59.3414 24.54 59.3414 24.5733 59.3414 24.6C59.3681 25.1467 59.4881 25.66 59.7014 26.14C59.9147 26.6067 60.2214 26.9867 60.6214 27.28C61.0214 27.5733 61.5014 27.72 62.0614 27.72C62.5414 27.72 62.9414 27.6467 63.2614 27.5C63.5814 27.3533 63.8414 27.1933 64.0414 27.02C64.2414 26.8333 64.3747 26.6933 64.4414 26.6C64.5614 26.4267 64.6547 26.3267 64.7214 26.3C64.7881 26.26 64.8947 26.24 65.0414 26.24H66.0014C66.1347 26.24 66.2414 26.28 66.3214 26.36C66.4147 26.4267 66.4547 26.5267 66.4414 26.66C66.4281 26.86 66.3214 27.1067 66.1214 27.4C65.9214 27.68 65.6347 27.96 65.2614 28.24C64.8881 28.52 64.4347 28.7533 63.9014 28.94C63.3681 29.1133 62.7547 29.2 62.0614 29.2ZM59.3414 23.04H64.8214V22.98C64.8214 22.38 64.7081 21.8467 64.4814 21.38C64.2681 20.9133 63.9547 20.5467 63.5414 20.28C63.1281 20 62.6347 19.86 62.0614 19.86C61.4881 19.86 60.9947 20 60.5814 20.28C60.1814 20.5467 59.8747 20.9133 59.6614 21.38C59.4481 21.8467 59.3414 22.38 59.3414 22.98V23.04ZM69.5728 29C69.4395 29 69.3261 28.96 69.2328 28.88C69.1528 28.7867 69.1128 28.6733 69.1128 28.54V19.06C69.1128 18.9267 69.1528 18.82 69.2328 18.74C69.3261 18.6467 69.4395 18.6 69.5728 18.6H70.5128C70.6461 18.6 70.7528 18.6467 70.8328 18.74C70.9261 18.82 70.9728 18.9267 70.9728 19.06V19.94C71.3195 19.4867 71.7528 19.12 72.2728 18.84C72.8061 18.5467 73.4861 18.4 74.3128 18.4C75.1795 18.4 75.9128 18.5933 76.5128 18.98C77.1261 19.3533 77.5861 19.88 77.8928 20.56C78.1995 21.2267 78.3528 22.0067 78.3528 22.9V28.54C78.3528 28.6733 78.3128 28.7867 78.2328 28.88C78.1528 28.96 78.0461 29 77.9128 29H76.9128C76.7795 29 76.6661 28.96 76.5728 28.88C76.4928 28.7867 76.4528 28.6733 76.4528 28.54V23C76.4528 22.0667 76.2261 21.34 75.7728 20.82C75.3195 20.2867 74.6528 20.02 73.7728 20.02C72.9461 20.02 72.2795 20.2867 71.7728 20.82C71.2795 21.34 71.0328 22.0667 71.0328 23V28.54C71.0328 28.6733 70.9861 28.7867 70.8928 28.88C70.8128 28.96 70.7061 29 70.5728 29H69.5728ZM85.0417 29.2C84.3084 29.2 83.6751 29.0733 83.1417 28.82C82.6084 28.5533 82.1684 28.2 81.8217 27.76C81.4884 27.3067 81.2351 26.7933 81.0617 26.22C80.9017 25.6467 80.8084 25.04 80.7817 24.4C80.7684 24.1867 80.7617 23.9867 80.7617 23.8C80.7617 23.6133 80.7684 23.4133 80.7817 23.2C80.8084 22.5733 80.9017 21.9733 81.0617 21.4C81.2351 20.8267 81.4884 20.3133 81.8217 19.86C82.1684 19.4067 82.6084 19.0533 83.1417 18.8C83.6751 18.5333 84.3084 18.4 85.0417 18.4C85.8284 18.4 86.4817 18.54 87.0017 18.82C87.5217 19.1 87.9484 19.4467 88.2817 19.86V15.26C88.2817 15.1267 88.3217 15.02 88.4017 14.94C88.4951 14.8467 88.6084 14.8 88.7417 14.8H89.7017C89.8351 14.8 89.9417 14.8467 90.0217 14.94C90.1151 15.02 90.1617 15.1267 90.1617 15.26V28.54C90.1617 28.6733 90.1151 28.7867 90.0217 28.88C89.9417 28.96 89.8351 29 89.7017 29H88.8017C88.6551 29 88.5417 28.96 88.4617 28.88C88.3817 28.7867 88.3417 28.6733 88.3417 28.54V27.7C88.0084 28.1267 87.5751 28.4867 87.0417 28.78C86.5084 29.06 85.8417 29.2 85.0417 29.2ZM85.4617 27.58C86.1284 27.58 86.6617 27.4267 87.0617 27.12C87.4617 26.8133 87.7617 26.4267 87.9617 25.96C88.1617 25.48 88.2684 24.9933 88.2817 24.5C88.2951 24.2867 88.3017 24.0333 88.3017 23.74C88.3017 23.4333 88.2951 23.1733 88.2817 22.96C88.2684 22.4933 88.1551 22.0333 87.9417 21.58C87.7417 21.1267 87.4351 20.7533 87.0217 20.46C86.6217 20.1667 86.1017 20.02 85.4617 20.02C84.7817 20.02 84.2417 20.1733 83.8417 20.48C83.4417 20.7733 83.1551 21.1667 82.9817 21.66C82.8084 22.14 82.7084 22.66 82.6817 23.22C82.6684 23.6067 82.6684 23.9933 82.6817 24.38C82.7084 24.94 82.8084 25.4667 82.9817 25.96C83.1551 26.44 83.4417 26.8333 83.8417 27.14C84.2417 27.4333 84.7817 27.58 85.4617 27.58Z" fill="#2D3436"/>
</svg>
