<svg width="108" height="44" viewBox="0 0 108 44" fill="none" xmlns="http://www.w3.org/2000/svg">
<path fill-rule="evenodd" clip-rule="evenodd" d="M13 14.5C13 13.6716 13.6716 13 14.5 13H29.5C30.3284 13 31 13.6716 31 14.5V29.5C31 30.3284 30.3284 31 29.5 31H14.5C13.6716 31 13 30.3284 13 29.5V14.5ZM29.5 14.5H14.5V29.5H29.5V14.5Z" fill="#6C5CE7"/>
<path fill-rule="evenodd" clip-rule="evenodd" d="M26.5 11.5C26.9142 11.5 27.25 11.8358 27.25 12.25V15.25C27.25 15.6642 26.9142 16 26.5 16C26.0858 16 25.75 15.6642 25.75 15.25V12.25C25.75 11.8358 26.0858 11.5 26.5 11.5Z" fill="#6C5CE7"/>
<path fill-rule="evenodd" clip-rule="evenodd" d="M17.5 11.5C17.9142 11.5 18.25 11.8358 18.25 12.25V15.25C18.25 15.6642 17.9142 16 17.5 16C17.0858 16 16.75 15.6642 16.75 15.25V12.25C16.75 11.8358 17.0858 11.5 17.5 11.5Z" fill="#6C5CE7"/>
<path fill-rule="evenodd" clip-rule="evenodd" d="M13 18.25C13 17.8358 13.3358 17.5 13.75 17.5H30.25C30.6642 17.5 31 17.8358 31 18.25C31 18.6642 30.6642 19 30.25 19H13.75C13.3358 19 13 18.6642 13 18.25Z" fill="#6C5CE7"/>
<path fill-rule="evenodd" clip-rule="evenodd" d="M25.9209 21.4857C26.2049 21.7872 26.1908 22.2618 25.8893 22.5459L21.5112 26.6709C21.2216 26.9437 20.7694 26.9429 20.4807 26.6691L18.1088 24.4191C17.8083 24.1341 17.7958 23.6593 18.0809 23.3588C18.3659 23.0583 18.8407 23.0458 19.1412 23.3309L20.9986 25.0929L24.8607 21.4541C25.1622 21.1701 25.6368 21.1842 25.9209 21.4857Z" fill="#6C5CE7"/>
<path d="M46.2 29C46.0533 29 45.94 28.96 45.86 28.88C45.78 28.7867 45.74 28.6733 45.74 28.54V15.48C45.74 15.3333 45.78 15.22 45.86 15.14C45.94 15.0467 46.0533 15 46.2 15H54.46C54.6067 15 54.72 15.0467 54.8 15.14C54.88 15.22 54.92 15.3333 54.92 15.48V16.24C54.92 16.3867 54.88 16.5 54.8 16.58C54.72 16.66 54.6067 16.7 54.46 16.7H47.66V21.08H54.02C54.1667 21.08 54.28 21.1267 54.36 21.22C54.44 21.3 54.48 21.4133 54.48 21.56V22.3C54.48 22.4333 54.44 22.5467 54.36 22.64C54.28 22.72 54.1667 22.76 54.02 22.76H47.66V27.3H54.62C54.7667 27.3 54.88 27.34 54.96 27.42C55.04 27.5 55.08 27.6133 55.08 27.76V28.54C55.08 28.6733 55.04 28.7867 54.96 28.88C54.88 28.96 54.7667 29 54.62 29H46.2ZM60.9359 29C60.7359 29 60.5759 28.9533 60.4559 28.86C60.3493 28.7667 60.2626 28.6467 60.1959 28.5L56.4959 19.22C56.4693 19.1533 56.4559 19.0867 56.4559 19.02C56.4559 18.9 56.4959 18.8 56.5759 18.72C56.6559 18.64 56.7559 18.6 56.8759 18.6H57.8359C57.9826 18.6 58.0959 18.64 58.1759 18.72C58.2559 18.8 58.3026 18.8733 58.3159 18.94L61.3759 26.82L64.4159 18.94C64.4426 18.8733 64.4893 18.8 64.5559 18.72C64.6359 18.64 64.7493 18.6 64.8959 18.6H65.8759C65.9826 18.6 66.0759 18.64 66.1559 18.72C66.2493 18.8 66.2959 18.9 66.2959 19.02C66.2959 19.0867 66.2826 19.1533 66.2559 19.22L62.5359 28.5C62.4826 28.6467 62.3959 28.7667 62.2759 28.86C62.1693 28.9533 62.0093 29 61.7959 29H60.9359ZM72.1591 29.2C70.7857 29.2 69.6924 28.78 68.8791 27.94C68.0657 27.0867 67.6191 25.9267 67.5391 24.46C67.5257 24.2867 67.5191 24.0667 67.5191 23.8C67.5191 23.52 67.5257 23.2933 67.5391 23.12C67.5924 22.1733 67.8124 21.3467 68.1991 20.64C68.5857 19.92 69.1124 19.3667 69.7791 18.98C70.4591 18.5933 71.2524 18.4 72.1591 18.4C73.1724 18.4 74.0191 18.6133 74.6991 19.04C75.3924 19.4667 75.9191 20.0733 76.2791 20.86C76.6391 21.6467 76.8191 22.5667 76.8191 23.62V23.96C76.8191 24.1067 76.7724 24.22 76.6791 24.3C76.5991 24.38 76.4924 24.42 76.3591 24.42H69.4391C69.4391 24.4333 69.4391 24.46 69.4391 24.5C69.4391 24.54 69.4391 24.5733 69.4391 24.6C69.4657 25.1467 69.5857 25.66 69.7991 26.14C70.0124 26.6067 70.3191 26.9867 70.7191 27.28C71.1191 27.5733 71.5991 27.72 72.1591 27.72C72.6391 27.72 73.0391 27.6467 73.3591 27.5C73.6791 27.3533 73.9391 27.1933 74.1391 27.02C74.3391 26.8333 74.4724 26.6933 74.5391 26.6C74.6591 26.4267 74.7524 26.3267 74.8191 26.3C74.8857 26.26 74.9924 26.24 75.1391 26.24H76.0991C76.2324 26.24 76.3391 26.28 76.4191 26.36C76.5124 26.4267 76.5524 26.5267 76.5391 26.66C76.5257 26.86 76.4191 27.1067 76.2191 27.4C76.0191 27.68 75.7324 27.96 75.3591 28.24C74.9857 28.52 74.5324 28.7533 73.9991 28.94C73.4657 29.1133 72.8524 29.2 72.1591 29.2ZM69.4391 23.04H74.9191V22.98C74.9191 22.38 74.8057 21.8467 74.5791 21.38C74.3657 20.9133 74.0524 20.5467 73.6391 20.28C73.2257 20 72.7324 19.86 72.1591 19.86C71.5857 19.86 71.0924 20 70.6791 20.28C70.2791 20.5467 69.9724 20.9133 69.7591 21.38C69.5457 21.8467 69.4391 22.38 69.4391 22.98V23.04ZM79.6705 29C79.5371 29 79.4238 28.96 79.3305 28.88C79.2505 28.7867 79.2105 28.6733 79.2105 28.54V19.06C79.2105 18.9267 79.2505 18.82 79.3305 18.74C79.4238 18.6467 79.5371 18.6 79.6705 18.6H80.6105C80.7438 18.6 80.8505 18.6467 80.9305 18.74C81.0238 18.82 81.0705 18.9267 81.0705 19.06V19.94C81.4171 19.4867 81.8505 19.12 82.3705 18.84C82.9038 18.5467 83.5838 18.4 84.4105 18.4C85.2771 18.4 86.0105 18.5933 86.6105 18.98C87.2238 19.3533 87.6838 19.88 87.9905 20.56C88.2971 21.2267 88.4505 22.0067 88.4505 22.9V28.54C88.4505 28.6733 88.4105 28.7867 88.3305 28.88C88.2505 28.96 88.1438 29 88.0105 29H87.0105C86.8771 29 86.7638 28.96 86.6705 28.88C86.5905 28.7867 86.5505 28.6733 86.5505 28.54V23C86.5505 22.0667 86.3238 21.34 85.8705 20.82C85.4171 20.2867 84.7505 20.02 83.8705 20.02C83.0438 20.02 82.3771 20.2867 81.8705 20.82C81.3771 21.34 81.1305 22.0667 81.1305 23V28.54C81.1305 28.6733 81.0838 28.7867 80.9905 28.88C80.9105 28.96 80.8038 29 80.6705 29H79.6705ZM95.2627 29C94.516 29 93.9093 28.86 93.4427 28.58C92.976 28.2867 92.636 27.88 92.4227 27.36C92.2093 26.8267 92.1027 26.2 92.1027 25.48V20.2H90.5427C90.4093 20.2 90.296 20.16 90.2027 20.08C90.1227 19.9867 90.0827 19.8733 90.0827 19.74V19.06C90.0827 18.9267 90.1227 18.82 90.2027 18.74C90.296 18.6467 90.4093 18.6 90.5427 18.6H92.1027V15.26C92.1027 15.1267 92.1427 15.02 92.2227 14.94C92.316 14.8467 92.4293 14.8 92.5627 14.8H93.5027C93.636 14.8 93.7427 14.8467 93.8227 14.94C93.916 15.02 93.9627 15.1267 93.9627 15.26V18.6H96.4427C96.576 18.6 96.6827 18.6467 96.7627 18.74C96.856 18.82 96.9027 18.9267 96.9027 19.06V19.74C96.9027 19.8733 96.856 19.9867 96.7627 20.08C96.6827 20.16 96.576 20.2 96.4427 20.2H93.9627V25.34C93.9627 25.9667 94.0693 26.46 94.2827 26.82C94.496 27.18 94.876 27.36 95.4227 27.36H96.6427C96.776 27.36 96.8827 27.4067 96.9627 27.5C97.056 27.58 97.1027 27.6867 97.1027 27.82V28.54C97.1027 28.6733 97.056 28.7867 96.9627 28.88C96.8827 28.96 96.776 29 96.6427 29H95.2627Z" fill="#2D3436"/>
</svg>
