<svg width="48" height="48" viewBox="0 0 48 48" fill="none" xmlns="http://www.w3.org/2000/svg">
<path fill-rule="evenodd" clip-rule="evenodd" d="M22.4759 6.50439C22.9375 6.23223 23.4637 6.08868 23.9995 6.08868C24.5354 6.08868 25.0615 6.23223 25.5232 6.50439C25.9843 6.77628 26.3643 7.16661 26.6237 7.63488M26.6245 7.63631L32.1284 17.5583C32.1308 17.5616 32.1341 17.5641 32.1379 17.5653C32.1421 17.5667 32.1467 17.5666 32.1508 17.5649C32.1507 17.565 32.151 17.5648 32.1508 17.5649L41.6338 13.3481L41.6389 13.3459C42.1507 13.1206 42.7153 13.0428 43.269 13.1213C43.8227 13.1998 44.3434 13.4316 44.7724 13.7904C45.2014 14.1491 45.5215 14.6207 45.6967 15.1518C45.8714 15.6814 45.895 16.2493 45.7649 16.7916C45.7646 16.793 45.7642 16.7945 45.7639 16.7959L40.9821 37.1046C40.8867 37.4966 40.7137 37.8654 40.4734 38.1894C40.2331 38.5134 39.9302 38.7859 39.5828 38.9909C39.2354 39.1959 38.8504 39.3291 38.4506 39.3828C38.0508 39.4365 37.6443 39.4095 37.2552 39.3035L37.2493 39.3019C28.5731 36.8995 19.4072 36.8995 10.7311 39.3019L10.7252 39.3035C10.336 39.4095 9.9295 39.4365 9.5297 39.3828C9.12989 39.3291 8.74492 39.1959 8.39751 38.9909C8.0501 38.7859 7.74729 38.5134 7.50696 38.1894C7.26664 37.8654 7.09369 37.4966 6.99832 37.1046L6.99537 37.0925L2.23522 16.7959C2.23476 16.794 2.23431 16.7921 2.23386 16.7903C2.10409 16.2484 2.1278 15.681 2.30238 15.1518C2.47758 14.6207 2.79773 14.1491 3.2267 13.7904C3.65568 13.4316 4.1764 13.1998 4.73009 13.1213C5.28378 13.0428 5.8484 13.1206 6.36022 13.3459L6.36526 13.3481L15.8478 17.5647C15.8476 17.5646 15.8479 17.5648 15.8478 17.5647C15.8519 17.5664 15.857 17.5667 15.8612 17.5653C15.865 17.5641 15.8683 17.5616 15.8706 17.5583L21.3753 7.63488C21.6348 7.16661 22.0148 6.77628 22.4759 6.50439M18.4776 19.0432C18.1077 19.6917 17.5105 20.1801 16.8016 20.4141C16.0926 20.6482 15.3221 20.6112 14.6388 20.3103L14.6338 20.3081L5.15137 16.0916L5.1537 16.1012L9.9136 36.3966C9.91423 36.3986 9.91518 36.4004 9.91643 36.4021C9.91741 36.4034 9.91856 36.4046 9.91985 36.4056C9.92051 36.4062 9.92122 36.4066 9.92196 36.4071C9.92413 36.4084 9.92652 36.4092 9.92899 36.4095C9.93128 36.4098 9.93361 36.4097 9.93587 36.4092C19.1343 33.8632 28.8516 33.8637 38.0498 36.4106L37.6495 37.8562L38.0439 36.409C38.0464 36.4097 38.0489 36.4098 38.0513 36.4095C38.0538 36.4092 38.0562 36.4084 38.0584 36.4071C38.0605 36.4058 38.0624 36.4041 38.0639 36.4021C38.0648 36.4009 38.0655 36.3997 38.0661 36.3984C38.0663 36.3977 38.0666 36.3971 38.0668 36.3964C38.0667 36.3968 38.0669 36.3961 38.0668 36.3964L42.8457 16.1L42.8477 16.0916L33.3652 20.3081L33.3603 20.3103C32.677 20.6112 31.9065 20.6482 31.1975 20.4141C30.4886 20.1801 29.8915 19.6917 29.5216 19.0432L29.5127 19.0277L23.9995 9.08868L18.4776 19.0432Z" fill="#2D3436"/>
<path fill-rule="evenodd" clip-rule="evenodd" d="M29.8389 31.81C25.9577 31.3904 22.0426 31.3904 18.1614 31.81C17.3377 31.8991 16.5979 31.3036 16.5088 30.48C16.4198 29.6563 17.0153 28.9165 17.8389 28.8274C21.9344 28.3846 26.0658 28.3846 30.1614 28.8274C30.985 28.9165 31.5805 29.6563 31.4914 30.48C31.4024 31.3036 30.6625 31.8991 29.8389 31.81Z" fill="#2D3436"/>
</svg>
