<svg width="70" height="70" viewBox="0 0 70 70" fill="none" xmlns="http://www.w3.org/2000/svg">
<rect x="1" y="1" width="68" height="68" rx="15" fill="#6C5CE7" stroke="white" stroke-width="2"/>
<path d="M43.1644 26.4517C46.3632 26.4517 49.4309 27.7516 51.6927 30.0656C53.9546 32.3795 55.2253 35.5179 55.2253 38.7904V53.1855H47.1847V38.7904C47.1847 37.6996 46.7612 36.6534 46.0072 35.8821C45.2533 35.1108 44.2307 34.6775 43.1644 34.6775C42.0982 34.6775 41.0756 35.1108 40.3217 35.8821C39.5677 36.6534 39.1442 37.6996 39.1442 38.7904V53.1855H31.1036V38.7904C31.1036 35.5179 32.3743 32.3795 34.6362 30.0656C36.898 27.7516 39.9657 26.4517 43.1644 26.4517Z" fill="url(#paint0_radial_2_28450)" stroke="white" stroke-width="2" stroke-linecap="round" stroke-linejoin="round"/>
<path d="M23.0631 28.5083H15.0226V53.1857H23.0631V28.5083Z" fill="url(#paint1_radial_2_28450)" stroke="white" stroke-width="2" stroke-linecap="round" stroke-linejoin="round"/>
<path d="M19.0429 22.3386C21.2632 22.3386 23.0631 20.4972 23.0631 18.2257C23.0631 15.9542 21.2632 14.1128 19.0429 14.1128C16.8225 14.1128 15.0226 15.9542 15.0226 18.2257C15.0226 20.4972 16.8225 22.3386 19.0429 22.3386Z" fill="url(#paint2_radial_2_28450)" stroke="white" stroke-width="2" stroke-linecap="round" stroke-linejoin="round"/>
<defs>
<radialGradient id="paint0_radial_2_28450" cx="0" cy="0" r="1" gradientUnits="userSpaceOnUse" gradientTransform="translate(43.1644 39.8186) rotate(90) scale(13.3669 12.0608)">
<stop offset="0.2" stop-color="#6C5CE7"/>
<stop offset="0.55" stop-color="#6C5CE7" stop-opacity="0.75"/>
<stop offset="1" stop-color="#A29BFE"/>
</radialGradient>
<radialGradient id="paint1_radial_2_28450" cx="0" cy="0" r="1" gradientUnits="userSpaceOnUse" gradientTransform="translate(19.0429 40.847) rotate(90) scale(12.3387 4.02027)">
<stop offset="0.2" stop-color="#6C5CE7"/>
<stop offset="0.55" stop-color="#6C5CE7" stop-opacity="0.75"/>
<stop offset="1" stop-color="#A29BFE"/>
</radialGradient>
<radialGradient id="paint2_radial_2_28450" cx="0" cy="0" r="1" gradientUnits="userSpaceOnUse" gradientTransform="translate(19.0429 18.2257) rotate(90) scale(4.1129 4.02027)">
<stop offset="0.2" stop-color="#6C5CE7"/>
<stop offset="0.55" stop-color="#6C5CE7" stop-opacity="0.75"/>
<stop offset="1" stop-color="#A29BFE"/>
</radialGradient>
</defs>
</svg>
