<svg width="32" height="32" viewBox="0 0 32 32" fill="none" xmlns="http://www.w3.org/2000/svg">
<path fill-rule="evenodd" clip-rule="evenodd" d="M16 11C13.2386 11 11 13.2386 11 16C11 18.7614 13.2386 21 16 21C18.7614 21 21 18.7614 21 16C21 13.2386 18.7614 11 16 11ZM9 16C9 12.134 12.134 9 16 9C19.866 9 23 12.134 23 16C23 19.866 19.866 23 16 23C12.134 23 9 19.866 9 16Z" fill="white"/>
<path fill-rule="evenodd" clip-rule="evenodd" d="M11.7173 2.66066C11.992 2.572 12.2916 2.60633 12.539 2.75481L15.4622 4.50868C15.8205 4.49267 16.1793 4.49268 16.5376 4.50871L19.4485 2.76672C19.694 2.61984 19.9906 2.5851 20.2633 2.67126C22.1736 3.27479 23.9299 4.28627 25.4106 5.63569C25.6229 5.82913 25.7417 6.10449 25.7369 6.39164L25.6797 9.78943C25.8771 10.0926 26.0582 10.406 26.2223 10.7283L29.1855 12.3758C29.435 12.5145 29.6133 12.7533 29.6755 13.0319C30.1115 14.9845 30.1161 17.0087 29.689 18.9633C29.6276 19.2443 29.4482 19.4852 29.1965 19.6246L26.2219 21.2721C26.0579 21.5942 25.8769 21.9073 25.6797 22.2102L25.7369 25.608C25.7417 25.8951 25.6229 26.1705 25.4106 26.364C23.933 27.7104 22.1842 28.7248 20.2817 29.339C20.0071 29.4276 19.7075 29.3933 19.4601 29.2448L16.5369 27.4909C16.1786 27.5069 15.8198 27.5069 15.4615 27.4909L12.5506 29.2329C12.3051 29.3798 12.0085 29.4145 11.7358 29.3284C9.8255 28.7248 8.06919 27.7133 6.58847 26.3639C6.37619 26.1705 6.25734 25.8951 6.26219 25.6079L6.31946 22.2178C6.12323 21.9116 5.94229 21.5958 5.77732 21.2716L2.81362 19.6238C2.56411 19.4851 2.38579 19.2463 2.32358 18.9677C1.88762 17.0151 1.88302 14.9909 2.3101 13.0363C2.3715 12.7553 2.55093 12.5144 2.80255 12.375L5.77719 10.7275C5.94118 10.4054 6.12217 10.0923 6.31939 9.78943L6.26219 6.39164C6.25736 6.10448 6.37622 5.82911 6.5885 5.63566C8.06611 4.28919 9.81494 3.27478 11.7173 2.66066ZM8.2697 6.82064L8.32441 10.0705C8.32795 10.281 8.26494 10.4873 8.14437 10.6599C7.87614 11.0439 7.64132 11.4502 7.44246 11.8743C7.35307 12.065 7.20576 12.2226 7.02155 12.3246L4.17722 13.8999C3.92843 15.2889 3.93188 16.7115 4.18743 18.0993L7.02298 19.6758C7.2058 19.7775 7.35214 19.9339 7.44141 20.123C7.64463 20.5537 7.88165 20.9675 8.15026 21.3607C8.26705 21.5317 8.3279 21.7347 8.32441 21.9417L8.26972 25.1789C9.3506 26.0919 10.5866 26.8037 11.919 27.2801L14.6985 25.6167C14.8746 25.5114 15.0788 25.4627 15.2834 25.4774C15.7602 25.5115 16.2389 25.5115 16.7157 25.4774C16.9207 25.4627 17.1253 25.5116 17.3015 25.6173L20.0901 27.2904C21.4181 26.8065 22.6501 26.0916 23.7294 25.179L23.6747 21.9291C23.6711 21.7186 23.7342 21.5123 23.8547 21.3397C24.123 20.9557 24.3578 20.5494 24.5566 20.1253C24.646 19.9346 24.7933 19.777 24.9775 19.675L27.8219 18.0997C28.0707 16.7107 28.0672 15.2881 27.8117 13.9003L24.9761 12.3238C24.7926 12.2217 24.6458 12.0645 24.5566 11.8743C24.3578 11.4502 24.123 11.0439 23.8547 10.6599C23.7342 10.4873 23.6711 10.281 23.6747 10.0705L23.7294 6.82078C22.6485 5.90768 21.4125 5.19596 20.0801 4.71952L17.3006 6.3829C17.1245 6.48824 16.9203 6.5369 16.7157 6.52226C16.2389 6.48815 15.7602 6.48815 15.2834 6.52226C15.0784 6.53692 14.8738 6.48805 14.6976 6.3823L11.909 4.70917C10.581 5.19316 9.34897 5.90799 8.2697 6.82064Z" fill="white"/>
</svg>
