<svg width="718" height="800" viewBox="0 0 718 800" fill="none" xmlns="http://www.w3.org/2000/svg">
<g clip-path="url(#clip0_2_28358)">
<path d="M549.417 170.988L429.865 128.005C437.674 221.429 445.302 317.18 420.476 407.575C417.79 417.361 415.442 429.609 423.206 436.118C427.856 440.005 434.491 440.14 440.563 439.959C452.976 439.575 465.367 438.671 477.69 437.248C490.826 435.733 504.842 433.157 514.185 423.779C522.017 415.937 525.199 404.66 527.818 393.88C545.603 321.135 552.915 245.813 549.417 170.988Z" fill="#263238"/>
<path d="M353.579 556.614L367.753 538.016L377.254 488.253L398.809 367.236C398.809 367.236 408.31 321.699 437.629 308.66L443.835 429.586L384.025 581.518L353.579 556.614Z" fill="#A29BFE"/>
<path d="M482.136 275.824L464.509 296.728L437.629 308.683C437.629 308.683 378.473 421.88 376.871 422.943C375.268 424.005 365.766 456.276 371.07 483.779C376.352 511.282 380.053 547.259 379.511 573.18C378.992 599.101 345.183 684.253 343.061 703.824C340.94 723.394 334.078 799.033 334.078 799.033L633.083 796.75C633.083 796.75 630.442 775.236 621.979 740.321C621.979 740.321 620.918 665.202 609.836 650.92C609.836 650.92 618.277 631.349 617.239 620.231C616.178 609.112 661.611 549.88 670.594 529.248C679.577 508.615 714.966 461.541 715.486 427.688C716.005 393.835 710.723 365.27 693.818 341.993C676.914 318.717 646.286 302.852 633.602 294.4L608.775 262.671L482.114 275.824H482.136Z" fill="#A29BFE"/>
<path d="M375.539 799.01C375.539 799.01 375.539 798.694 375.539 798.106C375.562 797.451 375.584 796.569 375.629 795.462C375.742 793.067 375.878 789.654 376.081 785.27C376.442 776.366 376.984 763.575 377.638 747.801C377.909 739.891 378.18 731.213 378.315 721.925C378.383 717.27 378.383 712.456 378.225 707.53C378.044 702.513 378.699 697.36 379.76 692.208C381.859 681.88 385.718 671.507 389.532 660.795C391.428 655.439 393.414 649.97 394.701 644.298C395.355 641.496 395.558 638.558 395.852 635.575C396.145 632.615 396.439 629.609 396.755 626.603C397.951 614.581 399.147 602.829 400.276 591.507C400.84 585.835 401.404 580.276 401.946 574.807C402.442 569.338 403.187 564.027 403.368 558.784C404.586 537.835 407.882 519.191 410.883 503.643C413.93 488.095 416.729 475.598 418.535 466.92C419.437 462.626 420.137 459.281 420.611 456.931C420.837 455.846 421.04 454.987 421.175 454.332C421.311 453.745 421.378 453.451 421.401 453.451C421.401 453.451 421.401 453.767 421.288 454.355C421.175 455.01 421.04 455.869 420.837 456.976C420.408 459.326 419.776 462.694 418.963 467.01C417.293 475.711 414.63 488.253 411.673 503.801C408.784 519.349 405.557 537.97 404.406 558.852C404.248 564.095 403.503 569.406 403.029 574.874C402.487 580.321 401.946 585.903 401.381 591.575C400.253 602.92 399.079 614.671 397.883 626.694C397.59 629.699 397.274 632.682 396.98 635.665C396.687 638.603 396.484 641.609 395.807 644.547C394.475 650.355 392.489 655.824 390.593 661.18C386.779 671.891 382.919 682.219 380.798 692.434C379.737 697.519 379.083 702.581 379.241 707.485C379.398 712.456 379.353 717.293 379.286 721.948C379.128 731.259 378.789 739.937 378.473 747.846C377.796 763.665 377.074 776.479 376.555 785.315C376.261 789.677 376.036 793.112 375.9 795.485C375.81 796.592 375.742 797.473 375.697 798.129C375.652 798.716 375.607 799.033 375.584 799.033L375.539 799.01Z" fill="#263238"/>
<path d="M422.078 452.479C422.078 450.061 432.686 409.044 454.849 374.761C477.013 340.502 481.843 310.558 481.843 310.558L482.204 266.309L484.1 272.004L596.498 255.688L599.883 271.937L524.793 340.004C524.793 340.004 490.036 346.761 488.591 347.733C487.147 348.705 422.055 452.479 422.055 452.479H422.078Z" fill="#EFBDA8"/>
<path d="M633.602 294.4C633.602 294.4 633.286 294.965 632.609 295.982C631.932 296.999 630.917 298.468 629.562 300.343C626.899 304.117 622.927 309.519 617.894 316.072C612.861 322.626 606.744 330.332 600.154 339.033C596.859 343.372 593.451 347.982 589.997 352.818C589.14 354.016 588.282 355.281 587.176 356.434C586.093 357.564 584.603 358.581 582.865 358.694C581.127 358.807 579.525 358.129 578.148 357.338C576.749 356.524 575.485 355.665 574.153 354.807C568.85 351.394 563.681 348.072 558.693 344.863C556.188 343.281 553.75 341.632 551.335 340.163C548.943 338.716 546.347 337.609 543.774 337.948C541.201 338.242 538.945 339.688 536.891 341.18C534.859 342.716 532.828 344.298 530.729 345.564C526.531 348.117 522.243 349.835 518.18 350.784C510.055 352.75 503.171 352.208 498.657 351.236C497.529 351.01 496.513 350.761 495.656 350.513C494.798 350.264 494.076 350.061 493.511 349.835C492.36 349.406 491.774 349.18 491.796 349.134C491.796 349.089 492.428 349.27 493.579 349.609C494.143 349.79 494.888 349.993 495.746 350.174C496.604 350.4 497.597 350.603 498.725 350.807C503.217 351.62 510.01 352.027 517.955 349.993C521.927 348.999 526.102 347.281 530.187 344.75C532.219 343.485 534.16 341.948 536.236 340.366C538.313 338.829 540.705 337.247 543.616 336.886C546.551 336.502 549.417 337.745 551.877 339.213C554.36 340.728 556.752 342.31 559.28 343.914C564.29 347.123 569.459 350.445 574.763 353.835C577.426 355.417 579.976 357.677 582.753 357.519C584.107 357.428 585.325 356.637 586.341 355.62C587.357 354.603 588.169 353.36 589.049 352.163C592.525 347.326 595.956 342.739 599.274 338.4C605.932 329.722 612.116 322.083 617.217 315.598C622.34 309.112 626.38 303.801 629.179 300.117C630.533 298.355 631.594 296.931 632.384 295.869C633.128 294.897 633.535 294.4 633.557 294.422L633.602 294.4Z" fill="#263238"/>
<path d="M464.509 423.507C464.509 423.507 465.051 422.332 466.179 420.298C467.308 418.265 469.046 415.395 471.235 411.869C475.636 404.818 482.023 395.259 489.652 385.135C497.303 375.01 504.751 366.265 510.326 360.118C513.125 357.044 515.427 354.604 517.052 352.954C518.677 351.304 519.602 350.423 519.67 350.468C519.738 350.513 518.903 351.508 517.39 353.27C515.743 355.169 513.553 357.677 510.935 360.683C505.519 366.965 498.206 375.779 490.577 385.858C482.949 395.959 476.471 405.406 471.912 412.321C469.723 415.666 467.917 418.423 466.541 420.547C465.277 422.491 464.532 423.553 464.464 423.507H464.509Z" fill="#263238"/>
<g opacity="0.3">
<path d="M476.674 693.18C450.539 689.225 414.224 678.31 384.432 672.073C373.801 669.858 364.593 667.282 353.962 665.044L352.044 670.965C382.558 677.7 411.132 687.734 438.938 701.994C455.481 710.468 471.844 720.366 490.239 723.078C510.8 726.107 531.451 719.756 551.268 713.496C562.44 709.971 574.153 706.107 582.121 697.496C587.74 691.44 590.945 683.553 593.902 675.824C601.711 655.372 608.527 634.559 614.35 613.451C578.848 653.316 529.443 701.157 476.697 693.157L476.674 693.18Z" fill="black"/>
</g>
<path d="M599.905 435.62L524.816 573.925C524.816 573.925 507.369 577.451 507.369 595.914C507.369 595.914 501.298 591.055 492.496 596.298C486.831 599.665 470.874 604.163 462.049 608.886C457.693 611.213 455.549 616.23 456.858 620.999L480.173 705.812C480.173 705.812 508.498 705.812 511.026 698.784L549.846 686.626C549.846 686.626 574.943 679.982 584.603 663.259C594.263 646.558 652.177 560.163 652.177 560.163" fill="#A29BFE"/>
<path d="M652.132 560.118C652.132 560.118 651.974 560.411 651.613 560.976C651.229 561.564 650.688 562.4 650.011 563.462C648.544 565.677 646.445 568.908 643.714 573.067C638.184 581.473 630.127 593.677 620.038 608.976C615.005 616.66 609.475 625.134 603.472 634.287C597.513 643.485 591.058 653.338 584.626 664.027C581.286 669.451 576.41 673.971 570.836 677.586C565.284 681.247 559.054 684.095 552.464 686.332C539.261 690.468 525.47 694.807 511.184 699.281L511.545 698.942C510.958 700.389 509.762 701.293 508.588 701.971C507.392 702.649 506.106 703.123 504.819 703.53C502.223 704.321 499.538 704.818 496.829 705.225C491.39 705.993 485.815 706.332 480.173 706.4H479.744L479.631 705.971C475.388 690.581 470.987 674.513 466.473 658.129C464.103 649.519 461.756 640.976 459.454 632.569C458.325 628.321 457.084 624.253 456.068 619.959C455.301 615.44 457.671 610.671 461.598 608.547C469.226 604.57 477.216 602.151 484.8 599.168C486.695 598.445 488.569 597.677 490.374 596.818C492.112 595.982 493.895 594.807 495.859 594.174C499.763 592.818 504.277 593.089 507.753 595.507L506.85 595.937C506.918 590.626 508.43 585.202 511.906 581.27C515.269 577.27 519.873 574.671 524.748 573.451L524.387 573.722C546.821 532.592 565.645 498.061 578.893 473.767C585.529 461.677 590.765 452.163 594.353 445.609C596.136 442.377 597.513 439.914 598.484 438.197C598.935 437.383 599.296 436.75 599.567 436.298C599.815 435.869 599.951 435.666 599.951 435.666C599.951 435.666 599.86 435.892 599.635 436.344C599.387 436.818 599.071 437.451 598.642 438.287C597.716 440.027 596.385 442.536 594.669 445.79C591.126 452.366 585.98 461.948 579.457 474.084C566.299 498.423 547.589 533.021 525.312 574.242L525.2 574.445L524.951 574.513C520.392 575.666 515.878 578.219 512.718 581.993C509.423 585.722 508.001 590.875 507.956 595.982V597.021L507.053 596.411C504.052 594.31 499.809 593.971 496.22 595.259C494.369 595.869 492.767 596.954 490.871 597.858C489.02 598.739 487.124 599.507 485.206 600.23C477.6 603.214 469.588 605.677 462.162 609.541C458.619 611.462 456.52 615.733 457.219 619.779C458.19 623.824 459.454 628.072 460.582 632.276C462.907 640.683 465.232 649.225 467.601 657.835C472.093 674.219 476.516 690.287 480.737 705.699L480.173 705.27C485.748 705.202 491.3 704.863 496.671 704.117C499.357 703.733 501.998 703.259 504.48 702.468C505.722 702.084 506.941 701.632 508.047 701.021C509.13 700.411 510.1 699.62 510.507 698.603L510.619 698.332L510.868 698.242C525.154 693.79 538.945 689.473 552.148 685.36C558.648 683.168 564.832 680.366 570.294 676.75C575.801 673.225 580.563 668.796 583.813 663.553C590.313 652.863 596.791 643.01 602.795 633.858C608.821 624.728 614.418 616.276 619.474 608.615C629.675 593.383 637.8 581.247 643.42 572.886C646.219 568.773 648.386 565.586 649.875 563.394C650.597 562.355 651.162 561.541 651.568 560.954C651.952 560.411 652.177 560.14 652.177 560.14L652.132 560.118Z" fill="#263238"/>
<path d="M564.403 626.717C564.403 626.717 563.658 626.468 562.44 625.79C561.198 625.135 559.483 624.095 557.407 622.739C553.254 620.028 547.747 615.802 542.375 610.423C537.003 605.022 532.805 599.53 530.075 595.372C528.72 593.293 527.682 591.553 527.028 590.333C526.373 589.112 526.035 588.412 526.102 588.367C526.26 588.276 527.863 590.875 530.752 594.898C533.618 598.92 537.884 604.254 543.188 609.587C548.514 614.898 553.863 619.169 557.858 622.039C561.875 624.932 564.471 626.536 564.381 626.694L564.403 626.717Z" fill="#263238"/>
<path d="M566.886 583.327C566.908 583.462 564.494 584.05 560.476 584.502C556.481 584.931 550.884 585.112 544.745 584.479C538.606 583.824 533.189 582.468 529.352 581.203C525.515 579.937 523.281 578.852 523.326 578.717C523.394 578.536 525.741 579.349 529.578 580.412C533.415 581.474 538.809 582.671 544.858 583.304C550.906 583.937 556.414 583.892 560.386 583.666C564.358 583.44 566.841 583.146 566.863 583.327H566.886Z" fill="#263238"/>
<path d="M405.489 368.479C405.489 368.479 405.444 368.66 405.331 369.021C405.173 369.428 404.97 369.948 404.744 370.558C404.248 371.914 403.368 373.858 402.239 376.366C399.937 381.36 396.078 388.321 391.067 396.773C386.147 405.247 379.963 415.236 375.539 427.372C375.268 428.14 374.997 428.886 374.727 429.654C374.501 430.445 374.298 431.236 374.072 432.027C373.643 433.609 373.192 435.236 372.74 436.863C372.221 438.468 371.95 440.163 371.702 441.858C371.409 443.552 371.138 445.27 370.845 447.01C370.438 450.49 370.213 454.061 370.009 457.677C370.009 459.485 370.009 461.315 370.009 463.168C370.009 464.999 370.009 466.852 370.19 468.728C371.025 483.643 373.733 497.677 375.99 510.468C378.293 523.236 380.076 534.852 380.64 544.66C381.091 549.564 380.866 554.038 380.933 557.925C380.64 561.835 380.437 565.18 380.098 567.914C379.624 570.558 379.263 572.637 378.992 574.151C378.857 574.807 378.767 575.326 378.676 575.756C378.609 576.117 378.541 576.298 378.518 576.298C378.518 576.298 378.518 576.095 378.541 575.733C378.586 575.304 378.654 574.762 378.744 574.106C378.97 572.592 379.263 570.49 379.624 567.869C379.895 565.157 380.008 561.79 380.256 557.925C380.121 554.038 380.301 549.609 379.782 544.728C379.105 534.965 377.254 523.417 374.907 510.671C372.605 497.903 369.851 483.846 369.016 468.818C368.858 466.942 368.813 465.067 368.836 463.213C368.836 461.36 368.836 459.507 368.836 457.677C369.062 454.016 369.287 450.4 369.693 446.897C369.987 445.157 370.28 443.417 370.574 441.699C370.845 439.982 371.138 438.264 371.657 436.637C372.108 434.987 372.56 433.36 373.011 431.756C373.237 430.942 373.463 430.151 373.688 429.36C373.959 428.592 374.253 427.824 374.523 427.055C379.06 414.784 385.357 404.795 390.367 396.389C395.468 388.004 399.418 381.134 401.833 376.208C403.029 373.745 403.954 371.824 404.541 370.513C404.812 369.903 405.06 369.428 405.241 369.021C405.399 368.682 405.489 368.524 405.512 368.524L405.489 368.479Z" fill="#263238"/>
<path d="M482.136 275.824C482.136 275.824 482.069 276.005 481.865 276.298C481.617 276.66 481.324 277.089 480.963 277.632C480.173 278.807 478.886 280.434 477.193 282.536C473.808 286.716 468.617 292.547 462.117 299.711C458.867 303.304 455.323 307.259 451.509 311.507C447.74 315.801 443.7 320.411 439.886 325.609C432.483 336.118 427.472 349.858 425.283 364.728L424.177 364.389C425.825 360.954 428.194 357.79 430.519 354.581C431.738 352.908 432.934 351.259 434.085 349.609C434.649 348.773 435.191 347.937 435.71 347.078L436.455 345.79L436.794 345.134L436.952 344.795L437.042 344.637C437.042 344.637 436.997 344.682 437.177 344.411C437.335 344.23 437.583 344.163 437.809 344.208C438.012 344.23 438.215 344.389 438.306 344.569L438.351 344.682L438.419 344.863L438.554 345.225L438.825 345.948C439.028 346.423 439.186 346.92 439.299 347.417C439.592 348.389 439.795 349.383 439.953 350.4C440.292 352.389 440.382 354.4 440.337 356.366C440.134 364.276 438.103 371.598 436.636 378.558C433.995 392.66 429.165 404.728 426.299 415.101C423.297 425.451 422.123 434.151 422.101 440.185C422.078 443.191 422.259 445.541 422.417 447.101C422.507 447.824 422.575 448.434 422.62 448.886C422.665 449.293 422.665 449.496 422.665 449.496C422.665 449.496 421.762 446.242 421.649 440.163C421.514 434.106 422.575 425.293 425.486 414.852C428.285 404.389 433.002 392.366 435.552 378.31C436.997 371.327 439.005 364.027 439.163 356.344C439.208 354.423 439.096 352.502 438.78 350.581C438.644 349.632 438.441 348.682 438.148 347.733C438.035 347.259 437.877 346.807 437.696 346.355L437.448 345.677L437.313 345.338L437.245 345.157V345.112C437.425 345.021 436.771 345.27 437.651 344.886C437.268 344.705 438.193 345.134 438.08 345.112V345.157L437.967 345.338L437.787 345.677L437.425 346.355L436.658 347.688C436.116 348.569 435.575 349.428 434.988 350.264C433.837 351.959 432.618 353.609 431.399 355.281C429.075 358.49 426.727 361.632 425.17 364.886L423.5 368.411L424.064 364.547C426.299 349.496 431.399 335.643 438.983 324.976C442.842 319.733 446.927 315.146 450.742 310.875C454.579 306.603 458.19 302.716 461.485 299.168C468.075 292.072 473.334 286.332 476.832 282.242C478.57 280.208 479.902 278.603 480.76 277.496C481.166 276.976 481.482 276.569 481.753 276.231C481.978 275.959 482.114 275.824 482.114 275.824H482.136Z" fill="#263238"/>
<path d="M486.808 598.355C486.808 598.355 487.102 598.603 487.598 599.123C488.162 599.756 488.862 600.547 489.697 601.496C490.623 602.513 491.706 603.801 492.834 605.383C493.985 606.965 495.385 608.682 496.694 610.784C498.048 612.841 499.515 615.101 500.892 617.654C502.381 620.14 503.668 622.965 505.09 625.88C507.73 631.824 510.191 638.581 512.019 645.88C513.779 653.202 514.704 660.321 515.111 666.829C515.201 670.084 515.359 673.18 515.201 676.072C515.178 678.965 514.93 681.654 514.659 684.117C514.479 686.581 514.05 688.773 513.734 690.694C513.463 692.637 513.079 694.264 512.741 695.598C512.425 696.818 512.177 697.835 511.974 698.671C511.793 699.372 511.658 699.733 511.635 699.711C511.59 699.711 511.635 699.326 511.748 698.603C511.906 697.767 512.086 696.728 512.29 695.485C512.56 694.151 512.854 692.502 513.079 690.558C513.305 688.637 513.689 686.445 513.824 684.004C514.027 681.564 514.231 678.897 514.208 676.027C514.343 673.157 514.14 670.084 514.027 666.875C513.576 660.434 512.606 653.383 510.868 646.151C509.062 638.92 506.647 632.23 504.097 626.31C502.72 623.394 501.479 620.592 500.034 618.106C498.725 615.552 497.303 613.27 495.994 611.214C494.753 609.112 493.421 607.349 492.315 605.745C491.232 604.14 490.194 602.807 489.336 601.745C488.569 600.75 487.937 599.914 487.418 599.236C486.989 598.648 486.786 598.332 486.808 598.31V598.355Z" fill="#263238"/>
<g opacity="0.3">
<path d="M546.257 634.649C544.79 631.508 542.307 628.976 539.892 626.513C528.811 615.236 518.541 604.75 507.482 593.474L507.369 595.914C514.592 600.818 516.126 610.739 518.18 619.236C520.257 627.711 522.062 636.773 527.953 643.214C530.323 645.813 533.438 647.892 536.913 648.411C540.389 648.909 544.248 647.598 546.167 644.638C548.04 641.722 547.747 637.813 546.257 634.694V634.649Z" fill="black"/>
</g>
<g opacity="0.3">
<path d="M467.827 416.705C493.037 404.592 502.111 371.033 527.118 358.513C541.405 351.372 559.596 352.841 572.573 362.174C576.907 365.293 581.714 369.451 586.838 367.982C590.72 366.875 592.954 362.92 594.782 359.327C601.034 347.056 607.308 334.784 613.56 322.513C605.345 332.186 597.152 341.88 588.937 351.553C587.154 353.654 585.213 355.847 582.549 356.547C577.584 357.813 573.995 352.253 569.414 349.971C555.127 342.83 545.129 333.88 537.161 339.892C537.161 339.892 523.304 349.451 517.729 350.445L467.804 415.734" fill="black"/>
</g>
<g opacity="0.3">
<path d="M424.899 441.292C422.823 430.174 425.283 417.903 429.865 407.552C434.446 397.202 440.202 387.281 443.023 376.321C445.28 367.598 445.596 358.377 443.948 349.496C443.181 345.338 441.985 341.112 442.865 336.976C443.429 334.332 444.828 331.937 446.273 329.654C451.96 320.524 458.573 311.959 465.931 304.14L481.662 280.411C481.662 280.411 482.339 307.959 481.82 310.581C481.572 311.891 479.405 322.332 474.959 334.603C470.49 346.92 463.697 361.112 457.084 371.236C443.813 391.507 434.898 412.953 434.898 412.953L424.899 441.315V441.292Z" fill="black"/>
</g>
<path d="M524.793 340.005C492.812 332.434 482.971 316.524 482.61 288.344L482.136 252.524C482.136 252.524 446.724 250.671 438.486 197.881C434.379 171.621 430.813 129.18 433.092 94.0162C435.146 62.3552 468.008 6.51338 499.515 9.92581L586.025 52.0727C595.595 53.1123 602.772 61.2931 602.569 70.9428L595.843 275.62" fill="#EFBDA8"/>
<path d="M446.611 132.818C446.476 136.389 449.388 139.462 453.112 139.666C456.836 139.869 459.95 137.157 460.086 133.587C460.221 130.016 457.31 126.943 453.586 126.739C449.862 126.536 446.724 129.248 446.589 132.841L446.611 132.818Z" fill="#263238"/>
<path d="M442.413 118.242C443.136 118.897 448.462 118.174 455.526 119.914C462.591 121.609 467.421 124.796 468.278 124.524C468.685 124.411 468.008 123.394 465.909 121.971C463.832 120.57 460.198 118.784 455.797 117.722C451.396 116.66 447.537 116.615 445.257 116.954C442.932 117.293 442.052 117.948 442.413 118.242Z" fill="#263238"/>
<path d="M514.321 134.852C514.185 138.423 517.097 141.496 520.821 141.699C524.545 141.903 527.66 139.191 527.795 135.62C527.93 132.05 525.019 128.976 521.295 128.773C517.571 128.57 514.434 131.281 514.298 134.875L514.321 134.852Z" fill="#263238"/>
<path d="M514.05 123.915C515.088 124.186 519.783 120.593 527.411 118.559C535.017 116.48 541.337 117.09 541.991 116.367C542.33 116.028 541.134 115.372 538.38 115.078C535.672 114.762 531.271 114.943 526.509 116.208C521.746 117.496 518.067 119.508 516.081 121.09C514.05 122.694 513.553 123.802 514.05 123.915Z" fill="#263238"/>
<path d="M487.35 171.892C487.395 171.485 482.859 170.694 475.546 169.722C473.695 169.519 471.935 169.157 471.619 167.892C471.19 166.536 471.957 164.547 472.86 162.378C474.621 157.881 476.449 153.157 478.39 148.231C486.063 128.073 491.616 111.508 490.803 111.214C489.991 110.92 483.107 126.988 475.433 147.146C473.582 152.118 471.822 156.841 470.129 161.383C469.43 163.485 468.211 165.881 469.159 168.683C469.655 170.084 471.009 171.078 472.206 171.417C473.402 171.779 474.44 171.801 475.365 171.869C482.746 172.276 487.305 172.321 487.35 171.914V171.892Z" fill="#263238"/>
<path d="M482.136 253.044C482.136 253.044 517.593 255.417 552.78 234.355C552.78 234.355 534.882 271.575 482.136 266.513V253.044Z" fill="#D1967C"/>
<path d="M488.501 189.609C492.112 184.208 497.552 180.592 502.472 180.366C505.88 180.208 509.085 181.7 510.665 184.931C512.244 188.163 511.929 193.225 509.491 197.044C506.76 201.338 502.088 203.078 498.477 202.378C494.843 201.7 492.022 199.078 489.381 196.434C488.636 195.711 487.892 194.943 487.531 193.813C487.169 192.705 487.282 191.123 488.117 189.993" fill="#D1967C"/>
<path d="M508.746 176.976C507.572 176.909 507.527 184.818 500.756 190.4C494.008 196.005 485.589 195.101 485.522 196.208C485.409 196.705 487.395 197.745 490.939 197.858C494.414 197.993 499.515 196.886 503.668 193.451C507.798 190.016 509.581 185.428 509.852 182.197C510.168 178.897 509.288 176.931 508.746 176.976Z" fill="#263238"/>
<path d="M508.137 92.0725C509.04 93.9708 516.172 92.321 524.771 92.5018C533.37 92.5018 540.457 94.3324 541.427 92.4566C541.856 91.5527 540.479 89.8352 537.523 88.1855C534.589 86.5583 530.029 85.1798 524.884 85.112C519.738 85.0668 515.133 86.3324 512.177 87.8917C509.175 89.451 507.776 91.1685 508.159 92.0725H508.137Z" fill="#263238"/>
<path d="M440.179 102.197C441.782 103.847 447.988 102.129 455.481 102.016C462.975 101.7 469.317 103.101 470.761 101.361C471.393 100.525 470.4 98.8749 467.624 97.293C464.893 95.7337 460.334 94.4681 455.188 94.6037C450.042 94.7393 445.596 96.2534 443 97.9484C440.36 99.6433 439.502 101.361 440.202 102.174L440.179 102.197Z" fill="#263238"/>
<path d="M678.02 290.82C666.532 272.221 657.143 225.872 653.148 202.369C649.153 178.866 636.717 103.544 616.72 63.9736C596.723 24.3803 573.183 8.38043 550.094 2.14313C527.005 -4.09415 509.671 4.35783 499.244 13.7138C488.817 23.047 485.251 50.256 485.251 50.256C485.251 50.256 540.976 62.6628 559.731 94.482C581.285 131.024 586.522 149.42 586.522 149.42L593.496 169.42C593.496 169.42 586.973 208.109 584.558 227.25C582.166 246.368 585.98 264.154 601.711 271.905L633.331 294.278C633.331 294.278 674.679 322.414 676.575 323.86C685.4 330.617 702.688 356.334 702.688 356.334C702.688 356.334 701.492 328.877 678.02 290.843V290.82Z" fill="#263238"/>
<path d="M483.942 50.7393C483.942 50.7393 452.073 47.2817 440.314 83.3043C434.988 99.5981 430.925 146.672 430.925 146.672C430.925 146.672 426.253 109.293 427.991 87.9596C429.707 66.6263 440.337 39.6432 456.678 24.7054C472.567 10.1743 485.951 3.37208 514.343 5.08959C514.343 5.08959 501.117 9.65457 493.85 20.4342C490.216 25.8353 488.636 30.4455 483.942 50.7167V50.7393Z" fill="#263238"/>
<path d="M586.409 152.321C586.996 140.637 599.702 132.841 609.814 138.694C615.366 141.903 619.609 148.366 619.112 160.773C617.758 193.835 584.874 185.654 584.852 184.705C584.852 184.118 585.732 165.993 586.409 152.321Z" fill="#EFBDA8"/>
<path d="M595.437 172.592C595.595 172.502 596.001 173.022 596.949 173.496C597.874 173.971 599.499 174.333 601.237 173.768C604.781 172.638 607.94 167.214 608.347 161.248C608.55 158.242 608.053 155.35 607.083 152.931C606.18 150.468 604.69 148.705 602.93 148.321C601.192 147.847 599.906 148.841 599.477 149.768C599.003 150.672 599.183 151.35 599.003 151.395C598.912 151.485 598.326 150.807 598.642 149.451C598.8 148.796 599.228 148.027 600.018 147.44C600.831 146.83 602.027 146.536 603.223 146.739C605.774 147.011 607.963 149.451 609.024 152.118C610.22 154.785 610.874 158.039 610.649 161.429C610.152 168.073 606.496 174.174 601.666 175.372C599.319 175.892 597.4 175.101 596.43 174.287C595.437 173.429 595.301 172.683 595.414 172.615L595.437 172.592Z" fill="#D1967C"/>
<path d="M205.836 590.92C205.836 590.92 241.723 636.999 254.587 640.683C267.452 644.366 316.18 656.389 316.18 656.389L476.088 693.406L457.242 624.773L305.821 622.694L205.813 590.92H205.836Z" fill="#EFBDA8"/>
<path d="M0.224887 356.163C12.2095 385.926 72.6062 522.084 86.622 553.609C88.4727 557.767 91.9936 560.931 96.327 562.31L286.411 622.739L475.004 636.863V630.649L322.545 584.389L274.381 578.739L202.473 400.163C199.178 391.982 191.933 386.061 183.266 384.457L4.03918 351.553C1.39852 351.078 -0.745626 353.677 0.247445 356.163H0.224887Z" fill="#8E8E8E"/>
<path d="M474.982 630.603C474.982 630.603 474.779 630.603 474.372 630.603C473.898 630.558 473.334 630.535 472.612 630.468C470.987 630.309 468.73 630.106 465.886 629.857C459.95 629.27 451.532 628.411 441.172 627.372C430.7 626.287 418.309 624.976 404.519 623.552C390.706 622.174 375.539 620.637 359.627 619.033C343.693 617.451 328.504 616.253 314.668 615.462C307.739 615.033 301.172 614.603 295.01 614.219C293.453 614.106 291.94 613.948 290.428 613.654C289.684 613.496 288.939 613.292 288.216 612.931C287.449 612.615 286.862 611.891 286.501 611.259C285.034 608.637 284.425 605.97 283.387 603.552C279.708 593.79 276.706 585.88 274.607 580.298C273.614 577.609 272.846 575.485 272.282 573.948C272.057 573.27 271.853 572.728 271.695 572.276C271.56 571.891 271.515 571.711 271.537 571.688C271.537 571.688 271.65 571.869 271.808 572.23C271.989 572.66 272.215 573.202 272.485 573.857C273.095 575.372 273.952 577.473 275.036 580.117C277.225 585.677 280.34 593.541 284.177 603.259C285.215 605.654 285.914 608.411 287.269 610.784C287.63 611.372 288.013 611.824 288.623 612.095C289.21 612.389 289.909 612.569 290.609 612.728C292.031 613.021 293.52 613.157 295.055 613.247C301.194 613.541 307.785 613.97 314.713 614.377C328.571 615.1 343.806 616.276 359.74 617.857C375.652 619.485 390.819 621.044 404.632 622.468C418.399 624.004 430.813 625.383 441.262 626.535C451.622 627.733 460.018 628.705 465.954 629.383C468.798 629.745 471.032 630.016 472.657 630.219C473.357 630.309 473.943 630.4 474.395 630.468C474.779 630.535 474.982 630.581 474.982 630.581V630.603Z" fill="#263238"/>
<path d="M377.525 594.129C377.525 594.129 380.256 576.185 377.525 572.637C374.794 569.112 355.587 551.801 355.587 551.801L344.709 541.541L320.672 537.858C317.783 537.406 314.894 538.739 313.337 541.225L310.877 545.18L304.376 544.095L298.621 535.756H282.619L270.77 548.592V565.903C270.77 565.903 272.372 570.716 276.525 567.191C280.678 563.665 280.949 553.903 280.949 553.903L288.058 560.456L280.498 583.552C280.498 583.552 285.802 588.366 289.661 583.552C293.498 578.739 298.937 571.688 298.937 571.688C298.937 571.688 305.347 588.999 316.226 594.129C327.104 599.259 353.376 603.937 358.815 602.716C364.254 601.496 376.532 603.711 377.57 594.129H377.525Z" fill="#EFBDA8"/>
<path d="M339.495 554.762C339.495 554.762 339.405 555.033 339.066 555.417C338.728 555.801 338.096 556.276 337.193 556.615C336.268 556.954 335.071 557.134 333.695 557.112C332.318 557.112 330.783 556.773 329.136 556.615C327.511 556.457 325.637 556.434 324.057 557.406C322.477 558.377 321.372 560.231 319.859 561.948C316.88 565.293 312.524 568.637 307.017 568.931C302.729 569.157 298.418 567.236 296.296 563.937L296.048 563.553L296.342 563.236C301.488 557.858 305.347 552.75 307.965 549.044C310.561 545.338 311.96 543.033 312.095 543.123C312.14 543.146 311.87 543.756 311.283 544.863C310.696 545.948 309.771 547.53 308.552 549.451C306.092 553.293 302.3 558.536 297.177 564.027L297.244 563.327C299.14 566.219 303.022 567.959 306.972 567.756C311.982 567.507 316.158 564.411 319.069 561.202C320.536 559.62 321.688 557.677 323.583 556.569C325.502 555.44 327.578 555.575 329.248 555.779C330.964 556.005 332.431 556.366 333.74 556.456C335.049 556.547 336.177 556.457 337.058 556.185C338.841 555.666 339.427 554.671 339.518 554.762H339.495Z" fill="#D1967C"/>
<path d="M358.363 593.18C358.228 593.202 358.093 592.163 357.37 590.468C356.693 588.75 355.317 586.445 353.218 583.892C351.141 581.315 348.275 578.513 345.679 574.829C344.415 572.976 343.264 570.829 342.677 568.389C342.045 565.971 342.136 563.281 342.813 560.75C343.49 558.197 344.709 555.869 346.266 553.948C347.056 552.976 347.959 552.05 349.155 551.53C350.351 550.965 351.818 551.055 352.902 551.643C355.159 552.795 356.084 555.078 356.738 556.886C357.37 558.762 358.025 560.411 358.883 561.812C360.553 564.637 362.539 566.49 363.983 567.643C365.428 568.795 366.353 569.27 366.308 569.36C366.285 569.406 365.292 569.067 363.712 568.004C362.155 566.965 360.011 565.134 358.183 562.242C357.258 560.818 356.49 559.055 355.836 557.225C355.181 555.417 354.256 553.496 352.45 552.615C351.57 552.163 350.554 552.117 349.651 552.569C348.726 552.999 347.914 553.79 347.214 554.694C345.769 556.524 344.641 558.716 344.009 561.089C343.377 563.462 343.309 565.925 343.874 568.163C344.393 570.423 345.454 572.456 346.65 574.264C349.11 577.858 351.908 580.728 353.94 583.417C356.016 586.084 357.325 588.547 357.889 590.355C358.205 591.259 358.318 591.982 358.386 592.479C358.454 592.976 358.476 593.225 358.431 593.225L358.363 593.18Z" fill="#D1967C"/>
<path d="M297.29 548.818C297.29 548.976 295.552 548.524 293.814 550.242C292.076 551.914 290.789 555.146 289.503 558.762C288.216 562.377 287.088 565.677 286.14 568.027C285.215 570.377 284.47 571.778 284.312 571.711C284.154 571.643 284.628 570.174 285.35 567.756C286.072 565.338 287.088 562.016 288.397 558.377C289.684 554.784 291.128 551.372 293.25 549.654C294.288 548.773 295.416 548.479 296.184 548.502C296.951 548.524 297.312 548.773 297.29 548.841V548.818Z" fill="#D1967C"/>
<path d="M299.005 548.524C299.005 548.66 298.012 548.863 296.364 548.66C294.739 548.457 292.414 547.711 290.338 545.971H291.083C290.609 546.377 290.112 546.807 289.616 547.236C285.012 551.168 281.107 554.151 280.904 553.903C280.701 553.654 284.244 550.264 288.848 546.355C289.345 545.925 289.841 545.519 290.338 545.089L290.722 544.773L291.083 545.089C292.934 546.694 295.01 547.507 296.5 547.914C298.012 548.321 298.982 548.366 298.982 548.524H299.005Z" fill="#D1967C"/>
<path d="M324.441 589.858C324.306 589.79 324.87 588.185 326.156 585.767C327.443 583.349 329.497 580.14 332.25 576.999C335.026 573.858 337.915 571.394 340.15 569.812C342.384 568.231 343.896 567.462 343.986 567.598C344.19 567.892 338.525 571.575 333.13 577.79C327.691 583.937 324.78 590.038 324.441 589.88V589.858Z" fill="#D1967C"/>
<path d="M188.931 387.327C188.931 387.327 189.044 387.508 189.224 387.914C189.427 388.366 189.676 388.954 189.969 389.677C190.646 391.304 191.572 393.587 192.768 396.479C195.183 402.491 198.613 411.033 202.834 421.564C211.275 442.852 222.853 472.14 235.674 504.479C248.358 536.886 259.846 566.219 268.197 587.53C272.282 598.106 275.6 606.717 277.925 612.751C279.031 615.666 279.888 617.971 280.52 619.621C280.791 620.366 280.994 620.954 281.175 621.428C281.31 621.835 281.378 622.039 281.355 622.061C281.355 622.061 281.242 621.88 281.062 621.474C280.859 621.022 280.61 620.434 280.317 619.711C279.64 618.084 278.715 615.801 277.518 612.909C275.103 606.897 271.673 598.355 267.452 587.824C259.011 566.536 247.433 537.248 234.613 504.886C221.928 472.502 210.44 443.169 202.112 421.835C198.027 411.259 194.709 402.649 192.384 396.615C191.278 393.7 190.421 391.395 189.789 389.745C189.518 388.999 189.315 388.412 189.134 387.937C188.999 387.53 188.931 387.327 188.954 387.304L188.931 387.327Z" fill="#263238"/>
</g>
<defs>
<clipPath id="clip0_2_28358">
<rect width="717.72" height="800" fill="white"/>
</clipPath>
</defs>
</svg>
