<svg width="21" height="18" viewBox="0 0 21 18" fill="none" xmlns="http://www.w3.org/2000/svg">
<path fill-rule="evenodd" clip-rule="evenodd" d="M13.2933 0.398372C14.0038 0.115725 14.7645 -0.019086 15.5289 0.00217478C16.2932 0.0234355 17.0453 0.200322 17.739 0.522026C18.4324 0.843604 19.053 1.30314 19.5629 1.87256C21.6267 4.16764 21.2683 7.68497 19.1614 9.80247L19.16 9.8038L11.5663 17.3976L11.036 16.8672L11.5637 17.4001C11.2811 17.68 10.8994 17.8371 10.5016 17.8371C10.1038 17.8371 9.72208 17.68 9.43944 17.4001L9.43689 17.3976L1.64626 9.60693C1.10576 9.06602 0.681018 8.4204 0.398372 7.70989C0.115725 6.99937 -0.019086 6.23869 0.00217478 5.47431C0.0234355 4.70994 0.200322 3.95792 0.522026 3.26422C0.843604 2.57078 1.30314 1.95017 1.87256 1.44026C4.16764 -0.623525 7.68497 -0.265101 9.80247 1.84181L9.80582 1.84515L10.5019 2.54653L11.3945 1.64801L11.3965 1.64607C11.9374 1.10556 12.5828 0.681018 13.2933 0.398372ZM10.5082 16.3343C10.5081 16.3344 10.5083 16.3343 10.5082 16.3343L18.0981 8.74447C18.0982 8.74429 18.0984 8.7441 18.0986 8.74392C19.7222 7.11158 19.9075 4.49855 18.4471 2.87505L18.4459 2.8737C18.0719 2.4559 17.6166 2.11874 17.1079 1.88282C16.5992 1.6469 16.0477 1.51719 15.4872 1.5016C14.9266 1.486 14.3688 1.58487 13.8477 1.79214C13.3271 1.99926 12.8541 2.31028 12.4576 2.70623C12.4573 2.70652 12.457 2.70682 12.4567 2.70712L11.0337 4.13956C10.8928 4.28132 10.7012 4.36102 10.5014 4.36097C10.3016 4.36092 10.11 4.28112 9.96925 4.13928L8.74289 2.90356C7.11049 1.28087 4.49821 1.096 2.87505 2.55607L2.87371 2.55728C2.4559 2.93129 2.11874 3.38657 1.88282 3.89528C1.6469 4.404 1.51719 4.95548 1.50159 5.51602C1.486 6.07656 1.58487 6.6344 1.79214 7.15544C1.99941 7.67649 2.31075 8.1498 2.70712 8.54646L10.495 16.3343C10.4949 16.3343 10.4951 16.3344 10.495 16.3343C10.4967 16.3359 10.4992 16.3371 10.5016 16.3371C10.5039 16.3371 10.5065 16.3359 10.5082 16.3343Z" fill="#6C5CE7"/>
</svg>
