<svg width="256" height="175" viewBox="0 0 256 175" fill="none" xmlns="http://www.w3.org/2000/svg">
<path d="M18.1514 95.8022L0.00390625 148.071L77.5492 174.995L95.6966 122.726L18.1514 95.8022Z" fill="#EBEBEB"/>
<path d="M95.6917 122.732C95.7008 122.756 95.3689 122.908 94.7283 123.177C94.0182 123.465 93.0819 123.845 91.9125 124.319C89.3793 125.31 85.8414 126.694 81.4982 128.394C72.6074 131.796 60.437 136.452 46.9571 141.611L46.6726 141.719L46.5094 141.461C46.385 141.264 46.2501 141.051 46.1151 140.836C38.3589 128.463 31.34 117.265 26.2076 109.077C23.7228 105.046 21.6973 101.76 20.2474 99.4074C19.5871 98.3065 19.0588 97.4257 18.6589 96.7584C18.3029 96.1485 18.1261 95.8212 18.1478 95.8076C18.1694 95.794 18.3885 96.0941 18.7859 96.6783C19.2159 97.327 19.7835 98.1826 20.4926 99.2528C21.9914 101.574 24.0849 104.818 26.6533 108.796C31.833 116.953 38.9169 128.111 46.7451 140.439C46.8801 140.653 47.0146 140.867 47.139 141.064L46.6922 140.914C60.2028 135.837 72.4004 131.254 81.3114 127.905C85.6893 126.298 89.256 124.988 91.8093 124.05C92.9993 123.63 93.9517 123.293 94.6744 123.038C95.3331 122.814 95.6826 122.708 95.6917 122.732Z" fill="#E0E0E0"/>
<path d="M0.000987864 148.074C-0.104268 147.897 8.21498 142.758 18.5794 136.596C28.9479 130.431 37.4354 125.579 37.5406 125.757C37.6459 125.933 29.3286 131.072 18.9607 137.236C8.59572 143.398 0.106244 148.251 0.000987864 148.074Z" fill="#E0E0E0"/>
<path d="M63.5437 134.053C63.7386 133.987 67.0307 143.1 70.8965 154.405C74.7638 165.714 77.7396 174.933 77.5447 175C77.3498 175.066 74.0582 165.955 70.1914 154.646C66.3257 143.341 63.3493 134.12 63.5437 134.053Z" fill="#E0E0E0"/>
<path d="M246.963 82.2163L170.238 95.2207L179.003 146.936L255.728 133.932L246.963 82.2163Z" fill="#E0E0E0"/>
<path d="M246.973 82.2351C246.992 82.2507 246.785 82.5292 246.375 83.0444C245.916 83.6079 245.312 84.3503 244.556 85.2779C242.903 87.2576 240.594 90.022 237.76 93.4164C231.923 100.3 223.934 109.722 215.084 120.158L214.897 120.379L214.643 120.238C214.45 120.131 214.24 120.015 214.031 119.899C201.94 113.154 190.998 107.05 182.997 102.587C179.093 100.37 175.911 98.5633 173.632 97.2696C172.581 96.6556 171.74 96.1646 171.103 95.793C170.529 95.4485 170.233 95.2571 170.244 95.2359C170.256 95.2148 170.575 95.3644 171.172 95.6686C171.825 96.0115 172.688 96.4638 173.765 97.0293C176.07 98.2753 179.289 100.015 183.239 102.15C191.265 106.566 202.243 112.607 214.373 119.281C214.583 119.397 214.792 119.513 214.986 119.621L214.546 119.7C223.458 109.317 231.504 99.9428 237.383 93.0946C240.288 89.7611 242.654 87.0456 244.349 85.1017C245.146 84.2092 245.784 83.4951 246.268 82.9532C246.712 82.4672 246.954 82.2195 246.973 82.2351Z" fill="#EBEBEB"/>
<path d="M179.009 146.954C178.841 146.855 183.41 138.788 189.212 128.939C195.016 119.085 199.857 111.181 200.025 111.28C200.193 111.378 195.625 119.444 189.821 129.297C184.018 139.147 179.177 147.053 179.009 146.954Z" fill="#EBEBEB"/>
<path d="M225.42 106.311C225.551 106.167 232.445 112.239 240.815 119.87C249.189 127.505 255.868 133.809 255.737 133.953C255.605 134.097 248.713 128.027 240.34 120.393C231.969 112.76 225.288 106.455 225.42 106.311Z" fill="#EBEBEB"/>
<path d="M170.251 0L156.432 35.1467L208.577 55.6492L222.396 20.5025L170.251 0Z" fill="#EBEBEB"/>
<path d="M222.411 20.9831C222.417 20.9997 222.186 21.0944 221.742 21.2601C221.25 21.4368 220.601 21.67 219.79 21.9611C218.035 22.5674 215.583 23.414 212.574 24.4535C206.416 26.5284 197.987 29.3688 188.65 32.5144L188.453 32.5809L188.349 32.4001C188.269 32.2621 188.184 32.113 188.098 31.9634C183.149 23.3093 178.67 15.478 175.396 9.7519C173.813 6.93366 172.522 4.63665 171.598 2.99183C171.178 2.22281 170.842 1.60739 170.588 1.14104C170.362 0.714978 170.25 0.487344 170.266 0.478278C170.281 0.469717 170.422 0.680228 170.676 1.08967C170.952 1.54393 171.315 2.14324 171.77 2.89262C172.728 4.51779 174.066 6.78711 175.709 9.57211C179.016 15.2786 183.54 23.0842 188.539 31.7091C188.625 31.8587 188.712 32.0083 188.791 32.1457L188.49 32.0314C197.845 28.9417 206.291 26.1522 212.462 24.1141C215.492 23.1385 217.961 22.3438 219.728 21.7748C220.552 21.5209 221.21 21.3175 221.711 21.1634C222.164 21.0294 222.406 20.967 222.411 20.9831Z" fill="#E0E0E0"/>
<path d="M156.444 35.6265C156.377 35.5031 162.193 32.2266 169.433 28.31C176.675 24.3918 182.598 21.3167 182.665 21.4406C182.732 21.564 176.917 24.8395 169.675 28.7577C162.435 32.6743 156.511 35.7499 156.444 35.6265Z" fill="#E0E0E0"/>
<path d="M200.171 27.8171C200.306 27.7773 202.3 34.0836 204.625 41.9012C206.95 49.7214 208.726 56.0918 208.591 56.1316C208.456 56.1713 206.462 49.8665 204.137 42.0458C201.813 34.2286 200.037 27.8574 200.171 27.8171Z" fill="#E0E0E0"/>
<path d="M68.7638 84.5941L187.552 83.7314L190.863 164.493L67.8623 163.352L68.7638 84.5941Z" fill="#A29BFE"/>
<path d="M68.7637 84.5938L124.983 39.1034C127.364 37.1771 130.77 37.1882 133.138 39.1291L187.552 83.7311" fill="#A29BFE"/>
<g opacity="0.3">
<path d="M68.7651 84.5938L124.984 39.1034C127.365 37.1771 130.771 37.1882 133.14 39.1291L187.554 83.7311" fill="black"/>
</g>
<path d="M67.8621 163.352C67.714 163.213 77.2238 152.83 89.1001 140.163C100.981 127.493 110.728 117.337 110.877 117.476C111.025 117.615 101.517 127.996 89.637 140.667C77.7601 153.333 68.0101 163.491 67.8621 163.352Z" fill="#263238"/>
<path d="M190.864 164.492C190.712 164.627 181.451 154.454 170.181 141.773C158.907 129.086 149.894 118.697 150.046 118.562C150.198 118.427 159.457 128.598 170.731 141.284C182.001 153.965 191.016 164.357 190.864 164.492Z" fill="#263238"/>
<g opacity="0.5">
<path d="M187.553 83.7319L127.904 131.383L68.7651 84.5946" fill="black"/>
</g>
<path d="M74.7464 89.0056L74.561 51.9051L178.576 50.6753L179.748 89.7112L127.898 130.758L74.7464 89.0056Z" fill="#FAFAFA"/>
<path d="M74.745 89.0067C74.745 89.0067 75.0815 89.2585 75.7206 89.754C76.3612 90.2531 77.307 90.9899 78.5423 91.9523C81.0136 93.8852 84.6401 96.7216 89.2759 100.348C98.5379 107.608 111.83 118.028 127.962 130.674L127.829 130.675C142.766 118.842 160.489 104.803 179.666 89.611L179.617 89.7168C179.393 82.2693 179.157 74.4572 178.918 66.5066C178.758 61.1551 178.599 55.8661 178.444 50.6809L178.576 50.8073C136.659 51.2842 99.6822 51.7048 74.5607 51.9908L74.6438 51.9062C74.6846 63.5795 74.7168 72.8481 74.739 79.2033C74.7456 82.3801 74.7506 84.8282 74.7536 86.4861C74.7531 87.312 74.7526 87.94 74.7521 88.3661C74.7511 88.7886 74.745 89.0067 74.745 89.0067C74.745 89.0067 74.737 88.7957 74.7309 88.3761C74.7264 87.9521 74.7199 87.3266 74.7108 86.5052C74.6977 84.8498 74.6781 82.4053 74.6529 79.2335C74.6116 72.8718 74.5512 63.5931 74.4751 51.9072L74.4746 51.8236L74.5582 51.8226C99.6796 51.5144 136.656 51.0606 178.572 50.5464L178.7 50.5449L178.704 50.6733C178.86 55.8581 179.019 61.1471 179.18 66.499C179.418 74.4496 179.653 82.2617 179.876 89.7092L179.878 89.7747L179.826 89.815C160.639 104.994 142.907 119.022 127.962 130.844L127.896 130.897L127.829 130.845C111.709 118.156 98.4271 107.701 89.1722 100.416C84.5565 96.774 80.9456 93.925 78.4849 91.9836C77.2616 91.0146 76.3249 90.2728 75.6908 89.7702C75.0618 89.2681 74.745 89.0067 74.745 89.0067Z" fill="#263238"/>
<path d="M162.137 69.3561C162.138 69.4286 146.231 69.5837 126.612 69.7031C106.987 69.8224 91.0825 69.8602 91.082 69.7877C91.0815 69.7152 106.985 69.56 126.611 69.4407C146.229 69.3218 162.137 69.2836 162.137 69.3561Z" fill="#263238"/>
<path d="M162.137 79.8357C162.138 79.9082 146.231 80.0633 126.612 80.1827C106.987 80.302 91.0825 80.3398 91.082 80.2673C91.0815 80.1948 106.985 80.0396 126.611 79.9203C146.229 79.8009 162.137 79.7632 162.137 79.8357Z" fill="#263238"/>
<path d="M162.137 91.9148C162.138 91.9873 146.231 92.1424 126.612 92.2618C106.987 92.3806 91.0825 92.4189 91.082 92.3464C91.0815 92.2739 106.985 92.1187 126.611 91.9994C146.229 91.88 162.137 91.8423 162.137 91.9148Z" fill="#263238"/>
<path d="M162.137 103.993C162.138 104.065 146.962 104.216 128.245 104.33C109.522 104.443 94.3482 104.477 94.3477 104.404C94.3472 104.332 109.52 104.181 128.243 104.067C146.96 103.954 162.137 103.921 162.137 103.993Z" fill="#263238"/>
<path d="M148.832 114.594C148.832 114.603 148.688 114.613 148.415 114.624C148.118 114.632 147.72 114.643 147.221 114.656C146.157 114.673 144.662 114.698 142.826 114.728C139.093 114.782 133.979 114.855 128.329 114.936C122.665 115.031 117.537 115.063 113.826 115.067C111.99 115.063 110.495 115.059 109.431 115.057C108.931 115.05 108.533 115.044 108.236 115.04C107.963 115.033 107.819 115.025 107.819 115.016C107.819 115.007 107.963 114.998 108.236 114.987C108.533 114.979 108.931 114.968 109.43 114.955C110.495 114.937 111.989 114.913 113.824 114.882C117.558 114.829 122.673 114.755 128.325 114.674C133.986 114.58 139.114 114.548 142.825 114.543C144.661 114.548 146.156 114.552 147.22 114.554C147.72 114.561 148.118 114.567 148.415 114.571C148.688 114.577 148.832 114.585 148.832 114.594Z" fill="#263238"/>
<path d="M135.444 124.785C135.444 124.858 132.052 124.916 127.869 124.916C123.685 124.916 120.294 124.857 120.294 124.785C120.294 124.713 123.685 124.654 127.869 124.654C132.052 124.654 135.444 124.713 135.444 124.785Z" fill="#263238"/>
</svg>
