<svg width="115" height="86" viewBox="0 0 115 86" fill="none" xmlns="http://www.w3.org/2000/svg">
<path fill-rule="evenodd" clip-rule="evenodd" d="M57.7577 16.0254C56.7104 16.0254 55.6734 16.2317 54.7058 16.6325C53.7382 17.0332 52.8591 17.6207 52.1185 18.3612C51.378 19.1018 50.7906 19.9809 50.3898 20.9485C49.989 21.9161 49.7827 22.9531 49.7827 24.0004C49.7827 28.6161 48.8149 31.3958 47.8862 33.0004H67.6292C66.7005 31.3958 65.7327 28.616 65.7327 24.0004C65.7327 22.9531 65.5264 21.9161 65.1256 20.9485C64.7249 19.9809 64.1374 19.1018 63.3969 18.3612C62.6563 17.6207 61.7772 17.0332 60.8096 16.6325C59.842 16.2317 58.805 16.0254 57.7577 16.0254ZM53.9404 14.7847C55.1507 14.2834 56.4478 14.0254 57.7577 14.0254C59.0676 14.0254 60.3648 14.2834 61.575 14.7847C62.7852 15.286 63.8848 16.0207 64.8111 16.947C65.7374 17.8733 66.4721 18.9729 66.9734 20.1831C67.4747 21.3933 67.7327 22.6905 67.7327 24.0004C67.7327 28.3337 68.6395 30.7538 69.3606 31.9994L69.3612 32.0004C69.5365 32.3039 69.6289 32.6481 69.6292 32.9986C69.6295 33.3491 69.5377 33.6935 69.363 33.9973C69.1883 34.3012 68.9368 34.5538 68.6338 34.7298C68.3307 34.9058 67.9867 34.9992 67.6362 35.0004L67.6327 35.0004H47.8827L47.8792 35.0004C47.5287 34.9992 47.1847 34.9058 46.8817 34.7298C46.5786 34.5538 46.3271 34.3012 46.1524 33.9973C45.9777 33.6935 45.8859 33.3491 45.8862 32.9986C45.8865 32.6481 45.9789 32.3039 46.1542 32.0004L46.1548 31.9994C46.8759 30.7538 47.7827 28.3337 47.7827 24.0004C47.7827 22.6905 48.0407 21.3933 48.542 20.1831C49.0433 18.9729 49.7781 17.8733 50.7043 16.947C51.6306 16.0207 52.7302 15.286 53.9404 14.7847Z" fill="white"/>
<path fill-rule="evenodd" clip-rule="evenodd" d="M53.7578 33C54.3101 33 54.7578 33.4477 54.7578 34V35C54.7578 35.7956 55.0739 36.5587 55.6365 37.1213C56.1991 37.6839 56.9622 38 57.7578 38C58.5535 38 59.3165 37.6839 59.8791 37.1213C60.4417 36.5587 60.7578 35.7956 60.7578 35V34C60.7578 33.4477 61.2055 33 61.7578 33C62.3101 33 62.7578 33.4477 62.7578 34V35C62.7578 36.3261 62.231 37.5979 61.2933 38.5355C60.3557 39.4732 59.0839 40 57.7578 40C56.4317 40 55.16 39.4732 54.2223 38.5355C53.2846 37.5979 52.7578 36.3261 52.7578 35V34C52.7578 33.4477 53.2055 33 53.7578 33Z" fill="white"/>
<path fill-rule="evenodd" clip-rule="evenodd" d="M63.8371 12.4663C64.1319 11.9993 64.7495 11.8597 65.2165 12.1545C67.4077 13.5377 69.1762 15.497 70.3284 17.818C70.574 18.3126 70.3721 18.9127 69.8774 19.1583C69.3827 19.4039 68.7826 19.202 68.537 18.7073C67.548 16.715 66.0299 15.0331 64.149 13.8457C63.6819 13.5509 63.5423 12.9334 63.8371 12.4663Z" fill="white"/>
<path fill-rule="evenodd" clip-rule="evenodd" d="M51.6784 12.4663C51.9732 12.9334 51.8336 13.5509 51.3665 13.8457C49.4856 15.0331 47.9675 16.715 46.9784 18.7073C46.7329 19.202 46.1328 19.4039 45.6381 19.1583C45.1434 18.9127 44.9415 18.3126 45.187 17.818C46.3393 15.497 48.1078 13.5377 50.2989 12.1545C50.766 11.8597 51.3835 11.9993 51.6784 12.4663Z" fill="white"/>
<path d="M12.5178 69C12.4005 69 12.3098 68.968 12.2458 68.904C12.1818 68.8293 12.1498 68.7387 12.1498 68.632V58.184C12.1498 58.0667 12.1818 57.976 12.2458 57.912C12.3098 57.8373 12.4005 57.8 12.5178 57.8H13.2538C13.3818 57.8 13.4778 57.832 13.5418 57.896C13.6058 57.9493 13.6431 57.992 13.6538 58.024L18.9658 66.184V58.184C18.9658 58.0667 18.9978 57.976 19.0618 57.912C19.1258 57.8373 19.2165 57.8 19.3338 57.8H20.1018C20.2191 57.8 20.3098 57.8373 20.3738 57.912C20.4485 57.976 20.4858 58.0667 20.4858 58.184V68.616C20.4858 68.7227 20.4485 68.8133 20.3738 68.888C20.3098 68.9627 20.2245 69 20.1178 69H19.3498C19.2325 69 19.1418 68.968 19.0778 68.904C19.0245 68.84 18.9871 68.7973 18.9658 68.776L13.6698 60.696V68.632C13.6698 68.7387 13.6325 68.8293 13.5578 68.904C13.4938 68.968 13.4031 69 13.2858 69H12.5178ZM26.4592 69.16C25.6485 69.16 24.9712 69.0053 24.4272 68.696C23.8832 68.3867 23.4672 67.96 23.1792 67.416C22.8912 66.8613 22.7312 66.232 22.6992 65.528C22.6885 65.3467 22.6832 65.1173 22.6832 64.84C22.6832 64.552 22.6885 64.3227 22.6992 64.152C22.7312 63.4373 22.8912 62.808 23.1792 62.264C23.4779 61.72 23.8992 61.2933 24.4432 60.984C24.9872 60.6747 25.6592 60.52 26.4592 60.52C27.2592 60.52 27.9312 60.6747 28.4752 60.984C29.0192 61.2933 29.4352 61.72 29.7232 62.264C30.0219 62.808 30.1872 63.4373 30.2192 64.152C30.2299 64.3227 30.2352 64.552 30.2352 64.84C30.2352 65.1173 30.2299 65.3467 30.2192 65.528C30.1872 66.232 30.0272 66.8613 29.7392 67.416C29.4512 67.96 29.0352 68.3867 28.4912 68.696C27.9472 69.0053 27.2699 69.16 26.4592 69.16ZM26.4592 67.928C27.1205 67.928 27.6485 67.72 28.0432 67.304C28.4379 66.8773 28.6512 66.2587 28.6832 65.448C28.6939 65.288 28.6992 65.0853 28.6992 64.84C28.6992 64.5947 28.6939 64.392 28.6832 64.232C28.6512 63.4213 28.4379 62.808 28.0432 62.392C27.6485 61.9653 27.1205 61.752 26.4592 61.752C25.7979 61.752 25.2645 61.9653 24.8592 62.392C24.4645 62.808 24.2565 63.4213 24.2352 64.232C24.2245 64.392 24.2192 64.5947 24.2192 64.84C24.2192 65.0853 24.2245 65.288 24.2352 65.448C24.2565 66.2587 24.4645 66.8773 24.8592 67.304C25.2645 67.72 25.7979 67.928 26.4592 67.928ZM35.4086 69C34.8112 69 34.3259 68.888 33.9526 68.664C33.5792 68.4293 33.3072 68.104 33.1366 67.688C32.9659 67.2613 32.8806 66.76 32.8806 66.184V61.96H31.6326C31.5259 61.96 31.4352 61.928 31.3606 61.864C31.2966 61.7893 31.2646 61.6987 31.2646 61.592V61.048C31.2646 60.9413 31.2966 60.856 31.3606 60.792C31.4352 60.7173 31.5259 60.68 31.6326 60.68H32.8806V58.008C32.8806 57.9013 32.9126 57.816 32.9766 57.752C33.0512 57.6773 33.1419 57.64 33.2486 57.64H34.0006C34.1072 57.64 34.1926 57.6773 34.2566 57.752C34.3312 57.816 34.3686 57.9013 34.3686 58.008V60.68H36.3526C36.4592 60.68 36.5446 60.7173 36.6086 60.792C36.6832 60.856 36.7206 60.9413 36.7206 61.048V61.592C36.7206 61.6987 36.6832 61.7893 36.6086 61.864C36.5446 61.928 36.4592 61.96 36.3526 61.96H34.3686V66.072C34.3686 66.5733 34.4539 66.968 34.6246 67.256C34.7952 67.544 35.0992 67.688 35.5366 67.688H36.5126C36.6192 67.688 36.7046 67.7253 36.7686 67.8C36.8432 67.864 36.8806 67.9493 36.8806 68.056V68.632C36.8806 68.7387 36.8432 68.8293 36.7686 68.904C36.7046 68.968 36.6192 69 36.5126 69H35.4086ZM38.7786 69C38.6719 69 38.5812 68.968 38.5066 68.904C38.4426 68.8293 38.4106 68.7387 38.4106 68.632V61.048C38.4106 60.9413 38.4426 60.856 38.5066 60.792C38.5812 60.7173 38.6719 60.68 38.7786 60.68H39.5466C39.6532 60.68 39.7386 60.7173 39.8026 60.792C39.8666 60.856 39.8986 60.9413 39.8986 61.048V68.632C39.8986 68.7387 39.8666 68.8293 39.8026 68.904C39.7386 68.968 39.6532 69 39.5466 69H38.7786ZM38.6506 59.128C38.5439 59.128 38.4532 59.096 38.3786 59.032C38.3146 58.9573 38.2826 58.8667 38.2826 58.76V57.896C38.2826 57.7893 38.3146 57.704 38.3786 57.64C38.4532 57.5653 38.5439 57.528 38.6506 57.528H39.6586C39.7652 57.528 39.8506 57.5653 39.9146 57.64C39.9892 57.704 40.0266 57.7893 40.0266 57.896V58.76C40.0266 58.8667 39.9892 58.9573 39.9146 59.032C39.8506 59.096 39.7652 59.128 39.6586 59.128H38.6506ZM43.4856 69C43.3789 69 43.2882 68.968 43.2136 68.904C43.1496 68.8293 43.1176 68.7387 43.1176 68.632V61.96H41.7576C41.6509 61.96 41.5602 61.928 41.4856 61.864C41.4216 61.7893 41.3896 61.6987 41.3896 61.592V61.048C41.3896 60.9413 41.4216 60.856 41.4856 60.792C41.5602 60.7173 41.6509 60.68 41.7576 60.68H43.1176V59.88C43.1176 59.336 43.2082 58.8613 43.3896 58.456C43.5709 58.04 43.8589 57.72 44.2536 57.496C44.6589 57.272 45.1976 57.16 45.8696 57.16H48.3336C48.4402 57.16 48.5256 57.1973 48.5896 57.272C48.6642 57.336 48.7016 57.4213 48.7016 57.528V58.072C48.7016 58.1787 48.6642 58.2693 48.5896 58.344C48.5256 58.408 48.4402 58.44 48.3336 58.44H45.9016C45.4002 58.44 45.0589 58.5733 44.8776 58.84C44.6962 59.096 44.6056 59.4693 44.6056 59.96V60.68H48.3336C48.4402 60.68 48.5256 60.7173 48.5896 60.792C48.6642 60.856 48.7016 60.9413 48.7016 61.048V68.632C48.7016 68.7387 48.6642 68.8293 48.5896 68.904C48.5256 68.968 48.4402 69 48.3336 69H47.5976C47.4802 69 47.3896 68.968 47.3256 68.904C47.2616 68.8293 47.2296 68.7387 47.2296 68.632V61.96H44.6056V68.632C44.6056 68.7387 44.5682 68.8293 44.4936 68.904C44.4296 68.968 44.3442 69 44.2376 69H43.4856ZM54.4268 69.16C53.6695 69.16 53.0135 69.016 52.4588 68.728C51.9148 68.4293 51.4935 68.008 51.1948 67.464C50.8961 66.9093 50.7361 66.248 50.7148 65.48C50.7041 65.32 50.6988 65.1067 50.6988 64.84C50.6988 64.5733 50.7041 64.36 50.7148 64.2C50.7361 63.432 50.8961 62.776 51.1948 62.232C51.4935 61.6773 51.9148 61.256 52.4588 60.968C53.0135 60.6693 53.6695 60.52 54.4268 60.52C55.0455 60.52 55.5735 60.6053 56.0108 60.776C56.4588 60.9467 56.8268 61.1653 57.1148 61.432C57.4028 61.6987 57.6161 61.9867 57.7548 62.296C57.9041 62.6053 57.9841 62.8987 57.9948 63.176C58.0055 63.2827 57.9735 63.368 57.8988 63.432C57.8241 63.496 57.7335 63.528 57.6268 63.528H56.8588C56.7521 63.528 56.6721 63.5067 56.6188 63.464C56.5655 63.4107 56.5121 63.3253 56.4588 63.208C56.2668 62.6853 56.0055 62.3173 55.6748 62.104C55.3441 61.8907 54.9335 61.784 54.4428 61.784C53.8028 61.784 53.2801 61.9813 52.8748 62.376C52.4801 62.7707 52.2668 63.4053 52.2348 64.28C52.2241 64.664 52.2241 65.0373 52.2348 65.4C52.2668 66.2853 52.4801 66.9253 52.8748 67.32C53.2801 67.704 53.8028 67.896 54.4428 67.896C54.9335 67.896 55.3441 67.7893 55.6748 67.576C56.0055 67.3627 56.2668 66.9947 56.4588 66.472C56.5121 66.3547 56.5655 66.2747 56.6188 66.232C56.6721 66.1787 56.7521 66.152 56.8588 66.152H57.6268C57.7335 66.152 57.8241 66.184 57.8988 66.248C57.9735 66.312 58.0055 66.3973 57.9948 66.504C57.9841 66.728 57.9361 66.9573 57.8508 67.192C57.7655 67.4267 57.6268 67.6667 57.4348 67.912C57.2535 68.1467 57.0241 68.36 56.7468 68.552C56.4695 68.7333 56.1335 68.8827 55.7388 69C55.3548 69.1067 54.9175 69.16 54.4268 69.16ZM62.2149 69.16C61.6816 69.16 61.1963 69.0533 60.7589 68.84C60.3216 68.6267 59.9696 68.3387 59.7029 67.976C59.4363 67.6133 59.3029 67.2027 59.3029 66.744C59.3029 66.008 59.6016 65.4213 60.1989 64.984C60.7963 64.5467 61.5749 64.2587 62.5349 64.12L64.9189 63.784V63.32C64.9189 62.808 64.7696 62.408 64.4709 62.12C64.1829 61.832 63.7083 61.688 63.0469 61.688C62.5669 61.688 62.1776 61.784 61.8789 61.976C61.5909 62.168 61.3883 62.4133 61.2709 62.712C61.2069 62.872 61.0949 62.952 60.9349 62.952H60.2149C60.0976 62.952 60.0069 62.92 59.9429 62.856C59.8896 62.7813 59.8629 62.696 59.8629 62.6C59.8629 62.44 59.9216 62.2427 60.0389 62.008C60.1669 61.7733 60.3589 61.544 60.6149 61.32C60.8709 61.096 61.1963 60.9093 61.5909 60.76C61.9963 60.6 62.4869 60.52 63.0629 60.52C63.7029 60.52 64.2416 60.6053 64.6789 60.776C65.1163 60.936 65.4576 61.1547 65.7029 61.432C65.9589 61.7093 66.1403 62.024 66.2469 62.376C66.3643 62.728 66.4229 63.0853 66.4229 63.448V68.632C66.4229 68.7387 66.3856 68.8293 66.3109 68.904C66.2469 68.968 66.1616 69 66.0549 69H65.3189C65.2016 69 65.1109 68.968 65.0469 68.904C64.9829 68.8293 64.9509 68.7387 64.9509 68.632V67.944C64.8123 68.136 64.6256 68.328 64.3909 68.52C64.1563 68.7013 63.8629 68.856 63.5109 68.984C63.1589 69.1013 62.7269 69.16 62.2149 69.16ZM62.5509 67.96C62.9883 67.96 63.3883 67.8693 63.7509 67.688C64.1136 67.496 64.3963 67.2027 64.5989 66.808C64.8123 66.4133 64.9189 65.9173 64.9189 65.32V64.872L63.0629 65.144C62.3056 65.2507 61.7349 65.432 61.3509 65.688C60.9669 65.9333 60.7749 66.248 60.7749 66.632C60.7749 66.9307 60.8603 67.1813 61.0309 67.384C61.2123 67.576 61.4363 67.72 61.7029 67.816C61.9803 67.912 62.2629 67.96 62.5509 67.96ZM71.8929 69C71.2956 69 70.8103 68.888 70.4369 68.664C70.0636 68.4293 69.7916 68.104 69.6209 67.688C69.4503 67.2613 69.3649 66.76 69.3649 66.184V61.96H68.1169C68.0103 61.96 67.9196 61.928 67.8449 61.864C67.7809 61.7893 67.7489 61.6987 67.7489 61.592V61.048C67.7489 60.9413 67.7809 60.856 67.8449 60.792C67.9196 60.7173 68.0103 60.68 68.1169 60.68H69.3649V58.008C69.3649 57.9013 69.3969 57.816 69.4609 57.752C69.5356 57.6773 69.6263 57.64 69.7329 57.64H70.4849C70.5916 57.64 70.6769 57.6773 70.7409 57.752C70.8156 57.816 70.8529 57.9013 70.8529 58.008V60.68H72.8369C72.9436 60.68 73.0289 60.7173 73.0929 60.792C73.1676 60.856 73.2049 60.9413 73.2049 61.048V61.592C73.2049 61.6987 73.1676 61.7893 73.0929 61.864C73.0289 61.928 72.9436 61.96 72.8369 61.96H70.8529V66.072C70.8529 66.5733 70.9383 66.968 71.1089 67.256C71.2796 67.544 71.5836 67.688 72.0209 67.688H72.9969C73.1036 67.688 73.1889 67.7253 73.2529 67.8C73.3276 67.864 73.3649 67.9493 73.3649 68.056V68.632C73.3649 68.7387 73.3276 68.8293 73.2529 68.904C73.1889 68.968 73.1036 69 72.9969 69H71.8929ZM75.2629 69C75.1563 69 75.0656 68.968 74.9909 68.904C74.9269 68.8293 74.8949 68.7387 74.8949 68.632V61.048C74.8949 60.9413 74.9269 60.856 74.9909 60.792C75.0656 60.7173 75.1563 60.68 75.2629 60.68H76.0309C76.1376 60.68 76.2229 60.7173 76.2869 60.792C76.3509 60.856 76.3829 60.9413 76.3829 61.048V68.632C76.3829 68.7387 76.3509 68.8293 76.2869 68.904C76.2229 68.968 76.1376 69 76.0309 69H75.2629ZM75.1349 59.128C75.0283 59.128 74.9376 59.096 74.8629 59.032C74.7989 58.9573 74.7669 58.8667 74.7669 58.76V57.896C74.7669 57.7893 74.7989 57.704 74.8629 57.64C74.9376 57.5653 75.0283 57.528 75.1349 57.528H76.1429C76.2496 57.528 76.3349 57.5653 76.3989 57.64C76.4736 57.704 76.5109 57.7893 76.5109 57.896V58.76C76.5109 58.8667 76.4736 58.9573 76.3989 59.032C76.3349 59.096 76.2496 59.128 76.1429 59.128H75.1349ZM82.1779 69.16C81.3673 69.16 80.6899 69.0053 80.1459 68.696C79.6019 68.3867 79.1859 67.96 78.8979 67.416C78.6099 66.8613 78.4499 66.232 78.4179 65.528C78.4073 65.3467 78.4019 65.1173 78.4019 64.84C78.4019 64.552 78.4073 64.3227 78.4179 64.152C78.4499 63.4373 78.6099 62.808 78.8979 62.264C79.1966 61.72 79.6179 61.2933 80.1619 60.984C80.7059 60.6747 81.3779 60.52 82.1779 60.52C82.9779 60.52 83.6499 60.6747 84.1939 60.984C84.7379 61.2933 85.1539 61.72 85.4419 62.264C85.7406 62.808 85.9059 63.4373 85.9379 64.152C85.9486 64.3227 85.9539 64.552 85.9539 64.84C85.9539 65.1173 85.9486 65.3467 85.9379 65.528C85.9059 66.232 85.7459 66.8613 85.4579 67.416C85.1699 67.96 84.7539 68.3867 84.2099 68.696C83.6659 69.0053 82.9886 69.16 82.1779 69.16ZM82.1779 67.928C82.8393 67.928 83.3673 67.72 83.7619 67.304C84.1566 66.8773 84.3699 66.2587 84.4019 65.448C84.4126 65.288 84.4179 65.0853 84.4179 64.84C84.4179 64.5947 84.4126 64.392 84.4019 64.232C84.3699 63.4213 84.1566 62.808 83.7619 62.392C83.3673 61.9653 82.8393 61.752 82.1779 61.752C81.5166 61.752 80.9833 61.9653 80.5779 62.392C80.1833 62.808 79.9753 63.4213 79.9539 64.232C79.9433 64.392 79.9379 64.5947 79.9379 64.84C79.9379 65.0853 79.9433 65.288 79.9539 65.448C79.9753 66.2587 80.1833 66.8773 80.5779 67.304C80.9833 67.72 81.5166 67.928 82.1779 67.928ZM88.3254 69C88.2188 69 88.1281 68.968 88.0534 68.904C87.9894 68.8293 87.9574 68.7387 87.9574 68.632V61.048C87.9574 60.9413 87.9894 60.856 88.0534 60.792C88.1281 60.7173 88.2188 60.68 88.3254 60.68H89.0774C89.1841 60.68 89.2694 60.7173 89.3334 60.792C89.4081 60.856 89.4454 60.9413 89.4454 61.048V61.752C89.7228 61.3893 90.0694 61.096 90.4854 60.872C90.9121 60.6373 91.4561 60.52 92.1174 60.52C92.8108 60.52 93.3974 60.6747 93.8774 60.984C94.3681 61.2827 94.7361 61.704 94.9814 62.248C95.2268 62.7813 95.3494 63.4053 95.3494 64.12V68.632C95.3494 68.7387 95.3174 68.8293 95.2534 68.904C95.1894 68.968 95.1041 69 94.9974 69H94.1974C94.0908 69 94.0001 68.968 93.9254 68.904C93.8614 68.8293 93.8294 68.7387 93.8294 68.632V64.2C93.8294 63.4533 93.6481 62.872 93.2854 62.456C92.9228 62.0293 92.3894 61.816 91.6854 61.816C91.0241 61.816 90.4908 62.0293 90.0854 62.456C89.6908 62.872 89.4934 63.4533 89.4934 64.2V68.632C89.4934 68.7387 89.4561 68.8293 89.3814 68.904C89.3174 68.968 89.2321 69 89.1254 69H88.3254ZM100.541 69.16C99.9432 69.16 99.4312 69.0853 99.0046 68.936C98.5779 68.7867 98.2312 68.6053 97.9646 68.392C97.6979 68.1787 97.4952 67.9653 97.3566 67.752C97.2286 67.5387 97.1592 67.368 97.1486 67.24C97.1379 67.1227 97.1752 67.032 97.2606 66.968C97.3459 66.904 97.4312 66.872 97.5166 66.872H98.2206C98.2846 66.872 98.3326 66.8827 98.3646 66.904C98.4072 66.9147 98.4606 66.9573 98.5246 67.032C98.6632 67.1813 98.8179 67.3307 98.9886 67.48C99.1592 67.6293 99.3672 67.752 99.6126 67.848C99.8686 67.944 100.183 67.992 100.557 67.992C101.101 67.992 101.549 67.8907 101.901 67.688C102.253 67.4747 102.429 67.1653 102.429 66.76C102.429 66.4933 102.354 66.28 102.205 66.12C102.066 65.96 101.81 65.816 101.437 65.688C101.074 65.56 100.573 65.4267 99.9326 65.288C99.2926 65.1387 98.7859 64.9573 98.4126 64.744C98.0392 64.52 97.7726 64.2587 97.6126 63.96C97.4526 63.6507 97.3726 63.304 97.3726 62.92C97.3726 62.5253 97.4899 62.1467 97.7246 61.784C97.9592 61.4107 98.3006 61.1067 98.7486 60.872C99.2072 60.6373 99.7779 60.52 100.461 60.52C101.015 60.52 101.49 60.5893 101.885 60.728C102.279 60.8667 102.605 61.0427 102.861 61.256C103.117 61.4587 103.309 61.6613 103.437 61.864C103.565 62.0667 103.634 62.2373 103.645 62.376C103.655 62.4827 103.623 62.5733 103.549 62.648C103.474 62.712 103.389 62.744 103.293 62.744H102.621C102.546 62.744 102.482 62.728 102.429 62.696C102.386 62.664 102.343 62.6267 102.301 62.584C102.194 62.4453 102.066 62.3067 101.917 62.168C101.778 62.0293 101.591 61.9173 101.357 61.832C101.133 61.736 100.834 61.688 100.461 61.688C99.9272 61.688 99.5272 61.8 99.2606 62.024C98.9939 62.248 98.8606 62.5307 98.8606 62.872C98.8606 63.0747 98.9192 63.256 99.0366 63.416C99.1539 63.576 99.3779 63.72 99.7086 63.848C100.039 63.976 100.53 64.1147 101.181 64.264C101.885 64.4027 102.439 64.5893 102.845 64.824C103.25 65.0587 103.538 65.3307 103.709 65.64C103.879 65.9493 103.965 66.3067 103.965 66.712C103.965 67.16 103.831 67.5707 103.565 67.944C103.309 68.3173 102.925 68.616 102.413 68.84C101.911 69.0533 101.287 69.16 100.541 69.16Z" fill="white"/>
<g filter="url(#filter0_f_2_26619)">
<path fill-rule="evenodd" clip-rule="evenodd" d="M57.7577 16.0254C56.7104 16.0254 55.6734 16.2317 54.7058 16.6325C53.7382 17.0332 52.8591 17.6207 52.1185 18.3612C51.378 19.1018 50.7906 19.9809 50.3898 20.9485C49.989 21.9161 49.7827 22.9531 49.7827 24.0004C49.7827 28.6161 48.8149 31.3958 47.8862 33.0004H67.6292C66.7005 31.3958 65.7327 28.616 65.7327 24.0004C65.7327 22.9531 65.5264 21.9161 65.1256 20.9485C64.7249 19.9809 64.1374 19.1018 63.3969 18.3612C62.6563 17.6207 61.7772 17.0332 60.8096 16.6325C59.842 16.2317 58.805 16.0254 57.7577 16.0254ZM53.9404 14.7847C55.1507 14.2834 56.4478 14.0254 57.7577 14.0254C59.0676 14.0254 60.3648 14.2834 61.575 14.7847C62.7852 15.286 63.8848 16.0207 64.8111 16.947C65.7374 17.8733 66.4721 18.9729 66.9734 20.1831C67.4747 21.3933 67.7327 22.6905 67.7327 24.0004C67.7327 28.3337 68.6395 30.7538 69.3606 31.9994L69.3612 32.0004C69.5365 32.3039 69.6289 32.6481 69.6292 32.9986C69.6295 33.3491 69.5377 33.6935 69.363 33.9973C69.1883 34.3012 68.9368 34.5538 68.6338 34.7298C68.3307 34.9058 67.9867 34.9992 67.6362 35.0004L67.6327 35.0004H47.8827L47.8792 35.0004C47.5287 34.9992 47.1847 34.9058 46.8817 34.7298C46.5786 34.5538 46.3271 34.3012 46.1524 33.9973C45.9777 33.6935 45.8859 33.3491 45.8862 32.9986C45.8865 32.6481 45.9789 32.3039 46.1542 32.0004L46.1548 31.9994C46.8759 30.7538 47.7827 28.3337 47.7827 24.0004C47.7827 22.6905 48.0407 21.3933 48.542 20.1831C49.0433 18.9729 49.7781 17.8733 50.7043 16.947C51.6306 16.0207 52.7302 15.286 53.9404 14.7847Z" fill="white"/>
<path fill-rule="evenodd" clip-rule="evenodd" d="M53.7578 33C54.3101 33 54.7578 33.4477 54.7578 34V35C54.7578 35.7956 55.0739 36.5587 55.6365 37.1213C56.1991 37.6839 56.9622 38 57.7578 38C58.5535 38 59.3165 37.6839 59.8791 37.1213C60.4417 36.5587 60.7578 35.7956 60.7578 35V34C60.7578 33.4477 61.2055 33 61.7578 33C62.3101 33 62.7578 33.4477 62.7578 34V35C62.7578 36.3261 62.231 37.5979 61.2933 38.5355C60.3557 39.4732 59.0839 40 57.7578 40C56.4317 40 55.16 39.4732 54.2223 38.5355C53.2846 37.5979 52.7578 36.3261 52.7578 35V34C52.7578 33.4477 53.2055 33 53.7578 33Z" fill="white"/>
<path fill-rule="evenodd" clip-rule="evenodd" d="M63.8371 12.4663C64.1319 11.9993 64.7495 11.8597 65.2165 12.1545C67.4077 13.5377 69.1762 15.497 70.3284 17.818C70.574 18.3126 70.3721 18.9127 69.8774 19.1583C69.3827 19.4039 68.7826 19.202 68.537 18.7073C67.548 16.715 66.0299 15.0331 64.149 13.8457C63.6819 13.5509 63.5423 12.9334 63.8371 12.4663Z" fill="white"/>
<path fill-rule="evenodd" clip-rule="evenodd" d="M51.6784 12.4663C51.9732 12.9334 51.8336 13.5509 51.3665 13.8457C49.4856 15.0331 47.9675 16.715 46.9784 18.7073C46.7329 19.202 46.1328 19.4039 45.6381 19.1583C45.1434 18.9127 44.9415 18.3126 45.187 17.818C46.3393 15.497 48.1078 13.5377 50.2989 12.1545C50.766 11.8597 51.3835 11.9993 51.6784 12.4663Z" fill="white"/>
<path d="M12.5178 69C12.4005 69 12.3098 68.968 12.2458 68.904C12.1818 68.8293 12.1498 68.7387 12.1498 68.632V58.184C12.1498 58.0667 12.1818 57.976 12.2458 57.912C12.3098 57.8373 12.4005 57.8 12.5178 57.8H13.2538C13.3818 57.8 13.4778 57.832 13.5418 57.896C13.6058 57.9493 13.6431 57.992 13.6538 58.024L18.9658 66.184V58.184C18.9658 58.0667 18.9978 57.976 19.0618 57.912C19.1258 57.8373 19.2165 57.8 19.3338 57.8H20.1018C20.2191 57.8 20.3098 57.8373 20.3738 57.912C20.4485 57.976 20.4858 58.0667 20.4858 58.184V68.616C20.4858 68.7227 20.4485 68.8133 20.3738 68.888C20.3098 68.9627 20.2245 69 20.1178 69H19.3498C19.2325 69 19.1418 68.968 19.0778 68.904C19.0245 68.84 18.9871 68.7973 18.9658 68.776L13.6698 60.696V68.632C13.6698 68.7387 13.6325 68.8293 13.5578 68.904C13.4938 68.968 13.4031 69 13.2858 69H12.5178ZM26.4592 69.16C25.6485 69.16 24.9712 69.0053 24.4272 68.696C23.8832 68.3867 23.4672 67.96 23.1792 67.416C22.8912 66.8613 22.7312 66.232 22.6992 65.528C22.6885 65.3467 22.6832 65.1173 22.6832 64.84C22.6832 64.552 22.6885 64.3227 22.6992 64.152C22.7312 63.4373 22.8912 62.808 23.1792 62.264C23.4779 61.72 23.8992 61.2933 24.4432 60.984C24.9872 60.6747 25.6592 60.52 26.4592 60.52C27.2592 60.52 27.9312 60.6747 28.4752 60.984C29.0192 61.2933 29.4352 61.72 29.7232 62.264C30.0219 62.808 30.1872 63.4373 30.2192 64.152C30.2299 64.3227 30.2352 64.552 30.2352 64.84C30.2352 65.1173 30.2299 65.3467 30.2192 65.528C30.1872 66.232 30.0272 66.8613 29.7392 67.416C29.4512 67.96 29.0352 68.3867 28.4912 68.696C27.9472 69.0053 27.2699 69.16 26.4592 69.16ZM26.4592 67.928C27.1205 67.928 27.6485 67.72 28.0432 67.304C28.4379 66.8773 28.6512 66.2587 28.6832 65.448C28.6939 65.288 28.6992 65.0853 28.6992 64.84C28.6992 64.5947 28.6939 64.392 28.6832 64.232C28.6512 63.4213 28.4379 62.808 28.0432 62.392C27.6485 61.9653 27.1205 61.752 26.4592 61.752C25.7979 61.752 25.2645 61.9653 24.8592 62.392C24.4645 62.808 24.2565 63.4213 24.2352 64.232C24.2245 64.392 24.2192 64.5947 24.2192 64.84C24.2192 65.0853 24.2245 65.288 24.2352 65.448C24.2565 66.2587 24.4645 66.8773 24.8592 67.304C25.2645 67.72 25.7979 67.928 26.4592 67.928ZM35.4086 69C34.8112 69 34.3259 68.888 33.9526 68.664C33.5792 68.4293 33.3072 68.104 33.1366 67.688C32.9659 67.2613 32.8806 66.76 32.8806 66.184V61.96H31.6326C31.5259 61.96 31.4352 61.928 31.3606 61.864C31.2966 61.7893 31.2646 61.6987 31.2646 61.592V61.048C31.2646 60.9413 31.2966 60.856 31.3606 60.792C31.4352 60.7173 31.5259 60.68 31.6326 60.68H32.8806V58.008C32.8806 57.9013 32.9126 57.816 32.9766 57.752C33.0512 57.6773 33.1419 57.64 33.2486 57.64H34.0006C34.1072 57.64 34.1926 57.6773 34.2566 57.752C34.3312 57.816 34.3686 57.9013 34.3686 58.008V60.68H36.3526C36.4592 60.68 36.5446 60.7173 36.6086 60.792C36.6832 60.856 36.7206 60.9413 36.7206 61.048V61.592C36.7206 61.6987 36.6832 61.7893 36.6086 61.864C36.5446 61.928 36.4592 61.96 36.3526 61.96H34.3686V66.072C34.3686 66.5733 34.4539 66.968 34.6246 67.256C34.7952 67.544 35.0992 67.688 35.5366 67.688H36.5126C36.6192 67.688 36.7046 67.7253 36.7686 67.8C36.8432 67.864 36.8806 67.9493 36.8806 68.056V68.632C36.8806 68.7387 36.8432 68.8293 36.7686 68.904C36.7046 68.968 36.6192 69 36.5126 69H35.4086ZM38.7786 69C38.6719 69 38.5812 68.968 38.5066 68.904C38.4426 68.8293 38.4106 68.7387 38.4106 68.632V61.048C38.4106 60.9413 38.4426 60.856 38.5066 60.792C38.5812 60.7173 38.6719 60.68 38.7786 60.68H39.5466C39.6532 60.68 39.7386 60.7173 39.8026 60.792C39.8666 60.856 39.8986 60.9413 39.8986 61.048V68.632C39.8986 68.7387 39.8666 68.8293 39.8026 68.904C39.7386 68.968 39.6532 69 39.5466 69H38.7786ZM38.6506 59.128C38.5439 59.128 38.4532 59.096 38.3786 59.032C38.3146 58.9573 38.2826 58.8667 38.2826 58.76V57.896C38.2826 57.7893 38.3146 57.704 38.3786 57.64C38.4532 57.5653 38.5439 57.528 38.6506 57.528H39.6586C39.7652 57.528 39.8506 57.5653 39.9146 57.64C39.9892 57.704 40.0266 57.7893 40.0266 57.896V58.76C40.0266 58.8667 39.9892 58.9573 39.9146 59.032C39.8506 59.096 39.7652 59.128 39.6586 59.128H38.6506ZM43.4856 69C43.3789 69 43.2882 68.968 43.2136 68.904C43.1496 68.8293 43.1176 68.7387 43.1176 68.632V61.96H41.7576C41.6509 61.96 41.5602 61.928 41.4856 61.864C41.4216 61.7893 41.3896 61.6987 41.3896 61.592V61.048C41.3896 60.9413 41.4216 60.856 41.4856 60.792C41.5602 60.7173 41.6509 60.68 41.7576 60.68H43.1176V59.88C43.1176 59.336 43.2082 58.8613 43.3896 58.456C43.5709 58.04 43.8589 57.72 44.2536 57.496C44.6589 57.272 45.1976 57.16 45.8696 57.16H48.3336C48.4402 57.16 48.5256 57.1973 48.5896 57.272C48.6642 57.336 48.7016 57.4213 48.7016 57.528V58.072C48.7016 58.1787 48.6642 58.2693 48.5896 58.344C48.5256 58.408 48.4402 58.44 48.3336 58.44H45.9016C45.4002 58.44 45.0589 58.5733 44.8776 58.84C44.6962 59.096 44.6056 59.4693 44.6056 59.96V60.68H48.3336C48.4402 60.68 48.5256 60.7173 48.5896 60.792C48.6642 60.856 48.7016 60.9413 48.7016 61.048V68.632C48.7016 68.7387 48.6642 68.8293 48.5896 68.904C48.5256 68.968 48.4402 69 48.3336 69H47.5976C47.4802 69 47.3896 68.968 47.3256 68.904C47.2616 68.8293 47.2296 68.7387 47.2296 68.632V61.96H44.6056V68.632C44.6056 68.7387 44.5682 68.8293 44.4936 68.904C44.4296 68.968 44.3442 69 44.2376 69H43.4856ZM54.4268 69.16C53.6695 69.16 53.0135 69.016 52.4588 68.728C51.9148 68.4293 51.4935 68.008 51.1948 67.464C50.8961 66.9093 50.7361 66.248 50.7148 65.48C50.7041 65.32 50.6988 65.1067 50.6988 64.84C50.6988 64.5733 50.7041 64.36 50.7148 64.2C50.7361 63.432 50.8961 62.776 51.1948 62.232C51.4935 61.6773 51.9148 61.256 52.4588 60.968C53.0135 60.6693 53.6695 60.52 54.4268 60.52C55.0455 60.52 55.5735 60.6053 56.0108 60.776C56.4588 60.9467 56.8268 61.1653 57.1148 61.432C57.4028 61.6987 57.6161 61.9867 57.7548 62.296C57.9041 62.6053 57.9841 62.8987 57.9948 63.176C58.0055 63.2827 57.9735 63.368 57.8988 63.432C57.8241 63.496 57.7335 63.528 57.6268 63.528H56.8588C56.7521 63.528 56.6721 63.5067 56.6188 63.464C56.5655 63.4107 56.5121 63.3253 56.4588 63.208C56.2668 62.6853 56.0055 62.3173 55.6748 62.104C55.3441 61.8907 54.9335 61.784 54.4428 61.784C53.8028 61.784 53.2801 61.9813 52.8748 62.376C52.4801 62.7707 52.2668 63.4053 52.2348 64.28C52.2241 64.664 52.2241 65.0373 52.2348 65.4C52.2668 66.2853 52.4801 66.9253 52.8748 67.32C53.2801 67.704 53.8028 67.896 54.4428 67.896C54.9335 67.896 55.3441 67.7893 55.6748 67.576C56.0055 67.3627 56.2668 66.9947 56.4588 66.472C56.5121 66.3547 56.5655 66.2747 56.6188 66.232C56.6721 66.1787 56.7521 66.152 56.8588 66.152H57.6268C57.7335 66.152 57.8241 66.184 57.8988 66.248C57.9735 66.312 58.0055 66.3973 57.9948 66.504C57.9841 66.728 57.9361 66.9573 57.8508 67.192C57.7655 67.4267 57.6268 67.6667 57.4348 67.912C57.2535 68.1467 57.0241 68.36 56.7468 68.552C56.4695 68.7333 56.1335 68.8827 55.7388 69C55.3548 69.1067 54.9175 69.16 54.4268 69.16ZM62.2149 69.16C61.6816 69.16 61.1963 69.0533 60.7589 68.84C60.3216 68.6267 59.9696 68.3387 59.7029 67.976C59.4363 67.6133 59.3029 67.2027 59.3029 66.744C59.3029 66.008 59.6016 65.4213 60.1989 64.984C60.7963 64.5467 61.5749 64.2587 62.5349 64.12L64.9189 63.784V63.32C64.9189 62.808 64.7696 62.408 64.4709 62.12C64.1829 61.832 63.7083 61.688 63.0469 61.688C62.5669 61.688 62.1776 61.784 61.8789 61.976C61.5909 62.168 61.3883 62.4133 61.2709 62.712C61.2069 62.872 61.0949 62.952 60.9349 62.952H60.2149C60.0976 62.952 60.0069 62.92 59.9429 62.856C59.8896 62.7813 59.8629 62.696 59.8629 62.6C59.8629 62.44 59.9216 62.2427 60.0389 62.008C60.1669 61.7733 60.3589 61.544 60.6149 61.32C60.8709 61.096 61.1963 60.9093 61.5909 60.76C61.9963 60.6 62.4869 60.52 63.0629 60.52C63.7029 60.52 64.2416 60.6053 64.6789 60.776C65.1163 60.936 65.4576 61.1547 65.7029 61.432C65.9589 61.7093 66.1403 62.024 66.2469 62.376C66.3643 62.728 66.4229 63.0853 66.4229 63.448V68.632C66.4229 68.7387 66.3856 68.8293 66.3109 68.904C66.2469 68.968 66.1616 69 66.0549 69H65.3189C65.2016 69 65.1109 68.968 65.0469 68.904C64.9829 68.8293 64.9509 68.7387 64.9509 68.632V67.944C64.8123 68.136 64.6256 68.328 64.3909 68.52C64.1563 68.7013 63.8629 68.856 63.5109 68.984C63.1589 69.1013 62.7269 69.16 62.2149 69.16ZM62.5509 67.96C62.9883 67.96 63.3883 67.8693 63.7509 67.688C64.1136 67.496 64.3963 67.2027 64.5989 66.808C64.8123 66.4133 64.9189 65.9173 64.9189 65.32V64.872L63.0629 65.144C62.3056 65.2507 61.7349 65.432 61.3509 65.688C60.9669 65.9333 60.7749 66.248 60.7749 66.632C60.7749 66.9307 60.8603 67.1813 61.0309 67.384C61.2123 67.576 61.4363 67.72 61.7029 67.816C61.9803 67.912 62.2629 67.96 62.5509 67.96ZM71.8929 69C71.2956 69 70.8103 68.888 70.4369 68.664C70.0636 68.4293 69.7916 68.104 69.6209 67.688C69.4503 67.2613 69.3649 66.76 69.3649 66.184V61.96H68.1169C68.0103 61.96 67.9196 61.928 67.8449 61.864C67.7809 61.7893 67.7489 61.6987 67.7489 61.592V61.048C67.7489 60.9413 67.7809 60.856 67.8449 60.792C67.9196 60.7173 68.0103 60.68 68.1169 60.68H69.3649V58.008C69.3649 57.9013 69.3969 57.816 69.4609 57.752C69.5356 57.6773 69.6263 57.64 69.7329 57.64H70.4849C70.5916 57.64 70.6769 57.6773 70.7409 57.752C70.8156 57.816 70.8529 57.9013 70.8529 58.008V60.68H72.8369C72.9436 60.68 73.0289 60.7173 73.0929 60.792C73.1676 60.856 73.2049 60.9413 73.2049 61.048V61.592C73.2049 61.6987 73.1676 61.7893 73.0929 61.864C73.0289 61.928 72.9436 61.96 72.8369 61.96H70.8529V66.072C70.8529 66.5733 70.9383 66.968 71.1089 67.256C71.2796 67.544 71.5836 67.688 72.0209 67.688H72.9969C73.1036 67.688 73.1889 67.7253 73.2529 67.8C73.3276 67.864 73.3649 67.9493 73.3649 68.056V68.632C73.3649 68.7387 73.3276 68.8293 73.2529 68.904C73.1889 68.968 73.1036 69 72.9969 69H71.8929ZM75.2629 69C75.1563 69 75.0656 68.968 74.9909 68.904C74.9269 68.8293 74.8949 68.7387 74.8949 68.632V61.048C74.8949 60.9413 74.9269 60.856 74.9909 60.792C75.0656 60.7173 75.1563 60.68 75.2629 60.68H76.0309C76.1376 60.68 76.2229 60.7173 76.2869 60.792C76.3509 60.856 76.3829 60.9413 76.3829 61.048V68.632C76.3829 68.7387 76.3509 68.8293 76.2869 68.904C76.2229 68.968 76.1376 69 76.0309 69H75.2629ZM75.1349 59.128C75.0283 59.128 74.9376 59.096 74.8629 59.032C74.7989 58.9573 74.7669 58.8667 74.7669 58.76V57.896C74.7669 57.7893 74.7989 57.704 74.8629 57.64C74.9376 57.5653 75.0283 57.528 75.1349 57.528H76.1429C76.2496 57.528 76.3349 57.5653 76.3989 57.64C76.4736 57.704 76.5109 57.7893 76.5109 57.896V58.76C76.5109 58.8667 76.4736 58.9573 76.3989 59.032C76.3349 59.096 76.2496 59.128 76.1429 59.128H75.1349ZM82.1779 69.16C81.3673 69.16 80.6899 69.0053 80.1459 68.696C79.6019 68.3867 79.1859 67.96 78.8979 67.416C78.6099 66.8613 78.4499 66.232 78.4179 65.528C78.4073 65.3467 78.4019 65.1173 78.4019 64.84C78.4019 64.552 78.4073 64.3227 78.4179 64.152C78.4499 63.4373 78.6099 62.808 78.8979 62.264C79.1966 61.72 79.6179 61.2933 80.1619 60.984C80.7059 60.6747 81.3779 60.52 82.1779 60.52C82.9779 60.52 83.6499 60.6747 84.1939 60.984C84.7379 61.2933 85.1539 61.72 85.4419 62.264C85.7406 62.808 85.9059 63.4373 85.9379 64.152C85.9486 64.3227 85.9539 64.552 85.9539 64.84C85.9539 65.1173 85.9486 65.3467 85.9379 65.528C85.9059 66.232 85.7459 66.8613 85.4579 67.416C85.1699 67.96 84.7539 68.3867 84.2099 68.696C83.6659 69.0053 82.9886 69.16 82.1779 69.16ZM82.1779 67.928C82.8393 67.928 83.3673 67.72 83.7619 67.304C84.1566 66.8773 84.3699 66.2587 84.4019 65.448C84.4126 65.288 84.4179 65.0853 84.4179 64.84C84.4179 64.5947 84.4126 64.392 84.4019 64.232C84.3699 63.4213 84.1566 62.808 83.7619 62.392C83.3673 61.9653 82.8393 61.752 82.1779 61.752C81.5166 61.752 80.9833 61.9653 80.5779 62.392C80.1833 62.808 79.9753 63.4213 79.9539 64.232C79.9433 64.392 79.9379 64.5947 79.9379 64.84C79.9379 65.0853 79.9433 65.288 79.9539 65.448C79.9753 66.2587 80.1833 66.8773 80.5779 67.304C80.9833 67.72 81.5166 67.928 82.1779 67.928ZM88.3254 69C88.2188 69 88.1281 68.968 88.0534 68.904C87.9894 68.8293 87.9574 68.7387 87.9574 68.632V61.048C87.9574 60.9413 87.9894 60.856 88.0534 60.792C88.1281 60.7173 88.2188 60.68 88.3254 60.68H89.0774C89.1841 60.68 89.2694 60.7173 89.3334 60.792C89.4081 60.856 89.4454 60.9413 89.4454 61.048V61.752C89.7228 61.3893 90.0694 61.096 90.4854 60.872C90.9121 60.6373 91.4561 60.52 92.1174 60.52C92.8108 60.52 93.3974 60.6747 93.8774 60.984C94.3681 61.2827 94.7361 61.704 94.9814 62.248C95.2268 62.7813 95.3494 63.4053 95.3494 64.12V68.632C95.3494 68.7387 95.3174 68.8293 95.2534 68.904C95.1894 68.968 95.1041 69 94.9974 69H94.1974C94.0908 69 94.0001 68.968 93.9254 68.904C93.8614 68.8293 93.8294 68.7387 93.8294 68.632V64.2C93.8294 63.4533 93.6481 62.872 93.2854 62.456C92.9228 62.0293 92.3894 61.816 91.6854 61.816C91.0241 61.816 90.4908 62.0293 90.0854 62.456C89.6908 62.872 89.4934 63.4533 89.4934 64.2V68.632C89.4934 68.7387 89.4561 68.8293 89.3814 68.904C89.3174 68.968 89.2321 69 89.1254 69H88.3254ZM100.541 69.16C99.9432 69.16 99.4312 69.0853 99.0046 68.936C98.5779 68.7867 98.2312 68.6053 97.9646 68.392C97.6979 68.1787 97.4952 67.9653 97.3566 67.752C97.2286 67.5387 97.1592 67.368 97.1486 67.24C97.1379 67.1227 97.1752 67.032 97.2606 66.968C97.3459 66.904 97.4312 66.872 97.5166 66.872H98.2206C98.2846 66.872 98.3326 66.8827 98.3646 66.904C98.4072 66.9147 98.4606 66.9573 98.5246 67.032C98.6632 67.1813 98.8179 67.3307 98.9886 67.48C99.1592 67.6293 99.3672 67.752 99.6126 67.848C99.8686 67.944 100.183 67.992 100.557 67.992C101.101 67.992 101.549 67.8907 101.901 67.688C102.253 67.4747 102.429 67.1653 102.429 66.76C102.429 66.4933 102.354 66.28 102.205 66.12C102.066 65.96 101.81 65.816 101.437 65.688C101.074 65.56 100.573 65.4267 99.9326 65.288C99.2926 65.1387 98.7859 64.9573 98.4126 64.744C98.0392 64.52 97.7726 64.2587 97.6126 63.96C97.4526 63.6507 97.3726 63.304 97.3726 62.92C97.3726 62.5253 97.4899 62.1467 97.7246 61.784C97.9592 61.4107 98.3006 61.1067 98.7486 60.872C99.2072 60.6373 99.7779 60.52 100.461 60.52C101.015 60.52 101.49 60.5893 101.885 60.728C102.279 60.8667 102.605 61.0427 102.861 61.256C103.117 61.4587 103.309 61.6613 103.437 61.864C103.565 62.0667 103.634 62.2373 103.645 62.376C103.655 62.4827 103.623 62.5733 103.549 62.648C103.474 62.712 103.389 62.744 103.293 62.744H102.621C102.546 62.744 102.482 62.728 102.429 62.696C102.386 62.664 102.343 62.6267 102.301 62.584C102.194 62.4453 102.066 62.3067 101.917 62.168C101.778 62.0293 101.591 61.9173 101.357 61.832C101.133 61.736 100.834 61.688 100.461 61.688C99.9272 61.688 99.5272 61.8 99.2606 62.024C98.9939 62.248 98.8606 62.5307 98.8606 62.872C98.8606 63.0747 98.9192 63.256 99.0366 63.416C99.1539 63.576 99.3779 63.72 99.7086 63.848C100.039 63.976 100.53 64.1147 101.181 64.264C101.885 64.4027 102.439 64.5893 102.845 64.824C103.25 65.0587 103.538 65.3307 103.709 65.64C103.879 65.9493 103.965 66.3067 103.965 66.712C103.965 67.16 103.831 67.5707 103.565 67.944C103.309 68.3173 102.925 68.616 102.413 68.84C101.911 69.0533 101.287 69.16 100.541 69.16Z" fill="white"/>
</g>
<g filter="url(#filter1_f_2_26619)">
<path fill-rule="evenodd" clip-rule="evenodd" d="M56.9999 16.0254C55.9526 16.0254 54.9156 16.2317 53.948 16.6325C52.9804 17.0332 52.1013 17.6207 51.3607 18.3612C50.6202 19.1018 50.0327 19.9809 49.632 20.9485C49.2312 21.9161 49.0249 22.9531 49.0249 24.0004C49.0249 28.6161 48.0571 31.3958 47.1284 33.0004H66.8714C65.9427 31.3958 64.9749 28.616 64.9749 24.0004C64.9749 22.9531 64.7686 21.9161 64.3678 20.9485C63.9671 19.9809 63.3796 19.1018 62.6391 18.3612C61.8985 17.6207 61.0194 17.0332 60.0518 16.6325C59.0842 16.2317 58.0472 16.0254 56.9999 16.0254ZM53.1826 14.7847C54.3929 14.2834 55.69 14.0254 56.9999 14.0254C58.3098 14.0254 59.6069 14.2834 60.8172 14.7847C62.0274 15.286 63.127 16.0207 64.0533 16.947C64.9795 17.8733 65.7143 18.9729 66.2156 20.1831C66.7169 21.3933 66.9749 22.6905 66.9749 24.0004C66.9749 28.3337 67.8817 30.7538 68.6028 31.9994L68.6034 32.0004C68.7787 32.3039 68.8711 32.6481 68.8714 32.9986C68.8717 33.3491 68.7799 33.6935 68.6052 33.9973C68.4305 34.3012 68.179 34.5538 67.8759 34.7298C67.5729 34.9058 67.2289 34.9992 66.8784 35.0004L66.8749 35.0004H47.1249L47.1214 35.0004C46.7709 34.9992 46.4269 34.9058 46.1238 34.7298C45.8208 34.5538 45.5693 34.3012 45.3946 33.9973C45.2199 33.6935 45.1281 33.3491 45.1284 32.9986C45.1287 32.6481 45.2211 32.3039 45.3964 32.0004L45.397 31.9994C46.1181 30.7538 47.0249 28.3337 47.0249 24.0004C47.0249 22.6905 47.2829 21.3933 47.7842 20.1831C48.2855 18.9729 49.0202 17.8733 49.9465 16.947C50.8728 16.0207 51.9724 15.286 53.1826 14.7847Z" fill="white"/>
<path fill-rule="evenodd" clip-rule="evenodd" d="M53 33C53.5523 33 54 33.4477 54 34V35C54 35.7956 54.3161 36.5587 54.8787 37.1213C55.4413 37.6839 56.2044 38 57 38C57.7956 38 58.5587 37.6839 59.1213 37.1213C59.6839 36.5587 60 35.7956 60 35V34C60 33.4477 60.4477 33 61 33C61.5523 33 62 33.4477 62 34V35C62 36.3261 61.4732 37.5979 60.5355 38.5355C59.5979 39.4732 58.3261 40 57 40C55.6739 40 54.4021 39.4732 53.4645 38.5355C52.5268 37.5979 52 36.3261 52 35V34C52 33.4477 52.4477 33 53 33Z" fill="white"/>
<path fill-rule="evenodd" clip-rule="evenodd" d="M63.0793 12.4663C63.3741 11.9993 63.9917 11.8597 64.4587 12.1545C66.6499 13.5377 68.4184 15.497 69.5706 17.818C69.8162 18.3126 69.6143 18.9127 69.1196 19.1583C68.6249 19.4039 68.0248 19.202 67.7792 18.7073C66.7902 16.715 65.2721 15.0331 63.3911 13.8457C62.9241 13.5509 62.7845 12.9334 63.0793 12.4663Z" fill="white"/>
<path fill-rule="evenodd" clip-rule="evenodd" d="M50.9205 12.4663C51.2153 12.9334 51.0757 13.5509 50.6087 13.8457C48.7278 15.0331 47.2097 16.715 46.2206 18.7073C45.975 19.202 45.3749 19.4039 44.8803 19.1583C44.3856 18.9127 44.1836 18.3126 44.4292 17.818C45.5815 15.497 47.3499 13.5377 49.5411 12.1545C50.0082 11.8597 50.6257 11.9993 50.9205 12.4663Z" fill="white"/>
<path d="M11.76 69C11.6427 69 11.552 68.968 11.488 68.904C11.424 68.8293 11.392 68.7387 11.392 68.632V58.184C11.392 58.0667 11.424 57.976 11.488 57.912C11.552 57.8373 11.6427 57.8 11.76 57.8H12.496C12.624 57.8 12.72 57.832 12.784 57.896C12.848 57.9493 12.8853 57.992 12.896 58.024L18.208 66.184V58.184C18.208 58.0667 18.24 57.976 18.304 57.912C18.368 57.8373 18.4587 57.8 18.576 57.8H19.344C19.4613 57.8 19.552 57.8373 19.616 57.912C19.6907 57.976 19.728 58.0667 19.728 58.184V68.616C19.728 68.7227 19.6907 68.8133 19.616 68.888C19.552 68.9627 19.4667 69 19.36 69H18.592C18.4747 69 18.384 68.968 18.32 68.904C18.2667 68.84 18.2293 68.7973 18.208 68.776L12.912 60.696V68.632C12.912 68.7387 12.8747 68.8293 12.8 68.904C12.736 68.968 12.6453 69 12.528 69H11.76ZM25.7014 69.16C24.8907 69.16 24.2134 69.0053 23.6694 68.696C23.1254 68.3867 22.7094 67.96 22.4214 67.416C22.1334 66.8613 21.9734 66.232 21.9414 65.528C21.9307 65.3467 21.9254 65.1173 21.9254 64.84C21.9254 64.552 21.9307 64.3227 21.9414 64.152C21.9734 63.4373 22.1334 62.808 22.4214 62.264C22.72 61.72 23.1414 61.2933 23.6854 60.984C24.2294 60.6747 24.9014 60.52 25.7014 60.52C26.5014 60.52 27.1734 60.6747 27.7174 60.984C28.2614 61.2933 28.6774 61.72 28.9654 62.264C29.264 62.808 29.4294 63.4373 29.4614 64.152C29.472 64.3227 29.4774 64.552 29.4774 64.84C29.4774 65.1173 29.472 65.3467 29.4614 65.528C29.4294 66.232 29.2694 66.8613 28.9814 67.416C28.6934 67.96 28.2774 68.3867 27.7334 68.696C27.1894 69.0053 26.512 69.16 25.7014 69.16ZM25.7014 67.928C26.3627 67.928 26.8907 67.72 27.2854 67.304C27.68 66.8773 27.8934 66.2587 27.9254 65.448C27.936 65.288 27.9414 65.0853 27.9414 64.84C27.9414 64.5947 27.936 64.392 27.9254 64.232C27.8934 63.4213 27.68 62.808 27.2854 62.392C26.8907 61.9653 26.3627 61.752 25.7014 61.752C25.04 61.752 24.5067 61.9653 24.1014 62.392C23.7067 62.808 23.4987 63.4213 23.4774 64.232C23.4667 64.392 23.4614 64.5947 23.4614 64.84C23.4614 65.0853 23.4667 65.288 23.4774 65.448C23.4987 66.2587 23.7067 66.8773 24.1014 67.304C24.5067 67.72 25.04 67.928 25.7014 67.928ZM34.6508 69C34.0534 69 33.5681 68.888 33.1948 68.664C32.8214 68.4293 32.5494 68.104 32.3788 67.688C32.2081 67.2613 32.1228 66.76 32.1228 66.184V61.96H30.8748C30.7681 61.96 30.6774 61.928 30.6028 61.864C30.5388 61.7893 30.5068 61.6987 30.5068 61.592V61.048C30.5068 60.9413 30.5388 60.856 30.6028 60.792C30.6774 60.7173 30.7681 60.68 30.8748 60.68H32.1228V58.008C32.1228 57.9013 32.1548 57.816 32.2188 57.752C32.2934 57.6773 32.3841 57.64 32.4908 57.64H33.2428C33.3494 57.64 33.4348 57.6773 33.4988 57.752C33.5734 57.816 33.6108 57.9013 33.6108 58.008V60.68H35.5948C35.7014 60.68 35.7868 60.7173 35.8508 60.792C35.9254 60.856 35.9628 60.9413 35.9628 61.048V61.592C35.9628 61.6987 35.9254 61.7893 35.8508 61.864C35.7868 61.928 35.7014 61.96 35.5948 61.96H33.6108V66.072C33.6108 66.5733 33.6961 66.968 33.8668 67.256C34.0374 67.544 34.3414 67.688 34.7788 67.688H35.7548C35.8614 67.688 35.9468 67.7253 36.0108 67.8C36.0854 67.864 36.1228 67.9493 36.1228 68.056V68.632C36.1228 68.7387 36.0854 68.8293 36.0108 68.904C35.9468 68.968 35.8614 69 35.7548 69H34.6508ZM38.0208 69C37.9141 69 37.8234 68.968 37.7488 68.904C37.6848 68.8293 37.6528 68.7387 37.6528 68.632V61.048C37.6528 60.9413 37.6848 60.856 37.7488 60.792C37.8234 60.7173 37.9141 60.68 38.0208 60.68H38.7888C38.8954 60.68 38.9808 60.7173 39.0448 60.792C39.1088 60.856 39.1408 60.9413 39.1408 61.048V68.632C39.1408 68.7387 39.1088 68.8293 39.0448 68.904C38.9808 68.968 38.8954 69 38.7888 69H38.0208ZM37.8928 59.128C37.7861 59.128 37.6954 59.096 37.6208 59.032C37.5568 58.9573 37.5247 58.8667 37.5247 58.76V57.896C37.5247 57.7893 37.5568 57.704 37.6208 57.64C37.6954 57.5653 37.7861 57.528 37.8928 57.528H38.9008C39.0074 57.528 39.0928 57.5653 39.1568 57.64C39.2314 57.704 39.2688 57.7893 39.2688 57.896V58.76C39.2688 58.8667 39.2314 58.9573 39.1568 59.032C39.0928 59.096 39.0074 59.128 38.9008 59.128H37.8928ZM42.7278 69C42.6211 69 42.5304 68.968 42.4557 68.904C42.3918 68.8293 42.3598 68.7387 42.3598 68.632V61.96H40.9998C40.8931 61.96 40.8024 61.928 40.7278 61.864C40.6638 61.7893 40.6318 61.6987 40.6318 61.592V61.048C40.6318 60.9413 40.6638 60.856 40.7278 60.792C40.8024 60.7173 40.8931 60.68 40.9998 60.68H42.3598V59.88C42.3598 59.336 42.4504 58.8613 42.6318 58.456C42.8131 58.04 43.1011 57.72 43.4958 57.496C43.9011 57.272 44.4398 57.16 45.1118 57.16H47.5758C47.6824 57.16 47.7678 57.1973 47.8318 57.272C47.9064 57.336 47.9438 57.4213 47.9438 57.528V58.072C47.9438 58.1787 47.9064 58.2693 47.8318 58.344C47.7678 58.408 47.6824 58.44 47.5758 58.44H45.1438C44.6424 58.44 44.3011 58.5733 44.1198 58.84C43.9384 59.096 43.8478 59.4693 43.8478 59.96V60.68H47.5758C47.6824 60.68 47.7678 60.7173 47.8318 60.792C47.9064 60.856 47.9438 60.9413 47.9438 61.048V68.632C47.9438 68.7387 47.9064 68.8293 47.8318 68.904C47.7678 68.968 47.6824 69 47.5758 69H46.8398C46.7224 69 46.6318 68.968 46.5678 68.904C46.5038 68.8293 46.4718 68.7387 46.4718 68.632V61.96H43.8478V68.632C43.8478 68.7387 43.8104 68.8293 43.7358 68.904C43.6718 68.968 43.5864 69 43.4798 69H42.7278ZM53.669 69.16C52.9117 69.16 52.2557 69.016 51.701 68.728C51.157 68.4293 50.7357 68.008 50.437 67.464C50.1383 66.9093 49.9783 66.248 49.957 65.48C49.9463 65.32 49.941 65.1067 49.941 64.84C49.941 64.5733 49.9463 64.36 49.957 64.2C49.9783 63.432 50.1383 62.776 50.437 62.232C50.7357 61.6773 51.157 61.256 51.701 60.968C52.2557 60.6693 52.9117 60.52 53.669 60.52C54.2877 60.52 54.8157 60.6053 55.253 60.776C55.701 60.9467 56.069 61.1653 56.357 61.432C56.645 61.6987 56.8583 61.9867 56.997 62.296C57.1463 62.6053 57.2263 62.8987 57.237 63.176C57.2477 63.2827 57.2157 63.368 57.141 63.432C57.0663 63.496 56.9757 63.528 56.869 63.528H56.101C55.9943 63.528 55.9143 63.5067 55.861 63.464C55.8077 63.4107 55.7543 63.3253 55.701 63.208C55.509 62.6853 55.2477 62.3173 54.917 62.104C54.5863 61.8907 54.1757 61.784 53.685 61.784C53.045 61.784 52.5223 61.9813 52.117 62.376C51.7223 62.7707 51.509 63.4053 51.477 64.28C51.4663 64.664 51.4663 65.0373 51.477 65.4C51.509 66.2853 51.7223 66.9253 52.117 67.32C52.5223 67.704 53.045 67.896 53.685 67.896C54.1757 67.896 54.5863 67.7893 54.917 67.576C55.2477 67.3627 55.509 66.9947 55.701 66.472C55.7543 66.3547 55.8077 66.2747 55.861 66.232C55.9143 66.1787 55.9943 66.152 56.101 66.152H56.869C56.9757 66.152 57.0663 66.184 57.141 66.248C57.2157 66.312 57.2477 66.3973 57.237 66.504C57.2263 66.728 57.1783 66.9573 57.093 67.192C57.0077 67.4267 56.869 67.6667 56.677 67.912C56.4957 68.1467 56.2663 68.36 55.989 68.552C55.7117 68.7333 55.3757 68.8827 54.981 69C54.597 69.1067 54.1597 69.16 53.669 69.16ZM61.4571 69.16C60.9238 69.16 60.4385 69.0533 60.0011 68.84C59.5638 68.6267 59.2118 68.3387 58.9451 67.976C58.6785 67.6133 58.5451 67.2027 58.5451 66.744C58.5451 66.008 58.8438 65.4213 59.4411 64.984C60.0385 64.5467 60.8171 64.2587 61.7771 64.12L64.1611 63.784V63.32C64.1611 62.808 64.0118 62.408 63.7131 62.12C63.4251 61.832 62.9505 61.688 62.2891 61.688C61.8091 61.688 61.4198 61.784 61.1211 61.976C60.8331 62.168 60.6305 62.4133 60.5131 62.712C60.4491 62.872 60.3371 62.952 60.1771 62.952H59.4571C59.3398 62.952 59.2491 62.92 59.1851 62.856C59.1318 62.7813 59.1051 62.696 59.1051 62.6C59.1051 62.44 59.1638 62.2427 59.2811 62.008C59.4091 61.7733 59.6011 61.544 59.8571 61.32C60.1131 61.096 60.4385 60.9093 60.8331 60.76C61.2385 60.6 61.7291 60.52 62.3051 60.52C62.9451 60.52 63.4838 60.6053 63.9211 60.776C64.3585 60.936 64.6998 61.1547 64.9451 61.432C65.2011 61.7093 65.3825 62.024 65.4891 62.376C65.6065 62.728 65.6651 63.0853 65.6651 63.448V68.632C65.6651 68.7387 65.6278 68.8293 65.5531 68.904C65.4891 68.968 65.4038 69 65.2971 69H64.5611C64.4438 69 64.3531 68.968 64.2891 68.904C64.2251 68.8293 64.1931 68.7387 64.1931 68.632V67.944C64.0545 68.136 63.8678 68.328 63.6331 68.52C63.3985 68.7013 63.1051 68.856 62.7531 68.984C62.4011 69.1013 61.9691 69.16 61.4571 69.16ZM61.7931 67.96C62.2305 67.96 62.6305 67.8693 62.9931 67.688C63.3558 67.496 63.6385 67.2027 63.8411 66.808C64.0545 66.4133 64.1611 65.9173 64.1611 65.32V64.872L62.3051 65.144C61.5478 65.2507 60.9771 65.432 60.5931 65.688C60.2091 65.9333 60.0171 66.248 60.0171 66.632C60.0171 66.9307 60.1025 67.1813 60.2731 67.384C60.4545 67.576 60.6785 67.72 60.9451 67.816C61.2225 67.912 61.5051 67.96 61.7931 67.96ZM71.1351 69C70.5378 69 70.0525 68.888 69.6791 68.664C69.3058 68.4293 69.0338 68.104 68.8631 67.688C68.6925 67.2613 68.6071 66.76 68.6071 66.184V61.96H67.3591C67.2525 61.96 67.1618 61.928 67.0871 61.864C67.0231 61.7893 66.9911 61.6987 66.9911 61.592V61.048C66.9911 60.9413 67.0231 60.856 67.0871 60.792C67.1618 60.7173 67.2525 60.68 67.3591 60.68H68.6071V58.008C68.6071 57.9013 68.6391 57.816 68.7031 57.752C68.7778 57.6773 68.8685 57.64 68.9751 57.64H69.7271C69.8338 57.64 69.9191 57.6773 69.9831 57.752C70.0578 57.816 70.0951 57.9013 70.0951 58.008V60.68H72.0791C72.1858 60.68 72.2711 60.7173 72.3351 60.792C72.4098 60.856 72.4471 60.9413 72.4471 61.048V61.592C72.4471 61.6987 72.4098 61.7893 72.3351 61.864C72.2711 61.928 72.1858 61.96 72.0791 61.96H70.0951V66.072C70.0951 66.5733 70.1805 66.968 70.3511 67.256C70.5218 67.544 70.8258 67.688 71.2631 67.688H72.2391C72.3458 67.688 72.4311 67.7253 72.4951 67.8C72.5698 67.864 72.6071 67.9493 72.6071 68.056V68.632C72.6071 68.7387 72.5698 68.8293 72.4951 68.904C72.4311 68.968 72.3458 69 72.2391 69H71.1351ZM74.5051 69C74.3985 69 74.3078 68.968 74.2331 68.904C74.1691 68.8293 74.1371 68.7387 74.1371 68.632V61.048C74.1371 60.9413 74.1691 60.856 74.2331 60.792C74.3078 60.7173 74.3985 60.68 74.5051 60.68H75.2731C75.3798 60.68 75.4651 60.7173 75.5291 60.792C75.5931 60.856 75.6251 60.9413 75.6251 61.048V68.632C75.6251 68.7387 75.5931 68.8293 75.5291 68.904C75.4651 68.968 75.3798 69 75.2731 69H74.5051ZM74.3771 59.128C74.2705 59.128 74.1798 59.096 74.1051 59.032C74.0411 58.9573 74.0091 58.8667 74.0091 58.76V57.896C74.0091 57.7893 74.0411 57.704 74.1051 57.64C74.1798 57.5653 74.2705 57.528 74.3771 57.528H75.3851C75.4918 57.528 75.5771 57.5653 75.6411 57.64C75.7158 57.704 75.7531 57.7893 75.7531 57.896V58.76C75.7531 58.8667 75.7158 58.9573 75.6411 59.032C75.5771 59.096 75.4918 59.128 75.3851 59.128H74.3771ZM81.4201 69.16C80.6095 69.16 79.9321 69.0053 79.3881 68.696C78.8441 68.3867 78.4281 67.96 78.1401 67.416C77.8521 66.8613 77.6921 66.232 77.6601 65.528C77.6495 65.3467 77.6441 65.1173 77.6441 64.84C77.6441 64.552 77.6495 64.3227 77.6601 64.152C77.6921 63.4373 77.8521 62.808 78.1401 62.264C78.4388 61.72 78.8601 61.2933 79.4041 60.984C79.9481 60.6747 80.6201 60.52 81.4201 60.52C82.2201 60.52 82.8921 60.6747 83.4361 60.984C83.9801 61.2933 84.3961 61.72 84.6841 62.264C84.9828 62.808 85.1481 63.4373 85.1801 64.152C85.1908 64.3227 85.1961 64.552 85.1961 64.84C85.1961 65.1173 85.1908 65.3467 85.1801 65.528C85.1481 66.232 84.9881 66.8613 84.7001 67.416C84.4121 67.96 83.9961 68.3867 83.4521 68.696C82.9081 69.0053 82.2308 69.16 81.4201 69.16ZM81.4201 67.928C82.0815 67.928 82.6095 67.72 83.0041 67.304C83.3988 66.8773 83.6121 66.2587 83.6441 65.448C83.6548 65.288 83.6601 65.0853 83.6601 64.84C83.6601 64.5947 83.6548 64.392 83.6441 64.232C83.6121 63.4213 83.3988 62.808 83.0041 62.392C82.6095 61.9653 82.0815 61.752 81.4201 61.752C80.7588 61.752 80.2255 61.9653 79.8201 62.392C79.4255 62.808 79.2175 63.4213 79.1961 64.232C79.1855 64.392 79.1801 64.5947 79.1801 64.84C79.1801 65.0853 79.1855 65.288 79.1961 65.448C79.2175 66.2587 79.4255 66.8773 79.8201 67.304C80.2255 67.72 80.7588 67.928 81.4201 67.928ZM87.5676 69C87.461 69 87.3703 68.968 87.2956 68.904C87.2316 68.8293 87.1996 68.7387 87.1996 68.632V61.048C87.1996 60.9413 87.2316 60.856 87.2956 60.792C87.3703 60.7173 87.461 60.68 87.5676 60.68H88.3196C88.4263 60.68 88.5116 60.7173 88.5756 60.792C88.6503 60.856 88.6876 60.9413 88.6876 61.048V61.752C88.965 61.3893 89.3116 61.096 89.7276 60.872C90.1543 60.6373 90.6983 60.52 91.3596 60.52C92.053 60.52 92.6396 60.6747 93.1196 60.984C93.6103 61.2827 93.9783 61.704 94.2236 62.248C94.469 62.7813 94.5916 63.4053 94.5916 64.12V68.632C94.5916 68.7387 94.5596 68.8293 94.4956 68.904C94.4316 68.968 94.3463 69 94.2396 69H93.4396C93.333 69 93.2423 68.968 93.1676 68.904C93.1036 68.8293 93.0716 68.7387 93.0716 68.632V64.2C93.0716 63.4533 92.8903 62.872 92.5276 62.456C92.165 62.0293 91.6316 61.816 90.9276 61.816C90.2663 61.816 89.733 62.0293 89.3276 62.456C88.933 62.872 88.7356 63.4533 88.7356 64.2V68.632C88.7356 68.7387 88.6983 68.8293 88.6236 68.904C88.5596 68.968 88.4743 69 88.3676 69H87.5676ZM99.7828 69.16C99.1854 69.16 98.6734 69.0853 98.2468 68.936C97.8201 68.7867 97.4734 68.6053 97.2068 68.392C96.9401 68.1787 96.7374 67.9653 96.5988 67.752C96.4708 67.5387 96.4014 67.368 96.3908 67.24C96.3801 67.1227 96.4174 67.032 96.5028 66.968C96.5881 66.904 96.6734 66.872 96.7588 66.872H97.4628C97.5268 66.872 97.5748 66.8827 97.6068 66.904C97.6494 66.9147 97.7028 66.9573 97.7668 67.032C97.9054 67.1813 98.0601 67.3307 98.2308 67.48C98.4014 67.6293 98.6094 67.752 98.8548 67.848C99.1108 67.944 99.4254 67.992 99.7988 67.992C100.343 67.992 100.791 67.8907 101.143 67.688C101.495 67.4747 101.671 67.1653 101.671 66.76C101.671 66.4933 101.596 66.28 101.447 66.12C101.308 65.96 101.052 65.816 100.679 65.688C100.316 65.56 99.8148 65.4267 99.1748 65.288C98.5348 65.1387 98.0281 64.9573 97.6548 64.744C97.2814 64.52 97.0148 64.2587 96.8548 63.96C96.6948 63.6507 96.6148 63.304 96.6148 62.92C96.6148 62.5253 96.7321 62.1467 96.9668 61.784C97.2014 61.4107 97.5428 61.1067 97.9908 60.872C98.4494 60.6373 99.0201 60.52 99.7028 60.52C100.257 60.52 100.732 60.5893 101.127 60.728C101.521 60.8667 101.847 61.0427 102.103 61.256C102.359 61.4587 102.551 61.6613 102.679 61.864C102.807 62.0667 102.876 62.2373 102.887 62.376C102.897 62.4827 102.865 62.5733 102.791 62.648C102.716 62.712 102.631 62.744 102.535 62.744H101.863C101.788 62.744 101.724 62.728 101.671 62.696C101.628 62.664 101.585 62.6267 101.543 62.584C101.436 62.4453 101.308 62.3067 101.159 62.168C101.02 62.0293 100.833 61.9173 100.599 61.832C100.375 61.736 100.076 61.688 99.7028 61.688C99.1694 61.688 98.7694 61.8 98.5028 62.024C98.2361 62.248 98.1028 62.5307 98.1028 62.872C98.1028 63.0747 98.1614 63.256 98.2788 63.416C98.3961 63.576 98.6201 63.72 98.9508 63.848C99.2814 63.976 99.7721 64.1147 100.423 64.264C101.127 64.4027 101.681 64.5893 102.087 64.824C102.492 65.0587 102.78 65.3307 102.951 65.64C103.121 65.9493 103.207 66.3067 103.207 66.712C103.207 67.16 103.073 67.5707 102.807 67.944C102.551 68.3173 102.167 68.616 101.655 68.84C101.153 69.0533 100.529 69.16 99.7828 69.16Z" fill="white"/>
</g>
<g filter="url(#filter2_f_2_26619)">
<path fill-rule="evenodd" clip-rule="evenodd" d="M57.7577 16.0254C56.7104 16.0254 55.6734 16.2317 54.7058 16.6325C53.7382 17.0332 52.8591 17.6207 52.1185 18.3612C51.378 19.1018 50.7906 19.9809 50.3898 20.9485C49.989 21.9161 49.7827 22.9531 49.7827 24.0004C49.7827 28.6161 48.8149 31.3958 47.8862 33.0004H67.6292C66.7005 31.3958 65.7327 28.616 65.7327 24.0004C65.7327 22.9531 65.5264 21.9161 65.1256 20.9485C64.7249 19.9809 64.1374 19.1018 63.3969 18.3612C62.6563 17.6207 61.7772 17.0332 60.8096 16.6325C59.842 16.2317 58.805 16.0254 57.7577 16.0254ZM53.9404 14.7847C55.1507 14.2834 56.4478 14.0254 57.7577 14.0254C59.0676 14.0254 60.3648 14.2834 61.575 14.7847C62.7852 15.286 63.8848 16.0207 64.8111 16.947C65.7374 17.8733 66.4721 18.9729 66.9734 20.1831C67.4747 21.3933 67.7327 22.6905 67.7327 24.0004C67.7327 28.3337 68.6395 30.7538 69.3606 31.9994L69.3612 32.0004C69.5365 32.3039 69.6289 32.6481 69.6292 32.9986C69.6295 33.3491 69.5377 33.6935 69.363 33.9973C69.1883 34.3012 68.9368 34.5538 68.6338 34.7298C68.3307 34.9058 67.9867 34.9992 67.6362 35.0004L67.6327 35.0004H47.8827L47.8792 35.0004C47.5287 34.9992 47.1847 34.9058 46.8817 34.7298C46.5786 34.5538 46.3271 34.3012 46.1524 33.9973C45.9777 33.6935 45.8859 33.3491 45.8862 32.9986C45.8865 32.6481 45.9789 32.3039 46.1542 32.0004L46.1548 31.9994C46.8759 30.7538 47.7827 28.3337 47.7827 24.0004C47.7827 22.6905 48.0407 21.3933 48.542 20.1831C49.0433 18.9729 49.7781 17.8733 50.7043 16.947C51.6306 16.0207 52.7302 15.286 53.9404 14.7847Z" fill="white"/>
<path fill-rule="evenodd" clip-rule="evenodd" d="M53.7578 33C54.3101 33 54.7578 33.4477 54.7578 34V35C54.7578 35.7956 55.0739 36.5587 55.6365 37.1213C56.1991 37.6839 56.9622 38 57.7578 38C58.5535 38 59.3165 37.6839 59.8791 37.1213C60.4417 36.5587 60.7578 35.7956 60.7578 35V34C60.7578 33.4477 61.2055 33 61.7578 33C62.3101 33 62.7578 33.4477 62.7578 34V35C62.7578 36.3261 62.231 37.5979 61.2933 38.5355C60.3557 39.4732 59.0839 40 57.7578 40C56.4317 40 55.16 39.4732 54.2223 38.5355C53.2846 37.5979 52.7578 36.3261 52.7578 35V34C52.7578 33.4477 53.2055 33 53.7578 33Z" fill="white"/>
<path fill-rule="evenodd" clip-rule="evenodd" d="M63.8371 12.4663C64.1319 11.9993 64.7495 11.8597 65.2165 12.1545C67.4077 13.5377 69.1762 15.497 70.3284 17.818C70.574 18.3126 70.3721 18.9127 69.8774 19.1583C69.3827 19.4039 68.7826 19.202 68.537 18.7073C67.548 16.715 66.0299 15.0331 64.149 13.8457C63.6819 13.5509 63.5423 12.9334 63.8371 12.4663Z" fill="white"/>
<path fill-rule="evenodd" clip-rule="evenodd" d="M51.6784 12.4663C51.9732 12.9334 51.8336 13.5509 51.3665 13.8457C49.4856 15.0331 47.9675 16.715 46.9784 18.7073C46.7329 19.202 46.1328 19.4039 45.6381 19.1583C45.1434 18.9127 44.9415 18.3126 45.187 17.818C46.3393 15.497 48.1078 13.5377 50.2989 12.1545C50.766 11.8597 51.3835 11.9993 51.6784 12.4663Z" fill="white"/>
<path d="M12.5178 69C12.4005 69 12.3098 68.968 12.2458 68.904C12.1818 68.8293 12.1498 68.7387 12.1498 68.632V58.184C12.1498 58.0667 12.1818 57.976 12.2458 57.912C12.3098 57.8373 12.4005 57.8 12.5178 57.8H13.2538C13.3818 57.8 13.4778 57.832 13.5418 57.896C13.6058 57.9493 13.6431 57.992 13.6538 58.024L18.9658 66.184V58.184C18.9658 58.0667 18.9978 57.976 19.0618 57.912C19.1258 57.8373 19.2165 57.8 19.3338 57.8H20.1018C20.2191 57.8 20.3098 57.8373 20.3738 57.912C20.4485 57.976 20.4858 58.0667 20.4858 58.184V68.616C20.4858 68.7227 20.4485 68.8133 20.3738 68.888C20.3098 68.9627 20.2245 69 20.1178 69H19.3498C19.2325 69 19.1418 68.968 19.0778 68.904C19.0245 68.84 18.9871 68.7973 18.9658 68.776L13.6698 60.696V68.632C13.6698 68.7387 13.6325 68.8293 13.5578 68.904C13.4938 68.968 13.4031 69 13.2858 69H12.5178ZM26.4592 69.16C25.6485 69.16 24.9712 69.0053 24.4272 68.696C23.8832 68.3867 23.4672 67.96 23.1792 67.416C22.8912 66.8613 22.7312 66.232 22.6992 65.528C22.6885 65.3467 22.6832 65.1173 22.6832 64.84C22.6832 64.552 22.6885 64.3227 22.6992 64.152C22.7312 63.4373 22.8912 62.808 23.1792 62.264C23.4779 61.72 23.8992 61.2933 24.4432 60.984C24.9872 60.6747 25.6592 60.52 26.4592 60.52C27.2592 60.52 27.9312 60.6747 28.4752 60.984C29.0192 61.2933 29.4352 61.72 29.7232 62.264C30.0219 62.808 30.1872 63.4373 30.2192 64.152C30.2299 64.3227 30.2352 64.552 30.2352 64.84C30.2352 65.1173 30.2299 65.3467 30.2192 65.528C30.1872 66.232 30.0272 66.8613 29.7392 67.416C29.4512 67.96 29.0352 68.3867 28.4912 68.696C27.9472 69.0053 27.2699 69.16 26.4592 69.16ZM26.4592 67.928C27.1205 67.928 27.6485 67.72 28.0432 67.304C28.4379 66.8773 28.6512 66.2587 28.6832 65.448C28.6939 65.288 28.6992 65.0853 28.6992 64.84C28.6992 64.5947 28.6939 64.392 28.6832 64.232C28.6512 63.4213 28.4379 62.808 28.0432 62.392C27.6485 61.9653 27.1205 61.752 26.4592 61.752C25.7979 61.752 25.2645 61.9653 24.8592 62.392C24.4645 62.808 24.2565 63.4213 24.2352 64.232C24.2245 64.392 24.2192 64.5947 24.2192 64.84C24.2192 65.0853 24.2245 65.288 24.2352 65.448C24.2565 66.2587 24.4645 66.8773 24.8592 67.304C25.2645 67.72 25.7979 67.928 26.4592 67.928ZM35.4086 69C34.8112 69 34.3259 68.888 33.9526 68.664C33.5792 68.4293 33.3072 68.104 33.1366 67.688C32.9659 67.2613 32.8806 66.76 32.8806 66.184V61.96H31.6326C31.5259 61.96 31.4352 61.928 31.3606 61.864C31.2966 61.7893 31.2646 61.6987 31.2646 61.592V61.048C31.2646 60.9413 31.2966 60.856 31.3606 60.792C31.4352 60.7173 31.5259 60.68 31.6326 60.68H32.8806V58.008C32.8806 57.9013 32.9126 57.816 32.9766 57.752C33.0512 57.6773 33.1419 57.64 33.2486 57.64H34.0006C34.1072 57.64 34.1926 57.6773 34.2566 57.752C34.3312 57.816 34.3686 57.9013 34.3686 58.008V60.68H36.3526C36.4592 60.68 36.5446 60.7173 36.6086 60.792C36.6832 60.856 36.7206 60.9413 36.7206 61.048V61.592C36.7206 61.6987 36.6832 61.7893 36.6086 61.864C36.5446 61.928 36.4592 61.96 36.3526 61.96H34.3686V66.072C34.3686 66.5733 34.4539 66.968 34.6246 67.256C34.7952 67.544 35.0992 67.688 35.5366 67.688H36.5126C36.6192 67.688 36.7046 67.7253 36.7686 67.8C36.8432 67.864 36.8806 67.9493 36.8806 68.056V68.632C36.8806 68.7387 36.8432 68.8293 36.7686 68.904C36.7046 68.968 36.6192 69 36.5126 69H35.4086ZM38.7786 69C38.6719 69 38.5812 68.968 38.5066 68.904C38.4426 68.8293 38.4106 68.7387 38.4106 68.632V61.048C38.4106 60.9413 38.4426 60.856 38.5066 60.792C38.5812 60.7173 38.6719 60.68 38.7786 60.68H39.5466C39.6532 60.68 39.7386 60.7173 39.8026 60.792C39.8666 60.856 39.8986 60.9413 39.8986 61.048V68.632C39.8986 68.7387 39.8666 68.8293 39.8026 68.904C39.7386 68.968 39.6532 69 39.5466 69H38.7786ZM38.6506 59.128C38.5439 59.128 38.4532 59.096 38.3786 59.032C38.3146 58.9573 38.2826 58.8667 38.2826 58.76V57.896C38.2826 57.7893 38.3146 57.704 38.3786 57.64C38.4532 57.5653 38.5439 57.528 38.6506 57.528H39.6586C39.7652 57.528 39.8506 57.5653 39.9146 57.64C39.9892 57.704 40.0266 57.7893 40.0266 57.896V58.76C40.0266 58.8667 39.9892 58.9573 39.9146 59.032C39.8506 59.096 39.7652 59.128 39.6586 59.128H38.6506ZM43.4856 69C43.3789 69 43.2882 68.968 43.2136 68.904C43.1496 68.8293 43.1176 68.7387 43.1176 68.632V61.96H41.7576C41.6509 61.96 41.5602 61.928 41.4856 61.864C41.4216 61.7893 41.3896 61.6987 41.3896 61.592V61.048C41.3896 60.9413 41.4216 60.856 41.4856 60.792C41.5602 60.7173 41.6509 60.68 41.7576 60.68H43.1176V59.88C43.1176 59.336 43.2082 58.8613 43.3896 58.456C43.5709 58.04 43.8589 57.72 44.2536 57.496C44.6589 57.272 45.1976 57.16 45.8696 57.16H48.3336C48.4402 57.16 48.5256 57.1973 48.5896 57.272C48.6642 57.336 48.7016 57.4213 48.7016 57.528V58.072C48.7016 58.1787 48.6642 58.2693 48.5896 58.344C48.5256 58.408 48.4402 58.44 48.3336 58.44H45.9016C45.4002 58.44 45.0589 58.5733 44.8776 58.84C44.6962 59.096 44.6056 59.4693 44.6056 59.96V60.68H48.3336C48.4402 60.68 48.5256 60.7173 48.5896 60.792C48.6642 60.856 48.7016 60.9413 48.7016 61.048V68.632C48.7016 68.7387 48.6642 68.8293 48.5896 68.904C48.5256 68.968 48.4402 69 48.3336 69H47.5976C47.4802 69 47.3896 68.968 47.3256 68.904C47.2616 68.8293 47.2296 68.7387 47.2296 68.632V61.96H44.6056V68.632C44.6056 68.7387 44.5682 68.8293 44.4936 68.904C44.4296 68.968 44.3442 69 44.2376 69H43.4856ZM54.4268 69.16C53.6695 69.16 53.0135 69.016 52.4588 68.728C51.9148 68.4293 51.4935 68.008 51.1948 67.464C50.8961 66.9093 50.7361 66.248 50.7148 65.48C50.7041 65.32 50.6988 65.1067 50.6988 64.84C50.6988 64.5733 50.7041 64.36 50.7148 64.2C50.7361 63.432 50.8961 62.776 51.1948 62.232C51.4935 61.6773 51.9148 61.256 52.4588 60.968C53.0135 60.6693 53.6695 60.52 54.4268 60.52C55.0455 60.52 55.5735 60.6053 56.0108 60.776C56.4588 60.9467 56.8268 61.1653 57.1148 61.432C57.4028 61.6987 57.6161 61.9867 57.7548 62.296C57.9041 62.6053 57.9841 62.8987 57.9948 63.176C58.0055 63.2827 57.9735 63.368 57.8988 63.432C57.8241 63.496 57.7335 63.528 57.6268 63.528H56.8588C56.7521 63.528 56.6721 63.5067 56.6188 63.464C56.5655 63.4107 56.5121 63.3253 56.4588 63.208C56.2668 62.6853 56.0055 62.3173 55.6748 62.104C55.3441 61.8907 54.9335 61.784 54.4428 61.784C53.8028 61.784 53.2801 61.9813 52.8748 62.376C52.4801 62.7707 52.2668 63.4053 52.2348 64.28C52.2241 64.664 52.2241 65.0373 52.2348 65.4C52.2668 66.2853 52.4801 66.9253 52.8748 67.32C53.2801 67.704 53.8028 67.896 54.4428 67.896C54.9335 67.896 55.3441 67.7893 55.6748 67.576C56.0055 67.3627 56.2668 66.9947 56.4588 66.472C56.5121 66.3547 56.5655 66.2747 56.6188 66.232C56.6721 66.1787 56.7521 66.152 56.8588 66.152H57.6268C57.7335 66.152 57.8241 66.184 57.8988 66.248C57.9735 66.312 58.0055 66.3973 57.9948 66.504C57.9841 66.728 57.9361 66.9573 57.8508 67.192C57.7655 67.4267 57.6268 67.6667 57.4348 67.912C57.2535 68.1467 57.0241 68.36 56.7468 68.552C56.4695 68.7333 56.1335 68.8827 55.7388 69C55.3548 69.1067 54.9175 69.16 54.4268 69.16ZM62.2149 69.16C61.6816 69.16 61.1963 69.0533 60.7589 68.84C60.3216 68.6267 59.9696 68.3387 59.7029 67.976C59.4363 67.6133 59.3029 67.2027 59.3029 66.744C59.3029 66.008 59.6016 65.4213 60.1989 64.984C60.7963 64.5467 61.5749 64.2587 62.5349 64.12L64.9189 63.784V63.32C64.9189 62.808 64.7696 62.408 64.4709 62.12C64.1829 61.832 63.7083 61.688 63.0469 61.688C62.5669 61.688 62.1776 61.784 61.8789 61.976C61.5909 62.168 61.3883 62.4133 61.2709 62.712C61.2069 62.872 61.0949 62.952 60.9349 62.952H60.2149C60.0976 62.952 60.0069 62.92 59.9429 62.856C59.8896 62.7813 59.8629 62.696 59.8629 62.6C59.8629 62.44 59.9216 62.2427 60.0389 62.008C60.1669 61.7733 60.3589 61.544 60.6149 61.32C60.8709 61.096 61.1963 60.9093 61.5909 60.76C61.9963 60.6 62.4869 60.52 63.0629 60.52C63.7029 60.52 64.2416 60.6053 64.6789 60.776C65.1163 60.936 65.4576 61.1547 65.7029 61.432C65.9589 61.7093 66.1403 62.024 66.2469 62.376C66.3643 62.728 66.4229 63.0853 66.4229 63.448V68.632C66.4229 68.7387 66.3856 68.8293 66.3109 68.904C66.2469 68.968 66.1616 69 66.0549 69H65.3189C65.2016 69 65.1109 68.968 65.0469 68.904C64.9829 68.8293 64.9509 68.7387 64.9509 68.632V67.944C64.8123 68.136 64.6256 68.328 64.3909 68.52C64.1563 68.7013 63.8629 68.856 63.5109 68.984C63.1589 69.1013 62.7269 69.16 62.2149 69.16ZM62.5509 67.96C62.9883 67.96 63.3883 67.8693 63.7509 67.688C64.1136 67.496 64.3963 67.2027 64.5989 66.808C64.8123 66.4133 64.9189 65.9173 64.9189 65.32V64.872L63.0629 65.144C62.3056 65.2507 61.7349 65.432 61.3509 65.688C60.9669 65.9333 60.7749 66.248 60.7749 66.632C60.7749 66.9307 60.8603 67.1813 61.0309 67.384C61.2123 67.576 61.4363 67.72 61.7029 67.816C61.9803 67.912 62.2629 67.96 62.5509 67.96ZM71.8929 69C71.2956 69 70.8103 68.888 70.4369 68.664C70.0636 68.4293 69.7916 68.104 69.6209 67.688C69.4503 67.2613 69.3649 66.76 69.3649 66.184V61.96H68.1169C68.0103 61.96 67.9196 61.928 67.8449 61.864C67.7809 61.7893 67.7489 61.6987 67.7489 61.592V61.048C67.7489 60.9413 67.7809 60.856 67.8449 60.792C67.9196 60.7173 68.0103 60.68 68.1169 60.68H69.3649V58.008C69.3649 57.9013 69.3969 57.816 69.4609 57.752C69.5356 57.6773 69.6263 57.64 69.7329 57.64H70.4849C70.5916 57.64 70.6769 57.6773 70.7409 57.752C70.8156 57.816 70.8529 57.9013 70.8529 58.008V60.68H72.8369C72.9436 60.68 73.0289 60.7173 73.0929 60.792C73.1676 60.856 73.2049 60.9413 73.2049 61.048V61.592C73.2049 61.6987 73.1676 61.7893 73.0929 61.864C73.0289 61.928 72.9436 61.96 72.8369 61.96H70.8529V66.072C70.8529 66.5733 70.9383 66.968 71.1089 67.256C71.2796 67.544 71.5836 67.688 72.0209 67.688H72.9969C73.1036 67.688 73.1889 67.7253 73.2529 67.8C73.3276 67.864 73.3649 67.9493 73.3649 68.056V68.632C73.3649 68.7387 73.3276 68.8293 73.2529 68.904C73.1889 68.968 73.1036 69 72.9969 69H71.8929ZM75.2629 69C75.1563 69 75.0656 68.968 74.9909 68.904C74.9269 68.8293 74.8949 68.7387 74.8949 68.632V61.048C74.8949 60.9413 74.9269 60.856 74.9909 60.792C75.0656 60.7173 75.1563 60.68 75.2629 60.68H76.0309C76.1376 60.68 76.2229 60.7173 76.2869 60.792C76.3509 60.856 76.3829 60.9413 76.3829 61.048V68.632C76.3829 68.7387 76.3509 68.8293 76.2869 68.904C76.2229 68.968 76.1376 69 76.0309 69H75.2629ZM75.1349 59.128C75.0283 59.128 74.9376 59.096 74.8629 59.032C74.7989 58.9573 74.7669 58.8667 74.7669 58.76V57.896C74.7669 57.7893 74.7989 57.704 74.8629 57.64C74.9376 57.5653 75.0283 57.528 75.1349 57.528H76.1429C76.2496 57.528 76.3349 57.5653 76.3989 57.64C76.4736 57.704 76.5109 57.7893 76.5109 57.896V58.76C76.5109 58.8667 76.4736 58.9573 76.3989 59.032C76.3349 59.096 76.2496 59.128 76.1429 59.128H75.1349ZM82.1779 69.16C81.3673 69.16 80.6899 69.0053 80.1459 68.696C79.6019 68.3867 79.1859 67.96 78.8979 67.416C78.6099 66.8613 78.4499 66.232 78.4179 65.528C78.4073 65.3467 78.4019 65.1173 78.4019 64.84C78.4019 64.552 78.4073 64.3227 78.4179 64.152C78.4499 63.4373 78.6099 62.808 78.8979 62.264C79.1966 61.72 79.6179 61.2933 80.1619 60.984C80.7059 60.6747 81.3779 60.52 82.1779 60.52C82.9779 60.52 83.6499 60.6747 84.1939 60.984C84.7379 61.2933 85.1539 61.72 85.4419 62.264C85.7406 62.808 85.9059 63.4373 85.9379 64.152C85.9486 64.3227 85.9539 64.552 85.9539 64.84C85.9539 65.1173 85.9486 65.3467 85.9379 65.528C85.9059 66.232 85.7459 66.8613 85.4579 67.416C85.1699 67.96 84.7539 68.3867 84.2099 68.696C83.6659 69.0053 82.9886 69.16 82.1779 69.16ZM82.1779 67.928C82.8393 67.928 83.3673 67.72 83.7619 67.304C84.1566 66.8773 84.3699 66.2587 84.4019 65.448C84.4126 65.288 84.4179 65.0853 84.4179 64.84C84.4179 64.5947 84.4126 64.392 84.4019 64.232C84.3699 63.4213 84.1566 62.808 83.7619 62.392C83.3673 61.9653 82.8393 61.752 82.1779 61.752C81.5166 61.752 80.9833 61.9653 80.5779 62.392C80.1833 62.808 79.9753 63.4213 79.9539 64.232C79.9433 64.392 79.9379 64.5947 79.9379 64.84C79.9379 65.0853 79.9433 65.288 79.9539 65.448C79.9753 66.2587 80.1833 66.8773 80.5779 67.304C80.9833 67.72 81.5166 67.928 82.1779 67.928ZM88.3254 69C88.2188 69 88.1281 68.968 88.0534 68.904C87.9894 68.8293 87.9574 68.7387 87.9574 68.632V61.048C87.9574 60.9413 87.9894 60.856 88.0534 60.792C88.1281 60.7173 88.2188 60.68 88.3254 60.68H89.0774C89.1841 60.68 89.2694 60.7173 89.3334 60.792C89.4081 60.856 89.4454 60.9413 89.4454 61.048V61.752C89.7228 61.3893 90.0694 61.096 90.4854 60.872C90.9121 60.6373 91.4561 60.52 92.1174 60.52C92.8108 60.52 93.3974 60.6747 93.8774 60.984C94.3681 61.2827 94.7361 61.704 94.9814 62.248C95.2268 62.7813 95.3494 63.4053 95.3494 64.12V68.632C95.3494 68.7387 95.3174 68.8293 95.2534 68.904C95.1894 68.968 95.1041 69 94.9974 69H94.1974C94.0908 69 94.0001 68.968 93.9254 68.904C93.8614 68.8293 93.8294 68.7387 93.8294 68.632V64.2C93.8294 63.4533 93.6481 62.872 93.2854 62.456C92.9228 62.0293 92.3894 61.816 91.6854 61.816C91.0241 61.816 90.4908 62.0293 90.0854 62.456C89.6908 62.872 89.4934 63.4533 89.4934 64.2V68.632C89.4934 68.7387 89.4561 68.8293 89.3814 68.904C89.3174 68.968 89.2321 69 89.1254 69H88.3254ZM100.541 69.16C99.9432 69.16 99.4312 69.0853 99.0046 68.936C98.5779 68.7867 98.2312 68.6053 97.9646 68.392C97.6979 68.1787 97.4952 67.9653 97.3566 67.752C97.2286 67.5387 97.1592 67.368 97.1486 67.24C97.1379 67.1227 97.1752 67.032 97.2606 66.968C97.3459 66.904 97.4312 66.872 97.5166 66.872H98.2206C98.2846 66.872 98.3326 66.8827 98.3646 66.904C98.4072 66.9147 98.4606 66.9573 98.5246 67.032C98.6632 67.1813 98.8179 67.3307 98.9886 67.48C99.1592 67.6293 99.3672 67.752 99.6126 67.848C99.8686 67.944 100.183 67.992 100.557 67.992C101.101 67.992 101.549 67.8907 101.901 67.688C102.253 67.4747 102.429 67.1653 102.429 66.76C102.429 66.4933 102.354 66.28 102.205 66.12C102.066 65.96 101.81 65.816 101.437 65.688C101.074 65.56 100.573 65.4267 99.9326 65.288C99.2926 65.1387 98.7859 64.9573 98.4126 64.744C98.0392 64.52 97.7726 64.2587 97.6126 63.96C97.4526 63.6507 97.3726 63.304 97.3726 62.92C97.3726 62.5253 97.4899 62.1467 97.7246 61.784C97.9592 61.4107 98.3006 61.1067 98.7486 60.872C99.2072 60.6373 99.7779 60.52 100.461 60.52C101.015 60.52 101.49 60.5893 101.885 60.728C102.279 60.8667 102.605 61.0427 102.861 61.256C103.117 61.4587 103.309 61.6613 103.437 61.864C103.565 62.0667 103.634 62.2373 103.645 62.376C103.655 62.4827 103.623 62.5733 103.549 62.648C103.474 62.712 103.389 62.744 103.293 62.744H102.621C102.546 62.744 102.482 62.728 102.429 62.696C102.386 62.664 102.343 62.6267 102.301 62.584C102.194 62.4453 102.066 62.3067 101.917 62.168C101.778 62.0293 101.591 61.9173 101.357 61.832C101.133 61.736 100.834 61.688 100.461 61.688C99.9272 61.688 99.5272 61.8 99.2606 62.024C98.9939 62.248 98.8606 62.5307 98.8606 62.872C98.8606 63.0747 98.9192 63.256 99.0366 63.416C99.1539 63.576 99.3779 63.72 99.7086 63.848C100.039 63.976 100.53 64.1147 101.181 64.264C101.885 64.4027 102.439 64.5893 102.845 64.824C103.25 65.0587 103.538 65.3307 103.709 65.64C103.879 65.9493 103.965 66.3067 103.965 66.712C103.965 67.16 103.831 67.5707 103.565 67.944C103.309 68.3173 102.925 68.616 102.413 68.84C101.911 69.0533 101.287 69.16 100.541 69.16Z" fill="white"/>
</g>
<defs>
<filter id="filter0_f_2_26619" x="-0.242188" y="-1" width="116" height="88" filterUnits="userSpaceOnUse" color-interpolation-filters="sRGB">
<feFlood flood-opacity="0" result="BackgroundImageFix"/>
<feBlend mode="normal" in="SourceGraphic" in2="BackgroundImageFix" result="shape"/>
<feGaussianBlur stdDeviation="0.5" result="effect1_foregroundBlur_2_26619"/>
</filter>
<filter id="filter1_f_2_26619" x="-2" y="-2" width="118" height="90" filterUnits="userSpaceOnUse" color-interpolation-filters="sRGB">
<feFlood flood-opacity="0" result="BackgroundImageFix"/>
<feBlend mode="normal" in="SourceGraphic" in2="BackgroundImageFix" result="shape"/>
<feGaussianBlur stdDeviation="1" result="effect1_foregroundBlur_2_26619"/>
</filter>
<filter id="filter2_f_2_26619" x="-3.24219" y="-4" width="122" height="94" filterUnits="userSpaceOnUse" color-interpolation-filters="sRGB">
<feFlood flood-opacity="0" result="BackgroundImageFix"/>
<feBlend mode="normal" in="SourceGraphic" in2="BackgroundImageFix" result="shape"/>
<feGaussianBlur stdDeviation="2" result="effect1_foregroundBlur_2_26619"/>
</filter>
</defs>
</svg>
