<svg width="94" height="86" viewBox="0 0 94 86" fill="none" xmlns="http://www.w3.org/2000/svg">
<path fill-rule="evenodd" clip-rule="evenodd" d="M46.9999 16.0254C45.9526 16.0254 44.9156 16.2317 43.948 16.6325C42.9804 17.0332 42.1013 17.6207 41.3607 18.3612C40.6202 19.1018 40.0327 19.9809 39.632 20.9485C39.2312 21.9161 39.0249 22.9531 39.0249 24.0004C39.0249 28.6161 38.0571 31.3958 37.1284 33.0004H56.8714C55.9427 31.3958 54.9749 28.616 54.9749 24.0004C54.9749 22.9531 54.7686 21.9161 54.3678 20.9485C53.9671 19.9809 53.3796 19.1018 52.6391 18.3612C51.8985 17.6207 51.0194 17.0332 50.0518 16.6325C49.0842 16.2317 48.0472 16.0254 46.9999 16.0254ZM43.1826 14.7847C44.3929 14.2834 45.69 14.0254 46.9999 14.0254C48.3098 14.0254 49.6069 14.2834 50.8172 14.7847C52.0274 15.286 53.127 16.0207 54.0533 16.947C54.9795 17.8733 55.7143 18.9729 56.2156 20.1831C56.7169 21.3933 56.9749 22.6905 56.9749 24.0004C56.9749 28.3337 57.8817 30.7538 58.6028 31.9994L58.6034 32.0004C58.7787 32.3039 58.8711 32.6481 58.8714 32.9986C58.8717 33.3491 58.7799 33.6935 58.6052 33.9973C58.4305 34.3012 58.179 34.5538 57.8759 34.7298C57.5729 34.9058 57.2289 34.9992 56.8784 35.0004L56.8749 35.0004H37.1249L37.1214 35.0004C36.7709 34.9992 36.4269 34.9058 36.1238 34.7298C35.8208 34.5538 35.5693 34.3012 35.3946 33.9973C35.2199 33.6935 35.1281 33.3491 35.1284 32.9986C35.1287 32.6481 35.2211 32.3039 35.3964 32.0004L35.397 31.9994C36.1181 30.7538 37.0249 28.3337 37.0249 24.0004C37.0249 22.6905 37.2829 21.3933 37.7842 20.1831C38.2855 18.9729 39.0202 17.8733 39.9465 16.947C40.8728 16.0207 41.9724 15.286 43.1826 14.7847Z" fill="white"/>
<path fill-rule="evenodd" clip-rule="evenodd" d="M43 33C43.5523 33 44 33.4477 44 34V35C44 35.7956 44.3161 36.5587 44.8787 37.1213C45.4413 37.6839 46.2044 38 47 38C47.7956 38 48.5587 37.6839 49.1213 37.1213C49.6839 36.5587 50 35.7956 50 35V34C50 33.4477 50.4477 33 51 33C51.5523 33 52 33.4477 52 34V35C52 36.3261 51.4732 37.5979 50.5355 38.5355C49.5979 39.4732 48.3261 40 47 40C45.6739 40 44.4021 39.4732 43.4645 38.5355C42.5268 37.5979 42 36.3261 42 35V34C42 33.4477 42.4477 33 43 33Z" fill="white"/>
<path fill-rule="evenodd" clip-rule="evenodd" d="M53.0793 12.4663C53.3741 11.9993 53.9917 11.8597 54.4587 12.1545C56.6499 13.5377 58.4184 15.497 59.5706 17.818C59.8162 18.3126 59.6143 18.9127 59.1196 19.1583C58.6249 19.4039 58.0248 19.202 57.7792 18.7073C56.7902 16.715 55.2721 15.0331 53.3911 13.8457C52.9241 13.5509 52.7845 12.9334 53.0793 12.4663Z" fill="white"/>
<path fill-rule="evenodd" clip-rule="evenodd" d="M40.9205 12.4663C41.2153 12.9334 41.0757 13.5509 40.6087 13.8457C38.7278 15.0331 37.2097 16.715 36.2206 18.7073C35.975 19.202 35.3749 19.4039 34.8803 19.1583C34.3856 18.9127 34.1836 18.3126 34.4292 17.818C35.5815 15.497 37.3499 13.5377 39.5411 12.1545C40.0082 11.8597 40.6257 11.9993 40.9205 12.4663Z" fill="white"/>
<path d="M1.76 69C1.64267 69 1.552 68.968 1.488 68.904C1.424 68.8293 1.392 68.7387 1.392 68.632V58.184C1.392 58.0667 1.424 57.976 1.488 57.912C1.552 57.8373 1.64267 57.8 1.76 57.8H2.496C2.624 57.8 2.72 57.832 2.784 57.896C2.848 57.9493 2.88533 57.992 2.896 58.024L8.208 66.184V58.184C8.208 58.0667 8.24 57.976 8.304 57.912C8.368 57.8373 8.45867 57.8 8.576 57.8H9.344C9.46133 57.8 9.552 57.8373 9.616 57.912C9.69067 57.976 9.728 58.0667 9.728 58.184V68.616C9.728 68.7227 9.69067 68.8133 9.616 68.888C9.552 68.9627 9.46667 69 9.36 69H8.592C8.47467 69 8.384 68.968 8.32 68.904C8.26667 68.84 8.22933 68.7973 8.208 68.776L2.912 60.696V68.632C2.912 68.7387 2.87467 68.8293 2.8 68.904C2.736 68.968 2.64533 69 2.528 69H1.76ZM15.7014 69.16C14.8907 69.16 14.2134 69.0053 13.6694 68.696C13.1254 68.3867 12.7094 67.96 12.4214 67.416C12.1334 66.8613 11.9734 66.232 11.9414 65.528C11.9307 65.3467 11.9254 65.1173 11.9254 64.84C11.9254 64.552 11.9307 64.3227 11.9414 64.152C11.9734 63.4373 12.1334 62.808 12.4214 62.264C12.72 61.72 13.1414 61.2933 13.6854 60.984C14.2294 60.6747 14.9014 60.52 15.7014 60.52C16.5014 60.52 17.1734 60.6747 17.7174 60.984C18.2614 61.2933 18.6774 61.72 18.9654 62.264C19.264 62.808 19.4294 63.4373 19.4614 64.152C19.472 64.3227 19.4774 64.552 19.4774 64.84C19.4774 65.1173 19.472 65.3467 19.4614 65.528C19.4294 66.232 19.2694 66.8613 18.9814 67.416C18.6934 67.96 18.2774 68.3867 17.7334 68.696C17.1894 69.0053 16.512 69.16 15.7014 69.16ZM15.7014 67.928C16.3627 67.928 16.8907 67.72 17.2854 67.304C17.68 66.8773 17.8934 66.2587 17.9254 65.448C17.936 65.288 17.9414 65.0853 17.9414 64.84C17.9414 64.5947 17.936 64.392 17.9254 64.232C17.8934 63.4213 17.68 62.808 17.2854 62.392C16.8907 61.9653 16.3627 61.752 15.7014 61.752C15.04 61.752 14.5067 61.9653 14.1014 62.392C13.7067 62.808 13.4987 63.4213 13.4774 64.232C13.4667 64.392 13.4614 64.5947 13.4614 64.84C13.4614 65.0853 13.4667 65.288 13.4774 65.448C13.4987 66.2587 13.7067 66.8773 14.1014 67.304C14.5067 67.72 15.04 67.928 15.7014 67.928ZM24.6508 69C24.0534 69 23.5681 68.888 23.1948 68.664C22.8214 68.4293 22.5494 68.104 22.3788 67.688C22.2081 67.2613 22.1228 66.76 22.1228 66.184V61.96H20.8748C20.7681 61.96 20.6774 61.928 20.6028 61.864C20.5388 61.7893 20.5068 61.6987 20.5068 61.592V61.048C20.5068 60.9413 20.5388 60.856 20.6028 60.792C20.6774 60.7173 20.7681 60.68 20.8748 60.68H22.1228V58.008C22.1228 57.9013 22.1548 57.816 22.2188 57.752C22.2934 57.6773 22.3841 57.64 22.4908 57.64H23.2428C23.3494 57.64 23.4348 57.6773 23.4988 57.752C23.5734 57.816 23.6108 57.9013 23.6108 58.008V60.68H25.5948C25.7014 60.68 25.7868 60.7173 25.8508 60.792C25.9254 60.856 25.9628 60.9413 25.9628 61.048V61.592C25.9628 61.6987 25.9254 61.7893 25.8508 61.864C25.7868 61.928 25.7014 61.96 25.5948 61.96H23.6108V66.072C23.6108 66.5733 23.6961 66.968 23.8668 67.256C24.0374 67.544 24.3414 67.688 24.7788 67.688H25.7548C25.8614 67.688 25.9468 67.7253 26.0108 67.8C26.0854 67.864 26.1228 67.9493 26.1228 68.056V68.632C26.1228 68.7387 26.0854 68.8293 26.0108 68.904C25.9468 68.968 25.8614 69 25.7548 69H24.6508ZM28.0208 69C27.9141 69 27.8234 68.968 27.7488 68.904C27.6848 68.8293 27.6528 68.7387 27.6528 68.632V61.048C27.6528 60.9413 27.6848 60.856 27.7488 60.792C27.8234 60.7173 27.9141 60.68 28.0208 60.68H28.7888C28.8954 60.68 28.9808 60.7173 29.0448 60.792C29.1088 60.856 29.1408 60.9413 29.1408 61.048V68.632C29.1408 68.7387 29.1088 68.8293 29.0448 68.904C28.9808 68.968 28.8954 69 28.7888 69H28.0208ZM27.8928 59.128C27.7861 59.128 27.6954 59.096 27.6208 59.032C27.5568 58.9573 27.5247 58.8667 27.5247 58.76V57.896C27.5247 57.7893 27.5568 57.704 27.6208 57.64C27.6954 57.5653 27.7861 57.528 27.8928 57.528H28.9008C29.0074 57.528 29.0928 57.5653 29.1568 57.64C29.2314 57.704 29.2688 57.7893 29.2688 57.896V58.76C29.2688 58.8667 29.2314 58.9573 29.1568 59.032C29.0928 59.096 29.0074 59.128 28.9008 59.128H27.8928ZM32.7278 69C32.6211 69 32.5304 68.968 32.4557 68.904C32.3918 68.8293 32.3598 68.7387 32.3598 68.632V61.96H30.9998C30.8931 61.96 30.8024 61.928 30.7278 61.864C30.6638 61.7893 30.6318 61.6987 30.6318 61.592V61.048C30.6318 60.9413 30.6638 60.856 30.7278 60.792C30.8024 60.7173 30.8931 60.68 30.9998 60.68H32.3598V59.88C32.3598 59.336 32.4504 58.8613 32.6318 58.456C32.8131 58.04 33.1011 57.72 33.4958 57.496C33.9011 57.272 34.4398 57.16 35.1118 57.16H37.5758C37.6824 57.16 37.7678 57.1973 37.8318 57.272C37.9064 57.336 37.9438 57.4213 37.9438 57.528V58.072C37.9438 58.1787 37.9064 58.2693 37.8318 58.344C37.7678 58.408 37.6824 58.44 37.5758 58.44H35.1438C34.6424 58.44 34.3011 58.5733 34.1198 58.84C33.9384 59.096 33.8478 59.4693 33.8478 59.96V60.68H37.5758C37.6824 60.68 37.7678 60.7173 37.8318 60.792C37.9064 60.856 37.9438 60.9413 37.9438 61.048V68.632C37.9438 68.7387 37.9064 68.8293 37.8318 68.904C37.7678 68.968 37.6824 69 37.5758 69H36.8398C36.7224 69 36.6318 68.968 36.5678 68.904C36.5038 68.8293 36.4718 68.7387 36.4718 68.632V61.96H33.8478V68.632C33.8478 68.7387 33.8104 68.8293 33.7358 68.904C33.6718 68.968 33.5864 69 33.4798 69H32.7278ZM43.669 69.16C42.9117 69.16 42.2557 69.016 41.701 68.728C41.157 68.4293 40.7357 68.008 40.437 67.464C40.1383 66.9093 39.9783 66.248 39.957 65.48C39.9463 65.32 39.941 65.1067 39.941 64.84C39.941 64.5733 39.9463 64.36 39.957 64.2C39.9783 63.432 40.1383 62.776 40.437 62.232C40.7357 61.6773 41.157 61.256 41.701 60.968C42.2557 60.6693 42.9117 60.52 43.669 60.52C44.2877 60.52 44.8157 60.6053 45.253 60.776C45.701 60.9467 46.069 61.1653 46.357 61.432C46.645 61.6987 46.8583 61.9867 46.997 62.296C47.1463 62.6053 47.2263 62.8987 47.237 63.176C47.2477 63.2827 47.2157 63.368 47.141 63.432C47.0663 63.496 46.9757 63.528 46.869 63.528H46.101C45.9943 63.528 45.9143 63.5067 45.861 63.464C45.8077 63.4107 45.7543 63.3253 45.701 63.208C45.509 62.6853 45.2477 62.3173 44.917 62.104C44.5863 61.8907 44.1757 61.784 43.685 61.784C43.045 61.784 42.5223 61.9813 42.117 62.376C41.7223 62.7707 41.509 63.4053 41.477 64.28C41.4663 64.664 41.4663 65.0373 41.477 65.4C41.509 66.2853 41.7223 66.9253 42.117 67.32C42.5223 67.704 43.045 67.896 43.685 67.896C44.1757 67.896 44.5863 67.7893 44.917 67.576C45.2477 67.3627 45.509 66.9947 45.701 66.472C45.7543 66.3547 45.8077 66.2747 45.861 66.232C45.9143 66.1787 45.9943 66.152 46.101 66.152H46.869C46.9757 66.152 47.0663 66.184 47.141 66.248C47.2157 66.312 47.2477 66.3973 47.237 66.504C47.2263 66.728 47.1783 66.9573 47.093 67.192C47.0077 67.4267 46.869 67.6667 46.677 67.912C46.4957 68.1467 46.2663 68.36 45.989 68.552C45.7117 68.7333 45.3757 68.8827 44.981 69C44.597 69.1067 44.1597 69.16 43.669 69.16ZM51.4571 69.16C50.9238 69.16 50.4385 69.0533 50.0011 68.84C49.5638 68.6267 49.2118 68.3387 48.9451 67.976C48.6785 67.6133 48.5451 67.2027 48.5451 66.744C48.5451 66.008 48.8438 65.4213 49.4411 64.984C50.0385 64.5467 50.8171 64.2587 51.7771 64.12L54.1611 63.784V63.32C54.1611 62.808 54.0118 62.408 53.7131 62.12C53.4251 61.832 52.9505 61.688 52.2891 61.688C51.8091 61.688 51.4198 61.784 51.1211 61.976C50.8331 62.168 50.6305 62.4133 50.5131 62.712C50.4491 62.872 50.3371 62.952 50.1771 62.952H49.4571C49.3398 62.952 49.2491 62.92 49.1851 62.856C49.1318 62.7813 49.1051 62.696 49.1051 62.6C49.1051 62.44 49.1638 62.2427 49.2811 62.008C49.4091 61.7733 49.6011 61.544 49.8571 61.32C50.1131 61.096 50.4385 60.9093 50.8331 60.76C51.2385 60.6 51.7291 60.52 52.3051 60.52C52.9451 60.52 53.4838 60.6053 53.9211 60.776C54.3585 60.936 54.6998 61.1547 54.9451 61.432C55.2011 61.7093 55.3825 62.024 55.4891 62.376C55.6065 62.728 55.6651 63.0853 55.6651 63.448V68.632C55.6651 68.7387 55.6278 68.8293 55.5531 68.904C55.4891 68.968 55.4038 69 55.2971 69H54.5611C54.4438 69 54.3531 68.968 54.2891 68.904C54.2251 68.8293 54.1931 68.7387 54.1931 68.632V67.944C54.0545 68.136 53.8678 68.328 53.6331 68.52C53.3985 68.7013 53.1051 68.856 52.7531 68.984C52.4011 69.1013 51.9691 69.16 51.4571 69.16ZM51.7931 67.96C52.2305 67.96 52.6305 67.8693 52.9931 67.688C53.3558 67.496 53.6385 67.2027 53.8411 66.808C54.0545 66.4133 54.1611 65.9173 54.1611 65.32V64.872L52.3051 65.144C51.5478 65.2507 50.9771 65.432 50.5931 65.688C50.2091 65.9333 50.0171 66.248 50.0171 66.632C50.0171 66.9307 50.1025 67.1813 50.2731 67.384C50.4545 67.576 50.6785 67.72 50.9451 67.816C51.2225 67.912 51.5051 67.96 51.7931 67.96ZM61.1351 69C60.5378 69 60.0525 68.888 59.6791 68.664C59.3058 68.4293 59.0338 68.104 58.8631 67.688C58.6925 67.2613 58.6071 66.76 58.6071 66.184V61.96H57.3591C57.2525 61.96 57.1618 61.928 57.0871 61.864C57.0231 61.7893 56.9911 61.6987 56.9911 61.592V61.048C56.9911 60.9413 57.0231 60.856 57.0871 60.792C57.1618 60.7173 57.2525 60.68 57.3591 60.68H58.6071V58.008C58.6071 57.9013 58.6391 57.816 58.7031 57.752C58.7778 57.6773 58.8685 57.64 58.9751 57.64H59.7271C59.8338 57.64 59.9191 57.6773 59.9831 57.752C60.0578 57.816 60.0951 57.9013 60.0951 58.008V60.68H62.0791C62.1858 60.68 62.2711 60.7173 62.3351 60.792C62.4098 60.856 62.4471 60.9413 62.4471 61.048V61.592C62.4471 61.6987 62.4098 61.7893 62.3351 61.864C62.2711 61.928 62.1858 61.96 62.0791 61.96H60.0951V66.072C60.0951 66.5733 60.1805 66.968 60.3511 67.256C60.5218 67.544 60.8258 67.688 61.2631 67.688H62.2391C62.3458 67.688 62.4311 67.7253 62.4951 67.8C62.5698 67.864 62.6071 67.9493 62.6071 68.056V68.632C62.6071 68.7387 62.5698 68.8293 62.4951 68.904C62.4311 68.968 62.3458 69 62.2391 69H61.1351ZM64.5051 69C64.3985 69 64.3078 68.968 64.2331 68.904C64.1691 68.8293 64.1371 68.7387 64.1371 68.632V61.048C64.1371 60.9413 64.1691 60.856 64.2331 60.792C64.3078 60.7173 64.3985 60.68 64.5051 60.68H65.2731C65.3798 60.68 65.4651 60.7173 65.5291 60.792C65.5931 60.856 65.6251 60.9413 65.6251 61.048V68.632C65.6251 68.7387 65.5931 68.8293 65.5291 68.904C65.4651 68.968 65.3798 69 65.2731 69H64.5051ZM64.3771 59.128C64.2705 59.128 64.1798 59.096 64.1051 59.032C64.0411 58.9573 64.0091 58.8667 64.0091 58.76V57.896C64.0091 57.7893 64.0411 57.704 64.1051 57.64C64.1798 57.5653 64.2705 57.528 64.3771 57.528H65.3851C65.4918 57.528 65.5771 57.5653 65.6411 57.64C65.7158 57.704 65.7531 57.7893 65.7531 57.896V58.76C65.7531 58.8667 65.7158 58.9573 65.6411 59.032C65.5771 59.096 65.4918 59.128 65.3851 59.128H64.3771ZM71.4201 69.16C70.6095 69.16 69.9321 69.0053 69.3881 68.696C68.8441 68.3867 68.4281 67.96 68.1401 67.416C67.8521 66.8613 67.6921 66.232 67.6601 65.528C67.6495 65.3467 67.6441 65.1173 67.6441 64.84C67.6441 64.552 67.6495 64.3227 67.6601 64.152C67.6921 63.4373 67.8521 62.808 68.1401 62.264C68.4388 61.72 68.8601 61.2933 69.4041 60.984C69.9481 60.6747 70.6201 60.52 71.4201 60.52C72.2201 60.52 72.8921 60.6747 73.4361 60.984C73.9801 61.2933 74.3961 61.72 74.6841 62.264C74.9828 62.808 75.1481 63.4373 75.1801 64.152C75.1908 64.3227 75.1961 64.552 75.1961 64.84C75.1961 65.1173 75.1908 65.3467 75.1801 65.528C75.1481 66.232 74.9881 66.8613 74.7001 67.416C74.4121 67.96 73.9961 68.3867 73.4521 68.696C72.9081 69.0053 72.2308 69.16 71.4201 69.16ZM71.4201 67.928C72.0815 67.928 72.6095 67.72 73.0041 67.304C73.3988 66.8773 73.6121 66.2587 73.6441 65.448C73.6548 65.288 73.6601 65.0853 73.6601 64.84C73.6601 64.5947 73.6548 64.392 73.6441 64.232C73.6121 63.4213 73.3988 62.808 73.0041 62.392C72.6095 61.9653 72.0815 61.752 71.4201 61.752C70.7588 61.752 70.2255 61.9653 69.8201 62.392C69.4255 62.808 69.2175 63.4213 69.1961 64.232C69.1855 64.392 69.1801 64.5947 69.1801 64.84C69.1801 65.0853 69.1855 65.288 69.1961 65.448C69.2175 66.2587 69.4255 66.8773 69.8201 67.304C70.2255 67.72 70.7588 67.928 71.4201 67.928ZM77.5676 69C77.461 69 77.3703 68.968 77.2956 68.904C77.2316 68.8293 77.1996 68.7387 77.1996 68.632V61.048C77.1996 60.9413 77.2316 60.856 77.2956 60.792C77.3703 60.7173 77.461 60.68 77.5676 60.68H78.3196C78.4263 60.68 78.5116 60.7173 78.5756 60.792C78.6503 60.856 78.6876 60.9413 78.6876 61.048V61.752C78.965 61.3893 79.3116 61.096 79.7276 60.872C80.1543 60.6373 80.6983 60.52 81.3596 60.52C82.053 60.52 82.6396 60.6747 83.1196 60.984C83.6103 61.2827 83.9783 61.704 84.2236 62.248C84.469 62.7813 84.5916 63.4053 84.5916 64.12V68.632C84.5916 68.7387 84.5596 68.8293 84.4956 68.904C84.4316 68.968 84.3463 69 84.2396 69H83.4396C83.333 69 83.2423 68.968 83.1676 68.904C83.1036 68.8293 83.0716 68.7387 83.0716 68.632V64.2C83.0716 63.4533 82.8903 62.872 82.5276 62.456C82.165 62.0293 81.6316 61.816 80.9276 61.816C80.2663 61.816 79.733 62.0293 79.3276 62.456C78.933 62.872 78.7356 63.4533 78.7356 64.2V68.632C78.7356 68.7387 78.6983 68.8293 78.6236 68.904C78.5596 68.968 78.4743 69 78.3676 69H77.5676ZM89.7828 69.16C89.1854 69.16 88.6734 69.0853 88.2468 68.936C87.8201 68.7867 87.4734 68.6053 87.2068 68.392C86.9401 68.1787 86.7374 67.9653 86.5988 67.752C86.4708 67.5387 86.4014 67.368 86.3908 67.24C86.3801 67.1227 86.4174 67.032 86.5028 66.968C86.5881 66.904 86.6734 66.872 86.7588 66.872H87.4628C87.5268 66.872 87.5748 66.8827 87.6068 66.904C87.6494 66.9147 87.7028 66.9573 87.7668 67.032C87.9054 67.1813 88.0601 67.3307 88.2308 67.48C88.4014 67.6293 88.6094 67.752 88.8548 67.848C89.1108 67.944 89.4254 67.992 89.7988 67.992C90.3428 67.992 90.7908 67.8907 91.1428 67.688C91.4948 67.4747 91.6708 67.1653 91.6708 66.76C91.6708 66.4933 91.5961 66.28 91.4468 66.12C91.3081 65.96 91.0521 65.816 90.6788 65.688C90.3161 65.56 89.8148 65.4267 89.1748 65.288C88.5348 65.1387 88.0281 64.9573 87.6548 64.744C87.2814 64.52 87.0148 64.2587 86.8548 63.96C86.6948 63.6507 86.6148 63.304 86.6148 62.92C86.6148 62.5253 86.7321 62.1467 86.9668 61.784C87.2014 61.4107 87.5428 61.1067 87.9908 60.872C88.4494 60.6373 89.0201 60.52 89.7028 60.52C90.2574 60.52 90.7321 60.5893 91.1268 60.728C91.5214 60.8667 91.8468 61.0427 92.1028 61.256C92.3588 61.4587 92.5508 61.6613 92.6788 61.864C92.8068 62.0667 92.8761 62.2373 92.8868 62.376C92.8974 62.4827 92.8654 62.5733 92.7908 62.648C92.7161 62.712 92.6308 62.744 92.5348 62.744H91.8628C91.7881 62.744 91.7241 62.728 91.6708 62.696C91.6281 62.664 91.5854 62.6267 91.5428 62.584C91.4361 62.4453 91.3081 62.3067 91.1588 62.168C91.0201 62.0293 90.8334 61.9173 90.5988 61.832C90.3748 61.736 90.0761 61.688 89.7028 61.688C89.1694 61.688 88.7694 61.8 88.5028 62.024C88.2361 62.248 88.1028 62.5307 88.1028 62.872C88.1028 63.0747 88.1614 63.256 88.2788 63.416C88.3961 63.576 88.6201 63.72 88.9508 63.848C89.2814 63.976 89.7721 64.1147 90.4227 64.264C91.1268 64.4027 91.6814 64.5893 92.0868 64.824C92.4921 65.0587 92.7801 65.3307 92.9508 65.64C93.1214 65.9493 93.2068 66.3067 93.2068 66.712C93.2068 67.16 93.0734 67.5707 92.8068 67.944C92.5508 68.3173 92.1668 68.616 91.6548 68.84C91.1534 69.0533 90.5294 69.16 89.7828 69.16Z" fill="white"/>
</svg>
