<svg width="32" height="32" viewBox="0 0 32 32" fill="none" xmlns="http://www.w3.org/2000/svg">
<path fill-rule="evenodd" clip-rule="evenodd" d="M16.6748 5.0468C14.0035 4.87939 11.363 5.69277 9.24898 7.33424C7.13494 8.97571 5.69275 11.3324 5.19315 13.9618C4.69355 16.5913 5.1709 19.3127 6.53559 21.6151C6.67534 21.8509 6.71218 22.1337 6.63752 22.3974L5.46631 26.534L9.60292 25.3628L9.87534 26.325L10.3852 25.4647C12.6877 26.8294 15.409 27.3068 18.0385 26.8072C20.6679 26.3076 23.0246 24.8654 24.6661 22.7513C26.3075 20.6373 27.1209 17.9968 26.9535 15.3255C26.7861 12.6543 25.6494 10.136 23.7569 8.24345C21.8643 6.35089 19.346 5.2142 16.6748 5.0468ZM9.74445 27.4013C12.383 28.8478 15.4468 29.3354 18.4118 28.772C21.5199 28.1815 24.3055 26.4768 26.2458 23.9779C28.186 21.4791 29.1475 18.3579 28.9496 15.2005C28.7517 12.043 27.4081 9.06629 25.1711 6.82923C22.934 4.59218 19.9573 3.24859 16.7999 3.05071C13.6424 2.85283 10.5212 3.81427 8.0224 5.75453C5.52355 7.69478 3.81884 10.4804 3.2283 13.5885C2.66495 16.5535 3.15249 19.6173 4.59897 22.2559L3.53913 25.9991C3.4404 26.3399 3.43469 26.7009 3.52263 27.0447C3.61099 27.3901 3.79064 27.7054 4.04276 27.9576C4.29488 28.2097 4.61017 28.3893 4.95559 28.4777C5.29939 28.5656 5.66044 28.5599 6.00123 28.4612L9.74445 27.4013Z" fill="white"/>
<path d="M16 17.5C16.8284 17.5 17.5 16.8284 17.5 16C17.5 15.1716 16.8284 14.5 16 14.5C15.1716 14.5 14.5 15.1716 14.5 16C14.5 16.8284 15.1716 17.5 16 17.5Z" fill="white"/>
<path d="M10 17.5C10.8284 17.5 11.5 16.8284 11.5 16C11.5 15.1716 10.8284 14.5 10 14.5C9.17157 14.5 8.5 15.1716 8.5 16C8.5 16.8284 9.17157 17.5 10 17.5Z" fill="white"/>
<path d="M22 17.5C22.8284 17.5 23.5 16.8284 23.5 16C23.5 15.1716 22.8284 14.5 22 14.5C21.1716 14.5 20.5 15.1716 20.5 16C20.5 16.8284 21.1716 17.5 22 17.5Z" fill="white"/>
</svg>
