<svg width="32" height="32" viewBox="0 0 32 32" fill="none" xmlns="http://www.w3.org/2000/svg">
<path fill-rule="evenodd" clip-rule="evenodd" d="M16.0004 6.02502C14.9531 6.02502 13.9161 6.2313 12.9485 6.63208C11.9809 7.03287 11.1018 7.6203 10.3612 8.36085C9.62066 9.10139 9.03323 9.98055 8.63245 10.9481C8.23166 11.9157 8.02538 12.9527 8.02538 14C8.02538 18.6157 7.0576 21.3954 6.12891 23H25.8719C24.9432 21.3954 23.9754 18.6157 23.9754 14C23.9754 12.9527 23.7691 11.9157 23.3683 10.9481C22.9675 9.98055 22.3801 9.10139 21.6396 8.36085C20.899 7.6203 20.0199 7.03287 19.0523 6.63208C18.0847 6.2313 17.0477 6.02502 16.0004 6.02502ZM12.1831 4.78433C13.3933 4.28303 14.6904 4.02502 16.0004 4.02502C17.3103 4.02502 18.6074 4.28303 19.8177 4.78433C21.0279 5.28562 22.1275 6.02037 23.0538 6.94663C23.98 7.8729 24.7148 8.97253 25.2161 10.1828C25.7174 11.393 25.9754 12.6901 25.9754 14C25.9754 18.3334 26.8822 20.7534 27.6033 21.999L27.6039 22C27.7791 22.3035 27.8715 22.6478 27.8719 22.9983C27.8722 23.3487 27.7804 23.6931 27.6057 23.997C27.431 24.3008 27.1795 24.5534 26.8764 24.7294C26.5734 24.9055 26.2294 24.9988 25.8789 25L25.8754 25H6.12538L6.12186 25C5.77139 24.9988 5.42739 24.9055 5.12433 24.7294C4.82127 24.5534 4.5698 24.3008 4.39509 23.997C4.22039 23.6931 4.1286 23.3487 4.12891 22.9983C4.12922 22.6478 4.22162 22.3035 4.39686 22L4.39746 21.999C5.11858 20.7534 6.02538 18.3334 6.02538 14C6.02538 12.6901 6.2834 11.393 6.78469 10.1828C7.28598 8.97253 8.02073 7.8729 8.94699 6.94663C9.87326 6.02037 10.9729 5.28562 12.1831 4.78433Z" fill="white"/>
<path fill-rule="evenodd" clip-rule="evenodd" d="M12 23C12.5523 23 13 23.4477 13 24V25C13 25.7956 13.3161 26.5587 13.8787 27.1213C14.4413 27.6839 15.2044 28 16 28C16.7956 28 17.5587 27.6839 18.1213 27.1213C18.6839 26.5587 19 25.7956 19 25V24C19 23.4477 19.4477 23 20 23C20.5523 23 21 23.4477 21 24V25C21 26.3261 20.4732 27.5979 19.5355 28.5355C18.5979 29.4732 17.3261 30 16 30C14.6739 30 13.4021 29.4732 12.4645 28.5355C11.5268 27.5979 11 26.3261 11 25V24C11 23.4477 11.4477 23 12 23Z" fill="white"/>
<path fill-rule="evenodd" clip-rule="evenodd" d="M22.0793 2.46621C22.3741 1.99919 22.9917 1.85959 23.4587 2.15439C25.6499 3.53758 27.4184 5.49687 28.5706 7.81784C28.8162 8.31253 28.6143 8.91263 28.1196 9.15821C27.6249 9.40379 27.0248 9.20185 26.7792 8.70717C25.7902 6.71483 24.2721 5.03296 22.3911 3.84562C21.9241 3.55082 21.7845 2.93323 22.0793 2.46621Z" fill="white"/>
<path fill-rule="evenodd" clip-rule="evenodd" d="M9.92103 2.46621C10.2158 2.93323 10.0762 3.55082 9.60921 3.84562C7.72827 5.03296 6.2102 6.71483 5.22111 8.70717C4.97553 9.20185 4.37543 9.40379 3.88075 9.15821C3.38607 8.91263 3.18414 8.31253 3.42972 7.81784C4.58195 5.49687 6.35043 3.53758 8.54162 2.15439C9.00864 1.85959 9.62623 1.99919 9.92103 2.46621Z" fill="white"/>
</svg>
