<svg width="74" height="86" viewBox="0 0 74 86" fill="none" xmlns="http://www.w3.org/2000/svg">
<path fill-rule="evenodd" clip-rule="evenodd" d="M37.6743 15.0469C35.003 14.8795 32.3625 15.6929 30.2485 17.3344C28.1345 18.9758 26.6923 21.3325 26.1927 23.9619C25.6931 26.5914 26.1704 29.3128 27.5351 31.6152C27.6748 31.851 27.7117 32.1338 27.637 32.3975L26.4658 36.5341L30.6024 35.3629L30.8749 36.3251L31.3847 35.4649C33.6872 36.8295 36.4086 37.3069 39.038 36.8073C41.6674 36.3077 44.0241 34.8655 45.6656 32.7515C47.3071 30.6374 48.1204 27.9969 47.953 25.3257C47.7856 22.6544 46.6489 20.1361 44.7564 18.2436C42.8638 16.351 40.3455 15.2143 37.6743 15.0469ZM30.744 37.4015C33.3825 38.8479 36.4464 39.3355 39.4113 38.7721C42.5194 38.1816 45.305 36.4769 47.2453 33.978C49.1856 31.4792 50.147 28.3581 49.9491 25.2006C49.7512 22.0431 48.4076 19.0664 46.1706 16.8294C43.9335 14.5923 40.9569 13.2487 37.7994 13.0508C34.6419 12.853 31.5208 13.8144 29.0219 15.7546C26.5231 17.6949 24.8184 20.4805 24.2278 23.5886C23.6645 26.5536 24.152 29.6175 25.5985 32.256L24.5386 35.9993C24.4399 36.34 24.4342 36.7011 24.5221 37.0448C24.6105 37.3903 24.7902 37.7056 25.0423 37.9577C25.2944 38.2098 25.6097 38.3894 25.9551 38.4778C26.2989 38.5657 26.6599 38.56 27.0007 38.4613L30.744 37.4015Z" fill="white"/>
<path d="M37 27.5C37.8284 27.5 38.5 26.8284 38.5 26C38.5 25.1716 37.8284 24.5 37 24.5C36.1716 24.5 35.5 25.1716 35.5 26C35.5 26.8284 36.1716 27.5 37 27.5Z" fill="white"/>
<path d="M31 27.5C31.8284 27.5 32.5 26.8284 32.5 26C32.5 25.1716 31.8284 24.5 31 24.5C30.1716 24.5 29.5 25.1716 29.5 26C29.5 26.8284 30.1716 27.5 31 27.5Z" fill="white"/>
<path d="M43 27.5C43.8284 27.5 44.5 26.8284 44.5 26C44.5 25.1716 43.8284 24.5 43 24.5C42.1716 24.5 41.5 25.1716 41.5 26C41.5 26.8284 42.1716 27.5 43 27.5Z" fill="white"/>
<path d="M1.76 69C1.65333 69 1.56267 68.968 1.488 68.904C1.424 68.8293 1.392 68.7387 1.392 68.632V58.184C1.392 58.0667 1.424 57.976 1.488 57.912C1.56267 57.8373 1.65333 57.8 1.76 57.8H2.56C2.688 57.8 2.784 57.832 2.848 57.896C2.912 57.96 2.94933 58.0133 2.96 58.056L6.352 64.52L9.76 58.056C9.78133 58.0133 9.81867 57.96 9.872 57.896C9.936 57.832 10.032 57.8 10.16 57.8H10.944C11.0613 57.8 11.152 57.8373 11.216 57.912C11.2907 57.976 11.328 58.0667 11.328 58.184V68.632C11.328 68.7387 11.2907 68.8293 11.216 68.904C11.152 68.968 11.0613 69 10.944 69H10.16C10.0533 69 9.96267 68.968 9.888 68.904C9.824 68.8293 9.792 68.7387 9.792 68.632V60.76L7.12 65.976C7.07733 66.0827 7.01333 66.168 6.928 66.232C6.84267 66.2853 6.736 66.312 6.608 66.312H6.112C5.97333 66.312 5.86133 66.2853 5.776 66.232C5.70133 66.168 5.63733 66.0827 5.584 65.976L2.912 60.76V68.632C2.912 68.7387 2.87467 68.8293 2.8 68.904C2.736 68.968 2.65067 69 2.544 69H1.76ZM17.1991 69.16C16.1005 69.16 15.2258 68.824 14.5751 68.152C13.9245 67.4693 13.5671 66.5413 13.5031 65.368C13.4925 65.2293 13.4871 65.0533 13.4871 64.84C13.4871 64.616 13.4925 64.4347 13.5031 64.296C13.5458 63.5387 13.7218 62.8773 14.0311 62.312C14.3405 61.736 14.7618 61.2933 15.2951 60.984C15.8391 60.6747 16.4738 60.52 17.1991 60.52C18.0098 60.52 18.6871 60.6907 19.2311 61.032C19.7858 61.3733 20.2071 61.8587 20.4951 62.488C20.7831 63.1173 20.9271 63.8533 20.9271 64.696V64.968C20.9271 65.0853 20.8898 65.176 20.8151 65.24C20.7511 65.304 20.6658 65.336 20.5591 65.336H15.0231C15.0231 65.3467 15.0231 65.368 15.0231 65.4C15.0231 65.432 15.0231 65.4587 15.0231 65.48C15.0445 65.9173 15.1405 66.328 15.3111 66.712C15.4818 67.0853 15.7271 67.3893 16.0471 67.624C16.3671 67.8587 16.7511 67.976 17.1991 67.976C17.5831 67.976 17.9031 67.9173 18.1591 67.8C18.4151 67.6827 18.6231 67.5547 18.7831 67.416C18.9431 67.2667 19.0498 67.1547 19.1031 67.08C19.1991 66.9413 19.2738 66.8613 19.3271 66.84C19.3805 66.808 19.4658 66.792 19.5831 66.792H20.3511C20.4578 66.792 20.5431 66.824 20.6071 66.888C20.6818 66.9413 20.7138 67.0213 20.7031 67.128C20.6925 67.288 20.6071 67.4853 20.4471 67.72C20.2871 67.944 20.0578 68.168 19.7591 68.392C19.4605 68.616 19.0978 68.8027 18.6711 68.952C18.2445 69.0907 17.7538 69.16 17.1991 69.16ZM15.0231 64.232H19.4071V64.184C19.4071 63.704 19.3165 63.2773 19.1351 62.904C18.9645 62.5307 18.7138 62.2373 18.3831 62.024C18.0525 61.8 17.6578 61.688 17.1991 61.688C16.7405 61.688 16.3458 61.8 16.0151 62.024C15.6951 62.2373 15.4498 62.5307 15.2791 62.904C15.1085 63.2773 15.0231 63.704 15.0231 64.184V64.232ZM25.7203 69.16C25.1229 69.16 24.6109 69.0853 24.1843 68.936C23.7576 68.7867 23.4109 68.6053 23.1443 68.392C22.8776 68.1787 22.6749 67.9653 22.5363 67.752C22.4083 67.5387 22.3389 67.368 22.3283 67.24C22.3176 67.1227 22.3549 67.032 22.4403 66.968C22.5256 66.904 22.6109 66.872 22.6963 66.872H23.4003C23.4643 66.872 23.5123 66.8827 23.5443 66.904C23.5869 66.9147 23.6403 66.9573 23.7043 67.032C23.8429 67.1813 23.9976 67.3307 24.1683 67.48C24.3389 67.6293 24.5469 67.752 24.7923 67.848C25.0483 67.944 25.3629 67.992 25.7363 67.992C26.2803 67.992 26.7283 67.8907 27.0803 67.688C27.4323 67.4747 27.6083 67.1653 27.6083 66.76C27.6083 66.4933 27.5336 66.28 27.3843 66.12C27.2456 65.96 26.9896 65.816 26.6163 65.688C26.2536 65.56 25.7523 65.4267 25.1123 65.288C24.4723 65.1387 23.9656 64.9573 23.5923 64.744C23.2189 64.52 22.9523 64.2587 22.7923 63.96C22.6323 63.6507 22.5523 63.304 22.5523 62.92C22.5523 62.5253 22.6696 62.1467 22.9043 61.784C23.1389 61.4107 23.4803 61.1067 23.9283 60.872C24.3869 60.6373 24.9576 60.52 25.6403 60.52C26.1949 60.52 26.6696 60.5893 27.0643 60.728C27.4589 60.8667 27.7843 61.0427 28.0403 61.256C28.2963 61.4587 28.4883 61.6613 28.6163 61.864C28.7443 62.0667 28.8136 62.2373 28.8243 62.376C28.8349 62.4827 28.8029 62.5733 28.7283 62.648C28.6536 62.712 28.5683 62.744 28.4723 62.744H27.8003C27.7256 62.744 27.6616 62.728 27.6083 62.696C27.5656 62.664 27.5229 62.6267 27.4803 62.584C27.3736 62.4453 27.2456 62.3067 27.0963 62.168C26.9576 62.0293 26.7709 61.9173 26.5363 61.832C26.3123 61.736 26.0136 61.688 25.6403 61.688C25.1069 61.688 24.7069 61.8 24.4403 62.024C24.1736 62.248 24.0403 62.5307 24.0403 62.872C24.0403 63.0747 24.0989 63.256 24.2163 63.416C24.3336 63.576 24.5576 63.72 24.8883 63.848C25.2189 63.976 25.7096 64.1147 26.3602 64.264C27.0643 64.4027 27.6189 64.5893 28.0243 64.824C28.4296 65.0587 28.7176 65.3307 28.8883 65.64C29.0589 65.9493 29.1443 66.3067 29.1443 66.712C29.1443 67.16 29.0109 67.5707 28.7443 67.944C28.4883 68.3173 28.1043 68.616 27.5923 68.84C27.0909 69.0533 26.4669 69.16 25.7203 69.16ZM33.8765 69.16C33.2792 69.16 32.7672 69.0853 32.3405 68.936C31.9138 68.7867 31.5672 68.6053 31.3005 68.392C31.0338 68.1787 30.8312 67.9653 30.6925 67.752C30.5645 67.5387 30.4952 67.368 30.4845 67.24C30.4738 67.1227 30.5112 67.032 30.5965 66.968C30.6818 66.904 30.7672 66.872 30.8525 66.872H31.5565C31.6205 66.872 31.6685 66.8827 31.7005 66.904C31.7432 66.9147 31.7965 66.9573 31.8605 67.032C31.9992 67.1813 32.1538 67.3307 32.3245 67.48C32.4952 67.6293 32.7032 67.752 32.9485 67.848C33.2045 67.944 33.5192 67.992 33.8925 67.992C34.4365 67.992 34.8845 67.8907 35.2365 67.688C35.5885 67.4747 35.7645 67.1653 35.7645 66.76C35.7645 66.4933 35.6898 66.28 35.5405 66.12C35.4018 65.96 35.1458 65.816 34.7725 65.688C34.4098 65.56 33.9085 65.4267 33.2685 65.288C32.6285 65.1387 32.1218 64.9573 31.7485 64.744C31.3752 64.52 31.1085 64.2587 30.9485 63.96C30.7885 63.6507 30.7085 63.304 30.7085 62.92C30.7085 62.5253 30.8258 62.1467 31.0605 61.784C31.2952 61.4107 31.6365 61.1067 32.0845 60.872C32.5432 60.6373 33.1138 60.52 33.7965 60.52C34.3512 60.52 34.8258 60.5893 35.2205 60.728C35.6152 60.8667 35.9405 61.0427 36.1965 61.256C36.4525 61.4587 36.6445 61.6613 36.7725 61.864C36.9005 62.0667 36.9698 62.2373 36.9805 62.376C36.9912 62.4827 36.9592 62.5733 36.8845 62.648C36.8098 62.712 36.7245 62.744 36.6285 62.744H35.9565C35.8818 62.744 35.8178 62.728 35.7645 62.696C35.7218 62.664 35.6792 62.6267 35.6365 62.584C35.5298 62.4453 35.4018 62.3067 35.2525 62.168C35.1138 62.0293 34.9272 61.9173 34.6925 61.832C34.4685 61.736 34.1698 61.688 33.7965 61.688C33.2632 61.688 32.8632 61.8 32.5965 62.024C32.3298 62.248 32.1965 62.5307 32.1965 62.872C32.1965 63.0747 32.2552 63.256 32.3725 63.416C32.4898 63.576 32.7138 63.72 33.0445 63.848C33.3752 63.976 33.8658 64.1147 34.5165 64.264C35.2205 64.4027 35.7752 64.5893 36.1805 64.824C36.5858 65.0587 36.8738 65.3307 37.0445 65.64C37.2152 65.9493 37.3005 66.3067 37.3005 66.712C37.3005 67.16 37.1672 67.5707 36.9005 67.944C36.6445 68.3173 36.2605 68.616 35.7485 68.84C35.2472 69.0533 34.6232 69.16 33.8765 69.16ZM41.4728 69.16C40.9394 69.16 40.4541 69.0533 40.0168 68.84C39.5794 68.6267 39.2274 68.3387 38.9608 67.976C38.6941 67.6133 38.5608 67.2027 38.5608 66.744C38.5608 66.008 38.8594 65.4213 39.4568 64.984C40.0541 64.5467 40.8328 64.2587 41.7928 64.12L44.1768 63.784V63.32C44.1768 62.808 44.0274 62.408 43.7288 62.12C43.4408 61.832 42.9661 61.688 42.3048 61.688C41.8248 61.688 41.4354 61.784 41.1368 61.976C40.8488 62.168 40.6461 62.4133 40.5288 62.712C40.4648 62.872 40.3528 62.952 40.1928 62.952H39.4728C39.3554 62.952 39.2648 62.92 39.2008 62.856C39.1474 62.7813 39.1208 62.696 39.1208 62.6C39.1208 62.44 39.1794 62.2427 39.2968 62.008C39.4248 61.7733 39.6168 61.544 39.8728 61.32C40.1288 61.096 40.4541 60.9093 40.8488 60.76C41.2541 60.6 41.7448 60.52 42.3208 60.52C42.9608 60.52 43.4994 60.6053 43.9368 60.776C44.3741 60.936 44.7154 61.1547 44.9608 61.432C45.2168 61.7093 45.3981 62.024 45.5048 62.376C45.6221 62.728 45.6808 63.0853 45.6808 63.448V68.632C45.6808 68.7387 45.6434 68.8293 45.5688 68.904C45.5048 68.968 45.4194 69 45.3128 69H44.5768C44.4594 69 44.3688 68.968 44.3048 68.904C44.2408 68.8293 44.2088 68.7387 44.2088 68.632V67.944C44.0701 68.136 43.8834 68.328 43.6488 68.52C43.4141 68.7013 43.1208 68.856 42.7688 68.984C42.4168 69.1013 41.9848 69.16 41.4728 69.16ZM41.8088 67.96C42.2461 67.96 42.6461 67.8693 43.0088 67.688C43.3714 67.496 43.6541 67.2027 43.8568 66.808C44.0701 66.4133 44.1768 65.9173 44.1768 65.32V64.872L42.3208 65.144C41.5634 65.2507 40.9928 65.432 40.6088 65.688C40.2248 65.9333 40.0328 66.248 40.0328 66.632C40.0328 66.9307 40.1181 67.1813 40.2888 67.384C40.4701 67.576 40.6941 67.72 40.9608 67.816C41.2381 67.912 41.5208 67.96 41.8088 67.96ZM51.3889 72.52C50.6635 72.52 50.0662 72.424 49.5969 72.232C49.1382 72.04 48.7755 71.8053 48.5089 71.528C48.2529 71.2613 48.0662 70.9893 47.9489 70.712C47.8422 70.4453 47.7835 70.232 47.7729 70.072C47.7622 69.9653 47.7942 69.8747 47.8689 69.8C47.9542 69.7253 48.0449 69.688 48.1409 69.688H48.9089C49.0049 69.688 49.0849 69.7093 49.1489 69.752C49.2129 69.7947 49.2662 69.8853 49.3089 70.024C49.3729 70.184 49.4689 70.36 49.5969 70.552C49.7249 70.7547 49.9222 70.9253 50.1889 71.064C50.4555 71.2133 50.8289 71.288 51.3089 71.288C51.8102 71.288 52.2315 71.2187 52.5729 71.08C52.9142 70.952 53.1702 70.7173 53.3409 70.376C53.5222 70.0453 53.6129 69.5867 53.6129 69V67.912C53.3569 68.2427 53.0209 68.52 52.6049 68.744C52.1889 68.9573 51.6662 69.064 51.0369 69.064C50.4395 69.064 49.9275 68.9627 49.5009 68.76C49.0742 68.5467 48.7222 68.264 48.4449 67.912C48.1782 67.5493 47.9755 67.1387 47.8369 66.68C47.7089 66.2213 47.6342 65.7413 47.6129 65.24C47.6022 64.9413 47.6022 64.648 47.6129 64.36C47.6342 63.8587 47.7089 63.3787 47.8369 62.92C47.9755 62.4613 48.1782 62.0507 48.4449 61.688C48.7222 61.3253 49.0742 61.0427 49.5009 60.84C49.9275 60.6267 50.4395 60.52 51.0369 60.52C51.6769 60.52 52.2049 60.6427 52.6209 60.888C53.0475 61.1227 53.3942 61.4107 53.6609 61.752V61.064C53.6609 60.9573 53.6929 60.8667 53.7569 60.792C53.8315 60.7173 53.9222 60.68 54.0289 60.68H54.7649C54.8715 60.68 54.9622 60.7173 55.0369 60.792C55.1115 60.8667 55.1489 60.9573 55.1489 61.064V68.824C55.1489 69.5387 55.0262 70.1733 54.7809 70.728C54.5462 71.2827 54.1515 71.72 53.5969 72.04C53.0529 72.36 52.3169 72.52 51.3889 72.52ZM51.3569 67.784C51.8902 67.784 52.3169 67.6613 52.6369 67.416C52.9675 67.1707 53.2075 66.8613 53.3569 66.488C53.5169 66.1147 53.6022 65.736 53.6129 65.352C53.6235 65.2027 53.6289 65.0213 53.6289 64.808C53.6289 64.584 53.6235 64.3973 53.6129 64.248C53.6022 63.864 53.5169 63.4853 53.3569 63.112C53.2075 62.7387 52.9675 62.4293 52.6369 62.184C52.3169 61.9387 51.8902 61.816 51.3569 61.816C50.8235 61.816 50.3969 61.9387 50.0769 62.184C49.7569 62.4187 49.5275 62.7333 49.3889 63.128C49.2502 63.512 49.1702 63.928 49.1489 64.376C49.1382 64.6533 49.1382 64.936 49.1489 65.224C49.1702 65.672 49.2502 66.0933 49.3889 66.488C49.5275 66.872 49.7569 67.1867 50.0769 67.432C50.3969 67.6667 50.8235 67.784 51.3569 67.784ZM60.8398 69.16C59.7411 69.16 58.8664 68.824 58.2158 68.152C57.5651 67.4693 57.2078 66.5413 57.1438 65.368C57.1331 65.2293 57.1278 65.0533 57.1278 64.84C57.1278 64.616 57.1331 64.4347 57.1438 64.296C57.1864 63.5387 57.3624 62.8773 57.6718 62.312C57.9811 61.736 58.4024 61.2933 58.9358 60.984C59.4798 60.6747 60.1144 60.52 60.8398 60.52C61.6504 60.52 62.3278 60.6907 62.8718 61.032C63.4264 61.3733 63.8478 61.8587 64.1358 62.488C64.4238 63.1173 64.5677 63.8533 64.5677 64.696V64.968C64.5677 65.0853 64.5304 65.176 64.4558 65.24C64.3918 65.304 64.3064 65.336 64.1998 65.336H58.6638C58.6638 65.3467 58.6638 65.368 58.6638 65.4C58.6638 65.432 58.6638 65.4587 58.6638 65.48C58.6851 65.9173 58.7811 66.328 58.9518 66.712C59.1224 67.0853 59.3678 67.3893 59.6878 67.624C60.0078 67.8587 60.3918 67.976 60.8398 67.976C61.2238 67.976 61.5438 67.9173 61.7998 67.8C62.0558 67.6827 62.2638 67.5547 62.4238 67.416C62.5838 67.2667 62.6904 67.1547 62.7438 67.08C62.8398 66.9413 62.9144 66.8613 62.9678 66.84C63.0211 66.808 63.1064 66.792 63.2238 66.792H63.9918C64.0984 66.792 64.1838 66.824 64.2478 66.888C64.3224 66.9413 64.3544 67.0213 64.3438 67.128C64.3331 67.288 64.2478 67.4853 64.0878 67.72C63.9278 67.944 63.6984 68.168 63.3998 68.392C63.1011 68.616 62.7384 68.8027 62.3118 68.952C61.8851 69.0907 61.3944 69.16 60.8398 69.16ZM58.6638 64.232H63.0478V64.184C63.0478 63.704 62.9571 63.2773 62.7758 62.904C62.6051 62.5307 62.3544 62.2373 62.0238 62.024C61.6931 61.8 61.2984 61.688 60.8398 61.688C60.3811 61.688 59.9864 61.8 59.6558 62.024C59.3358 62.2373 59.0904 62.5307 58.9198 62.904C58.7491 63.2773 58.6638 63.704 58.6638 64.184V64.232ZM69.3609 69.16C68.7635 69.16 68.2515 69.0853 67.8249 68.936C67.3982 68.7867 67.0515 68.6053 66.7849 68.392C66.5182 68.1787 66.3155 67.9653 66.1769 67.752C66.0489 67.5387 65.9795 67.368 65.9689 67.24C65.9582 67.1227 65.9955 67.032 66.0809 66.968C66.1662 66.904 66.2515 66.872 66.3369 66.872H67.0409C67.1049 66.872 67.1529 66.8827 67.1849 66.904C67.2275 66.9147 67.2809 66.9573 67.3449 67.032C67.4835 67.1813 67.6382 67.3307 67.8089 67.48C67.9795 67.6293 68.1875 67.752 68.4329 67.848C68.6889 67.944 69.0035 67.992 69.3769 67.992C69.9209 67.992 70.3689 67.8907 70.7209 67.688C71.0729 67.4747 71.2489 67.1653 71.2489 66.76C71.2489 66.4933 71.1742 66.28 71.0249 66.12C70.8862 65.96 70.6302 65.816 70.2569 65.688C69.8942 65.56 69.3929 65.4267 68.7529 65.288C68.1129 65.1387 67.6062 64.9573 67.2329 64.744C66.8595 64.52 66.5929 64.2587 66.4329 63.96C66.2729 63.6507 66.1929 63.304 66.1929 62.92C66.1929 62.5253 66.3102 62.1467 66.5449 61.784C66.7795 61.4107 67.1209 61.1067 67.5689 60.872C68.0275 60.6373 68.5982 60.52 69.2809 60.52C69.8355 60.52 70.3102 60.5893 70.7049 60.728C71.0995 60.8667 71.4249 61.0427 71.6809 61.256C71.9369 61.4587 72.1289 61.6613 72.2569 61.864C72.3849 62.0667 72.4542 62.2373 72.4649 62.376C72.4755 62.4827 72.4435 62.5733 72.3689 62.648C72.2942 62.712 72.2089 62.744 72.1129 62.744H71.4409C71.3662 62.744 71.3022 62.728 71.2489 62.696C71.2062 62.664 71.1635 62.6267 71.1209 62.584C71.0142 62.4453 70.8862 62.3067 70.7369 62.168C70.5982 62.0293 70.4115 61.9173 70.1769 61.832C69.9529 61.736 69.6542 61.688 69.2809 61.688C68.7475 61.688 68.3475 61.8 68.0809 62.024C67.8142 62.248 67.6809 62.5307 67.6809 62.872C67.6809 63.0747 67.7395 63.256 67.8569 63.416C67.9742 63.576 68.1982 63.72 68.5289 63.848C68.8595 63.976 69.3502 64.1147 70.0009 64.264C70.7049 64.4027 71.2595 64.5893 71.6649 64.824C72.0702 65.0587 72.3582 65.3307 72.5289 65.64C72.6995 65.9493 72.7849 66.3067 72.7849 66.712C72.7849 67.16 72.6515 67.5707 72.3849 67.944C72.1289 68.3173 71.7449 68.616 71.2329 68.84C70.7315 69.0533 70.1075 69.16 69.3609 69.16Z" fill="white"/>
</svg>
