<svg width="97" height="87" viewBox="0 0 97 87" fill="none" xmlns="http://www.w3.org/2000/svg">
<path fill-rule="evenodd" clip-rule="evenodd" d="M35 20C35 18.8954 35.8954 18 37 18H59C60.1046 18 61 18.8954 61 20V36C61 37.1046 60.1046 38 59 38H37C35.8954 38 35 37.1046 35 36V20ZM59 20H37V36H59V20Z" fill="white"/>
<path fill-rule="evenodd" clip-rule="evenodd" d="M42.8787 14.8787C43.4413 14.3161 44.2044 14 45 14H51C51.7956 14 52.5587 14.3161 53.1213 14.8787C53.6839 15.4413 54 16.2043 54 17V37C54 37.5523 53.5523 38 53 38C52.4477 38 52 37.5523 52 37V17C52 16.7348 51.8946 16.4804 51.7071 16.2929C51.5196 16.1054 51.2652 16 51 16H45C44.7348 16 44.4804 16.1054 44.2929 16.2929C44.1054 16.4804 44 16.7348 44 17V37C44 37.5523 43.5523 38 43 38C42.4477 38 42 37.5523 42 37V17C42 16.2043 42.3161 15.4413 42.8787 14.8787Z" fill="white"/>
<path d="M14.72 69C14.56 69 14.432 68.9627 14.336 68.888C14.2507 68.8133 14.1813 68.712 14.128 68.584L10.56 58.296C10.5387 58.232 10.528 58.1733 10.528 58.12C10.528 58.0347 10.56 57.96 10.624 57.896C10.688 57.832 10.7627 57.8 10.848 57.8H11.68C11.808 57.8 11.904 57.8373 11.968 57.912C12.0427 57.976 12.0853 58.0347 12.096 58.088L15.232 67.16L18.368 58.088C18.3893 58.0347 18.432 57.976 18.496 57.912C18.56 57.8373 18.656 57.8 18.784 57.8H19.616C19.7013 57.8 19.776 57.832 19.84 57.896C19.9147 57.96 19.952 58.0347 19.952 58.12C19.952 58.1733 19.9413 58.232 19.92 58.296L16.336 68.584C16.2933 68.712 16.224 68.8133 16.128 68.888C16.0427 68.9627 15.92 69 15.76 69H14.72ZM23.0821 69.16C22.5488 69.16 22.0635 69.0533 21.6261 68.84C21.1888 68.6267 20.8368 68.3387 20.5701 67.976C20.3035 67.6133 20.1701 67.2027 20.1701 66.744C20.1701 66.008 20.4688 65.4213 21.0661 64.984C21.6635 64.5467 22.4421 64.2587 23.4021 64.12L25.7861 63.784V63.32C25.7861 62.808 25.6368 62.408 25.3381 62.12C25.0501 61.832 24.5755 61.688 23.9141 61.688C23.4341 61.688 23.0448 61.784 22.7461 61.976C22.4581 62.168 22.2555 62.4133 22.1381 62.712C22.0741 62.872 21.9621 62.952 21.8021 62.952H21.0821C20.9648 62.952 20.8741 62.92 20.8101 62.856C20.7568 62.7813 20.7301 62.696 20.7301 62.6C20.7301 62.44 20.7888 62.2427 20.9061 62.008C21.0341 61.7733 21.2261 61.544 21.4821 61.32C21.7381 61.096 22.0635 60.9093 22.4581 60.76C22.8635 60.6 23.3541 60.52 23.9301 60.52C24.5701 60.52 25.1088 60.6053 25.5461 60.776C25.9835 60.936 26.3248 61.1547 26.5701 61.432C26.8261 61.7093 27.0075 62.024 27.1141 62.376C27.2315 62.728 27.2901 63.0853 27.2901 63.448V68.632C27.2901 68.7387 27.2528 68.8293 27.1781 68.904C27.1141 68.968 27.0288 69 26.9221 69H26.1861C26.0688 69 25.9781 68.968 25.9141 68.904C25.8501 68.8293 25.8181 68.7387 25.8181 68.632V67.944C25.6795 68.136 25.4928 68.328 25.2581 68.52C25.0235 68.7013 24.7301 68.856 24.3781 68.984C24.0261 69.1013 23.5941 69.16 23.0821 69.16ZM23.4181 67.96C23.8555 67.96 24.2555 67.8693 24.6181 67.688C24.9808 67.496 25.2635 67.2027 25.4661 66.808C25.6795 66.4133 25.7861 65.9173 25.7861 65.32V64.872L23.9301 65.144C23.1728 65.2507 22.6021 65.432 22.2181 65.688C21.8341 65.9333 21.6421 66.248 21.6421 66.632C21.6421 66.9307 21.7275 67.1813 21.8981 67.384C22.0795 67.576 22.3035 67.72 22.5701 67.816C22.8475 67.912 23.1301 67.96 23.4181 67.96ZM32.9503 69.16C32.1929 69.16 31.5369 69.016 30.9823 68.728C30.4383 68.4293 30.0169 68.008 29.7183 67.464C29.4196 66.9093 29.2596 66.248 29.2383 65.48C29.2276 65.32 29.2223 65.1067 29.2223 64.84C29.2223 64.5733 29.2276 64.36 29.2383 64.2C29.2596 63.432 29.4196 62.776 29.7183 62.232C30.0169 61.6773 30.4383 61.256 30.9823 60.968C31.5369 60.6693 32.1929 60.52 32.9503 60.52C33.5689 60.52 34.0969 60.6053 34.5343 60.776C34.9823 60.9467 35.3503 61.1653 35.6383 61.432C35.9263 61.6987 36.1396 61.9867 36.2783 62.296C36.4276 62.6053 36.5076 62.8987 36.5183 63.176C36.5289 63.2827 36.4969 63.368 36.4223 63.432C36.3476 63.496 36.2569 63.528 36.1503 63.528H35.3823C35.2756 63.528 35.1956 63.5067 35.1423 63.464C35.0889 63.4107 35.0356 63.3253 34.9823 63.208C34.7903 62.6853 34.5289 62.3173 34.1983 62.104C33.8676 61.8907 33.4569 61.784 32.9663 61.784C32.3263 61.784 31.8036 61.9813 31.3983 62.376C31.0036 62.7707 30.7903 63.4053 30.7582 64.28C30.7476 64.664 30.7476 65.0373 30.7582 65.4C30.7903 66.2853 31.0036 66.9253 31.3983 67.32C31.8036 67.704 32.3263 67.896 32.9663 67.896C33.4569 67.896 33.8676 67.7893 34.1983 67.576C34.5289 67.3627 34.7903 66.9947 34.9823 66.472C35.0356 66.3547 35.0889 66.2747 35.1423 66.232C35.1956 66.1787 35.2756 66.152 35.3823 66.152H36.1503C36.2569 66.152 36.3476 66.184 36.4223 66.248C36.4969 66.312 36.5289 66.3973 36.5183 66.504C36.5076 66.728 36.4596 66.9573 36.3743 67.192C36.2889 67.4267 36.1503 67.6667 35.9583 67.912C35.7769 68.1467 35.5476 68.36 35.2703 68.552C34.9929 68.7333 34.6569 68.8827 34.2623 69C33.8783 69.1067 33.4409 69.16 32.9503 69.16ZM40.7384 69.16C40.205 69.16 39.7197 69.0533 39.2824 68.84C38.845 68.6267 38.493 68.3387 38.2264 67.976C37.9597 67.6133 37.8264 67.2027 37.8264 66.744C37.8264 66.008 38.125 65.4213 38.7224 64.984C39.3197 64.5467 40.0984 64.2587 41.0584 64.12L43.4424 63.784V63.32C43.4424 62.808 43.293 62.408 42.9944 62.12C42.7064 61.832 42.2317 61.688 41.5704 61.688C41.0904 61.688 40.701 61.784 40.4024 61.976C40.1144 62.168 39.9117 62.4133 39.7944 62.712C39.7304 62.872 39.6184 62.952 39.4584 62.952H38.7384C38.621 62.952 38.5304 62.92 38.4664 62.856C38.413 62.7813 38.3864 62.696 38.3864 62.6C38.3864 62.44 38.445 62.2427 38.5624 62.008C38.6904 61.7733 38.8824 61.544 39.1384 61.32C39.3944 61.096 39.7197 60.9093 40.1144 60.76C40.5197 60.6 41.0104 60.52 41.5864 60.52C42.2264 60.52 42.765 60.6053 43.2024 60.776C43.6397 60.936 43.981 61.1547 44.2264 61.432C44.4824 61.7093 44.6637 62.024 44.7704 62.376C44.8877 62.728 44.9464 63.0853 44.9464 63.448V68.632C44.9464 68.7387 44.909 68.8293 44.8344 68.904C44.7704 68.968 44.685 69 44.5784 69H43.8424C43.725 69 43.6344 68.968 43.5704 68.904C43.5064 68.8293 43.4744 68.7387 43.4744 68.632V67.944C43.3357 68.136 43.149 68.328 42.9144 68.52C42.6797 68.7013 42.3864 68.856 42.0344 68.984C41.6824 69.1013 41.2504 69.16 40.7384 69.16ZM41.0744 67.96C41.5117 67.96 41.9117 67.8693 42.2744 67.688C42.637 67.496 42.9197 67.2027 43.1224 66.808C43.3357 66.4133 43.4424 65.9173 43.4424 65.32V64.872L41.5864 65.144C40.829 65.2507 40.2584 65.432 39.8744 65.688C39.4904 65.9333 39.2984 66.248 39.2984 66.632C39.2984 66.9307 39.3837 67.1813 39.5544 67.384C39.7357 67.576 39.9597 67.72 40.2264 67.816C40.5037 67.912 40.7864 67.96 41.0744 67.96ZM47.6145 69C47.5078 69 47.4172 68.968 47.3425 68.904C47.2785 68.8293 47.2465 68.7387 47.2465 68.632V61.048C47.2465 60.9413 47.2785 60.856 47.3425 60.792C47.4172 60.7173 47.5078 60.68 47.6145 60.68H48.3665C48.4732 60.68 48.5585 60.7173 48.6225 60.792C48.6972 60.856 48.7345 60.9413 48.7345 61.048V61.752C49.0118 61.3893 49.3585 61.096 49.7745 60.872C50.2012 60.6373 50.7452 60.52 51.4065 60.52C52.0998 60.52 52.6865 60.6747 53.1665 60.984C53.6572 61.2827 54.0252 61.704 54.2705 62.248C54.5158 62.7813 54.6385 63.4053 54.6385 64.12V68.632C54.6385 68.7387 54.6065 68.8293 54.5425 68.904C54.4785 68.968 54.3932 69 54.2865 69H53.4865C53.3798 69 53.2892 68.968 53.2145 68.904C53.1505 68.8293 53.1185 68.7387 53.1185 68.632V64.2C53.1185 63.4533 52.9372 62.872 52.5745 62.456C52.2118 62.0293 51.6785 61.816 50.9745 61.816C50.3132 61.816 49.7798 62.0293 49.3745 62.456C48.9798 62.872 48.7825 63.4533 48.7825 64.2V68.632C48.7825 68.7387 48.7452 68.8293 48.6705 68.904C48.6065 68.968 48.5212 69 48.4145 69H47.6145ZM60.3096 69.16C59.5523 69.16 58.8963 69.016 58.3416 68.728C57.7976 68.4293 57.3763 68.008 57.0776 67.464C56.779 66.9093 56.619 66.248 56.5976 65.48C56.587 65.32 56.5816 65.1067 56.5816 64.84C56.5816 64.5733 56.587 64.36 56.5976 64.2C56.619 63.432 56.779 62.776 57.0776 62.232C57.3763 61.6773 57.7976 61.256 58.3416 60.968C58.8963 60.6693 59.5523 60.52 60.3096 60.52C60.9283 60.52 61.4563 60.6053 61.8936 60.776C62.3416 60.9467 62.7096 61.1653 62.9976 61.432C63.2856 61.6987 63.499 61.9867 63.6376 62.296C63.787 62.6053 63.867 62.8987 63.8776 63.176C63.8883 63.2827 63.8563 63.368 63.7816 63.432C63.707 63.496 63.6163 63.528 63.5096 63.528H62.7416C62.635 63.528 62.555 63.5067 62.5016 63.464C62.4483 63.4107 62.395 63.3253 62.3416 63.208C62.1496 62.6853 61.8883 62.3173 61.5576 62.104C61.227 61.8907 60.8163 61.784 60.3256 61.784C59.6856 61.784 59.163 61.9813 58.7576 62.376C58.363 62.7707 58.1496 63.4053 58.1176 64.28C58.107 64.664 58.107 65.0373 58.1176 65.4C58.1496 66.2853 58.363 66.9253 58.7576 67.32C59.163 67.704 59.6856 67.896 60.3256 67.896C60.8163 67.896 61.227 67.7893 61.5576 67.576C61.8883 67.3627 62.1496 66.9947 62.3416 66.472C62.395 66.3547 62.4483 66.2747 62.5016 66.232C62.555 66.1787 62.635 66.152 62.7416 66.152H63.5096C63.6163 66.152 63.707 66.184 63.7816 66.248C63.8563 66.312 63.8883 66.3973 63.8776 66.504C63.867 66.728 63.819 66.9573 63.7336 67.192C63.6483 67.4267 63.5096 67.6667 63.3176 67.912C63.1363 68.1467 62.907 68.36 62.6296 68.552C62.3523 68.7333 62.0163 68.8827 61.6216 69C61.2376 69.1067 60.8003 69.16 60.3096 69.16ZM66.1458 69C66.0391 69 65.9484 68.968 65.8738 68.904C65.8098 68.8293 65.7778 68.7387 65.7778 68.632V61.048C65.7778 60.9413 65.8098 60.856 65.8738 60.792C65.9484 60.7173 66.0391 60.68 66.1458 60.68H66.9138C67.0204 60.68 67.1058 60.7173 67.1698 60.792C67.2338 60.856 67.2658 60.9413 67.2658 61.048V68.632C67.2658 68.7387 67.2338 68.8293 67.1698 68.904C67.1058 68.968 67.0204 69 66.9138 69H66.1458ZM66.0178 59.128C65.9111 59.128 65.8204 59.096 65.7458 59.032C65.6818 58.9573 65.6497 58.8667 65.6497 58.76V57.896C65.6497 57.7893 65.6818 57.704 65.7458 57.64C65.8204 57.5653 65.9111 57.528 66.0178 57.528H67.0258C67.1324 57.528 67.2178 57.5653 67.2818 57.64C67.3564 57.704 67.3938 57.7893 67.3938 57.896V58.76C67.3938 58.8667 67.3564 58.9573 67.2818 59.032C67.2178 59.096 67.1324 59.128 67.0258 59.128H66.0178ZM72.9648 69.16C71.8661 69.16 70.9914 68.824 70.3408 68.152C69.6901 67.4693 69.3328 66.5413 69.2688 65.368C69.2581 65.2293 69.2528 65.0533 69.2528 64.84C69.2528 64.616 69.2581 64.4347 69.2688 64.296C69.3114 63.5387 69.4874 62.8773 69.7968 62.312C70.1061 61.736 70.5274 61.2933 71.0608 60.984C71.6048 60.6747 72.2394 60.52 72.9648 60.52C73.7754 60.52 74.4528 60.6907 74.9968 61.032C75.5514 61.3733 75.9728 61.8587 76.2608 62.488C76.5488 63.1173 76.6927 63.8533 76.6927 64.696V64.968C76.6927 65.0853 76.6554 65.176 76.5808 65.24C76.5168 65.304 76.4314 65.336 76.3248 65.336H70.7888C70.7888 65.3467 70.7888 65.368 70.7888 65.4C70.7888 65.432 70.7888 65.4587 70.7888 65.48C70.8101 65.9173 70.9061 66.328 71.0768 66.712C71.2474 67.0853 71.4928 67.3893 71.8128 67.624C72.1328 67.8587 72.5168 67.976 72.9648 67.976C73.3488 67.976 73.6688 67.9173 73.9248 67.8C74.1808 67.6827 74.3888 67.5547 74.5488 67.416C74.7088 67.2667 74.8154 67.1547 74.8688 67.08C74.9648 66.9413 75.0394 66.8613 75.0928 66.84C75.1461 66.808 75.2314 66.792 75.3488 66.792H76.1168C76.2234 66.792 76.3088 66.824 76.3728 66.888C76.4474 66.9413 76.4794 67.0213 76.4688 67.128C76.4581 67.288 76.3728 67.4853 76.2128 67.72C76.0528 67.944 75.8234 68.168 75.5248 68.392C75.2261 68.616 74.8634 68.8027 74.4368 68.952C74.0101 69.0907 73.5194 69.16 72.9648 69.16ZM70.7888 64.232H75.1728V64.184C75.1728 63.704 75.0821 63.2773 74.9008 62.904C74.7301 62.5307 74.4794 62.2373 74.1488 62.024C73.8181 61.8 73.4234 61.688 72.9648 61.688C72.5061 61.688 72.1114 61.8 71.7808 62.024C71.4608 62.2373 71.2154 62.5307 71.0448 62.904C70.8741 63.2773 70.7888 63.704 70.7888 64.184V64.232ZM81.4859 69.16C80.8885 69.16 80.3765 69.0853 79.9499 68.936C79.5232 68.7867 79.1765 68.6053 78.9099 68.392C78.6432 68.1787 78.4405 67.9653 78.3019 67.752C78.1739 67.5387 78.1045 67.368 78.0939 67.24C78.0832 67.1227 78.1205 67.032 78.2059 66.968C78.2912 66.904 78.3765 66.872 78.4619 66.872H79.1659C79.2299 66.872 79.2779 66.8827 79.3099 66.904C79.3525 66.9147 79.4059 66.9573 79.4699 67.032C79.6085 67.1813 79.7632 67.3307 79.9339 67.48C80.1045 67.6293 80.3125 67.752 80.5579 67.848C80.8139 67.944 81.1285 67.992 81.5019 67.992C82.0459 67.992 82.4939 67.8907 82.8459 67.688C83.1979 67.4747 83.3739 67.1653 83.3739 66.76C83.3739 66.4933 83.2992 66.28 83.1499 66.12C83.0112 65.96 82.7552 65.816 82.3819 65.688C82.0192 65.56 81.5179 65.4267 80.8779 65.288C80.2379 65.1387 79.7312 64.9573 79.3579 64.744C78.9845 64.52 78.7179 64.2587 78.5579 63.96C78.3979 63.6507 78.3179 63.304 78.3179 62.92C78.3179 62.5253 78.4352 62.1467 78.6699 61.784C78.9045 61.4107 79.2459 61.1067 79.6939 60.872C80.1525 60.6373 80.7232 60.52 81.4059 60.52C81.9605 60.52 82.4352 60.5893 82.8299 60.728C83.2245 60.8667 83.5499 61.0427 83.8059 61.256C84.0619 61.4587 84.2539 61.6613 84.3819 61.864C84.5099 62.0667 84.5792 62.2373 84.5899 62.376C84.6005 62.4827 84.5685 62.5733 84.4939 62.648C84.4192 62.712 84.3339 62.744 84.2379 62.744H83.5659C83.4912 62.744 83.4272 62.728 83.3739 62.696C83.3312 62.664 83.2885 62.6267 83.2459 62.584C83.1392 62.4453 83.0112 62.3067 82.8619 62.168C82.7232 62.0293 82.5365 61.9173 82.3019 61.832C82.0779 61.736 81.7792 61.688 81.4059 61.688C80.8725 61.688 80.4725 61.8 80.2059 62.024C79.9392 62.248 79.8059 62.5307 79.8059 62.872C79.8059 63.0747 79.8645 63.256 79.9819 63.416C80.0992 63.576 80.3232 63.72 80.6539 63.848C80.9845 63.976 81.4752 64.1147 82.1259 64.264C82.8299 64.4027 83.3845 64.5893 83.7899 64.824C84.1952 65.0587 84.4832 65.3307 84.6539 65.64C84.8245 65.9493 84.9099 66.3067 84.9099 66.712C84.9099 67.16 84.7765 67.5707 84.5099 67.944C84.2539 68.3173 83.8699 68.616 83.3579 68.84C82.8565 69.0533 82.2325 69.16 81.4859 69.16Z" fill="white"/>
<g filter="url(#filter0_f_2_26574)">
<path fill-rule="evenodd" clip-rule="evenodd" d="M35.3999 20C35.3999 18.8954 36.2953 18 37.3999 18H59.3999C60.5045 18 61.3999 18.8954 61.3999 20V36C61.3999 37.1046 60.5045 38 59.3999 38H37.3999C36.2953 38 35.3999 37.1046 35.3999 36V20ZM59.3999 20H37.3999V36H59.3999V20Z" fill="white"/>
<path fill-rule="evenodd" clip-rule="evenodd" d="M43.2786 14.8787C43.8412 14.3161 44.6043 14 45.3999 14H51.3999C52.1956 14 52.9586 14.3161 53.5212 14.8787C54.0838 15.4413 54.3999 16.2043 54.3999 17V37C54.3999 37.5523 53.9522 38 53.3999 38C52.8476 38 52.3999 37.5523 52.3999 37V17C52.3999 16.7348 52.2945 16.4804 52.107 16.2929C51.9195 16.1054 51.6651 16 51.3999 16H45.3999C45.1347 16 44.8803 16.1054 44.6928 16.2929C44.5053 16.4804 44.3999 16.7348 44.3999 17V37C44.3999 37.5523 43.9522 38 43.3999 38C42.8476 38 42.3999 37.5523 42.3999 37V17C42.3999 16.2043 42.716 15.4413 43.2786 14.8787Z" fill="white"/>
<path d="M15.1199 69C14.9599 69 14.8319 68.9627 14.7359 68.888C14.6506 68.8133 14.5812 68.712 14.5279 68.584L10.9599 58.296C10.9386 58.232 10.9279 58.1733 10.9279 58.12C10.9279 58.0347 10.9599 57.96 11.0239 57.896C11.0879 57.832 11.1626 57.8 11.2479 57.8H12.0799C12.2079 57.8 12.3039 57.8373 12.3679 57.912C12.4426 57.976 12.4852 58.0347 12.4959 58.088L15.6319 67.16L18.7679 58.088C18.7892 58.0347 18.8319 57.976 18.8959 57.912C18.9599 57.8373 19.0559 57.8 19.1839 57.8H20.0159C20.1012 57.8 20.1759 57.832 20.2399 57.896C20.3146 57.96 20.3519 58.0347 20.3519 58.12C20.3519 58.1733 20.3412 58.232 20.3199 58.296L16.7359 68.584C16.6932 68.712 16.6239 68.8133 16.5279 68.888C16.4426 68.9627 16.3199 69 16.1599 69H15.1199ZM23.482 69.16C22.9487 69.16 22.4634 69.0533 22.026 68.84C21.5887 68.6267 21.2367 68.3387 20.97 67.976C20.7034 67.6133 20.57 67.2027 20.57 66.744C20.57 66.008 20.8687 65.4213 21.466 64.984C22.0634 64.5467 22.842 64.2587 23.802 64.12L26.186 63.784V63.32C26.186 62.808 26.0367 62.408 25.738 62.12C25.45 61.832 24.9754 61.688 24.314 61.688C23.834 61.688 23.4447 61.784 23.146 61.976C22.858 62.168 22.6554 62.4133 22.538 62.712C22.474 62.872 22.362 62.952 22.202 62.952H21.482C21.3647 62.952 21.274 62.92 21.21 62.856C21.1567 62.7813 21.13 62.696 21.13 62.6C21.13 62.44 21.1887 62.2427 21.306 62.008C21.434 61.7733 21.626 61.544 21.882 61.32C22.138 61.096 22.4634 60.9093 22.858 60.76C23.2634 60.6 23.754 60.52 24.33 60.52C24.97 60.52 25.5087 60.6053 25.946 60.776C26.3834 60.936 26.7247 61.1547 26.97 61.432C27.226 61.7093 27.4074 62.024 27.514 62.376C27.6314 62.728 27.69 63.0853 27.69 63.448V68.632C27.69 68.7387 27.6527 68.8293 27.578 68.904C27.514 68.968 27.4287 69 27.322 69H26.586C26.4687 69 26.378 68.968 26.314 68.904C26.25 68.8293 26.218 68.7387 26.218 68.632V67.944C26.0794 68.136 25.8927 68.328 25.658 68.52C25.4234 68.7013 25.13 68.856 24.778 68.984C24.426 69.1013 23.994 69.16 23.482 69.16ZM23.818 67.96C24.2554 67.96 24.6554 67.8693 25.018 67.688C25.3807 67.496 25.6634 67.2027 25.866 66.808C26.0794 66.4133 26.186 65.9173 26.186 65.32V64.872L24.33 65.144C23.5727 65.2507 23.002 65.432 22.618 65.688C22.234 65.9333 22.042 66.248 22.042 66.632C22.042 66.9307 22.1274 67.1813 22.298 67.384C22.4794 67.576 22.7034 67.72 22.97 67.816C23.2474 67.912 23.53 67.96 23.818 67.96ZM33.3502 69.16C32.5928 69.16 31.9368 69.016 31.3822 68.728C30.8382 68.4293 30.4168 68.008 30.1182 67.464C29.8195 66.9093 29.6595 66.248 29.6382 65.48C29.6275 65.32 29.6222 65.1067 29.6222 64.84C29.6222 64.5733 29.6275 64.36 29.6382 64.2C29.6595 63.432 29.8195 62.776 30.1182 62.232C30.4168 61.6773 30.8382 61.256 31.3822 60.968C31.9368 60.6693 32.5928 60.52 33.3502 60.52C33.9688 60.52 34.4968 60.6053 34.9342 60.776C35.3822 60.9467 35.7502 61.1653 36.0382 61.432C36.3262 61.6987 36.5395 61.9867 36.6782 62.296C36.8275 62.6053 36.9075 62.8987 36.9182 63.176C36.9288 63.2827 36.8968 63.368 36.8222 63.432C36.7475 63.496 36.6568 63.528 36.5502 63.528H35.7822C35.6755 63.528 35.5955 63.5067 35.5422 63.464C35.4888 63.4107 35.4355 63.3253 35.3822 63.208C35.1902 62.6853 34.9288 62.3173 34.5982 62.104C34.2675 61.8907 33.8568 61.784 33.3662 61.784C32.7262 61.784 32.2035 61.9813 31.7982 62.376C31.4035 62.7707 31.1902 63.4053 31.1582 64.28C31.1475 64.664 31.1475 65.0373 31.1582 65.4C31.1902 66.2853 31.4035 66.9253 31.7982 67.32C32.2035 67.704 32.7262 67.896 33.3662 67.896C33.8568 67.896 34.2675 67.7893 34.5982 67.576C34.9288 67.3627 35.1902 66.9947 35.3822 66.472C35.4355 66.3547 35.4888 66.2747 35.5422 66.232C35.5955 66.1787 35.6755 66.152 35.7822 66.152H36.5502C36.6568 66.152 36.7475 66.184 36.8222 66.248C36.8968 66.312 36.9288 66.3973 36.9182 66.504C36.9075 66.728 36.8595 66.9573 36.7742 67.192C36.6888 67.4267 36.5502 67.6667 36.3582 67.912C36.1768 68.1467 35.9475 68.36 35.6702 68.552C35.3928 68.7333 35.0568 68.8827 34.6622 69C34.2782 69.1067 33.8408 69.16 33.3502 69.16ZM41.1383 69.16C40.6049 69.16 40.1196 69.0533 39.6823 68.84C39.2449 68.6267 38.8929 68.3387 38.6263 67.976C38.3596 67.6133 38.2263 67.2027 38.2263 66.744C38.2263 66.008 38.5249 65.4213 39.1223 64.984C39.7196 64.5467 40.4983 64.2587 41.4583 64.12L43.8423 63.784V63.32C43.8423 62.808 43.6929 62.408 43.3943 62.12C43.1063 61.832 42.6316 61.688 41.9703 61.688C41.4903 61.688 41.1009 61.784 40.8023 61.976C40.5143 62.168 40.3116 62.4133 40.1943 62.712C40.1303 62.872 40.0183 62.952 39.8583 62.952H39.1383C39.0209 62.952 38.9303 62.92 38.8663 62.856C38.8129 62.7813 38.7863 62.696 38.7863 62.6C38.7863 62.44 38.8449 62.2427 38.9623 62.008C39.0903 61.7733 39.2823 61.544 39.5383 61.32C39.7943 61.096 40.1196 60.9093 40.5143 60.76C40.9196 60.6 41.4103 60.52 41.9863 60.52C42.6263 60.52 43.1649 60.6053 43.6023 60.776C44.0396 60.936 44.3809 61.1547 44.6263 61.432C44.8823 61.7093 45.0636 62.024 45.1703 62.376C45.2876 62.728 45.3463 63.0853 45.3463 63.448V68.632C45.3463 68.7387 45.3089 68.8293 45.2343 68.904C45.1703 68.968 45.0849 69 44.9783 69H44.2423C44.1249 69 44.0343 68.968 43.9703 68.904C43.9063 68.8293 43.8743 68.7387 43.8743 68.632V67.944C43.7356 68.136 43.5489 68.328 43.3143 68.52C43.0796 68.7013 42.7863 68.856 42.4343 68.984C42.0823 69.1013 41.6503 69.16 41.1383 69.16ZM41.4743 67.96C41.9116 67.96 42.3116 67.8693 42.6743 67.688C43.0369 67.496 43.3196 67.2027 43.5223 66.808C43.7356 66.4133 43.8423 65.9173 43.8423 65.32V64.872L41.9863 65.144C41.2289 65.2507 40.6583 65.432 40.2743 65.688C39.8903 65.9333 39.6983 66.248 39.6983 66.632C39.6983 66.9307 39.7836 67.1813 39.9543 67.384C40.1356 67.576 40.3596 67.72 40.6263 67.816C40.9036 67.912 41.1863 67.96 41.4743 67.96ZM48.0144 69C47.9077 69 47.8171 68.968 47.7424 68.904C47.6784 68.8293 47.6464 68.7387 47.6464 68.632V61.048C47.6464 60.9413 47.6784 60.856 47.7424 60.792C47.8171 60.7173 47.9077 60.68 48.0144 60.68H48.7664C48.8731 60.68 48.9584 60.7173 49.0224 60.792C49.0971 60.856 49.1344 60.9413 49.1344 61.048V61.752C49.4117 61.3893 49.7584 61.096 50.1744 60.872C50.6011 60.6373 51.1451 60.52 51.8064 60.52C52.4997 60.52 53.0864 60.6747 53.5664 60.984C54.0571 61.2827 54.4251 61.704 54.6704 62.248C54.9157 62.7813 55.0384 63.4053 55.0384 64.12V68.632C55.0384 68.7387 55.0064 68.8293 54.9424 68.904C54.8784 68.968 54.7931 69 54.6864 69H53.8864C53.7797 69 53.6891 68.968 53.6144 68.904C53.5504 68.8293 53.5184 68.7387 53.5184 68.632V64.2C53.5184 63.4533 53.3371 62.872 52.9744 62.456C52.6117 62.0293 52.0784 61.816 51.3744 61.816C50.7131 61.816 50.1797 62.0293 49.7744 62.456C49.3797 62.872 49.1824 63.4533 49.1824 64.2V68.632C49.1824 68.7387 49.1451 68.8293 49.0704 68.904C49.0064 68.968 48.9211 69 48.8144 69H48.0144ZM60.7095 69.16C59.9522 69.16 59.2962 69.016 58.7415 68.728C58.1975 68.4293 57.7762 68.008 57.4775 67.464C57.1789 66.9093 57.0189 66.248 56.9975 65.48C56.9869 65.32 56.9815 65.1067 56.9815 64.84C56.9815 64.5733 56.9869 64.36 56.9975 64.2C57.0189 63.432 57.1789 62.776 57.4775 62.232C57.7762 61.6773 58.1975 61.256 58.7415 60.968C59.2962 60.6693 59.9522 60.52 60.7095 60.52C61.3282 60.52 61.8562 60.6053 62.2935 60.776C62.7415 60.9467 63.1095 61.1653 63.3975 61.432C63.6855 61.6987 63.8989 61.9867 64.0375 62.296C64.1869 62.6053 64.2669 62.8987 64.2775 63.176C64.2882 63.2827 64.2562 63.368 64.1815 63.432C64.1069 63.496 64.0162 63.528 63.9095 63.528H63.1415C63.0349 63.528 62.9549 63.5067 62.9015 63.464C62.8482 63.4107 62.7949 63.3253 62.7415 63.208C62.5495 62.6853 62.2882 62.3173 61.9575 62.104C61.6269 61.8907 61.2162 61.784 60.7255 61.784C60.0855 61.784 59.5629 61.9813 59.1575 62.376C58.7629 62.7707 58.5495 63.4053 58.5175 64.28C58.5069 64.664 58.5069 65.0373 58.5175 65.4C58.5495 66.2853 58.7629 66.9253 59.1575 67.32C59.5629 67.704 60.0855 67.896 60.7255 67.896C61.2162 67.896 61.6269 67.7893 61.9575 67.576C62.2882 67.3627 62.5495 66.9947 62.7415 66.472C62.7949 66.3547 62.8482 66.2747 62.9015 66.232C62.9549 66.1787 63.0349 66.152 63.1415 66.152H63.9095C64.0162 66.152 64.1069 66.184 64.1815 66.248C64.2562 66.312 64.2882 66.3973 64.2775 66.504C64.2669 66.728 64.2189 66.9573 64.1335 67.192C64.0482 67.4267 63.9095 67.6667 63.7175 67.912C63.5362 68.1467 63.3069 68.36 63.0295 68.552C62.7522 68.7333 62.4162 68.8827 62.0215 69C61.6375 69.1067 61.2002 69.16 60.7095 69.16ZM66.5457 69C66.439 69 66.3483 68.968 66.2737 68.904C66.2097 68.8293 66.1777 68.7387 66.1777 68.632V61.048C66.1777 60.9413 66.2097 60.856 66.2737 60.792C66.3483 60.7173 66.439 60.68 66.5457 60.68H67.3137C67.4203 60.68 67.5057 60.7173 67.5697 60.792C67.6337 60.856 67.6657 60.9413 67.6657 61.048V68.632C67.6657 68.7387 67.6337 68.8293 67.5697 68.904C67.5057 68.968 67.4203 69 67.3137 69H66.5457ZM66.4177 59.128C66.311 59.128 66.2203 59.096 66.1457 59.032C66.0817 58.9573 66.0497 58.8667 66.0497 58.76V57.896C66.0497 57.7893 66.0817 57.704 66.1457 57.64C66.2203 57.5653 66.311 57.528 66.4177 57.528H67.4257C67.5323 57.528 67.6177 57.5653 67.6817 57.64C67.7563 57.704 67.7937 57.7893 67.7937 57.896V58.76C67.7937 58.8667 67.7563 58.9573 67.6817 59.032C67.6177 59.096 67.5323 59.128 67.4257 59.128H66.4177ZM73.3647 69.16C72.266 69.16 71.3913 68.824 70.7407 68.152C70.09 67.4693 69.7327 66.5413 69.6687 65.368C69.658 65.2293 69.6527 65.0533 69.6527 64.84C69.6527 64.616 69.658 64.4347 69.6687 64.296C69.7113 63.5387 69.8873 62.8773 70.1967 62.312C70.506 61.736 70.9273 61.2933 71.4607 60.984C72.0047 60.6747 72.6393 60.52 73.3647 60.52C74.1753 60.52 74.8527 60.6907 75.3967 61.032C75.9513 61.3733 76.3727 61.8587 76.6607 62.488C76.9487 63.1173 77.0927 63.8533 77.0927 64.696V64.968C77.0927 65.0853 77.0553 65.176 76.9807 65.24C76.9167 65.304 76.8313 65.336 76.7247 65.336H71.1887C71.1887 65.3467 71.1887 65.368 71.1887 65.4C71.1887 65.432 71.1887 65.4587 71.1887 65.48C71.21 65.9173 71.306 66.328 71.4767 66.712C71.6473 67.0853 71.8927 67.3893 72.2127 67.624C72.5327 67.8587 72.9167 67.976 73.3647 67.976C73.7487 67.976 74.0687 67.9173 74.3247 67.8C74.5807 67.6827 74.7887 67.5547 74.9487 67.416C75.1087 67.2667 75.2153 67.1547 75.2687 67.08C75.3647 66.9413 75.4393 66.8613 75.4927 66.84C75.546 66.808 75.6313 66.792 75.7487 66.792H76.5167C76.6233 66.792 76.7087 66.824 76.7727 66.888C76.8473 66.9413 76.8793 67.0213 76.8687 67.128C76.858 67.288 76.7727 67.4853 76.6127 67.72C76.4527 67.944 76.2233 68.168 75.9247 68.392C75.626 68.616 75.2633 68.8027 74.8367 68.952C74.41 69.0907 73.9193 69.16 73.3647 69.16ZM71.1887 64.232H75.5727V64.184C75.5727 63.704 75.482 63.2773 75.3007 62.904C75.13 62.5307 74.8793 62.2373 74.5487 62.024C74.218 61.8 73.8233 61.688 73.3647 61.688C72.906 61.688 72.5113 61.8 72.1807 62.024C71.8607 62.2373 71.6153 62.5307 71.4447 62.904C71.274 63.2773 71.1887 63.704 71.1887 64.184V64.232ZM81.8858 69.16C81.2884 69.16 80.7764 69.0853 80.3498 68.936C79.9231 68.7867 79.5764 68.6053 79.3098 68.392C79.0431 68.1787 78.8404 67.9653 78.7018 67.752C78.5738 67.5387 78.5044 67.368 78.4938 67.24C78.4831 67.1227 78.5204 67.032 78.6058 66.968C78.6911 66.904 78.7764 66.872 78.8618 66.872H79.5658C79.6298 66.872 79.6778 66.8827 79.7098 66.904C79.7524 66.9147 79.8058 66.9573 79.8698 67.032C80.0084 67.1813 80.1631 67.3307 80.3338 67.48C80.5044 67.6293 80.7124 67.752 80.9578 67.848C81.2138 67.944 81.5284 67.992 81.9018 67.992C82.4458 67.992 82.8938 67.8907 83.2458 67.688C83.5978 67.4747 83.7738 67.1653 83.7738 66.76C83.7738 66.4933 83.6991 66.28 83.5498 66.12C83.4111 65.96 83.1551 65.816 82.7818 65.688C82.4191 65.56 81.9178 65.4267 81.2778 65.288C80.6378 65.1387 80.1311 64.9573 79.7578 64.744C79.3844 64.52 79.1178 64.2587 78.9578 63.96C78.7978 63.6507 78.7178 63.304 78.7178 62.92C78.7178 62.5253 78.8351 62.1467 79.0698 61.784C79.3044 61.4107 79.6458 61.1067 80.0938 60.872C80.5524 60.6373 81.1231 60.52 81.8058 60.52C82.3604 60.52 82.8351 60.5893 83.2298 60.728C83.6244 60.8667 83.9498 61.0427 84.2058 61.256C84.4618 61.4587 84.6538 61.6613 84.7818 61.864C84.9098 62.0667 84.9791 62.2373 84.9898 62.376C85.0004 62.4827 84.9684 62.5733 84.8938 62.648C84.8191 62.712 84.7338 62.744 84.6378 62.744H83.9658C83.8911 62.744 83.8271 62.728 83.7738 62.696C83.7311 62.664 83.6884 62.6267 83.6458 62.584C83.5391 62.4453 83.4111 62.3067 83.2618 62.168C83.1231 62.0293 82.9364 61.9173 82.7018 61.832C82.4778 61.736 82.1791 61.688 81.8058 61.688C81.2724 61.688 80.8724 61.8 80.6058 62.024C80.3391 62.248 80.2058 62.5307 80.2058 62.872C80.2058 63.0747 80.2644 63.256 80.3818 63.416C80.4991 63.576 80.7231 63.72 81.0538 63.848C81.3844 63.976 81.8751 64.1147 82.5258 64.264C83.2298 64.4027 83.7844 64.5893 84.1898 64.824C84.5951 65.0587 84.8831 65.3307 85.0538 65.64C85.2244 65.9493 85.3098 66.3067 85.3098 66.712C85.3098 67.16 85.1764 67.5707 84.9098 67.944C84.6538 68.3173 84.2698 68.616 83.7578 68.84C83.2564 69.0533 82.6324 69.16 81.8858 69.16Z" fill="white"/>
</g>
<g filter="url(#filter1_f_2_26574)">
<path fill-rule="evenodd" clip-rule="evenodd" d="M35.3999 20C35.3999 18.8954 36.2953 18 37.3999 18H59.3999C60.5045 18 61.3999 18.8954 61.3999 20V36C61.3999 37.1046 60.5045 38 59.3999 38H37.3999C36.2953 38 35.3999 37.1046 35.3999 36V20ZM59.3999 20H37.3999V36H59.3999V20Z" fill="white"/>
<path fill-rule="evenodd" clip-rule="evenodd" d="M43.2786 14.8787C43.8412 14.3161 44.6043 14 45.3999 14H51.3999C52.1956 14 52.9586 14.3161 53.5212 14.8787C54.0838 15.4413 54.3999 16.2043 54.3999 17V37C54.3999 37.5523 53.9522 38 53.3999 38C52.8476 38 52.3999 37.5523 52.3999 37V17C52.3999 16.7348 52.2945 16.4804 52.107 16.2929C51.9195 16.1054 51.6651 16 51.3999 16H45.3999C45.1347 16 44.8803 16.1054 44.6928 16.2929C44.5053 16.4804 44.3999 16.7348 44.3999 17V37C44.3999 37.5523 43.9522 38 43.3999 38C42.8476 38 42.3999 37.5523 42.3999 37V17C42.3999 16.2043 42.716 15.4413 43.2786 14.8787Z" fill="white"/>
<path d="M15.1199 69C14.9599 69 14.8319 68.9627 14.7359 68.888C14.6506 68.8133 14.5812 68.712 14.5279 68.584L10.9599 58.296C10.9386 58.232 10.9279 58.1733 10.9279 58.12C10.9279 58.0347 10.9599 57.96 11.0239 57.896C11.0879 57.832 11.1626 57.8 11.2479 57.8H12.0799C12.2079 57.8 12.3039 57.8373 12.3679 57.912C12.4426 57.976 12.4852 58.0347 12.4959 58.088L15.6319 67.16L18.7679 58.088C18.7892 58.0347 18.8319 57.976 18.8959 57.912C18.9599 57.8373 19.0559 57.8 19.1839 57.8H20.0159C20.1012 57.8 20.1759 57.832 20.2399 57.896C20.3146 57.96 20.3519 58.0347 20.3519 58.12C20.3519 58.1733 20.3412 58.232 20.3199 58.296L16.7359 68.584C16.6932 68.712 16.6239 68.8133 16.5279 68.888C16.4426 68.9627 16.3199 69 16.1599 69H15.1199ZM23.482 69.16C22.9487 69.16 22.4634 69.0533 22.026 68.84C21.5887 68.6267 21.2367 68.3387 20.97 67.976C20.7034 67.6133 20.57 67.2027 20.57 66.744C20.57 66.008 20.8687 65.4213 21.466 64.984C22.0634 64.5467 22.842 64.2587 23.802 64.12L26.186 63.784V63.32C26.186 62.808 26.0367 62.408 25.738 62.12C25.45 61.832 24.9754 61.688 24.314 61.688C23.834 61.688 23.4447 61.784 23.146 61.976C22.858 62.168 22.6554 62.4133 22.538 62.712C22.474 62.872 22.362 62.952 22.202 62.952H21.482C21.3647 62.952 21.274 62.92 21.21 62.856C21.1567 62.7813 21.13 62.696 21.13 62.6C21.13 62.44 21.1887 62.2427 21.306 62.008C21.434 61.7733 21.626 61.544 21.882 61.32C22.138 61.096 22.4634 60.9093 22.858 60.76C23.2634 60.6 23.754 60.52 24.33 60.52C24.97 60.52 25.5087 60.6053 25.946 60.776C26.3834 60.936 26.7247 61.1547 26.97 61.432C27.226 61.7093 27.4074 62.024 27.514 62.376C27.6314 62.728 27.69 63.0853 27.69 63.448V68.632C27.69 68.7387 27.6527 68.8293 27.578 68.904C27.514 68.968 27.4287 69 27.322 69H26.586C26.4687 69 26.378 68.968 26.314 68.904C26.25 68.8293 26.218 68.7387 26.218 68.632V67.944C26.0794 68.136 25.8927 68.328 25.658 68.52C25.4234 68.7013 25.13 68.856 24.778 68.984C24.426 69.1013 23.994 69.16 23.482 69.16ZM23.818 67.96C24.2554 67.96 24.6554 67.8693 25.018 67.688C25.3807 67.496 25.6634 67.2027 25.866 66.808C26.0794 66.4133 26.186 65.9173 26.186 65.32V64.872L24.33 65.144C23.5727 65.2507 23.002 65.432 22.618 65.688C22.234 65.9333 22.042 66.248 22.042 66.632C22.042 66.9307 22.1274 67.1813 22.298 67.384C22.4794 67.576 22.7034 67.72 22.97 67.816C23.2474 67.912 23.53 67.96 23.818 67.96ZM33.3502 69.16C32.5928 69.16 31.9368 69.016 31.3822 68.728C30.8382 68.4293 30.4168 68.008 30.1182 67.464C29.8195 66.9093 29.6595 66.248 29.6382 65.48C29.6275 65.32 29.6222 65.1067 29.6222 64.84C29.6222 64.5733 29.6275 64.36 29.6382 64.2C29.6595 63.432 29.8195 62.776 30.1182 62.232C30.4168 61.6773 30.8382 61.256 31.3822 60.968C31.9368 60.6693 32.5928 60.52 33.3502 60.52C33.9688 60.52 34.4968 60.6053 34.9342 60.776C35.3822 60.9467 35.7502 61.1653 36.0382 61.432C36.3262 61.6987 36.5395 61.9867 36.6782 62.296C36.8275 62.6053 36.9075 62.8987 36.9182 63.176C36.9288 63.2827 36.8968 63.368 36.8222 63.432C36.7475 63.496 36.6568 63.528 36.5502 63.528H35.7822C35.6755 63.528 35.5955 63.5067 35.5422 63.464C35.4888 63.4107 35.4355 63.3253 35.3822 63.208C35.1902 62.6853 34.9288 62.3173 34.5982 62.104C34.2675 61.8907 33.8568 61.784 33.3662 61.784C32.7262 61.784 32.2035 61.9813 31.7982 62.376C31.4035 62.7707 31.1902 63.4053 31.1582 64.28C31.1475 64.664 31.1475 65.0373 31.1582 65.4C31.1902 66.2853 31.4035 66.9253 31.7982 67.32C32.2035 67.704 32.7262 67.896 33.3662 67.896C33.8568 67.896 34.2675 67.7893 34.5982 67.576C34.9288 67.3627 35.1902 66.9947 35.3822 66.472C35.4355 66.3547 35.4888 66.2747 35.5422 66.232C35.5955 66.1787 35.6755 66.152 35.7822 66.152H36.5502C36.6568 66.152 36.7475 66.184 36.8222 66.248C36.8968 66.312 36.9288 66.3973 36.9182 66.504C36.9075 66.728 36.8595 66.9573 36.7742 67.192C36.6888 67.4267 36.5502 67.6667 36.3582 67.912C36.1768 68.1467 35.9475 68.36 35.6702 68.552C35.3928 68.7333 35.0568 68.8827 34.6622 69C34.2782 69.1067 33.8408 69.16 33.3502 69.16ZM41.1383 69.16C40.6049 69.16 40.1196 69.0533 39.6823 68.84C39.2449 68.6267 38.8929 68.3387 38.6263 67.976C38.3596 67.6133 38.2263 67.2027 38.2263 66.744C38.2263 66.008 38.5249 65.4213 39.1223 64.984C39.7196 64.5467 40.4983 64.2587 41.4583 64.12L43.8423 63.784V63.32C43.8423 62.808 43.6929 62.408 43.3943 62.12C43.1063 61.832 42.6316 61.688 41.9703 61.688C41.4903 61.688 41.1009 61.784 40.8023 61.976C40.5143 62.168 40.3116 62.4133 40.1943 62.712C40.1303 62.872 40.0183 62.952 39.8583 62.952H39.1383C39.0209 62.952 38.9303 62.92 38.8663 62.856C38.8129 62.7813 38.7863 62.696 38.7863 62.6C38.7863 62.44 38.8449 62.2427 38.9623 62.008C39.0903 61.7733 39.2823 61.544 39.5383 61.32C39.7943 61.096 40.1196 60.9093 40.5143 60.76C40.9196 60.6 41.4103 60.52 41.9863 60.52C42.6263 60.52 43.1649 60.6053 43.6023 60.776C44.0396 60.936 44.3809 61.1547 44.6263 61.432C44.8823 61.7093 45.0636 62.024 45.1703 62.376C45.2876 62.728 45.3463 63.0853 45.3463 63.448V68.632C45.3463 68.7387 45.3089 68.8293 45.2343 68.904C45.1703 68.968 45.0849 69 44.9783 69H44.2423C44.1249 69 44.0343 68.968 43.9703 68.904C43.9063 68.8293 43.8743 68.7387 43.8743 68.632V67.944C43.7356 68.136 43.5489 68.328 43.3143 68.52C43.0796 68.7013 42.7863 68.856 42.4343 68.984C42.0823 69.1013 41.6503 69.16 41.1383 69.16ZM41.4743 67.96C41.9116 67.96 42.3116 67.8693 42.6743 67.688C43.0369 67.496 43.3196 67.2027 43.5223 66.808C43.7356 66.4133 43.8423 65.9173 43.8423 65.32V64.872L41.9863 65.144C41.2289 65.2507 40.6583 65.432 40.2743 65.688C39.8903 65.9333 39.6983 66.248 39.6983 66.632C39.6983 66.9307 39.7836 67.1813 39.9543 67.384C40.1356 67.576 40.3596 67.72 40.6263 67.816C40.9036 67.912 41.1863 67.96 41.4743 67.96ZM48.0144 69C47.9077 69 47.8171 68.968 47.7424 68.904C47.6784 68.8293 47.6464 68.7387 47.6464 68.632V61.048C47.6464 60.9413 47.6784 60.856 47.7424 60.792C47.8171 60.7173 47.9077 60.68 48.0144 60.68H48.7664C48.8731 60.68 48.9584 60.7173 49.0224 60.792C49.0971 60.856 49.1344 60.9413 49.1344 61.048V61.752C49.4117 61.3893 49.7584 61.096 50.1744 60.872C50.6011 60.6373 51.1451 60.52 51.8064 60.52C52.4997 60.52 53.0864 60.6747 53.5664 60.984C54.0571 61.2827 54.4251 61.704 54.6704 62.248C54.9157 62.7813 55.0384 63.4053 55.0384 64.12V68.632C55.0384 68.7387 55.0064 68.8293 54.9424 68.904C54.8784 68.968 54.7931 69 54.6864 69H53.8864C53.7797 69 53.6891 68.968 53.6144 68.904C53.5504 68.8293 53.5184 68.7387 53.5184 68.632V64.2C53.5184 63.4533 53.3371 62.872 52.9744 62.456C52.6117 62.0293 52.0784 61.816 51.3744 61.816C50.7131 61.816 50.1797 62.0293 49.7744 62.456C49.3797 62.872 49.1824 63.4533 49.1824 64.2V68.632C49.1824 68.7387 49.1451 68.8293 49.0704 68.904C49.0064 68.968 48.9211 69 48.8144 69H48.0144ZM60.7095 69.16C59.9522 69.16 59.2962 69.016 58.7415 68.728C58.1975 68.4293 57.7762 68.008 57.4775 67.464C57.1789 66.9093 57.0189 66.248 56.9975 65.48C56.9869 65.32 56.9815 65.1067 56.9815 64.84C56.9815 64.5733 56.9869 64.36 56.9975 64.2C57.0189 63.432 57.1789 62.776 57.4775 62.232C57.7762 61.6773 58.1975 61.256 58.7415 60.968C59.2962 60.6693 59.9522 60.52 60.7095 60.52C61.3282 60.52 61.8562 60.6053 62.2935 60.776C62.7415 60.9467 63.1095 61.1653 63.3975 61.432C63.6855 61.6987 63.8989 61.9867 64.0375 62.296C64.1869 62.6053 64.2669 62.8987 64.2775 63.176C64.2882 63.2827 64.2562 63.368 64.1815 63.432C64.1069 63.496 64.0162 63.528 63.9095 63.528H63.1415C63.0349 63.528 62.9549 63.5067 62.9015 63.464C62.8482 63.4107 62.7949 63.3253 62.7415 63.208C62.5495 62.6853 62.2882 62.3173 61.9575 62.104C61.6269 61.8907 61.2162 61.784 60.7255 61.784C60.0855 61.784 59.5629 61.9813 59.1575 62.376C58.7629 62.7707 58.5495 63.4053 58.5175 64.28C58.5069 64.664 58.5069 65.0373 58.5175 65.4C58.5495 66.2853 58.7629 66.9253 59.1575 67.32C59.5629 67.704 60.0855 67.896 60.7255 67.896C61.2162 67.896 61.6269 67.7893 61.9575 67.576C62.2882 67.3627 62.5495 66.9947 62.7415 66.472C62.7949 66.3547 62.8482 66.2747 62.9015 66.232C62.9549 66.1787 63.0349 66.152 63.1415 66.152H63.9095C64.0162 66.152 64.1069 66.184 64.1815 66.248C64.2562 66.312 64.2882 66.3973 64.2775 66.504C64.2669 66.728 64.2189 66.9573 64.1335 67.192C64.0482 67.4267 63.9095 67.6667 63.7175 67.912C63.5362 68.1467 63.3069 68.36 63.0295 68.552C62.7522 68.7333 62.4162 68.8827 62.0215 69C61.6375 69.1067 61.2002 69.16 60.7095 69.16ZM66.5457 69C66.439 69 66.3483 68.968 66.2737 68.904C66.2097 68.8293 66.1777 68.7387 66.1777 68.632V61.048C66.1777 60.9413 66.2097 60.856 66.2737 60.792C66.3483 60.7173 66.439 60.68 66.5457 60.68H67.3137C67.4203 60.68 67.5057 60.7173 67.5697 60.792C67.6337 60.856 67.6657 60.9413 67.6657 61.048V68.632C67.6657 68.7387 67.6337 68.8293 67.5697 68.904C67.5057 68.968 67.4203 69 67.3137 69H66.5457ZM66.4177 59.128C66.311 59.128 66.2203 59.096 66.1457 59.032C66.0817 58.9573 66.0497 58.8667 66.0497 58.76V57.896C66.0497 57.7893 66.0817 57.704 66.1457 57.64C66.2203 57.5653 66.311 57.528 66.4177 57.528H67.4257C67.5323 57.528 67.6177 57.5653 67.6817 57.64C67.7563 57.704 67.7937 57.7893 67.7937 57.896V58.76C67.7937 58.8667 67.7563 58.9573 67.6817 59.032C67.6177 59.096 67.5323 59.128 67.4257 59.128H66.4177ZM73.3647 69.16C72.266 69.16 71.3913 68.824 70.7407 68.152C70.09 67.4693 69.7327 66.5413 69.6687 65.368C69.658 65.2293 69.6527 65.0533 69.6527 64.84C69.6527 64.616 69.658 64.4347 69.6687 64.296C69.7113 63.5387 69.8873 62.8773 70.1967 62.312C70.506 61.736 70.9273 61.2933 71.4607 60.984C72.0047 60.6747 72.6393 60.52 73.3647 60.52C74.1753 60.52 74.8527 60.6907 75.3967 61.032C75.9513 61.3733 76.3727 61.8587 76.6607 62.488C76.9487 63.1173 77.0927 63.8533 77.0927 64.696V64.968C77.0927 65.0853 77.0553 65.176 76.9807 65.24C76.9167 65.304 76.8313 65.336 76.7247 65.336H71.1887C71.1887 65.3467 71.1887 65.368 71.1887 65.4C71.1887 65.432 71.1887 65.4587 71.1887 65.48C71.21 65.9173 71.306 66.328 71.4767 66.712C71.6473 67.0853 71.8927 67.3893 72.2127 67.624C72.5327 67.8587 72.9167 67.976 73.3647 67.976C73.7487 67.976 74.0687 67.9173 74.3247 67.8C74.5807 67.6827 74.7887 67.5547 74.9487 67.416C75.1087 67.2667 75.2153 67.1547 75.2687 67.08C75.3647 66.9413 75.4393 66.8613 75.4927 66.84C75.546 66.808 75.6313 66.792 75.7487 66.792H76.5167C76.6233 66.792 76.7087 66.824 76.7727 66.888C76.8473 66.9413 76.8793 67.0213 76.8687 67.128C76.858 67.288 76.7727 67.4853 76.6127 67.72C76.4527 67.944 76.2233 68.168 75.9247 68.392C75.626 68.616 75.2633 68.8027 74.8367 68.952C74.41 69.0907 73.9193 69.16 73.3647 69.16ZM71.1887 64.232H75.5727V64.184C75.5727 63.704 75.482 63.2773 75.3007 62.904C75.13 62.5307 74.8793 62.2373 74.5487 62.024C74.218 61.8 73.8233 61.688 73.3647 61.688C72.906 61.688 72.5113 61.8 72.1807 62.024C71.8607 62.2373 71.6153 62.5307 71.4447 62.904C71.274 63.2773 71.1887 63.704 71.1887 64.184V64.232ZM81.8858 69.16C81.2884 69.16 80.7764 69.0853 80.3498 68.936C79.9231 68.7867 79.5764 68.6053 79.3098 68.392C79.0431 68.1787 78.8404 67.9653 78.7018 67.752C78.5738 67.5387 78.5044 67.368 78.4938 67.24C78.4831 67.1227 78.5204 67.032 78.6058 66.968C78.6911 66.904 78.7764 66.872 78.8618 66.872H79.5658C79.6298 66.872 79.6778 66.8827 79.7098 66.904C79.7524 66.9147 79.8058 66.9573 79.8698 67.032C80.0084 67.1813 80.1631 67.3307 80.3338 67.48C80.5044 67.6293 80.7124 67.752 80.9578 67.848C81.2138 67.944 81.5284 67.992 81.9018 67.992C82.4458 67.992 82.8938 67.8907 83.2458 67.688C83.5978 67.4747 83.7738 67.1653 83.7738 66.76C83.7738 66.4933 83.6991 66.28 83.5498 66.12C83.4111 65.96 83.1551 65.816 82.7818 65.688C82.4191 65.56 81.9178 65.4267 81.2778 65.288C80.6378 65.1387 80.1311 64.9573 79.7578 64.744C79.3844 64.52 79.1178 64.2587 78.9578 63.96C78.7978 63.6507 78.7178 63.304 78.7178 62.92C78.7178 62.5253 78.8351 62.1467 79.0698 61.784C79.3044 61.4107 79.6458 61.1067 80.0938 60.872C80.5524 60.6373 81.1231 60.52 81.8058 60.52C82.3604 60.52 82.8351 60.5893 83.2298 60.728C83.6244 60.8667 83.9498 61.0427 84.2058 61.256C84.4618 61.4587 84.6538 61.6613 84.7818 61.864C84.9098 62.0667 84.9791 62.2373 84.9898 62.376C85.0004 62.4827 84.9684 62.5733 84.8938 62.648C84.8191 62.712 84.7338 62.744 84.6378 62.744H83.9658C83.8911 62.744 83.8271 62.728 83.7738 62.696C83.7311 62.664 83.6884 62.6267 83.6458 62.584C83.5391 62.4453 83.4111 62.3067 83.2618 62.168C83.1231 62.0293 82.9364 61.9173 82.7018 61.832C82.4778 61.736 82.1791 61.688 81.8058 61.688C81.2724 61.688 80.8724 61.8 80.6058 62.024C80.3391 62.248 80.2058 62.5307 80.2058 62.872C80.2058 63.0747 80.2644 63.256 80.3818 63.416C80.4991 63.576 80.7231 63.72 81.0538 63.848C81.3844 63.976 81.8751 64.1147 82.5258 64.264C83.2298 64.4027 83.7844 64.5893 84.1898 64.824C84.5951 65.0587 84.8831 65.3307 85.0538 65.64C85.2244 65.9493 85.3098 66.3067 85.3098 66.712C85.3098 67.16 85.1764 67.5707 84.9098 67.944C84.6538 68.3173 84.2698 68.616 83.7578 68.84C83.2564 69.0533 82.6324 69.16 81.8858 69.16Z" fill="white"/>
</g>
<g filter="url(#filter2_f_2_26574)">
<path fill-rule="evenodd" clip-rule="evenodd" d="M35.3999 20C35.3999 18.8954 36.2953 18 37.3999 18H59.3999C60.5045 18 61.3999 18.8954 61.3999 20V36C61.3999 37.1046 60.5045 38 59.3999 38H37.3999C36.2953 38 35.3999 37.1046 35.3999 36V20ZM59.3999 20H37.3999V36H59.3999V20Z" fill="white"/>
<path fill-rule="evenodd" clip-rule="evenodd" d="M43.2786 14.8787C43.8412 14.3161 44.6043 14 45.3999 14H51.3999C52.1956 14 52.9586 14.3161 53.5212 14.8787C54.0838 15.4413 54.3999 16.2043 54.3999 17V37C54.3999 37.5523 53.9522 38 53.3999 38C52.8476 38 52.3999 37.5523 52.3999 37V17C52.3999 16.7348 52.2945 16.4804 52.107 16.2929C51.9195 16.1054 51.6651 16 51.3999 16H45.3999C45.1347 16 44.8803 16.1054 44.6928 16.2929C44.5053 16.4804 44.3999 16.7348 44.3999 17V37C44.3999 37.5523 43.9522 38 43.3999 38C42.8476 38 42.3999 37.5523 42.3999 37V17C42.3999 16.2043 42.716 15.4413 43.2786 14.8787Z" fill="white"/>
<path d="M15.1199 69C14.9599 69 14.8319 68.9627 14.7359 68.888C14.6506 68.8133 14.5812 68.712 14.5279 68.584L10.9599 58.296C10.9386 58.232 10.9279 58.1733 10.9279 58.12C10.9279 58.0347 10.9599 57.96 11.0239 57.896C11.0879 57.832 11.1626 57.8 11.2479 57.8H12.0799C12.2079 57.8 12.3039 57.8373 12.3679 57.912C12.4426 57.976 12.4852 58.0347 12.4959 58.088L15.6319 67.16L18.7679 58.088C18.7892 58.0347 18.8319 57.976 18.8959 57.912C18.9599 57.8373 19.0559 57.8 19.1839 57.8H20.0159C20.1012 57.8 20.1759 57.832 20.2399 57.896C20.3146 57.96 20.3519 58.0347 20.3519 58.12C20.3519 58.1733 20.3412 58.232 20.3199 58.296L16.7359 68.584C16.6932 68.712 16.6239 68.8133 16.5279 68.888C16.4426 68.9627 16.3199 69 16.1599 69H15.1199ZM23.482 69.16C22.9487 69.16 22.4634 69.0533 22.026 68.84C21.5887 68.6267 21.2367 68.3387 20.97 67.976C20.7034 67.6133 20.57 67.2027 20.57 66.744C20.57 66.008 20.8687 65.4213 21.466 64.984C22.0634 64.5467 22.842 64.2587 23.802 64.12L26.186 63.784V63.32C26.186 62.808 26.0367 62.408 25.738 62.12C25.45 61.832 24.9754 61.688 24.314 61.688C23.834 61.688 23.4447 61.784 23.146 61.976C22.858 62.168 22.6554 62.4133 22.538 62.712C22.474 62.872 22.362 62.952 22.202 62.952H21.482C21.3647 62.952 21.274 62.92 21.21 62.856C21.1567 62.7813 21.13 62.696 21.13 62.6C21.13 62.44 21.1887 62.2427 21.306 62.008C21.434 61.7733 21.626 61.544 21.882 61.32C22.138 61.096 22.4634 60.9093 22.858 60.76C23.2634 60.6 23.754 60.52 24.33 60.52C24.97 60.52 25.5087 60.6053 25.946 60.776C26.3834 60.936 26.7247 61.1547 26.97 61.432C27.226 61.7093 27.4074 62.024 27.514 62.376C27.6314 62.728 27.69 63.0853 27.69 63.448V68.632C27.69 68.7387 27.6527 68.8293 27.578 68.904C27.514 68.968 27.4287 69 27.322 69H26.586C26.4687 69 26.378 68.968 26.314 68.904C26.25 68.8293 26.218 68.7387 26.218 68.632V67.944C26.0794 68.136 25.8927 68.328 25.658 68.52C25.4234 68.7013 25.13 68.856 24.778 68.984C24.426 69.1013 23.994 69.16 23.482 69.16ZM23.818 67.96C24.2554 67.96 24.6554 67.8693 25.018 67.688C25.3807 67.496 25.6634 67.2027 25.866 66.808C26.0794 66.4133 26.186 65.9173 26.186 65.32V64.872L24.33 65.144C23.5727 65.2507 23.002 65.432 22.618 65.688C22.234 65.9333 22.042 66.248 22.042 66.632C22.042 66.9307 22.1274 67.1813 22.298 67.384C22.4794 67.576 22.7034 67.72 22.97 67.816C23.2474 67.912 23.53 67.96 23.818 67.96ZM33.3502 69.16C32.5928 69.16 31.9368 69.016 31.3822 68.728C30.8382 68.4293 30.4168 68.008 30.1182 67.464C29.8195 66.9093 29.6595 66.248 29.6382 65.48C29.6275 65.32 29.6222 65.1067 29.6222 64.84C29.6222 64.5733 29.6275 64.36 29.6382 64.2C29.6595 63.432 29.8195 62.776 30.1182 62.232C30.4168 61.6773 30.8382 61.256 31.3822 60.968C31.9368 60.6693 32.5928 60.52 33.3502 60.52C33.9688 60.52 34.4968 60.6053 34.9342 60.776C35.3822 60.9467 35.7502 61.1653 36.0382 61.432C36.3262 61.6987 36.5395 61.9867 36.6782 62.296C36.8275 62.6053 36.9075 62.8987 36.9182 63.176C36.9288 63.2827 36.8968 63.368 36.8222 63.432C36.7475 63.496 36.6568 63.528 36.5502 63.528H35.7822C35.6755 63.528 35.5955 63.5067 35.5422 63.464C35.4888 63.4107 35.4355 63.3253 35.3822 63.208C35.1902 62.6853 34.9288 62.3173 34.5982 62.104C34.2675 61.8907 33.8568 61.784 33.3662 61.784C32.7262 61.784 32.2035 61.9813 31.7982 62.376C31.4035 62.7707 31.1902 63.4053 31.1582 64.28C31.1475 64.664 31.1475 65.0373 31.1582 65.4C31.1902 66.2853 31.4035 66.9253 31.7982 67.32C32.2035 67.704 32.7262 67.896 33.3662 67.896C33.8568 67.896 34.2675 67.7893 34.5982 67.576C34.9288 67.3627 35.1902 66.9947 35.3822 66.472C35.4355 66.3547 35.4888 66.2747 35.5422 66.232C35.5955 66.1787 35.6755 66.152 35.7822 66.152H36.5502C36.6568 66.152 36.7475 66.184 36.8222 66.248C36.8968 66.312 36.9288 66.3973 36.9182 66.504C36.9075 66.728 36.8595 66.9573 36.7742 67.192C36.6888 67.4267 36.5502 67.6667 36.3582 67.912C36.1768 68.1467 35.9475 68.36 35.6702 68.552C35.3928 68.7333 35.0568 68.8827 34.6622 69C34.2782 69.1067 33.8408 69.16 33.3502 69.16ZM41.1383 69.16C40.6049 69.16 40.1196 69.0533 39.6823 68.84C39.2449 68.6267 38.8929 68.3387 38.6263 67.976C38.3596 67.6133 38.2263 67.2027 38.2263 66.744C38.2263 66.008 38.5249 65.4213 39.1223 64.984C39.7196 64.5467 40.4983 64.2587 41.4583 64.12L43.8423 63.784V63.32C43.8423 62.808 43.6929 62.408 43.3943 62.12C43.1063 61.832 42.6316 61.688 41.9703 61.688C41.4903 61.688 41.1009 61.784 40.8023 61.976C40.5143 62.168 40.3116 62.4133 40.1943 62.712C40.1303 62.872 40.0183 62.952 39.8583 62.952H39.1383C39.0209 62.952 38.9303 62.92 38.8663 62.856C38.8129 62.7813 38.7863 62.696 38.7863 62.6C38.7863 62.44 38.8449 62.2427 38.9623 62.008C39.0903 61.7733 39.2823 61.544 39.5383 61.32C39.7943 61.096 40.1196 60.9093 40.5143 60.76C40.9196 60.6 41.4103 60.52 41.9863 60.52C42.6263 60.52 43.1649 60.6053 43.6023 60.776C44.0396 60.936 44.3809 61.1547 44.6263 61.432C44.8823 61.7093 45.0636 62.024 45.1703 62.376C45.2876 62.728 45.3463 63.0853 45.3463 63.448V68.632C45.3463 68.7387 45.3089 68.8293 45.2343 68.904C45.1703 68.968 45.0849 69 44.9783 69H44.2423C44.1249 69 44.0343 68.968 43.9703 68.904C43.9063 68.8293 43.8743 68.7387 43.8743 68.632V67.944C43.7356 68.136 43.5489 68.328 43.3143 68.52C43.0796 68.7013 42.7863 68.856 42.4343 68.984C42.0823 69.1013 41.6503 69.16 41.1383 69.16ZM41.4743 67.96C41.9116 67.96 42.3116 67.8693 42.6743 67.688C43.0369 67.496 43.3196 67.2027 43.5223 66.808C43.7356 66.4133 43.8423 65.9173 43.8423 65.32V64.872L41.9863 65.144C41.2289 65.2507 40.6583 65.432 40.2743 65.688C39.8903 65.9333 39.6983 66.248 39.6983 66.632C39.6983 66.9307 39.7836 67.1813 39.9543 67.384C40.1356 67.576 40.3596 67.72 40.6263 67.816C40.9036 67.912 41.1863 67.96 41.4743 67.96ZM48.0144 69C47.9077 69 47.8171 68.968 47.7424 68.904C47.6784 68.8293 47.6464 68.7387 47.6464 68.632V61.048C47.6464 60.9413 47.6784 60.856 47.7424 60.792C47.8171 60.7173 47.9077 60.68 48.0144 60.68H48.7664C48.8731 60.68 48.9584 60.7173 49.0224 60.792C49.0971 60.856 49.1344 60.9413 49.1344 61.048V61.752C49.4117 61.3893 49.7584 61.096 50.1744 60.872C50.6011 60.6373 51.1451 60.52 51.8064 60.52C52.4997 60.52 53.0864 60.6747 53.5664 60.984C54.0571 61.2827 54.4251 61.704 54.6704 62.248C54.9157 62.7813 55.0384 63.4053 55.0384 64.12V68.632C55.0384 68.7387 55.0064 68.8293 54.9424 68.904C54.8784 68.968 54.7931 69 54.6864 69H53.8864C53.7797 69 53.6891 68.968 53.6144 68.904C53.5504 68.8293 53.5184 68.7387 53.5184 68.632V64.2C53.5184 63.4533 53.3371 62.872 52.9744 62.456C52.6117 62.0293 52.0784 61.816 51.3744 61.816C50.7131 61.816 50.1797 62.0293 49.7744 62.456C49.3797 62.872 49.1824 63.4533 49.1824 64.2V68.632C49.1824 68.7387 49.1451 68.8293 49.0704 68.904C49.0064 68.968 48.9211 69 48.8144 69H48.0144ZM60.7095 69.16C59.9522 69.16 59.2962 69.016 58.7415 68.728C58.1975 68.4293 57.7762 68.008 57.4775 67.464C57.1789 66.9093 57.0189 66.248 56.9975 65.48C56.9869 65.32 56.9815 65.1067 56.9815 64.84C56.9815 64.5733 56.9869 64.36 56.9975 64.2C57.0189 63.432 57.1789 62.776 57.4775 62.232C57.7762 61.6773 58.1975 61.256 58.7415 60.968C59.2962 60.6693 59.9522 60.52 60.7095 60.52C61.3282 60.52 61.8562 60.6053 62.2935 60.776C62.7415 60.9467 63.1095 61.1653 63.3975 61.432C63.6855 61.6987 63.8989 61.9867 64.0375 62.296C64.1869 62.6053 64.2669 62.8987 64.2775 63.176C64.2882 63.2827 64.2562 63.368 64.1815 63.432C64.1069 63.496 64.0162 63.528 63.9095 63.528H63.1415C63.0349 63.528 62.9549 63.5067 62.9015 63.464C62.8482 63.4107 62.7949 63.3253 62.7415 63.208C62.5495 62.6853 62.2882 62.3173 61.9575 62.104C61.6269 61.8907 61.2162 61.784 60.7255 61.784C60.0855 61.784 59.5629 61.9813 59.1575 62.376C58.7629 62.7707 58.5495 63.4053 58.5175 64.28C58.5069 64.664 58.5069 65.0373 58.5175 65.4C58.5495 66.2853 58.7629 66.9253 59.1575 67.32C59.5629 67.704 60.0855 67.896 60.7255 67.896C61.2162 67.896 61.6269 67.7893 61.9575 67.576C62.2882 67.3627 62.5495 66.9947 62.7415 66.472C62.7949 66.3547 62.8482 66.2747 62.9015 66.232C62.9549 66.1787 63.0349 66.152 63.1415 66.152H63.9095C64.0162 66.152 64.1069 66.184 64.1815 66.248C64.2562 66.312 64.2882 66.3973 64.2775 66.504C64.2669 66.728 64.2189 66.9573 64.1335 67.192C64.0482 67.4267 63.9095 67.6667 63.7175 67.912C63.5362 68.1467 63.3069 68.36 63.0295 68.552C62.7522 68.7333 62.4162 68.8827 62.0215 69C61.6375 69.1067 61.2002 69.16 60.7095 69.16ZM66.5457 69C66.439 69 66.3483 68.968 66.2737 68.904C66.2097 68.8293 66.1777 68.7387 66.1777 68.632V61.048C66.1777 60.9413 66.2097 60.856 66.2737 60.792C66.3483 60.7173 66.439 60.68 66.5457 60.68H67.3137C67.4203 60.68 67.5057 60.7173 67.5697 60.792C67.6337 60.856 67.6657 60.9413 67.6657 61.048V68.632C67.6657 68.7387 67.6337 68.8293 67.5697 68.904C67.5057 68.968 67.4203 69 67.3137 69H66.5457ZM66.4177 59.128C66.311 59.128 66.2203 59.096 66.1457 59.032C66.0817 58.9573 66.0497 58.8667 66.0497 58.76V57.896C66.0497 57.7893 66.0817 57.704 66.1457 57.64C66.2203 57.5653 66.311 57.528 66.4177 57.528H67.4257C67.5323 57.528 67.6177 57.5653 67.6817 57.64C67.7563 57.704 67.7937 57.7893 67.7937 57.896V58.76C67.7937 58.8667 67.7563 58.9573 67.6817 59.032C67.6177 59.096 67.5323 59.128 67.4257 59.128H66.4177ZM73.3647 69.16C72.266 69.16 71.3913 68.824 70.7407 68.152C70.09 67.4693 69.7327 66.5413 69.6687 65.368C69.658 65.2293 69.6527 65.0533 69.6527 64.84C69.6527 64.616 69.658 64.4347 69.6687 64.296C69.7113 63.5387 69.8873 62.8773 70.1967 62.312C70.506 61.736 70.9273 61.2933 71.4607 60.984C72.0047 60.6747 72.6393 60.52 73.3647 60.52C74.1753 60.52 74.8527 60.6907 75.3967 61.032C75.9513 61.3733 76.3727 61.8587 76.6607 62.488C76.9487 63.1173 77.0927 63.8533 77.0927 64.696V64.968C77.0927 65.0853 77.0553 65.176 76.9807 65.24C76.9167 65.304 76.8313 65.336 76.7247 65.336H71.1887C71.1887 65.3467 71.1887 65.368 71.1887 65.4C71.1887 65.432 71.1887 65.4587 71.1887 65.48C71.21 65.9173 71.306 66.328 71.4767 66.712C71.6473 67.0853 71.8927 67.3893 72.2127 67.624C72.5327 67.8587 72.9167 67.976 73.3647 67.976C73.7487 67.976 74.0687 67.9173 74.3247 67.8C74.5807 67.6827 74.7887 67.5547 74.9487 67.416C75.1087 67.2667 75.2153 67.1547 75.2687 67.08C75.3647 66.9413 75.4393 66.8613 75.4927 66.84C75.546 66.808 75.6313 66.792 75.7487 66.792H76.5167C76.6233 66.792 76.7087 66.824 76.7727 66.888C76.8473 66.9413 76.8793 67.0213 76.8687 67.128C76.858 67.288 76.7727 67.4853 76.6127 67.72C76.4527 67.944 76.2233 68.168 75.9247 68.392C75.626 68.616 75.2633 68.8027 74.8367 68.952C74.41 69.0907 73.9193 69.16 73.3647 69.16ZM71.1887 64.232H75.5727V64.184C75.5727 63.704 75.482 63.2773 75.3007 62.904C75.13 62.5307 74.8793 62.2373 74.5487 62.024C74.218 61.8 73.8233 61.688 73.3647 61.688C72.906 61.688 72.5113 61.8 72.1807 62.024C71.8607 62.2373 71.6153 62.5307 71.4447 62.904C71.274 63.2773 71.1887 63.704 71.1887 64.184V64.232ZM81.8858 69.16C81.2884 69.16 80.7764 69.0853 80.3498 68.936C79.9231 68.7867 79.5764 68.6053 79.3098 68.392C79.0431 68.1787 78.8404 67.9653 78.7018 67.752C78.5738 67.5387 78.5044 67.368 78.4938 67.24C78.4831 67.1227 78.5204 67.032 78.6058 66.968C78.6911 66.904 78.7764 66.872 78.8618 66.872H79.5658C79.6298 66.872 79.6778 66.8827 79.7098 66.904C79.7524 66.9147 79.8058 66.9573 79.8698 67.032C80.0084 67.1813 80.1631 67.3307 80.3338 67.48C80.5044 67.6293 80.7124 67.752 80.9578 67.848C81.2138 67.944 81.5284 67.992 81.9018 67.992C82.4458 67.992 82.8938 67.8907 83.2458 67.688C83.5978 67.4747 83.7738 67.1653 83.7738 66.76C83.7738 66.4933 83.6991 66.28 83.5498 66.12C83.4111 65.96 83.1551 65.816 82.7818 65.688C82.4191 65.56 81.9178 65.4267 81.2778 65.288C80.6378 65.1387 80.1311 64.9573 79.7578 64.744C79.3844 64.52 79.1178 64.2587 78.9578 63.96C78.7978 63.6507 78.7178 63.304 78.7178 62.92C78.7178 62.5253 78.8351 62.1467 79.0698 61.784C79.3044 61.4107 79.6458 61.1067 80.0938 60.872C80.5524 60.6373 81.1231 60.52 81.8058 60.52C82.3604 60.52 82.8351 60.5893 83.2298 60.728C83.6244 60.8667 83.9498 61.0427 84.2058 61.256C84.4618 61.4587 84.6538 61.6613 84.7818 61.864C84.9098 62.0667 84.9791 62.2373 84.9898 62.376C85.0004 62.4827 84.9684 62.5733 84.8938 62.648C84.8191 62.712 84.7338 62.744 84.6378 62.744H83.9658C83.8911 62.744 83.8271 62.728 83.7738 62.696C83.7311 62.664 83.6884 62.6267 83.6458 62.584C83.5391 62.4453 83.4111 62.3067 83.2618 62.168C83.1231 62.0293 82.9364 61.9173 82.7018 61.832C82.4778 61.736 82.1791 61.688 81.8058 61.688C81.2724 61.688 80.8724 61.8 80.6058 62.024C80.3391 62.248 80.2058 62.5307 80.2058 62.872C80.2058 63.0747 80.2644 63.256 80.3818 63.416C80.4991 63.576 80.7231 63.72 81.0538 63.848C81.3844 63.976 81.8751 64.1147 82.5258 64.264C83.2298 64.4027 83.7844 64.5893 84.1898 64.824C84.5951 65.0587 84.8831 65.3307 85.0538 65.64C85.2244 65.9493 85.3098 66.3067 85.3098 66.712C85.3098 67.16 85.1764 67.5707 84.9098 67.944C84.6538 68.3173 84.2698 68.616 83.7578 68.84C83.2564 69.0533 82.6324 69.16 81.8858 69.16Z" fill="white"/>
</g>
<defs>
<filter id="filter0_f_2_26574" x="-0.600098" y="-1" width="98" height="88" filterUnits="userSpaceOnUse" color-interpolation-filters="sRGB">
<feFlood flood-opacity="0" result="BackgroundImageFix"/>
<feBlend mode="normal" in="SourceGraphic" in2="BackgroundImageFix" result="shape"/>
<feGaussianBlur stdDeviation="0.5" result="effect1_foregroundBlur_2_26574"/>
</filter>
<filter id="filter1_f_2_26574" x="-1.6001" y="-2" width="100" height="90" filterUnits="userSpaceOnUse" color-interpolation-filters="sRGB">
<feFlood flood-opacity="0" result="BackgroundImageFix"/>
<feBlend mode="normal" in="SourceGraphic" in2="BackgroundImageFix" result="shape"/>
<feGaussianBlur stdDeviation="1" result="effect1_foregroundBlur_2_26574"/>
</filter>
<filter id="filter2_f_2_26574" x="-3.6001" y="-4" width="104" height="94" filterUnits="userSpaceOnUse" color-interpolation-filters="sRGB">
<feFlood flood-opacity="0" result="BackgroundImageFix"/>
<feBlend mode="normal" in="SourceGraphic" in2="BackgroundImageFix" result="shape"/>
<feGaussianBlur stdDeviation="2" result="effect1_foregroundBlur_2_26574"/>
</filter>
</defs>
</svg>
