<svg width="63" height="86" viewBox="0 0 63 86" fill="none" xmlns="http://www.w3.org/2000/svg">
<g clip-path="url(#clip0_2_26568)">
<path d="M38.1668 38V35.3333C38.1668 33.9188 37.6049 32.5623 36.6047 31.5621C35.6045 30.5619 34.248 30 32.8335 30H22.1668C20.7523 30 19.3958 30.5619 18.3956 31.5621C17.3954 32.5623 16.8335 33.9188 16.8335 35.3333V38" stroke="white" stroke-width="2" stroke-linecap="round" stroke-linejoin="round"/>
<path d="M27.4998 24.6667C30.4454 24.6667 32.8332 22.2789 32.8332 19.3333C32.8332 16.3878 30.4454 14 27.4998 14C24.5543 14 22.1665 16.3878 22.1665 19.3333C22.1665 22.2789 24.5543 24.6667 27.4998 24.6667Z" stroke="white" stroke-width="2" stroke-linecap="round" stroke-linejoin="round"/>
<path d="M46.1665 38.0005V35.3338C46.1656 34.1521 45.7723 33.0042 45.0483 32.0702C44.3243 31.1363 43.3107 30.4693 42.1665 30.1738" stroke="white" stroke-width="2" stroke-linecap="round" stroke-linejoin="round"/>
<path d="M36.8335 14.1738C37.9807 14.4676 38.9975 15.1348 39.7237 16.0702C40.4498 17.0057 40.844 18.1563 40.844 19.3405C40.844 20.5247 40.4498 21.6753 39.7237 22.6107C38.9975 23.5462 37.9807 24.2134 36.8335 24.5072" stroke="white" stroke-width="2" stroke-linecap="round" stroke-linejoin="round"/>
</g>
<path d="M1.76 69C1.64267 69 1.552 68.968 1.488 68.904C1.424 68.8293 1.392 68.7387 1.392 68.632V58.184C1.392 58.0667 1.424 57.976 1.488 57.912C1.552 57.8373 1.64267 57.8 1.76 57.8H2.496C2.624 57.8 2.72 57.832 2.784 57.896C2.848 57.9493 2.88533 57.992 2.896 58.024L8.208 66.184V58.184C8.208 58.0667 8.24 57.976 8.304 57.912C8.368 57.8373 8.45867 57.8 8.576 57.8H9.344C9.46133 57.8 9.552 57.8373 9.616 57.912C9.69067 57.976 9.728 58.0667 9.728 58.184V68.616C9.728 68.7227 9.69067 68.8133 9.616 68.888C9.552 68.9627 9.46667 69 9.36 69H8.592C8.47467 69 8.384 68.968 8.32 68.904C8.26667 68.84 8.22933 68.7973 8.208 68.776L2.912 60.696V68.632C2.912 68.7387 2.87467 68.8293 2.8 68.904C2.736 68.968 2.64533 69 2.528 69H1.76ZM15.6054 69.16C14.5067 69.16 13.632 68.824 12.9814 68.152C12.3307 67.4693 11.9734 66.5413 11.9094 65.368C11.8987 65.2293 11.8934 65.0533 11.8934 64.84C11.8934 64.616 11.8987 64.4347 11.9094 64.296C11.952 63.5387 12.128 62.8773 12.4374 62.312C12.7467 61.736 13.168 61.2933 13.7014 60.984C14.2454 60.6747 14.88 60.52 15.6054 60.52C16.416 60.52 17.0934 60.6907 17.6374 61.032C18.192 61.3733 18.6134 61.8587 18.9014 62.488C19.1894 63.1173 19.3334 63.8533 19.3334 64.696V64.968C19.3334 65.0853 19.296 65.176 19.2214 65.24C19.1574 65.304 19.072 65.336 18.9654 65.336H13.4294C13.4294 65.3467 13.4294 65.368 13.4294 65.4C13.4294 65.432 13.4294 65.4587 13.4294 65.48C13.4507 65.9173 13.5467 66.328 13.7174 66.712C13.888 67.0853 14.1334 67.3893 14.4534 67.624C14.7734 67.8587 15.1574 67.976 15.6054 67.976C15.9894 67.976 16.3094 67.9173 16.5654 67.8C16.8214 67.6827 17.0294 67.5547 17.1894 67.416C17.3494 67.2667 17.456 67.1547 17.5094 67.08C17.6054 66.9413 17.68 66.8613 17.7334 66.84C17.7867 66.808 17.872 66.792 17.9894 66.792H18.7574C18.864 66.792 18.9494 66.824 19.0134 66.888C19.088 66.9413 19.12 67.0213 19.1094 67.128C19.0987 67.288 19.0134 67.4853 18.8534 67.72C18.6934 67.944 18.464 68.168 18.1654 68.392C17.8667 68.616 17.504 68.8027 17.0774 68.952C16.6507 69.0907 16.16 69.16 15.6054 69.16ZM13.4294 64.232H17.8134V64.184C17.8134 63.704 17.7227 63.2773 17.5414 62.904C17.3707 62.5307 17.12 62.2373 16.7894 62.024C16.4587 61.8 16.064 61.688 15.6054 61.688C15.1467 61.688 14.752 61.8 14.4214 62.024C14.1014 62.2373 13.856 62.5307 13.6854 62.904C13.5147 63.2773 13.4294 63.704 13.4294 64.184V64.232ZM24.4476 69C23.8503 69 23.365 68.888 22.9916 68.664C22.6183 68.4293 22.3463 68.104 22.1756 67.688C22.005 67.2613 21.9196 66.76 21.9196 66.184V61.96H20.6716C20.565 61.96 20.4743 61.928 20.3996 61.864C20.3356 61.7893 20.3036 61.6987 20.3036 61.592V61.048C20.3036 60.9413 20.3356 60.856 20.3996 60.792C20.4743 60.7173 20.565 60.68 20.6716 60.68H21.9196V58.008C21.9196 57.9013 21.9516 57.816 22.0156 57.752C22.0903 57.6773 22.181 57.64 22.2876 57.64H23.0396C23.1463 57.64 23.2316 57.6773 23.2956 57.752C23.3703 57.816 23.4076 57.9013 23.4076 58.008V60.68H25.3916C25.4983 60.68 25.5836 60.7173 25.6476 60.792C25.7223 60.856 25.7596 60.9413 25.7596 61.048V61.592C25.7596 61.6987 25.7223 61.7893 25.6476 61.864C25.5836 61.928 25.4983 61.96 25.3916 61.96H23.4076V66.072C23.4076 66.5733 23.493 66.968 23.6636 67.256C23.8343 67.544 24.1383 67.688 24.5756 67.688H25.5516C25.6583 67.688 25.7436 67.7253 25.8076 67.8C25.8823 67.864 25.9196 67.9493 25.9196 68.056V68.632C25.9196 68.7387 25.8823 68.8293 25.8076 68.904C25.7436 68.968 25.6583 69 25.5516 69H24.4476ZM29.6576 69C29.519 69 29.4123 68.968 29.3376 68.904C29.263 68.8293 29.199 68.728 29.1456 68.6L26.8736 61.176C26.8523 61.1227 26.8416 61.0693 26.8416 61.016C26.8416 60.92 26.8736 60.84 26.9376 60.776C27.0123 60.712 27.0923 60.68 27.1776 60.68H27.8816C27.999 60.68 28.0896 60.712 28.1536 60.776C28.2176 60.84 28.2603 60.8987 28.2816 60.952L30.0576 66.984L31.9616 61.016C31.983 60.9413 32.0256 60.8667 32.0896 60.792C32.1643 60.7173 32.271 60.68 32.4096 60.68H32.9536C33.0923 60.68 33.199 60.7173 33.2736 60.792C33.3483 60.8667 33.391 60.9413 33.4016 61.016L35.3056 66.984L37.0816 60.952C37.0923 60.8987 37.1296 60.84 37.1936 60.776C37.2576 60.712 37.3483 60.68 37.4656 60.68H38.1696C38.2656 60.68 38.3456 60.712 38.4096 60.776C38.4736 60.84 38.5056 60.92 38.5056 61.016C38.5056 61.0693 38.495 61.1227 38.4736 61.176L36.2016 68.6C36.1696 68.728 36.111 68.8293 36.0256 68.904C35.951 68.968 35.839 69 35.6896 69H35.0656C34.927 69 34.8096 68.968 34.7136 68.904C34.6283 68.8293 34.5696 68.728 34.5376 68.6L32.6816 62.872L30.8256 68.6C30.783 68.728 30.719 68.8293 30.6336 68.904C30.5483 68.968 30.431 69 30.2816 69H29.6576ZM43.467 69.16C42.6563 69.16 41.979 69.0053 41.435 68.696C40.891 68.3867 40.475 67.96 40.187 67.416C39.899 66.8613 39.739 66.232 39.707 65.528C39.6963 65.3467 39.691 65.1173 39.691 64.84C39.691 64.552 39.6963 64.3227 39.707 64.152C39.739 63.4373 39.899 62.808 40.187 62.264C40.4857 61.72 40.907 61.2933 41.451 60.984C41.995 60.6747 42.667 60.52 43.467 60.52C44.267 60.52 44.939 60.6747 45.483 60.984C46.027 61.2933 46.443 61.72 46.731 62.264C47.0297 62.808 47.195 63.4373 47.227 64.152C47.2377 64.3227 47.243 64.552 47.243 64.84C47.243 65.1173 47.2377 65.3467 47.227 65.528C47.195 66.232 47.035 66.8613 46.747 67.416C46.459 67.96 46.043 68.3867 45.499 68.696C44.955 69.0053 44.2777 69.16 43.467 69.16ZM43.467 67.928C44.1283 67.928 44.6563 67.72 45.051 67.304C45.4457 66.8773 45.659 66.2587 45.691 65.448C45.7017 65.288 45.707 65.0853 45.707 64.84C45.707 64.5947 45.7017 64.392 45.691 64.232C45.659 63.4213 45.4457 62.808 45.051 62.392C44.6563 61.9653 44.1283 61.752 43.467 61.752C42.8057 61.752 42.2723 61.9653 41.867 62.392C41.4723 62.808 41.2643 63.4213 41.243 64.232C41.2323 64.392 41.227 64.5947 41.227 64.84C41.227 65.0853 41.2323 65.288 41.243 65.448C41.2643 66.2587 41.4723 66.8773 41.867 67.304C42.2723 67.72 42.8057 67.928 43.467 67.928ZM49.6145 69C49.5078 69 49.4172 68.968 49.3425 68.904C49.2785 68.8293 49.2465 68.7387 49.2465 68.632V61.064C49.2465 60.9573 49.2785 60.8667 49.3425 60.792C49.4172 60.7173 49.5078 60.68 49.6145 60.68H50.3505C50.4572 60.68 50.5478 60.7173 50.6225 60.792C50.6972 60.8667 50.7345 60.9573 50.7345 61.064V61.768C50.9478 61.4053 51.2412 61.1333 51.6145 60.952C51.9878 60.7707 52.4358 60.68 52.9585 60.68H53.5985C53.7052 60.68 53.7905 60.7173 53.8545 60.792C53.9185 60.856 53.9505 60.9413 53.9505 61.048V61.704C53.9505 61.8107 53.9185 61.896 53.8545 61.96C53.7905 62.024 53.7052 62.056 53.5985 62.056H52.6385C52.0625 62.056 51.6092 62.2267 51.2785 62.568C50.9478 62.8987 50.7825 63.352 50.7825 63.928V68.632C50.7825 68.7387 50.7452 68.8293 50.6705 68.904C50.5958 68.968 50.5052 69 50.3985 69H49.6145ZM55.7086 69C55.602 69 55.5113 68.968 55.4366 68.904C55.3726 68.8293 55.3406 68.7387 55.3406 68.632V58.008C55.3406 57.9013 55.3726 57.816 55.4366 57.752C55.5113 57.6773 55.602 57.64 55.7086 57.64H56.4606C56.5673 57.64 56.6526 57.6773 56.7166 57.752C56.7913 57.816 56.8286 57.9013 56.8286 58.008V63.576L59.9806 60.952C60.1086 60.8453 60.2046 60.776 60.2686 60.744C60.3433 60.7013 60.4606 60.68 60.6206 60.68H61.4686C61.5646 60.68 61.6446 60.712 61.7086 60.776C61.7726 60.84 61.8046 60.92 61.8046 61.016C61.8046 61.0587 61.7886 61.1067 61.7566 61.16C61.7353 61.2133 61.6873 61.2667 61.6126 61.32L57.9166 64.392L62.0126 68.376C62.1406 68.4827 62.2046 68.5787 62.2046 68.664C62.2046 68.76 62.1726 68.84 62.1086 68.904C62.0446 68.968 61.9646 69 61.8686 69H61.0366C60.8766 69 60.7593 68.984 60.6846 68.952C60.61 68.9093 60.514 68.8347 60.3966 68.728L56.8286 65.32V68.632C56.8286 68.7387 56.7913 68.8293 56.7166 68.904C56.6526 68.968 56.5673 69 56.4606 69H55.7086Z" fill="white"/>
<defs>
<clipPath id="clip0_2_26568">
<rect width="32" height="32" fill="white" transform="translate(15.5 10)"/>
</clipPath>
</defs>
</svg>
