<svg width="76" height="86" viewBox="0 0 76 86" fill="none" xmlns="http://www.w3.org/2000/svg">
<path fill-rule="evenodd" clip-rule="evenodd" d="M25 20C25 18.8954 25.8954 18 27 18H49C50.1046 18 51 18.8954 51 20V36C51 37.1046 50.1046 38 49 38H27C25.8954 38 25 37.1046 25 36V20ZM49 20H27V36H49V20Z" fill="white"/>
<path fill-rule="evenodd" clip-rule="evenodd" d="M32.8787 14.8787C33.4413 14.3161 34.2044 14 35 14H41C41.7956 14 42.5587 14.3161 43.1213 14.8787C43.6839 15.4413 44 16.2043 44 17V37C44 37.5523 43.5523 38 43 38C42.4477 38 42 37.5523 42 37V17C42 16.7348 41.8946 16.4804 41.7071 16.2929C41.5196 16.1054 41.2652 16 41 16H35C34.7348 16 34.4804 16.1054 34.2929 16.2929C34.1054 16.4804 34 16.7348 34 17V37C34 37.5523 33.5523 38 33 38C32.4477 38 32 37.5523 32 37V17C32 16.2043 32.3161 15.4413 32.8787 14.8787Z" fill="white"/>
<path d="M4.72 69C4.56 69 4.432 68.9627 4.336 68.888C4.25067 68.8133 4.18133 68.712 4.128 68.584L0.56 58.296C0.538667 58.232 0.528 58.1733 0.528 58.12C0.528 58.0347 0.56 57.96 0.624 57.896C0.688 57.832 0.762667 57.8 0.848 57.8H1.68C1.808 57.8 1.904 57.8373 1.968 57.912C2.04267 57.976 2.08533 58.0347 2.096 58.088L5.232 67.16L8.368 58.088C8.38933 58.0347 8.432 57.976 8.496 57.912C8.56 57.8373 8.656 57.8 8.784 57.8H9.616C9.70133 57.8 9.776 57.832 9.84 57.896C9.91467 57.96 9.952 58.0347 9.952 58.12C9.952 58.1733 9.94133 58.232 9.92 58.296L6.336 68.584C6.29333 68.712 6.224 68.8133 6.128 68.888C6.04267 68.9627 5.92 69 5.76 69H4.72ZM13.0821 69.16C12.5488 69.16 12.0635 69.0533 11.6261 68.84C11.1888 68.6267 10.8368 68.3387 10.5701 67.976C10.3035 67.6133 10.1701 67.2027 10.1701 66.744C10.1701 66.008 10.4688 65.4213 11.0661 64.984C11.6635 64.5467 12.4421 64.2587 13.4021 64.12L15.7861 63.784V63.32C15.7861 62.808 15.6368 62.408 15.3381 62.12C15.0501 61.832 14.5755 61.688 13.9141 61.688C13.4341 61.688 13.0448 61.784 12.7461 61.976C12.4581 62.168 12.2555 62.4133 12.1381 62.712C12.0741 62.872 11.9621 62.952 11.8021 62.952H11.0821C10.9648 62.952 10.8741 62.92 10.8101 62.856C10.7568 62.7813 10.7301 62.696 10.7301 62.6C10.7301 62.44 10.7888 62.2427 10.9061 62.008C11.0341 61.7733 11.2261 61.544 11.4821 61.32C11.7381 61.096 12.0635 60.9093 12.4581 60.76C12.8635 60.6 13.3541 60.52 13.9301 60.52C14.5701 60.52 15.1088 60.6053 15.5461 60.776C15.9835 60.936 16.3248 61.1547 16.5701 61.432C16.8261 61.7093 17.0075 62.024 17.1141 62.376C17.2315 62.728 17.2901 63.0853 17.2901 63.448V68.632C17.2901 68.7387 17.2528 68.8293 17.1781 68.904C17.1141 68.968 17.0288 69 16.9221 69H16.1861C16.0688 69 15.9781 68.968 15.9141 68.904C15.8501 68.8293 15.8181 68.7387 15.8181 68.632V67.944C15.6795 68.136 15.4928 68.328 15.2581 68.52C15.0235 68.7013 14.7301 68.856 14.3781 68.984C14.0261 69.1013 13.5941 69.16 13.0821 69.16ZM13.4181 67.96C13.8555 67.96 14.2555 67.8693 14.6181 67.688C14.9808 67.496 15.2635 67.2027 15.4661 66.808C15.6795 66.4133 15.7861 65.9173 15.7861 65.32V64.872L13.9301 65.144C13.1728 65.2507 12.6021 65.432 12.2181 65.688C11.8341 65.9333 11.6421 66.248 11.6421 66.632C11.6421 66.9307 11.7275 67.1813 11.8981 67.384C12.0795 67.576 12.3035 67.72 12.5701 67.816C12.8475 67.912 13.1301 67.96 13.4181 67.96ZM22.9503 69.16C22.1929 69.16 21.5369 69.016 20.9823 68.728C20.4383 68.4293 20.0169 68.008 19.7183 67.464C19.4196 66.9093 19.2596 66.248 19.2383 65.48C19.2276 65.32 19.2223 65.1067 19.2223 64.84C19.2223 64.5733 19.2276 64.36 19.2383 64.2C19.2596 63.432 19.4196 62.776 19.7183 62.232C20.0169 61.6773 20.4383 61.256 20.9823 60.968C21.5369 60.6693 22.1929 60.52 22.9503 60.52C23.5689 60.52 24.0969 60.6053 24.5343 60.776C24.9823 60.9467 25.3503 61.1653 25.6383 61.432C25.9263 61.6987 26.1396 61.9867 26.2783 62.296C26.4276 62.6053 26.5076 62.8987 26.5183 63.176C26.5289 63.2827 26.4969 63.368 26.4223 63.432C26.3476 63.496 26.2569 63.528 26.1503 63.528H25.3823C25.2756 63.528 25.1956 63.5067 25.1423 63.464C25.0889 63.4107 25.0356 63.3253 24.9823 63.208C24.7903 62.6853 24.5289 62.3173 24.1983 62.104C23.8676 61.8907 23.4569 61.784 22.9663 61.784C22.3263 61.784 21.8036 61.9813 21.3983 62.376C21.0036 62.7707 20.7903 63.4053 20.7582 64.28C20.7476 64.664 20.7476 65.0373 20.7582 65.4C20.7903 66.2853 21.0036 66.9253 21.3983 67.32C21.8036 67.704 22.3263 67.896 22.9663 67.896C23.4569 67.896 23.8676 67.7893 24.1983 67.576C24.5289 67.3627 24.7903 66.9947 24.9823 66.472C25.0356 66.3547 25.0889 66.2747 25.1423 66.232C25.1956 66.1787 25.2756 66.152 25.3823 66.152H26.1503C26.2569 66.152 26.3476 66.184 26.4223 66.248C26.4969 66.312 26.5289 66.3973 26.5183 66.504C26.5076 66.728 26.4596 66.9573 26.3743 67.192C26.2889 67.4267 26.1503 67.6667 25.9583 67.912C25.7769 68.1467 25.5476 68.36 25.2703 68.552C24.9929 68.7333 24.6569 68.8827 24.2623 69C23.8783 69.1067 23.4409 69.16 22.9503 69.16ZM30.7384 69.16C30.205 69.16 29.7197 69.0533 29.2824 68.84C28.845 68.6267 28.493 68.3387 28.2264 67.976C27.9597 67.6133 27.8264 67.2027 27.8264 66.744C27.8264 66.008 28.125 65.4213 28.7224 64.984C29.3197 64.5467 30.0984 64.2587 31.0584 64.12L33.4424 63.784V63.32C33.4424 62.808 33.293 62.408 32.9944 62.12C32.7064 61.832 32.2317 61.688 31.5704 61.688C31.0904 61.688 30.701 61.784 30.4024 61.976C30.1144 62.168 29.9117 62.4133 29.7944 62.712C29.7304 62.872 29.6184 62.952 29.4584 62.952H28.7384C28.621 62.952 28.5304 62.92 28.4664 62.856C28.413 62.7813 28.3864 62.696 28.3864 62.6C28.3864 62.44 28.445 62.2427 28.5624 62.008C28.6904 61.7733 28.8824 61.544 29.1384 61.32C29.3944 61.096 29.7197 60.9093 30.1144 60.76C30.5197 60.6 31.0104 60.52 31.5864 60.52C32.2264 60.52 32.765 60.6053 33.2024 60.776C33.6397 60.936 33.981 61.1547 34.2264 61.432C34.4824 61.7093 34.6637 62.024 34.7704 62.376C34.8877 62.728 34.9464 63.0853 34.9464 63.448V68.632C34.9464 68.7387 34.909 68.8293 34.8344 68.904C34.7704 68.968 34.685 69 34.5784 69H33.8424C33.725 69 33.6344 68.968 33.5704 68.904C33.5064 68.8293 33.4744 68.7387 33.4744 68.632V67.944C33.3357 68.136 33.149 68.328 32.9144 68.52C32.6797 68.7013 32.3864 68.856 32.0344 68.984C31.6824 69.1013 31.2504 69.16 30.7384 69.16ZM31.0744 67.96C31.5117 67.96 31.9117 67.8693 32.2744 67.688C32.637 67.496 32.9197 67.2027 33.1224 66.808C33.3357 66.4133 33.4424 65.9173 33.4424 65.32V64.872L31.5864 65.144C30.829 65.2507 30.2584 65.432 29.8744 65.688C29.4904 65.9333 29.2984 66.248 29.2984 66.632C29.2984 66.9307 29.3837 67.1813 29.5544 67.384C29.7357 67.576 29.9597 67.72 30.2264 67.816C30.5037 67.912 30.7864 67.96 31.0744 67.96ZM37.6145 69C37.5078 69 37.4172 68.968 37.3425 68.904C37.2785 68.8293 37.2465 68.7387 37.2465 68.632V61.048C37.2465 60.9413 37.2785 60.856 37.3425 60.792C37.4172 60.7173 37.5078 60.68 37.6145 60.68H38.3665C38.4732 60.68 38.5585 60.7173 38.6225 60.792C38.6972 60.856 38.7345 60.9413 38.7345 61.048V61.752C39.0118 61.3893 39.3585 61.096 39.7745 60.872C40.2012 60.6373 40.7452 60.52 41.4065 60.52C42.0998 60.52 42.6865 60.6747 43.1665 60.984C43.6572 61.2827 44.0252 61.704 44.2705 62.248C44.5158 62.7813 44.6385 63.4053 44.6385 64.12V68.632C44.6385 68.7387 44.6065 68.8293 44.5425 68.904C44.4785 68.968 44.3932 69 44.2865 69H43.4865C43.3798 69 43.2892 68.968 43.2145 68.904C43.1505 68.8293 43.1185 68.7387 43.1185 68.632V64.2C43.1185 63.4533 42.9372 62.872 42.5745 62.456C42.2118 62.0293 41.6785 61.816 40.9745 61.816C40.3132 61.816 39.7798 62.0293 39.3745 62.456C38.9798 62.872 38.7825 63.4533 38.7825 64.2V68.632C38.7825 68.7387 38.7452 68.8293 38.6705 68.904C38.6065 68.968 38.5212 69 38.4145 69H37.6145ZM50.3096 69.16C49.5523 69.16 48.8963 69.016 48.3416 68.728C47.7976 68.4293 47.3763 68.008 47.0776 67.464C46.779 66.9093 46.619 66.248 46.5976 65.48C46.587 65.32 46.5816 65.1067 46.5816 64.84C46.5816 64.5733 46.587 64.36 46.5976 64.2C46.619 63.432 46.779 62.776 47.0776 62.232C47.3763 61.6773 47.7976 61.256 48.3416 60.968C48.8963 60.6693 49.5523 60.52 50.3096 60.52C50.9283 60.52 51.4563 60.6053 51.8936 60.776C52.3416 60.9467 52.7096 61.1653 52.9976 61.432C53.2856 61.6987 53.499 61.9867 53.6376 62.296C53.787 62.6053 53.867 62.8987 53.8776 63.176C53.8883 63.2827 53.8563 63.368 53.7816 63.432C53.707 63.496 53.6163 63.528 53.5096 63.528H52.7416C52.635 63.528 52.555 63.5067 52.5016 63.464C52.4483 63.4107 52.395 63.3253 52.3416 63.208C52.1496 62.6853 51.8883 62.3173 51.5576 62.104C51.227 61.8907 50.8163 61.784 50.3256 61.784C49.6856 61.784 49.163 61.9813 48.7576 62.376C48.363 62.7707 48.1496 63.4053 48.1176 64.28C48.107 64.664 48.107 65.0373 48.1176 65.4C48.1496 66.2853 48.363 66.9253 48.7576 67.32C49.163 67.704 49.6856 67.896 50.3256 67.896C50.8163 67.896 51.227 67.7893 51.5576 67.576C51.8883 67.3627 52.1496 66.9947 52.3416 66.472C52.395 66.3547 52.4483 66.2747 52.5016 66.232C52.555 66.1787 52.635 66.152 52.7416 66.152H53.5096C53.6163 66.152 53.707 66.184 53.7816 66.248C53.8563 66.312 53.8883 66.3973 53.8776 66.504C53.867 66.728 53.819 66.9573 53.7336 67.192C53.6483 67.4267 53.5096 67.6667 53.3176 67.912C53.1363 68.1467 52.907 68.36 52.6296 68.552C52.3523 68.7333 52.0163 68.8827 51.6216 69C51.2376 69.1067 50.8003 69.16 50.3096 69.16ZM56.1458 69C56.0391 69 55.9484 68.968 55.8738 68.904C55.8098 68.8293 55.7778 68.7387 55.7778 68.632V61.048C55.7778 60.9413 55.8098 60.856 55.8738 60.792C55.9484 60.7173 56.0391 60.68 56.1458 60.68H56.9138C57.0204 60.68 57.1058 60.7173 57.1698 60.792C57.2338 60.856 57.2658 60.9413 57.2658 61.048V68.632C57.2658 68.7387 57.2338 68.8293 57.1698 68.904C57.1058 68.968 57.0204 69 56.9138 69H56.1458ZM56.0178 59.128C55.9111 59.128 55.8204 59.096 55.7458 59.032C55.6818 58.9573 55.6497 58.8667 55.6497 58.76V57.896C55.6497 57.7893 55.6818 57.704 55.7458 57.64C55.8204 57.5653 55.9111 57.528 56.0178 57.528H57.0258C57.1324 57.528 57.2178 57.5653 57.2818 57.64C57.3564 57.704 57.3938 57.7893 57.3938 57.896V58.76C57.3938 58.8667 57.3564 58.9573 57.2818 59.032C57.2178 59.096 57.1324 59.128 57.0258 59.128H56.0178ZM62.9648 69.16C61.8661 69.16 60.9914 68.824 60.3408 68.152C59.6901 67.4693 59.3328 66.5413 59.2688 65.368C59.2581 65.2293 59.2528 65.0533 59.2528 64.84C59.2528 64.616 59.2581 64.4347 59.2688 64.296C59.3114 63.5387 59.4874 62.8773 59.7968 62.312C60.1061 61.736 60.5274 61.2933 61.0608 60.984C61.6048 60.6747 62.2394 60.52 62.9648 60.52C63.7754 60.52 64.4528 60.6907 64.9968 61.032C65.5514 61.3733 65.9728 61.8587 66.2608 62.488C66.5488 63.1173 66.6927 63.8533 66.6927 64.696V64.968C66.6927 65.0853 66.6554 65.176 66.5808 65.24C66.5168 65.304 66.4314 65.336 66.3248 65.336H60.7888C60.7888 65.3467 60.7888 65.368 60.7888 65.4C60.7888 65.432 60.7888 65.4587 60.7888 65.48C60.8101 65.9173 60.9061 66.328 61.0768 66.712C61.2474 67.0853 61.4928 67.3893 61.8128 67.624C62.1328 67.8587 62.5168 67.976 62.9648 67.976C63.3488 67.976 63.6688 67.9173 63.9248 67.8C64.1808 67.6827 64.3888 67.5547 64.5488 67.416C64.7088 67.2667 64.8154 67.1547 64.8688 67.08C64.9648 66.9413 65.0394 66.8613 65.0928 66.84C65.1461 66.808 65.2314 66.792 65.3488 66.792H66.1168C66.2234 66.792 66.3088 66.824 66.3728 66.888C66.4474 66.9413 66.4794 67.0213 66.4688 67.128C66.4581 67.288 66.3728 67.4853 66.2128 67.72C66.0528 67.944 65.8234 68.168 65.5248 68.392C65.2261 68.616 64.8634 68.8027 64.4368 68.952C64.0101 69.0907 63.5194 69.16 62.9648 69.16ZM60.7888 64.232H65.1728V64.184C65.1728 63.704 65.0821 63.2773 64.9008 62.904C64.7301 62.5307 64.4794 62.2373 64.1488 62.024C63.8181 61.8 63.4234 61.688 62.9648 61.688C62.5061 61.688 62.1114 61.8 61.7808 62.024C61.4608 62.2373 61.2154 62.5307 61.0448 62.904C60.8741 63.2773 60.7888 63.704 60.7888 64.184V64.232ZM71.4859 69.16C70.8885 69.16 70.3765 69.0853 69.9499 68.936C69.5232 68.7867 69.1765 68.6053 68.9099 68.392C68.6432 68.1787 68.4405 67.9653 68.3019 67.752C68.1739 67.5387 68.1045 67.368 68.0939 67.24C68.0832 67.1227 68.1205 67.032 68.2059 66.968C68.2912 66.904 68.3765 66.872 68.4619 66.872H69.1659C69.2299 66.872 69.2779 66.8827 69.3099 66.904C69.3525 66.9147 69.4059 66.9573 69.4699 67.032C69.6085 67.1813 69.7632 67.3307 69.9339 67.48C70.1045 67.6293 70.3125 67.752 70.5579 67.848C70.8139 67.944 71.1285 67.992 71.5019 67.992C72.0459 67.992 72.4939 67.8907 72.8459 67.688C73.1979 67.4747 73.3739 67.1653 73.3739 66.76C73.3739 66.4933 73.2992 66.28 73.1499 66.12C73.0112 65.96 72.7552 65.816 72.3819 65.688C72.0192 65.56 71.5179 65.4267 70.8779 65.288C70.2379 65.1387 69.7312 64.9573 69.3579 64.744C68.9845 64.52 68.7179 64.2587 68.5579 63.96C68.3979 63.6507 68.3179 63.304 68.3179 62.92C68.3179 62.5253 68.4352 62.1467 68.6699 61.784C68.9045 61.4107 69.2459 61.1067 69.6939 60.872C70.1525 60.6373 70.7232 60.52 71.4059 60.52C71.9605 60.52 72.4352 60.5893 72.8299 60.728C73.2245 60.8667 73.5499 61.0427 73.8059 61.256C74.0619 61.4587 74.2539 61.6613 74.3819 61.864C74.5099 62.0667 74.5792 62.2373 74.5899 62.376C74.6005 62.4827 74.5685 62.5733 74.4939 62.648C74.4192 62.712 74.3339 62.744 74.2379 62.744H73.5659C73.4912 62.744 73.4272 62.728 73.3739 62.696C73.3312 62.664 73.2885 62.6267 73.2459 62.584C73.1392 62.4453 73.0112 62.3067 72.8619 62.168C72.7232 62.0293 72.5365 61.9173 72.3019 61.832C72.0779 61.736 71.7792 61.688 71.4059 61.688C70.8725 61.688 70.4725 61.8 70.2059 62.024C69.9392 62.248 69.8059 62.5307 69.8059 62.872C69.8059 63.0747 69.8645 63.256 69.9819 63.416C70.0992 63.576 70.3232 63.72 70.6539 63.848C70.9845 63.976 71.4752 64.1147 72.1259 64.264C72.8299 64.4027 73.3845 64.5893 73.7899 64.824C74.1952 65.0587 74.4832 65.3307 74.6539 65.64C74.8245 65.9493 74.9099 66.3067 74.9099 66.712C74.9099 67.16 74.7765 67.5707 74.5099 67.944C74.2539 68.3173 73.8699 68.616 73.3579 68.84C72.8565 69.0533 72.2325 69.16 71.4859 69.16Z" fill="white"/>
</svg>
