<svg width="80" height="86" viewBox="0 0 80 86" fill="none" xmlns="http://www.w3.org/2000/svg">
<path d="M4.25365 69C4.14699 69 4.05632 68.968 3.98165 68.904C3.91765 68.8293 3.88565 68.7387 3.88565 68.632V58.184C3.88565 58.0667 3.91765 57.976 3.98165 57.912C4.05632 57.8373 4.14699 57.8 4.25365 57.8H5.05365C5.18165 57.8 5.27765 57.832 5.34165 57.896C5.40565 57.96 5.44299 58.0133 5.45365 58.056L8.84565 64.52L12.2537 58.056C12.275 58.0133 12.3123 57.96 12.3657 57.896C12.4297 57.832 12.5257 57.8 12.6537 57.8H13.4377C13.555 57.8 13.6457 57.8373 13.7097 57.912C13.7843 57.976 13.8217 58.0667 13.8217 58.184V68.632C13.8217 68.7387 13.7843 68.8293 13.7097 68.904C13.6457 68.968 13.555 69 13.4377 69H12.6537C12.547 69 12.4563 68.968 12.3817 68.904C12.3177 68.8293 12.2857 68.7387 12.2857 68.632V60.76L9.61365 65.976C9.57099 66.0827 9.50699 66.168 9.42165 66.232C9.33632 66.2853 9.22965 66.312 9.10165 66.312H8.60565C8.46699 66.312 8.35499 66.2853 8.26965 66.232C8.19499 66.168 8.13099 66.0827 8.07765 65.976L5.40565 60.76V68.632C5.40565 68.7387 5.36832 68.8293 5.29365 68.904C5.22965 68.968 5.14432 69 5.03765 69H4.25365ZM17.8368 72.04C17.7514 72.04 17.6768 72.008 17.6128 71.944C17.5488 71.88 17.5168 71.8053 17.5168 71.72C17.5168 71.6773 17.5221 71.6347 17.5328 71.592C17.5434 71.5493 17.5648 71.496 17.5968 71.432L18.8288 68.504L15.7728 61.288C15.7194 61.16 15.6928 61.0693 15.6928 61.016C15.6928 60.92 15.7248 60.84 15.7888 60.776C15.8528 60.712 15.9328 60.68 16.0288 60.68H16.8128C16.9194 60.68 17.0048 60.7067 17.0688 60.76C17.1328 60.8133 17.1754 60.8773 17.1968 60.952L19.6288 66.776L22.1248 60.952C22.1568 60.8773 22.1994 60.8133 22.2528 60.76C22.3168 60.7067 22.4074 60.68 22.5248 60.68H23.2768C23.3728 60.68 23.4528 60.712 23.5168 60.776C23.5808 60.84 23.6128 60.9147 23.6128 61C23.6128 61.0533 23.5861 61.1493 23.5328 61.288L18.9888 71.768C18.9568 71.8427 18.9088 71.9067 18.8448 71.96C18.7914 72.0133 18.7061 72.04 18.5888 72.04H17.8368ZM29.2693 69C29.1519 69 29.0613 68.968 28.9973 68.904C28.9333 68.8293 28.9013 68.7387 28.9013 68.632V58.184C28.9013 58.0667 28.9333 57.976 28.9973 57.912C29.0613 57.8373 29.1519 57.8 29.2693 57.8H33.3333C34.1226 57.8 34.8053 57.928 35.3813 58.184C35.9679 58.44 36.4213 58.824 36.7413 59.336C37.0613 59.8373 37.2213 60.4667 37.2213 61.224C37.2213 61.9813 37.0613 62.6107 36.7413 63.112C36.4213 63.6133 35.9679 63.992 35.3813 64.248C34.8053 64.504 34.1226 64.632 33.3333 64.632H30.5013V68.632C30.5013 68.7387 30.4639 68.8293 30.3893 68.904C30.3253 68.968 30.2346 69 30.1173 69H29.2693ZM30.4853 63.288H33.2533C34.0426 63.288 34.6346 63.112 35.0293 62.76C35.4239 62.408 35.6213 61.896 35.6213 61.224C35.6213 60.5627 35.4293 60.0507 35.0453 59.688C34.6613 59.3253 34.0639 59.144 33.2533 59.144H30.4853V63.288ZM39.3269 69C39.2202 69 39.1296 68.968 39.0549 68.904C38.9909 68.8293 38.9589 68.7387 38.9589 68.632V61.064C38.9589 60.9573 38.9909 60.8667 39.0549 60.792C39.1296 60.7173 39.2202 60.68 39.3269 60.68H40.0629C40.1696 60.68 40.2602 60.7173 40.3349 60.792C40.4096 60.8667 40.4469 60.9573 40.4469 61.064V61.768C40.6602 61.4053 40.9536 61.1333 41.3269 60.952C41.7002 60.7707 42.1482 60.68 42.6709 60.68H43.3109C43.4176 60.68 43.5029 60.7173 43.5669 60.792C43.6309 60.856 43.6629 60.9413 43.6629 61.048V61.704C43.6629 61.8107 43.6309 61.896 43.5669 61.96C43.5029 62.024 43.4176 62.056 43.3109 62.056H42.3509C41.7749 62.056 41.3216 62.2267 40.9909 62.568C40.6602 62.8987 40.4949 63.352 40.4949 63.928V68.632C40.4949 68.7387 40.4576 68.8293 40.3829 68.904C40.3082 68.968 40.2176 69 40.1109 69H39.3269ZM48.2888 69.16C47.4781 69.16 46.8008 69.0053 46.2568 68.696C45.7128 68.3867 45.2968 67.96 45.0088 67.416C44.7208 66.8613 44.5608 66.232 44.5288 65.528C44.5181 65.3467 44.5128 65.1173 44.5128 64.84C44.5128 64.552 44.5181 64.3227 44.5288 64.152C44.5608 63.4373 44.7208 62.808 45.0088 62.264C45.3074 61.72 45.7288 61.2933 46.2728 60.984C46.8168 60.6747 47.4888 60.52 48.2888 60.52C49.0888 60.52 49.7608 60.6747 50.3048 60.984C50.8488 61.2933 51.2648 61.72 51.5528 62.264C51.8514 62.808 52.0168 63.4373 52.0488 64.152C52.0594 64.3227 52.0648 64.552 52.0648 64.84C52.0648 65.1173 52.0594 65.3467 52.0488 65.528C52.0168 66.232 51.8568 66.8613 51.5688 67.416C51.2808 67.96 50.8648 68.3867 50.3208 68.696C49.7768 69.0053 49.0994 69.16 48.2888 69.16ZM48.2888 67.928C48.9501 67.928 49.4781 67.72 49.8728 67.304C50.2674 66.8773 50.4808 66.2587 50.5128 65.448C50.5234 65.288 50.5288 65.0853 50.5288 64.84C50.5288 64.5947 50.5234 64.392 50.5128 64.232C50.4808 63.4213 50.2674 62.808 49.8728 62.392C49.4781 61.9653 48.9501 61.752 48.2888 61.752C47.6274 61.752 47.0941 61.9653 46.6888 62.392C46.2941 62.808 46.0861 63.4213 46.0648 64.232C46.0541 64.392 46.0488 64.5947 46.0488 64.84C46.0488 65.0853 46.0541 65.288 46.0648 65.448C46.0861 66.2587 46.2941 66.8773 46.6888 67.304C47.0941 67.72 47.6274 67.928 48.2888 67.928ZM55.1745 69C55.0679 69 54.9772 68.968 54.9025 68.904C54.8385 68.8293 54.8065 68.7387 54.8065 68.632V61.96H53.4465C53.3399 61.96 53.2492 61.928 53.1745 61.864C53.1105 61.7893 53.0785 61.6987 53.0785 61.592V61.048C53.0785 60.9413 53.1105 60.856 53.1745 60.792C53.2492 60.7173 53.3399 60.68 53.4465 60.68H54.8065V59.88C54.8065 59.336 54.8972 58.8613 55.0785 58.456C55.2599 58.04 55.5479 57.72 55.9425 57.496C56.3479 57.272 56.8865 57.16 57.5585 57.16H60.0225C60.1292 57.16 60.2145 57.1973 60.2785 57.272C60.3532 57.336 60.3905 57.4213 60.3905 57.528V58.072C60.3905 58.1787 60.3532 58.2693 60.2785 58.344C60.2145 58.408 60.1292 58.44 60.0225 58.44H57.5905C57.0892 58.44 56.7479 58.5733 56.5665 58.84C56.3852 59.096 56.2945 59.4693 56.2945 59.96V60.68H60.0225C60.1292 60.68 60.2145 60.7173 60.2785 60.792C60.3532 60.856 60.3905 60.9413 60.3905 61.048V68.632C60.3905 68.7387 60.3532 68.8293 60.2785 68.904C60.2145 68.968 60.1292 69 60.0225 69H59.2865C59.1692 69 59.0785 68.968 59.0145 68.904C58.9505 68.8293 58.9185 68.7387 58.9185 68.632V61.96H56.2945V68.632C56.2945 68.7387 56.2572 68.8293 56.1825 68.904C56.1185 68.968 56.0332 69 55.9265 69H55.1745ZM63.1398 69C63.0331 69 62.9424 68.968 62.8678 68.904C62.8038 68.8293 62.7718 68.7387 62.7718 68.632V58.008C62.7718 57.9013 62.8038 57.816 62.8678 57.752C62.9424 57.6773 63.0331 57.64 63.1398 57.64H63.8918C64.0091 57.64 64.0998 57.6773 64.1638 57.752C64.2278 57.816 64.2598 57.9013 64.2598 58.008V68.632C64.2598 68.7387 64.2278 68.8293 64.1638 68.904C64.0998 68.968 64.0091 69 63.8918 69H63.1398ZM69.9584 69.16C68.8597 69.16 67.9851 68.824 67.3344 68.152C66.6837 67.4693 66.3264 66.5413 66.2624 65.368C66.2517 65.2293 66.2464 65.0533 66.2464 64.84C66.2464 64.616 66.2517 64.4347 66.2624 64.296C66.3051 63.5387 66.4811 62.8773 66.7904 62.312C67.0997 61.736 67.5211 61.2933 68.0544 60.984C68.5984 60.6747 69.2331 60.52 69.9584 60.52C70.7691 60.52 71.4464 60.6907 71.9904 61.032C72.5451 61.3733 72.9664 61.8587 73.2544 62.488C73.5424 63.1173 73.6864 63.8533 73.6864 64.696V64.968C73.6864 65.0853 73.6491 65.176 73.5744 65.24C73.5104 65.304 73.4251 65.336 73.3184 65.336H67.7824C67.7824 65.3467 67.7824 65.368 67.7824 65.4C67.7824 65.432 67.7824 65.4587 67.7824 65.48C67.8037 65.9173 67.8997 66.328 68.0704 66.712C68.2411 67.0853 68.4864 67.3893 68.8064 67.624C69.1264 67.8587 69.5104 67.976 69.9584 67.976C70.3424 67.976 70.6624 67.9173 70.9184 67.8C71.1744 67.6827 71.3824 67.5547 71.5424 67.416C71.7024 67.2667 71.8091 67.1547 71.8624 67.08C71.9584 66.9413 72.0331 66.8613 72.0864 66.84C72.1397 66.808 72.2251 66.792 72.3424 66.792H73.1104C73.2171 66.792 73.3024 66.824 73.3664 66.888C73.4411 66.9413 73.4731 67.0213 73.4624 67.128C73.4517 67.288 73.3664 67.4853 73.2064 67.72C73.0464 67.944 72.8171 68.168 72.5184 68.392C72.2197 68.616 71.8571 68.8027 71.4304 68.952C71.0037 69.0907 70.5131 69.16 69.9584 69.16ZM67.7824 64.232H72.1664V64.184C72.1664 63.704 72.0757 63.2773 71.8944 62.904C71.7237 62.5307 71.4731 62.2373 71.1424 62.024C70.8117 61.8 70.4171 61.688 69.9584 61.688C69.4997 61.688 69.1051 61.8 68.7744 62.024C68.4544 62.2373 68.2091 62.5307 68.0384 62.904C67.8677 63.2773 67.7824 63.704 67.7824 64.184V64.232Z" fill="white"/>
<g filter="url(#filter0_f_2_26637)">
<path d="M4.25365 69C4.14699 69 4.05632 68.968 3.98165 68.904C3.91765 68.8293 3.88565 68.7387 3.88565 68.632V58.184C3.88565 58.0667 3.91765 57.976 3.98165 57.912C4.05632 57.8373 4.14699 57.8 4.25365 57.8H5.05365C5.18165 57.8 5.27765 57.832 5.34165 57.896C5.40565 57.96 5.44299 58.0133 5.45365 58.056L8.84565 64.52L12.2537 58.056C12.275 58.0133 12.3123 57.96 12.3657 57.896C12.4297 57.832 12.5257 57.8 12.6537 57.8H13.4377C13.555 57.8 13.6457 57.8373 13.7097 57.912C13.7843 57.976 13.8217 58.0667 13.8217 58.184V68.632C13.8217 68.7387 13.7843 68.8293 13.7097 68.904C13.6457 68.968 13.555 69 13.4377 69H12.6537C12.547 69 12.4563 68.968 12.3817 68.904C12.3177 68.8293 12.2857 68.7387 12.2857 68.632V60.76L9.61365 65.976C9.57099 66.0827 9.50699 66.168 9.42165 66.232C9.33632 66.2853 9.22965 66.312 9.10165 66.312H8.60565C8.46699 66.312 8.35499 66.2853 8.26965 66.232C8.19499 66.168 8.13099 66.0827 8.07765 65.976L5.40565 60.76V68.632C5.40565 68.7387 5.36832 68.8293 5.29365 68.904C5.22965 68.968 5.14432 69 5.03765 69H4.25365ZM17.8368 72.04C17.7514 72.04 17.6768 72.008 17.6128 71.944C17.5488 71.88 17.5168 71.8053 17.5168 71.72C17.5168 71.6773 17.5221 71.6347 17.5328 71.592C17.5434 71.5493 17.5648 71.496 17.5968 71.432L18.8288 68.504L15.7728 61.288C15.7194 61.16 15.6928 61.0693 15.6928 61.016C15.6928 60.92 15.7248 60.84 15.7888 60.776C15.8528 60.712 15.9328 60.68 16.0288 60.68H16.8128C16.9194 60.68 17.0048 60.7067 17.0688 60.76C17.1328 60.8133 17.1754 60.8773 17.1968 60.952L19.6288 66.776L22.1248 60.952C22.1568 60.8773 22.1994 60.8133 22.2528 60.76C22.3168 60.7067 22.4074 60.68 22.5248 60.68H23.2768C23.3728 60.68 23.4528 60.712 23.5168 60.776C23.5808 60.84 23.6128 60.9147 23.6128 61C23.6128 61.0533 23.5861 61.1493 23.5328 61.288L18.9888 71.768C18.9568 71.8427 18.9088 71.9067 18.8448 71.96C18.7914 72.0133 18.7061 72.04 18.5888 72.04H17.8368ZM29.2693 69C29.1519 69 29.0613 68.968 28.9973 68.904C28.9333 68.8293 28.9013 68.7387 28.9013 68.632V58.184C28.9013 58.0667 28.9333 57.976 28.9973 57.912C29.0613 57.8373 29.1519 57.8 29.2693 57.8H33.3333C34.1226 57.8 34.8053 57.928 35.3813 58.184C35.9679 58.44 36.4213 58.824 36.7413 59.336C37.0613 59.8373 37.2213 60.4667 37.2213 61.224C37.2213 61.9813 37.0613 62.6107 36.7413 63.112C36.4213 63.6133 35.9679 63.992 35.3813 64.248C34.8053 64.504 34.1226 64.632 33.3333 64.632H30.5013V68.632C30.5013 68.7387 30.4639 68.8293 30.3893 68.904C30.3253 68.968 30.2346 69 30.1173 69H29.2693ZM30.4853 63.288H33.2533C34.0426 63.288 34.6346 63.112 35.0293 62.76C35.4239 62.408 35.6213 61.896 35.6213 61.224C35.6213 60.5627 35.4293 60.0507 35.0453 59.688C34.6613 59.3253 34.0639 59.144 33.2533 59.144H30.4853V63.288ZM39.3269 69C39.2202 69 39.1296 68.968 39.0549 68.904C38.9909 68.8293 38.9589 68.7387 38.9589 68.632V61.064C38.9589 60.9573 38.9909 60.8667 39.0549 60.792C39.1296 60.7173 39.2202 60.68 39.3269 60.68H40.0629C40.1696 60.68 40.2602 60.7173 40.3349 60.792C40.4096 60.8667 40.4469 60.9573 40.4469 61.064V61.768C40.6602 61.4053 40.9536 61.1333 41.3269 60.952C41.7002 60.7707 42.1482 60.68 42.6709 60.68H43.3109C43.4176 60.68 43.5029 60.7173 43.5669 60.792C43.6309 60.856 43.6629 60.9413 43.6629 61.048V61.704C43.6629 61.8107 43.6309 61.896 43.5669 61.96C43.5029 62.024 43.4176 62.056 43.3109 62.056H42.3509C41.7749 62.056 41.3216 62.2267 40.9909 62.568C40.6602 62.8987 40.4949 63.352 40.4949 63.928V68.632C40.4949 68.7387 40.4576 68.8293 40.3829 68.904C40.3082 68.968 40.2176 69 40.1109 69H39.3269ZM48.2888 69.16C47.4781 69.16 46.8008 69.0053 46.2568 68.696C45.7128 68.3867 45.2968 67.96 45.0088 67.416C44.7208 66.8613 44.5608 66.232 44.5288 65.528C44.5181 65.3467 44.5128 65.1173 44.5128 64.84C44.5128 64.552 44.5181 64.3227 44.5288 64.152C44.5608 63.4373 44.7208 62.808 45.0088 62.264C45.3074 61.72 45.7288 61.2933 46.2728 60.984C46.8168 60.6747 47.4888 60.52 48.2888 60.52C49.0888 60.52 49.7608 60.6747 50.3048 60.984C50.8488 61.2933 51.2648 61.72 51.5528 62.264C51.8514 62.808 52.0168 63.4373 52.0488 64.152C52.0594 64.3227 52.0648 64.552 52.0648 64.84C52.0648 65.1173 52.0594 65.3467 52.0488 65.528C52.0168 66.232 51.8568 66.8613 51.5688 67.416C51.2808 67.96 50.8648 68.3867 50.3208 68.696C49.7768 69.0053 49.0994 69.16 48.2888 69.16ZM48.2888 67.928C48.9501 67.928 49.4781 67.72 49.8728 67.304C50.2674 66.8773 50.4808 66.2587 50.5128 65.448C50.5234 65.288 50.5288 65.0853 50.5288 64.84C50.5288 64.5947 50.5234 64.392 50.5128 64.232C50.4808 63.4213 50.2674 62.808 49.8728 62.392C49.4781 61.9653 48.9501 61.752 48.2888 61.752C47.6274 61.752 47.0941 61.9653 46.6888 62.392C46.2941 62.808 46.0861 63.4213 46.0648 64.232C46.0541 64.392 46.0488 64.5947 46.0488 64.84C46.0488 65.0853 46.0541 65.288 46.0648 65.448C46.0861 66.2587 46.2941 66.8773 46.6888 67.304C47.0941 67.72 47.6274 67.928 48.2888 67.928ZM55.1745 69C55.0679 69 54.9772 68.968 54.9025 68.904C54.8385 68.8293 54.8065 68.7387 54.8065 68.632V61.96H53.4465C53.3399 61.96 53.2492 61.928 53.1745 61.864C53.1105 61.7893 53.0785 61.6987 53.0785 61.592V61.048C53.0785 60.9413 53.1105 60.856 53.1745 60.792C53.2492 60.7173 53.3399 60.68 53.4465 60.68H54.8065V59.88C54.8065 59.336 54.8972 58.8613 55.0785 58.456C55.2599 58.04 55.5479 57.72 55.9425 57.496C56.3479 57.272 56.8865 57.16 57.5585 57.16H60.0225C60.1292 57.16 60.2145 57.1973 60.2785 57.272C60.3532 57.336 60.3905 57.4213 60.3905 57.528V58.072C60.3905 58.1787 60.3532 58.2693 60.2785 58.344C60.2145 58.408 60.1292 58.44 60.0225 58.44H57.5905C57.0892 58.44 56.7479 58.5733 56.5665 58.84C56.3852 59.096 56.2945 59.4693 56.2945 59.96V60.68H60.0225C60.1292 60.68 60.2145 60.7173 60.2785 60.792C60.3532 60.856 60.3905 60.9413 60.3905 61.048V68.632C60.3905 68.7387 60.3532 68.8293 60.2785 68.904C60.2145 68.968 60.1292 69 60.0225 69H59.2865C59.1692 69 59.0785 68.968 59.0145 68.904C58.9505 68.8293 58.9185 68.7387 58.9185 68.632V61.96H56.2945V68.632C56.2945 68.7387 56.2572 68.8293 56.1825 68.904C56.1185 68.968 56.0332 69 55.9265 69H55.1745ZM63.1398 69C63.0331 69 62.9424 68.968 62.8678 68.904C62.8038 68.8293 62.7718 68.7387 62.7718 68.632V58.008C62.7718 57.9013 62.8038 57.816 62.8678 57.752C62.9424 57.6773 63.0331 57.64 63.1398 57.64H63.8918C64.0091 57.64 64.0998 57.6773 64.1638 57.752C64.2278 57.816 64.2598 57.9013 64.2598 58.008V68.632C64.2598 68.7387 64.2278 68.8293 64.1638 68.904C64.0998 68.968 64.0091 69 63.8918 69H63.1398ZM69.9584 69.16C68.8597 69.16 67.9851 68.824 67.3344 68.152C66.6837 67.4693 66.3264 66.5413 66.2624 65.368C66.2517 65.2293 66.2464 65.0533 66.2464 64.84C66.2464 64.616 66.2517 64.4347 66.2624 64.296C66.3051 63.5387 66.4811 62.8773 66.7904 62.312C67.0997 61.736 67.5211 61.2933 68.0544 60.984C68.5984 60.6747 69.2331 60.52 69.9584 60.52C70.7691 60.52 71.4464 60.6907 71.9904 61.032C72.5451 61.3733 72.9664 61.8587 73.2544 62.488C73.5424 63.1173 73.6864 63.8533 73.6864 64.696V64.968C73.6864 65.0853 73.6491 65.176 73.5744 65.24C73.5104 65.304 73.4251 65.336 73.3184 65.336H67.7824C67.7824 65.3467 67.7824 65.368 67.7824 65.4C67.7824 65.432 67.7824 65.4587 67.7824 65.48C67.8037 65.9173 67.8997 66.328 68.0704 66.712C68.2411 67.0853 68.4864 67.3893 68.8064 67.624C69.1264 67.8587 69.5104 67.976 69.9584 67.976C70.3424 67.976 70.6624 67.9173 70.9184 67.8C71.1744 67.6827 71.3824 67.5547 71.5424 67.416C71.7024 67.2667 71.8091 67.1547 71.8624 67.08C71.9584 66.9413 72.0331 66.8613 72.0864 66.84C72.1397 66.808 72.2251 66.792 72.3424 66.792H73.1104C73.2171 66.792 73.3024 66.824 73.3664 66.888C73.4411 66.9413 73.4731 67.0213 73.4624 67.128C73.4517 67.288 73.3664 67.4853 73.2064 67.72C73.0464 67.944 72.8171 68.168 72.5184 68.392C72.2197 68.616 71.8571 68.8027 71.4304 68.952C71.0037 69.0907 70.5131 69.16 69.9584 69.16ZM67.7824 64.232H72.1664V64.184C72.1664 63.704 72.0757 63.2773 71.8944 62.904C71.7237 62.5307 71.4731 62.2373 71.1424 62.024C70.8117 61.8 70.4171 61.688 69.9584 61.688C69.4997 61.688 69.1051 61.8 68.7744 62.024C68.4544 62.2373 68.2091 62.5307 68.0384 62.904C67.8677 63.2773 67.7824 63.704 67.7824 64.184V64.232Z" fill="white"/>
</g>
<g filter="url(#filter1_f_2_26637)">
<path d="M4.25365 69C4.14699 69 4.05632 68.968 3.98165 68.904C3.91765 68.8293 3.88565 68.7387 3.88565 68.632V58.184C3.88565 58.0667 3.91765 57.976 3.98165 57.912C4.05632 57.8373 4.14699 57.8 4.25365 57.8H5.05365C5.18165 57.8 5.27765 57.832 5.34165 57.896C5.40565 57.96 5.44299 58.0133 5.45365 58.056L8.84565 64.52L12.2537 58.056C12.275 58.0133 12.3123 57.96 12.3657 57.896C12.4297 57.832 12.5257 57.8 12.6537 57.8H13.4377C13.555 57.8 13.6457 57.8373 13.7097 57.912C13.7843 57.976 13.8217 58.0667 13.8217 58.184V68.632C13.8217 68.7387 13.7843 68.8293 13.7097 68.904C13.6457 68.968 13.555 69 13.4377 69H12.6537C12.547 69 12.4563 68.968 12.3817 68.904C12.3177 68.8293 12.2857 68.7387 12.2857 68.632V60.76L9.61365 65.976C9.57099 66.0827 9.50699 66.168 9.42165 66.232C9.33632 66.2853 9.22965 66.312 9.10165 66.312H8.60565C8.46699 66.312 8.35499 66.2853 8.26965 66.232C8.19499 66.168 8.13099 66.0827 8.07765 65.976L5.40565 60.76V68.632C5.40565 68.7387 5.36832 68.8293 5.29365 68.904C5.22965 68.968 5.14432 69 5.03765 69H4.25365ZM17.8368 72.04C17.7514 72.04 17.6768 72.008 17.6128 71.944C17.5488 71.88 17.5168 71.8053 17.5168 71.72C17.5168 71.6773 17.5221 71.6347 17.5328 71.592C17.5434 71.5493 17.5648 71.496 17.5968 71.432L18.8288 68.504L15.7728 61.288C15.7194 61.16 15.6928 61.0693 15.6928 61.016C15.6928 60.92 15.7248 60.84 15.7888 60.776C15.8528 60.712 15.9328 60.68 16.0288 60.68H16.8128C16.9194 60.68 17.0048 60.7067 17.0688 60.76C17.1328 60.8133 17.1754 60.8773 17.1968 60.952L19.6288 66.776L22.1248 60.952C22.1568 60.8773 22.1994 60.8133 22.2528 60.76C22.3168 60.7067 22.4074 60.68 22.5248 60.68H23.2768C23.3728 60.68 23.4528 60.712 23.5168 60.776C23.5808 60.84 23.6128 60.9147 23.6128 61C23.6128 61.0533 23.5861 61.1493 23.5328 61.288L18.9888 71.768C18.9568 71.8427 18.9088 71.9067 18.8448 71.96C18.7914 72.0133 18.7061 72.04 18.5888 72.04H17.8368ZM29.2693 69C29.1519 69 29.0613 68.968 28.9973 68.904C28.9333 68.8293 28.9013 68.7387 28.9013 68.632V58.184C28.9013 58.0667 28.9333 57.976 28.9973 57.912C29.0613 57.8373 29.1519 57.8 29.2693 57.8H33.3333C34.1226 57.8 34.8053 57.928 35.3813 58.184C35.9679 58.44 36.4213 58.824 36.7413 59.336C37.0613 59.8373 37.2213 60.4667 37.2213 61.224C37.2213 61.9813 37.0613 62.6107 36.7413 63.112C36.4213 63.6133 35.9679 63.992 35.3813 64.248C34.8053 64.504 34.1226 64.632 33.3333 64.632H30.5013V68.632C30.5013 68.7387 30.4639 68.8293 30.3893 68.904C30.3253 68.968 30.2346 69 30.1173 69H29.2693ZM30.4853 63.288H33.2533C34.0426 63.288 34.6346 63.112 35.0293 62.76C35.4239 62.408 35.6213 61.896 35.6213 61.224C35.6213 60.5627 35.4293 60.0507 35.0453 59.688C34.6613 59.3253 34.0639 59.144 33.2533 59.144H30.4853V63.288ZM39.3269 69C39.2202 69 39.1296 68.968 39.0549 68.904C38.9909 68.8293 38.9589 68.7387 38.9589 68.632V61.064C38.9589 60.9573 38.9909 60.8667 39.0549 60.792C39.1296 60.7173 39.2202 60.68 39.3269 60.68H40.0629C40.1696 60.68 40.2602 60.7173 40.3349 60.792C40.4096 60.8667 40.4469 60.9573 40.4469 61.064V61.768C40.6602 61.4053 40.9536 61.1333 41.3269 60.952C41.7002 60.7707 42.1482 60.68 42.6709 60.68H43.3109C43.4176 60.68 43.5029 60.7173 43.5669 60.792C43.6309 60.856 43.6629 60.9413 43.6629 61.048V61.704C43.6629 61.8107 43.6309 61.896 43.5669 61.96C43.5029 62.024 43.4176 62.056 43.3109 62.056H42.3509C41.7749 62.056 41.3216 62.2267 40.9909 62.568C40.6602 62.8987 40.4949 63.352 40.4949 63.928V68.632C40.4949 68.7387 40.4576 68.8293 40.3829 68.904C40.3082 68.968 40.2176 69 40.1109 69H39.3269ZM48.2888 69.16C47.4781 69.16 46.8008 69.0053 46.2568 68.696C45.7128 68.3867 45.2968 67.96 45.0088 67.416C44.7208 66.8613 44.5608 66.232 44.5288 65.528C44.5181 65.3467 44.5128 65.1173 44.5128 64.84C44.5128 64.552 44.5181 64.3227 44.5288 64.152C44.5608 63.4373 44.7208 62.808 45.0088 62.264C45.3074 61.72 45.7288 61.2933 46.2728 60.984C46.8168 60.6747 47.4888 60.52 48.2888 60.52C49.0888 60.52 49.7608 60.6747 50.3048 60.984C50.8488 61.2933 51.2648 61.72 51.5528 62.264C51.8514 62.808 52.0168 63.4373 52.0488 64.152C52.0594 64.3227 52.0648 64.552 52.0648 64.84C52.0648 65.1173 52.0594 65.3467 52.0488 65.528C52.0168 66.232 51.8568 66.8613 51.5688 67.416C51.2808 67.96 50.8648 68.3867 50.3208 68.696C49.7768 69.0053 49.0994 69.16 48.2888 69.16ZM48.2888 67.928C48.9501 67.928 49.4781 67.72 49.8728 67.304C50.2674 66.8773 50.4808 66.2587 50.5128 65.448C50.5234 65.288 50.5288 65.0853 50.5288 64.84C50.5288 64.5947 50.5234 64.392 50.5128 64.232C50.4808 63.4213 50.2674 62.808 49.8728 62.392C49.4781 61.9653 48.9501 61.752 48.2888 61.752C47.6274 61.752 47.0941 61.9653 46.6888 62.392C46.2941 62.808 46.0861 63.4213 46.0648 64.232C46.0541 64.392 46.0488 64.5947 46.0488 64.84C46.0488 65.0853 46.0541 65.288 46.0648 65.448C46.0861 66.2587 46.2941 66.8773 46.6888 67.304C47.0941 67.72 47.6274 67.928 48.2888 67.928ZM55.1745 69C55.0679 69 54.9772 68.968 54.9025 68.904C54.8385 68.8293 54.8065 68.7387 54.8065 68.632V61.96H53.4465C53.3399 61.96 53.2492 61.928 53.1745 61.864C53.1105 61.7893 53.0785 61.6987 53.0785 61.592V61.048C53.0785 60.9413 53.1105 60.856 53.1745 60.792C53.2492 60.7173 53.3399 60.68 53.4465 60.68H54.8065V59.88C54.8065 59.336 54.8972 58.8613 55.0785 58.456C55.2599 58.04 55.5479 57.72 55.9425 57.496C56.3479 57.272 56.8865 57.16 57.5585 57.16H60.0225C60.1292 57.16 60.2145 57.1973 60.2785 57.272C60.3532 57.336 60.3905 57.4213 60.3905 57.528V58.072C60.3905 58.1787 60.3532 58.2693 60.2785 58.344C60.2145 58.408 60.1292 58.44 60.0225 58.44H57.5905C57.0892 58.44 56.7479 58.5733 56.5665 58.84C56.3852 59.096 56.2945 59.4693 56.2945 59.96V60.68H60.0225C60.1292 60.68 60.2145 60.7173 60.2785 60.792C60.3532 60.856 60.3905 60.9413 60.3905 61.048V68.632C60.3905 68.7387 60.3532 68.8293 60.2785 68.904C60.2145 68.968 60.1292 69 60.0225 69H59.2865C59.1692 69 59.0785 68.968 59.0145 68.904C58.9505 68.8293 58.9185 68.7387 58.9185 68.632V61.96H56.2945V68.632C56.2945 68.7387 56.2572 68.8293 56.1825 68.904C56.1185 68.968 56.0332 69 55.9265 69H55.1745ZM63.1398 69C63.0331 69 62.9424 68.968 62.8678 68.904C62.8038 68.8293 62.7718 68.7387 62.7718 68.632V58.008C62.7718 57.9013 62.8038 57.816 62.8678 57.752C62.9424 57.6773 63.0331 57.64 63.1398 57.64H63.8918C64.0091 57.64 64.0998 57.6773 64.1638 57.752C64.2278 57.816 64.2598 57.9013 64.2598 58.008V68.632C64.2598 68.7387 64.2278 68.8293 64.1638 68.904C64.0998 68.968 64.0091 69 63.8918 69H63.1398ZM69.9584 69.16C68.8597 69.16 67.9851 68.824 67.3344 68.152C66.6837 67.4693 66.3264 66.5413 66.2624 65.368C66.2517 65.2293 66.2464 65.0533 66.2464 64.84C66.2464 64.616 66.2517 64.4347 66.2624 64.296C66.3051 63.5387 66.4811 62.8773 66.7904 62.312C67.0997 61.736 67.5211 61.2933 68.0544 60.984C68.5984 60.6747 69.2331 60.52 69.9584 60.52C70.7691 60.52 71.4464 60.6907 71.9904 61.032C72.5451 61.3733 72.9664 61.8587 73.2544 62.488C73.5424 63.1173 73.6864 63.8533 73.6864 64.696V64.968C73.6864 65.0853 73.6491 65.176 73.5744 65.24C73.5104 65.304 73.4251 65.336 73.3184 65.336H67.7824C67.7824 65.3467 67.7824 65.368 67.7824 65.4C67.7824 65.432 67.7824 65.4587 67.7824 65.48C67.8037 65.9173 67.8997 66.328 68.0704 66.712C68.2411 67.0853 68.4864 67.3893 68.8064 67.624C69.1264 67.8587 69.5104 67.976 69.9584 67.976C70.3424 67.976 70.6624 67.9173 70.9184 67.8C71.1744 67.6827 71.3824 67.5547 71.5424 67.416C71.7024 67.2667 71.8091 67.1547 71.8624 67.08C71.9584 66.9413 72.0331 66.8613 72.0864 66.84C72.1397 66.808 72.2251 66.792 72.3424 66.792H73.1104C73.2171 66.792 73.3024 66.824 73.3664 66.888C73.4411 66.9413 73.4731 67.0213 73.4624 67.128C73.4517 67.288 73.3664 67.4853 73.2064 67.72C73.0464 67.944 72.8171 68.168 72.5184 68.392C72.2197 68.616 71.8571 68.8027 71.4304 68.952C71.0037 69.0907 70.5131 69.16 69.9584 69.16ZM67.7824 64.232H72.1664V64.184C72.1664 63.704 72.0757 63.2773 71.8944 62.904C71.7237 62.5307 71.4731 62.2373 71.1424 62.024C70.8117 61.8 70.4171 61.688 69.9584 61.688C69.4997 61.688 69.1051 61.8 68.7744 62.024C68.4544 62.2373 68.2091 62.5307 68.0384 62.904C67.8677 63.2773 67.7824 63.704 67.7824 64.184V64.232Z" fill="white"/>
</g>
<g filter="url(#filter2_f_2_26637)">
<path d="M6.17553 69C6.06886 69 5.97819 68.968 5.90353 68.904C5.83953 68.8293 5.80753 68.7387 5.80753 68.632V58.184C5.80753 58.0667 5.83953 57.976 5.90353 57.912C5.97819 57.8373 6.06886 57.8 6.17553 57.8H6.97553C7.10353 57.8 7.19953 57.832 7.26353 57.896C7.32753 57.96 7.36486 58.0133 7.37553 58.056L10.7675 64.52L14.1755 58.056C14.1969 58.0133 14.2342 57.96 14.2875 57.896C14.3515 57.832 14.4475 57.8 14.5755 57.8H15.3595C15.4769 57.8 15.5675 57.8373 15.6315 57.912C15.7062 57.976 15.7435 58.0667 15.7435 58.184V68.632C15.7435 68.7387 15.7062 68.8293 15.6315 68.904C15.5675 68.968 15.4769 69 15.3595 69H14.5755C14.4689 69 14.3782 68.968 14.3035 68.904C14.2395 68.8293 14.2075 68.7387 14.2075 68.632V60.76L11.5355 65.976C11.4929 66.0827 11.4289 66.168 11.3435 66.232C11.2582 66.2853 11.1515 66.312 11.0235 66.312H10.5275C10.3889 66.312 10.2769 66.2853 10.1915 66.232C10.1169 66.168 10.0529 66.0827 9.99953 65.976L7.32753 60.76V68.632C7.32753 68.7387 7.29019 68.8293 7.21553 68.904C7.15153 68.968 7.06619 69 6.95953 69H6.17553ZM19.7587 72.04C19.6733 72.04 19.5987 72.008 19.5347 71.944C19.4707 71.88 19.4387 71.8053 19.4387 71.72C19.4387 71.6773 19.444 71.6347 19.4547 71.592C19.4653 71.5493 19.4867 71.496 19.5187 71.432L20.7507 68.504L17.6947 61.288C17.6413 61.16 17.6147 61.0693 17.6147 61.016C17.6147 60.92 17.6467 60.84 17.7107 60.776C17.7747 60.712 17.8547 60.68 17.9507 60.68H18.7347C18.8413 60.68 18.9267 60.7067 18.9907 60.76C19.0547 60.8133 19.0973 60.8773 19.1187 60.952L21.5507 66.776L24.0467 60.952C24.0787 60.8773 24.1213 60.8133 24.1747 60.76C24.2387 60.7067 24.3293 60.68 24.4467 60.68H25.1987C25.2947 60.68 25.3747 60.712 25.4387 60.776C25.5027 60.84 25.5347 60.9147 25.5347 61C25.5347 61.0533 25.508 61.1493 25.4547 61.288L20.9107 71.768C20.8787 71.8427 20.8307 71.9067 20.7667 71.96C20.7133 72.0133 20.628 72.04 20.5107 72.04H19.7587ZM31.1912 69C31.0738 69 30.9832 68.968 30.9192 68.904C30.8552 68.8293 30.8232 68.7387 30.8232 68.632V58.184C30.8232 58.0667 30.8552 57.976 30.9192 57.912C30.9832 57.8373 31.0738 57.8 31.1912 57.8H35.2552C36.0445 57.8 36.7272 57.928 37.3032 58.184C37.8898 58.44 38.3432 58.824 38.6632 59.336C38.9832 59.8373 39.1432 60.4667 39.1432 61.224C39.1432 61.9813 38.9832 62.6107 38.6632 63.112C38.3432 63.6133 37.8898 63.992 37.3032 64.248C36.7272 64.504 36.0445 64.632 35.2552 64.632H32.4232V68.632C32.4232 68.7387 32.3858 68.8293 32.3112 68.904C32.2472 68.968 32.1565 69 32.0392 69H31.1912ZM32.4072 63.288H35.1752C35.9645 63.288 36.5565 63.112 36.9512 62.76C37.3458 62.408 37.5432 61.896 37.5432 61.224C37.5432 60.5627 37.3512 60.0507 36.9672 59.688C36.5832 59.3253 35.9858 59.144 35.1752 59.144H32.4072V63.288ZM41.2488 69C41.1421 69 41.0514 68.968 40.9768 68.904C40.9128 68.8293 40.8808 68.7387 40.8808 68.632V61.064C40.8808 60.9573 40.9128 60.8667 40.9768 60.792C41.0514 60.7173 41.1421 60.68 41.2488 60.68H41.9848C42.0914 60.68 42.1821 60.7173 42.2568 60.792C42.3314 60.8667 42.3688 60.9573 42.3688 61.064V61.768C42.5821 61.4053 42.8754 61.1333 43.2488 60.952C43.6221 60.7707 44.0701 60.68 44.5928 60.68H45.2328C45.3394 60.68 45.4248 60.7173 45.4888 60.792C45.5528 60.856 45.5848 60.9413 45.5848 61.048V61.704C45.5848 61.8107 45.5528 61.896 45.4888 61.96C45.4248 62.024 45.3394 62.056 45.2328 62.056H44.2728C43.6968 62.056 43.2434 62.2267 42.9128 62.568C42.5821 62.8987 42.4168 63.352 42.4168 63.928V68.632C42.4168 68.7387 42.3794 68.8293 42.3048 68.904C42.2301 68.968 42.1394 69 42.0328 69H41.2488ZM50.2107 69.16C49.4 69.16 48.7227 69.0053 48.1787 68.696C47.6347 68.3867 47.2187 67.96 46.9307 67.416C46.6427 66.8613 46.4827 66.232 46.4507 65.528C46.44 65.3467 46.4347 65.1173 46.4347 64.84C46.4347 64.552 46.44 64.3227 46.4507 64.152C46.4827 63.4373 46.6427 62.808 46.9307 62.264C47.2293 61.72 47.6507 61.2933 48.1947 60.984C48.7387 60.6747 49.4107 60.52 50.2107 60.52C51.0107 60.52 51.6827 60.6747 52.2267 60.984C52.7707 61.2933 53.1867 61.72 53.4747 62.264C53.7733 62.808 53.9387 63.4373 53.9707 64.152C53.9813 64.3227 53.9867 64.552 53.9867 64.84C53.9867 65.1173 53.9813 65.3467 53.9707 65.528C53.9387 66.232 53.7787 66.8613 53.4907 67.416C53.2027 67.96 52.7867 68.3867 52.2427 68.696C51.6987 69.0053 51.0213 69.16 50.2107 69.16ZM50.2107 67.928C50.872 67.928 51.4 67.72 51.7947 67.304C52.1893 66.8773 52.4027 66.2587 52.4347 65.448C52.4453 65.288 52.4507 65.0853 52.4507 64.84C52.4507 64.5947 52.4453 64.392 52.4347 64.232C52.4027 63.4213 52.1893 62.808 51.7947 62.392C51.4 61.9653 50.872 61.752 50.2107 61.752C49.5493 61.752 49.016 61.9653 48.6107 62.392C48.216 62.808 48.008 63.4213 47.9867 64.232C47.976 64.392 47.9707 64.5947 47.9707 64.84C47.9707 65.0853 47.976 65.288 47.9867 65.448C48.008 66.2587 48.216 66.8773 48.6107 67.304C49.016 67.72 49.5493 67.928 50.2107 67.928ZM57.0964 69C56.9897 69 56.8991 68.968 56.8244 68.904C56.7604 68.8293 56.7284 68.7387 56.7284 68.632V61.96H55.3684C55.2617 61.96 55.1711 61.928 55.0964 61.864C55.0324 61.7893 55.0004 61.6987 55.0004 61.592V61.048C55.0004 60.9413 55.0324 60.856 55.0964 60.792C55.1711 60.7173 55.2617 60.68 55.3684 60.68H56.7284V59.88C56.7284 59.336 56.8191 58.8613 57.0004 58.456C57.1817 58.04 57.4697 57.72 57.8644 57.496C58.2697 57.272 58.8084 57.16 59.4804 57.16H61.9444C62.0511 57.16 62.1364 57.1973 62.2004 57.272C62.2751 57.336 62.3124 57.4213 62.3124 57.528V58.072C62.3124 58.1787 62.2751 58.2693 62.2004 58.344C62.1364 58.408 62.0511 58.44 61.9444 58.44H59.5124C59.0111 58.44 58.6697 58.5733 58.4884 58.84C58.3071 59.096 58.2164 59.4693 58.2164 59.96V60.68H61.9444C62.0511 60.68 62.1364 60.7173 62.2004 60.792C62.2751 60.856 62.3124 60.9413 62.3124 61.048V68.632C62.3124 68.7387 62.2751 68.8293 62.2004 68.904C62.1364 68.968 62.0511 69 61.9444 69H61.2084C61.0911 69 61.0004 68.968 60.9364 68.904C60.8724 68.8293 60.8404 68.7387 60.8404 68.632V61.96H58.2164V68.632C58.2164 68.7387 58.1791 68.8293 58.1044 68.904C58.0404 68.968 57.9551 69 57.8484 69H57.0964ZM65.0617 69C64.955 69 64.8643 68.968 64.7897 68.904C64.7257 68.8293 64.6937 68.7387 64.6937 68.632V58.008C64.6937 57.9013 64.7257 57.816 64.7897 57.752C64.8643 57.6773 64.955 57.64 65.0617 57.64H65.8137C65.931 57.64 66.0217 57.6773 66.0857 57.752C66.1497 57.816 66.1817 57.9013 66.1817 58.008V68.632C66.1817 68.7387 66.1497 68.8293 66.0857 68.904C66.0217 68.968 65.931 69 65.8137 69H65.0617ZM71.8803 69.16C70.7816 69.16 69.9069 68.824 69.2563 68.152C68.6056 67.4693 68.2483 66.5413 68.1843 65.368C68.1736 65.2293 68.1683 65.0533 68.1683 64.84C68.1683 64.616 68.1736 64.4347 68.1843 64.296C68.2269 63.5387 68.4029 62.8773 68.7123 62.312C69.0216 61.736 69.4429 61.2933 69.9763 60.984C70.5203 60.6747 71.1549 60.52 71.8803 60.52C72.6909 60.52 73.3683 60.6907 73.9123 61.032C74.4669 61.3733 74.8883 61.8587 75.1763 62.488C75.4643 63.1173 75.6083 63.8533 75.6083 64.696V64.968C75.6083 65.0853 75.5709 65.176 75.4963 65.24C75.4323 65.304 75.3469 65.336 75.2403 65.336H69.7043C69.7043 65.3467 69.7043 65.368 69.7043 65.4C69.7043 65.432 69.7043 65.4587 69.7043 65.48C69.7256 65.9173 69.8216 66.328 69.9923 66.712C70.1629 67.0853 70.4083 67.3893 70.7283 67.624C71.0483 67.8587 71.4323 67.976 71.8803 67.976C72.2643 67.976 72.5843 67.9173 72.8403 67.8C73.0963 67.6827 73.3043 67.5547 73.4643 67.416C73.6243 67.2667 73.7309 67.1547 73.7843 67.08C73.8803 66.9413 73.9549 66.8613 74.0083 66.84C74.0616 66.808 74.1469 66.792 74.2643 66.792H75.0323C75.1389 66.792 75.2243 66.824 75.2883 66.888C75.3629 66.9413 75.3949 67.0213 75.3843 67.128C75.3736 67.288 75.2883 67.4853 75.1283 67.72C74.9683 67.944 74.7389 68.168 74.4403 68.392C74.1416 68.616 73.7789 68.8027 73.3523 68.952C72.9256 69.0907 72.4349 69.16 71.8803 69.16ZM69.7043 64.232H74.0883V64.184C74.0883 63.704 73.9976 63.2773 73.8163 62.904C73.6456 62.5307 73.3949 62.2373 73.0643 62.024C72.7336 61.8 72.3389 61.688 71.8803 61.688C71.4216 61.688 71.0269 61.8 70.6963 62.024C70.3763 62.2373 70.1309 62.5307 69.9603 62.904C69.7896 63.2773 69.7043 63.704 69.7043 64.184V64.232Z" fill="white"/>
</g>
<defs>
<filter id="filter0_f_2_26637" x="-1" y="-1" width="78.9868" height="88" filterUnits="userSpaceOnUse" color-interpolation-filters="sRGB">
<feFlood flood-opacity="0" result="BackgroundImageFix"/>
<feBlend mode="normal" in="SourceGraphic" in2="BackgroundImageFix" result="shape"/>
<feGaussianBlur stdDeviation="0.5" result="effect1_foregroundBlur_2_26637"/>
</filter>
<filter id="filter1_f_2_26637" x="-2" y="-2" width="80.9868" height="90" filterUnits="userSpaceOnUse" color-interpolation-filters="sRGB">
<feFlood flood-opacity="0" result="BackgroundImageFix"/>
<feBlend mode="normal" in="SourceGraphic" in2="BackgroundImageFix" result="shape"/>
<feGaussianBlur stdDeviation="1" result="effect1_foregroundBlur_2_26637"/>
</filter>
<filter id="filter2_f_2_26637" x="-4" y="-4" width="84.9868" height="94" filterUnits="userSpaceOnUse" color-interpolation-filters="sRGB">
<feFlood flood-opacity="0" result="BackgroundImageFix"/>
<feBlend mode="normal" in="SourceGraphic" in2="BackgroundImageFix" result="shape"/>
<feGaussianBlur stdDeviation="2" result="effect1_foregroundBlur_2_26637"/>
</filter>
</defs>
</svg>
