<svg width="45" height="86" viewBox="0 0 45 86" fill="none" xmlns="http://www.w3.org/2000/svg">
<path d="M10.5 21.9993L22.5 12.666L34.5 21.9993V36.666C34.5 37.3733 34.219 38.0515 33.719 38.5516C33.2189 39.0517 32.5406 39.3327 31.8333 39.3327H13.1667C12.4594 39.3327 11.7811 39.0517 11.281 38.5516C10.781 38.0515 10.5 37.3733 10.5 36.666V21.9993Z" stroke="white" stroke-width="2" stroke-linecap="round" stroke-linejoin="round"/>
<path d="M18.5 39.3333V26H26.5V39.3333" stroke="white" stroke-width="2" stroke-linecap="round" stroke-linejoin="round"/>
<path d="M2.26 69C2.14267 69 2.052 68.968 1.988 68.904C1.924 68.8293 1.892 68.7387 1.892 68.632V58.184C1.892 58.0667 1.924 57.976 1.988 57.912C2.052 57.8373 2.14267 57.8 2.26 57.8H3.076C3.19333 57.8 3.284 57.8373 3.348 57.912C3.42267 57.976 3.46 58.0667 3.46 58.184V62.6H8.964V58.184C8.964 58.0667 8.996 57.976 9.06 57.912C9.13467 57.8373 9.22533 57.8 9.332 57.8H10.148C10.2653 57.8 10.356 57.8373 10.42 57.912C10.4947 57.976 10.532 58.0667 10.532 58.184V68.632C10.532 68.7387 10.4947 68.8293 10.42 68.904C10.356 68.968 10.2653 69 10.148 69H9.332C9.22533 69 9.13467 68.968 9.06 68.904C8.996 68.8293 8.964 68.7387 8.964 68.632V64.04H3.46V68.632C3.46 68.7387 3.42267 68.8293 3.348 68.904C3.284 68.968 3.19333 69 3.076 69H2.26ZM16.4983 69.16C15.6876 69.16 15.0103 69.0053 14.4663 68.696C13.9223 68.3867 13.5063 67.96 13.2183 67.416C12.9303 66.8613 12.7703 66.232 12.7383 65.528C12.7276 65.3467 12.7223 65.1173 12.7223 64.84C12.7223 64.552 12.7276 64.3227 12.7383 64.152C12.7703 63.4373 12.9303 62.808 13.2183 62.264C13.5169 61.72 13.9383 61.2933 14.4823 60.984C15.0263 60.6747 15.6983 60.52 16.4983 60.52C17.2983 60.52 17.9703 60.6747 18.5143 60.984C19.0583 61.2933 19.4743 61.72 19.7623 62.264C20.0609 62.808 20.2263 63.4373 20.2583 64.152C20.2689 64.3227 20.2743 64.552 20.2743 64.84C20.2743 65.1173 20.2689 65.3467 20.2583 65.528C20.2263 66.232 20.0663 66.8613 19.7783 67.416C19.4903 67.96 19.0743 68.3867 18.5303 68.696C17.9863 69.0053 17.3089 69.16 16.4983 69.16ZM16.4983 67.928C17.1596 67.928 17.6876 67.72 18.0823 67.304C18.4769 66.8773 18.6903 66.2587 18.7223 65.448C18.7329 65.288 18.7383 65.0853 18.7383 64.84C18.7383 64.5947 18.7329 64.392 18.7223 64.232C18.6903 63.4213 18.4769 62.808 18.0823 62.392C17.6876 61.9653 17.1596 61.752 16.4983 61.752C15.8369 61.752 15.3036 61.9653 14.8983 62.392C14.5036 62.808 14.2956 63.4213 14.2743 64.232C14.2636 64.392 14.2582 64.5947 14.2582 64.84C14.2582 65.0853 14.2636 65.288 14.2743 65.448C14.2956 66.2587 14.5036 66.8773 14.8983 67.304C15.3036 67.72 15.8369 67.928 16.4983 67.928ZM22.6458 69C22.5391 69 22.4484 68.968 22.3738 68.904C22.3098 68.8293 22.2778 68.7387 22.2778 68.632V61.048C22.2778 60.9413 22.3098 60.856 22.3738 60.792C22.4484 60.7173 22.5391 60.68 22.6458 60.68H23.3658C23.4724 60.68 23.5578 60.7173 23.6218 60.792C23.6964 60.856 23.7338 60.9413 23.7338 61.048V61.608C23.9791 61.2773 24.2884 61.016 24.6618 60.824C25.0351 60.6213 25.4831 60.52 26.0058 60.52C27.2111 60.5093 28.0644 61 28.5658 61.992C28.8111 61.544 29.1684 61.1867 29.6378 60.92C30.1071 60.6533 30.6404 60.52 31.2378 60.52C31.7924 60.52 32.2938 60.648 32.7418 60.904C33.2004 61.16 33.5578 61.5493 33.8138 62.072C34.0804 62.584 34.2138 63.2293 34.2138 64.008V68.632C34.2138 68.7387 34.1764 68.8293 34.1018 68.904C34.0378 68.968 33.9524 69 33.8458 69H33.0938C32.9871 69 32.8964 68.968 32.8218 68.904C32.7578 68.8293 32.7258 68.7387 32.7258 68.632V64.152C32.7258 63.5547 32.6404 63.0853 32.4698 62.744C32.2991 62.4027 32.0698 62.1627 31.7818 62.024C31.4938 61.8853 31.1791 61.816 30.8378 61.816C30.5604 61.816 30.2778 61.8853 29.9898 62.024C29.7018 62.1627 29.4618 62.4027 29.2698 62.744C29.0884 63.0853 28.9978 63.5547 28.9978 64.152V68.632C28.9978 68.7387 28.9604 68.8293 28.8858 68.904C28.8218 68.968 28.7364 69 28.6298 69H27.8778C27.7711 69 27.6804 68.968 27.6058 68.904C27.5418 68.8293 27.5098 68.7387 27.5098 68.632V64.152C27.5098 63.5547 27.4191 63.0853 27.2378 62.744C27.0564 62.4027 26.8218 62.1627 26.5338 62.024C26.2458 61.8853 25.9418 61.816 25.6218 61.816C25.3444 61.816 25.0618 61.8853 24.7738 62.024C24.4858 62.1627 24.2458 62.4027 24.0538 62.744C23.8724 63.0853 23.7818 63.5493 23.7818 64.136V68.632C23.7818 68.7387 23.7444 68.8293 23.6698 68.904C23.6058 68.968 23.5204 69 23.4138 69H22.6458ZM39.8085 69.16C38.7098 69.16 37.8352 68.824 37.1845 68.152C36.5338 67.4693 36.1765 66.5413 36.1125 65.368C36.1018 65.2293 36.0965 65.0533 36.0965 64.84C36.0965 64.616 36.1018 64.4347 36.1125 64.296C36.1552 63.5387 36.3312 62.8773 36.6405 62.312C36.9498 61.736 37.3712 61.2933 37.9045 60.984C38.4485 60.6747 39.0832 60.52 39.8085 60.52C40.6192 60.52 41.2965 60.6907 41.8405 61.032C42.3952 61.3733 42.8165 61.8587 43.1045 62.488C43.3925 63.1173 43.5365 63.8533 43.5365 64.696V64.968C43.5365 65.0853 43.4992 65.176 43.4245 65.24C43.3605 65.304 43.2752 65.336 43.1685 65.336H37.6325C37.6325 65.3467 37.6325 65.368 37.6325 65.4C37.6325 65.432 37.6325 65.4587 37.6325 65.48C37.6538 65.9173 37.7498 66.328 37.9205 66.712C38.0912 67.0853 38.3365 67.3893 38.6565 67.624C38.9765 67.8587 39.3605 67.976 39.8085 67.976C40.1925 67.976 40.5125 67.9173 40.7685 67.8C41.0245 67.6827 41.2325 67.5547 41.3925 67.416C41.5525 67.2667 41.6592 67.1547 41.7125 67.08C41.8085 66.9413 41.8832 66.8613 41.9365 66.84C41.9898 66.808 42.0752 66.792 42.1925 66.792H42.9605C43.0672 66.792 43.1525 66.824 43.2165 66.888C43.2912 66.9413 43.3232 67.0213 43.3125 67.128C43.3018 67.288 43.2165 67.4853 43.0565 67.72C42.8965 67.944 42.6672 68.168 42.3685 68.392C42.0698 68.616 41.7072 68.8027 41.2805 68.952C40.8538 69.0907 40.3632 69.16 39.8085 69.16ZM37.6325 64.232H42.0165V64.184C42.0165 63.704 41.9258 63.2773 41.7445 62.904C41.5738 62.5307 41.3232 62.2373 40.9925 62.024C40.6618 61.8 40.2672 61.688 39.8085 61.688C39.3498 61.688 38.9552 61.8 38.6245 62.024C38.3045 62.2373 38.0592 62.5307 37.8885 62.904C37.7178 63.2773 37.6325 63.704 37.6325 64.184V64.232Z" fill="white"/>
</svg>
