<svg width="78" height="86" viewBox="0 0 78 86" fill="none" xmlns="http://www.w3.org/2000/svg">
<path d="M4.76 69C4.65333 69 4.56267 68.968 4.488 68.904C4.424 68.8293 4.392 68.7387 4.392 68.632V58.184C4.392 58.0667 4.424 57.976 4.488 57.912C4.56267 57.8373 4.65333 57.8 4.76 57.8H5.56C5.688 57.8 5.784 57.832 5.848 57.896C5.912 57.96 5.94933 58.0133 5.96 58.056L9.352 64.52L12.76 58.056C12.7813 58.0133 12.8187 57.96 12.872 57.896C12.936 57.832 13.032 57.8 13.16 57.8H13.944C14.0613 57.8 14.152 57.8373 14.216 57.912C14.2907 57.976 14.328 58.0667 14.328 58.184V68.632C14.328 68.7387 14.2907 68.8293 14.216 68.904C14.152 68.968 14.0613 69 13.944 69H13.16C13.0533 69 12.9627 68.968 12.888 68.904C12.824 68.8293 12.792 68.7387 12.792 68.632V60.76L10.12 65.976C10.0773 66.0827 10.0133 66.168 9.928 66.232C9.84267 66.2853 9.736 66.312 9.608 66.312H9.112C8.97333 66.312 8.86133 66.2853 8.776 66.232C8.70133 66.168 8.63733 66.0827 8.584 65.976L5.912 60.76V68.632C5.912 68.7387 5.87467 68.8293 5.8 68.904C5.736 68.968 5.65067 69 5.544 69H4.76ZM18.3431 72.04C18.2578 72.04 18.1831 72.008 18.1191 71.944C18.0551 71.88 18.0231 71.8053 18.0231 71.72C18.0231 71.6773 18.0285 71.6347 18.0391 71.592C18.0498 71.5493 18.0711 71.496 18.1031 71.432L19.3351 68.504L16.2791 61.288C16.2258 61.16 16.1991 61.0693 16.1991 61.016C16.1991 60.92 16.2311 60.84 16.2951 60.776C16.3591 60.712 16.4391 60.68 16.5351 60.68H17.3191C17.4258 60.68 17.5111 60.7067 17.5751 60.76C17.6391 60.8133 17.6818 60.8773 17.7031 60.952L20.1351 66.776L22.6311 60.952C22.6631 60.8773 22.7058 60.8133 22.7591 60.76C22.8231 60.7067 22.9138 60.68 23.0311 60.68H23.7831C23.8791 60.68 23.9591 60.712 24.0231 60.776C24.0871 60.84 24.1191 60.9147 24.1191 61C24.1191 61.0533 24.0925 61.1493 24.0391 61.288L19.4951 71.768C19.4631 71.8427 19.4151 71.9067 19.3511 71.96C19.2978 72.0133 19.2125 72.04 19.0951 72.04H18.3431ZM29.7756 69C29.6583 69 29.5676 68.968 29.5036 68.904C29.4396 68.8293 29.4076 68.7387 29.4076 68.632V58.184C29.4076 58.0667 29.4396 57.976 29.5036 57.912C29.5676 57.8373 29.6583 57.8 29.7756 57.8H33.8396C34.629 57.8 35.3116 57.928 35.8876 58.184C36.4743 58.44 36.9276 58.824 37.2476 59.336C37.5676 59.8373 37.7276 60.4667 37.7276 61.224C37.7276 61.9813 37.5676 62.6107 37.2476 63.112C36.9276 63.6133 36.4743 63.992 35.8876 64.248C35.3116 64.504 34.629 64.632 33.8396 64.632H31.0076V68.632C31.0076 68.7387 30.9703 68.8293 30.8956 68.904C30.8316 68.968 30.741 69 30.6236 69H29.7756ZM30.9916 63.288H33.7596C34.549 63.288 35.141 63.112 35.5356 62.76C35.9303 62.408 36.1276 61.896 36.1276 61.224C36.1276 60.5627 35.9356 60.0507 35.5516 59.688C35.1676 59.3253 34.5703 59.144 33.7596 59.144H30.9916V63.288ZM39.8333 69C39.7266 69 39.6359 68.968 39.5613 68.904C39.4973 68.8293 39.4653 68.7387 39.4653 68.632V61.064C39.4653 60.9573 39.4973 60.8667 39.5613 60.792C39.6359 60.7173 39.7266 60.68 39.8333 60.68H40.5693C40.6759 60.68 40.7666 60.7173 40.8413 60.792C40.9159 60.8667 40.9533 60.9573 40.9533 61.064V61.768C41.1666 61.4053 41.4599 61.1333 41.8333 60.952C42.2066 60.7707 42.6546 60.68 43.1773 60.68H43.8173C43.9239 60.68 44.0093 60.7173 44.0733 60.792C44.1373 60.856 44.1693 60.9413 44.1693 61.048V61.704C44.1693 61.8107 44.1373 61.896 44.0733 61.96C44.0093 62.024 43.9239 62.056 43.8173 62.056H42.8573C42.2813 62.056 41.8279 62.2267 41.4973 62.568C41.1666 62.8987 41.0013 63.352 41.0013 63.928V68.632C41.0013 68.7387 40.9639 68.8293 40.8893 68.904C40.8146 68.968 40.7239 69 40.6173 69H39.8333ZM48.7951 69.16C47.9845 69.16 47.3071 69.0053 46.7631 68.696C46.2191 68.3867 45.8031 67.96 45.5151 67.416C45.2271 66.8613 45.0671 66.232 45.0351 65.528C45.0245 65.3467 45.0191 65.1173 45.0191 64.84C45.0191 64.552 45.0245 64.3227 45.0351 64.152C45.0671 63.4373 45.2271 62.808 45.5151 62.264C45.8138 61.72 46.2351 61.2933 46.7791 60.984C47.3231 60.6747 47.9951 60.52 48.7951 60.52C49.5951 60.52 50.2671 60.6747 50.8111 60.984C51.3551 61.2933 51.7711 61.72 52.0591 62.264C52.3578 62.808 52.5231 63.4373 52.5551 64.152C52.5658 64.3227 52.5711 64.552 52.5711 64.84C52.5711 65.1173 52.5658 65.3467 52.5551 65.528C52.5231 66.232 52.3631 66.8613 52.0751 67.416C51.7871 67.96 51.3711 68.3867 50.8271 68.696C50.2831 69.0053 49.6058 69.16 48.7951 69.16ZM48.7951 67.928C49.4565 67.928 49.9845 67.72 50.3791 67.304C50.7738 66.8773 50.9871 66.2587 51.0191 65.448C51.0298 65.288 51.0351 65.0853 51.0351 64.84C51.0351 64.5947 51.0298 64.392 51.0191 64.232C50.9871 63.4213 50.7738 62.808 50.3791 62.392C49.9845 61.9653 49.4565 61.752 48.7951 61.752C48.1338 61.752 47.6005 61.9653 47.1951 62.392C46.8005 62.808 46.5925 63.4213 46.5711 64.232C46.5605 64.392 46.5551 64.5947 46.5551 64.84C46.5551 65.0853 46.5605 65.288 46.5711 65.448C46.5925 66.2587 46.8005 66.8773 47.1951 67.304C47.6005 67.72 48.1338 67.928 48.7951 67.928ZM55.6809 69C55.5742 69 55.4835 68.968 55.4089 68.904C55.3449 68.8293 55.3129 68.7387 55.3129 68.632V61.96H53.9529C53.8462 61.96 53.7555 61.928 53.6809 61.864C53.6169 61.7893 53.5849 61.6987 53.5849 61.592V61.048C53.5849 60.9413 53.6169 60.856 53.6809 60.792C53.7555 60.7173 53.8462 60.68 53.9529 60.68H55.3129V59.88C55.3129 59.336 55.4035 58.8613 55.5849 58.456C55.7662 58.04 56.0542 57.72 56.4489 57.496C56.8542 57.272 57.3929 57.16 58.0649 57.16H60.5289C60.6355 57.16 60.7209 57.1973 60.7849 57.272C60.8595 57.336 60.8969 57.4213 60.8969 57.528V58.072C60.8969 58.1787 60.8595 58.2693 60.7849 58.344C60.7209 58.408 60.6355 58.44 60.5289 58.44H58.0969C57.5955 58.44 57.2542 58.5733 57.0729 58.84C56.8915 59.096 56.8009 59.4693 56.8009 59.96V60.68H60.5289C60.6355 60.68 60.7209 60.7173 60.7849 60.792C60.8595 60.856 60.8969 60.9413 60.8969 61.048V68.632C60.8969 68.7387 60.8595 68.8293 60.7849 68.904C60.7209 68.968 60.6355 69 60.5289 69H59.7929C59.6755 69 59.5849 68.968 59.5209 68.904C59.4569 68.8293 59.4249 68.7387 59.4249 68.632V61.96H56.8009V68.632C56.8009 68.7387 56.7635 68.8293 56.6889 68.904C56.6249 68.968 56.5395 69 56.4329 69H55.6809ZM63.6461 69C63.5395 69 63.4488 68.968 63.3741 68.904C63.3101 68.8293 63.2781 68.7387 63.2781 68.632V58.008C63.2781 57.9013 63.3101 57.816 63.3741 57.752C63.4488 57.6773 63.5395 57.64 63.6461 57.64H64.3981C64.5155 57.64 64.6061 57.6773 64.6701 57.752C64.7341 57.816 64.7661 57.9013 64.7661 58.008V68.632C64.7661 68.7387 64.7341 68.8293 64.6701 68.904C64.6061 68.968 64.5155 69 64.3981 69H63.6461ZM70.4648 69.16C69.3661 69.16 68.4914 68.824 67.8408 68.152C67.1901 67.4693 66.8328 66.5413 66.7688 65.368C66.7581 65.2293 66.7528 65.0533 66.7528 64.84C66.7528 64.616 66.7581 64.4347 66.7688 64.296C66.8114 63.5387 66.9874 62.8773 67.2968 62.312C67.6061 61.736 68.0274 61.2933 68.5608 60.984C69.1048 60.6747 69.7394 60.52 70.4648 60.52C71.2754 60.52 71.9528 60.6907 72.4968 61.032C73.0514 61.3733 73.4728 61.8587 73.7608 62.488C74.0488 63.1173 74.1927 63.8533 74.1927 64.696V64.968C74.1927 65.0853 74.1554 65.176 74.0808 65.24C74.0168 65.304 73.9314 65.336 73.8248 65.336H68.2888C68.2888 65.3467 68.2888 65.368 68.2888 65.4C68.2888 65.432 68.2888 65.4587 68.2888 65.48C68.3101 65.9173 68.4061 66.328 68.5768 66.712C68.7474 67.0853 68.9928 67.3893 69.3128 67.624C69.6328 67.8587 70.0168 67.976 70.4648 67.976C70.8488 67.976 71.1688 67.9173 71.4248 67.8C71.6808 67.6827 71.8888 67.5547 72.0488 67.416C72.2088 67.2667 72.3154 67.1547 72.3688 67.08C72.4648 66.9413 72.5394 66.8613 72.5928 66.84C72.6461 66.808 72.7314 66.792 72.8488 66.792H73.6168C73.7234 66.792 73.8088 66.824 73.8728 66.888C73.9474 66.9413 73.9794 67.0213 73.9688 67.128C73.9581 67.288 73.8728 67.4853 73.7128 67.72C73.5528 67.944 73.3234 68.168 73.0248 68.392C72.7261 68.616 72.3634 68.8027 71.9368 68.952C71.5101 69.0907 71.0194 69.16 70.4648 69.16ZM68.2888 64.232H72.6728V64.184C72.6728 63.704 72.5821 63.2773 72.4008 62.904C72.2301 62.5307 71.9794 62.2373 71.6488 62.024C71.3181 61.8 70.9234 61.688 70.4648 61.688C70.0061 61.688 69.6114 61.8 69.2808 62.024C68.9608 62.2373 68.7154 62.5307 68.5448 62.904C68.3741 63.2773 68.2888 63.704 68.2888 64.184V64.232Z" fill="white"/>
</svg>
