<svg width="64" height="87" viewBox="0 0 64 87" fill="none" xmlns="http://www.w3.org/2000/svg">
<g filter="url(#filter0_f_2_26606)">
<path d="M20 22.9876L32 13.6543L44 22.9876V37.6543C44 38.3615 43.719 39.0398 43.219 39.5399C42.7189 40.04 42.0406 40.321 41.3333 40.321H22.6667C21.9594 40.321 21.2811 40.04 20.781 39.5399C20.281 39.0398 20 38.3615 20 37.6543V22.9876Z" stroke="white" stroke-width="2" stroke-linecap="round" stroke-linejoin="round"/>
<path d="M28 40.3216V26.9883H36V40.3216" stroke="white" stroke-width="2" stroke-linecap="round" stroke-linejoin="round"/>
<path d="M11.76 69.9883C11.6427 69.9883 11.552 69.9563 11.488 69.8923C11.424 69.8176 11.392 69.7269 11.392 69.6203V59.1723C11.392 59.0549 11.424 58.9643 11.488 58.9003C11.552 58.8256 11.6427 58.7883 11.76 58.7883H12.576C12.6933 58.7883 12.784 58.8256 12.848 58.9003C12.9227 58.9643 12.96 59.0549 12.96 59.1723V63.5883H18.464V59.1723C18.464 59.0549 18.496 58.9643 18.56 58.9003C18.6347 58.8256 18.7253 58.7883 18.832 58.7883H19.648C19.7653 58.7883 19.856 58.8256 19.92 58.9003C19.9947 58.9643 20.032 59.0549 20.032 59.1723V69.6203C20.032 69.7269 19.9947 69.8176 19.92 69.8923C19.856 69.9563 19.7653 69.9883 19.648 69.9883H18.832C18.7253 69.9883 18.6347 69.9563 18.56 69.8923C18.496 69.8176 18.464 69.7269 18.464 69.6203V65.0283H12.96V69.6203C12.96 69.7269 12.9227 69.8176 12.848 69.8923C12.784 69.9563 12.6933 69.9883 12.576 69.9883H11.76ZM25.9983 70.1483C25.1876 70.1483 24.5103 69.9936 23.9663 69.6843C23.4223 69.3749 23.0063 68.9483 22.7183 68.4043C22.4303 67.8496 22.2703 67.2203 22.2383 66.5163C22.2276 66.3349 22.2223 66.1056 22.2223 65.8283C22.2223 65.5403 22.2276 65.3109 22.2383 65.1403C22.2703 64.4256 22.4303 63.7963 22.7183 63.2523C23.0169 62.7083 23.4383 62.2816 23.9823 61.9723C24.5263 61.6629 25.1983 61.5083 25.9983 61.5083C26.7983 61.5083 27.4703 61.6629 28.0143 61.9723C28.5583 62.2816 28.9743 62.7083 29.2623 63.2523C29.5609 63.7963 29.7263 64.4256 29.7583 65.1403C29.7689 65.3109 29.7743 65.5403 29.7743 65.8283C29.7743 66.1056 29.7689 66.3349 29.7583 66.5163C29.7263 67.2203 29.5663 67.8496 29.2783 68.4043C28.9903 68.9483 28.5743 69.3749 28.0303 69.6843C27.4863 69.9936 26.8089 70.1483 25.9983 70.1483ZM25.9983 68.9163C26.6596 68.9163 27.1876 68.7083 27.5823 68.2923C27.9769 67.8656 28.1903 67.2469 28.2223 66.4363C28.2329 66.2763 28.2383 66.0736 28.2383 65.8283C28.2383 65.5829 28.2329 65.3803 28.2223 65.2203C28.1903 64.4096 27.9769 63.7963 27.5823 63.3803C27.1876 62.9536 26.6596 62.7403 25.9983 62.7403C25.3369 62.7403 24.8036 62.9536 24.3983 63.3803C24.0036 63.7963 23.7956 64.4096 23.7743 65.2203C23.7636 65.3803 23.7582 65.5829 23.7582 65.8283C23.7582 66.0736 23.7636 66.2763 23.7743 66.4363C23.7956 67.2469 24.0036 67.8656 24.3983 68.2923C24.8036 68.7083 25.3369 68.9163 25.9983 68.9163ZM32.1458 69.9883C32.0391 69.9883 31.9484 69.9563 31.8738 69.8923C31.8098 69.8176 31.7778 69.7269 31.7778 69.6203V62.0363C31.7778 61.9296 31.8098 61.8443 31.8738 61.7803C31.9484 61.7056 32.0391 61.6683 32.1458 61.6683H32.8658C32.9724 61.6683 33.0578 61.7056 33.1218 61.7803C33.1964 61.8443 33.2338 61.9296 33.2338 62.0363V62.5963C33.4791 62.2656 33.7884 62.0043 34.1618 61.8123C34.5351 61.6096 34.9831 61.5083 35.5058 61.5083C36.7111 61.4976 37.5644 61.9883 38.0658 62.9803C38.3111 62.5323 38.6684 62.1749 39.1378 61.9083C39.6071 61.6416 40.1404 61.5083 40.7378 61.5083C41.2924 61.5083 41.7938 61.6363 42.2418 61.8923C42.7004 62.1483 43.0578 62.5376 43.3138 63.0603C43.5804 63.5723 43.7138 64.2176 43.7138 64.9963V69.6203C43.7138 69.7269 43.6764 69.8176 43.6018 69.8923C43.5378 69.9563 43.4524 69.9883 43.3458 69.9883H42.5938C42.4871 69.9883 42.3964 69.9563 42.3218 69.8923C42.2578 69.8176 42.2258 69.7269 42.2258 69.6203V65.1403C42.2258 64.5429 42.1404 64.0736 41.9698 63.7323C41.7991 63.3909 41.5698 63.1509 41.2818 63.0123C40.9938 62.8736 40.6791 62.8043 40.3378 62.8043C40.0604 62.8043 39.7778 62.8736 39.4898 63.0123C39.2018 63.1509 38.9618 63.3909 38.7698 63.7323C38.5884 64.0736 38.4978 64.5429 38.4978 65.1403V69.6203C38.4978 69.7269 38.4604 69.8176 38.3858 69.8923C38.3218 69.9563 38.2364 69.9883 38.1298 69.9883H37.3778C37.2711 69.9883 37.1804 69.9563 37.1058 69.8923C37.0418 69.8176 37.0098 69.7269 37.0098 69.6203V65.1403C37.0098 64.5429 36.9191 64.0736 36.7378 63.7323C36.5564 63.3909 36.3218 63.1509 36.0338 63.0123C35.7458 62.8736 35.4418 62.8043 35.1218 62.8043C34.8444 62.8043 34.5618 62.8736 34.2738 63.0123C33.9858 63.1509 33.7458 63.3909 33.5538 63.7323C33.3724 64.0736 33.2818 64.5376 33.2818 65.1243V69.6203C33.2818 69.7269 33.2444 69.8176 33.1698 69.8923C33.1058 69.9563 33.0204 69.9883 32.9138 69.9883H32.1458ZM49.3085 70.1483C48.2098 70.1483 47.3352 69.8123 46.6845 69.1403C46.0338 68.4576 45.6765 67.5296 45.6125 66.3563C45.6018 66.2176 45.5965 66.0416 45.5965 65.8283C45.5965 65.6043 45.6018 65.4229 45.6125 65.2843C45.6552 64.5269 45.8312 63.8656 46.1405 63.3003C46.4498 62.7243 46.8712 62.2816 47.4045 61.9723C47.9485 61.6629 48.5832 61.5083 49.3085 61.5083C50.1192 61.5083 50.7965 61.6789 51.3405 62.0203C51.8952 62.3616 52.3165 62.8469 52.6045 63.4763C52.8925 64.1056 53.0365 64.8416 53.0365 65.6843V65.9563C53.0365 66.0736 52.9992 66.1643 52.9245 66.2283C52.8605 66.2923 52.7752 66.3243 52.6685 66.3243H47.1325C47.1325 66.3349 47.1325 66.3563 47.1325 66.3883C47.1325 66.4203 47.1325 66.4469 47.1325 66.4683C47.1538 66.9056 47.2498 67.3163 47.4205 67.7003C47.5912 68.0736 47.8365 68.3776 48.1565 68.6123C48.4765 68.8469 48.8605 68.9643 49.3085 68.9643C49.6925 68.9643 50.0125 68.9056 50.2685 68.7883C50.5245 68.6709 50.7325 68.5429 50.8925 68.4043C51.0525 68.2549 51.1592 68.1429 51.2125 68.0683C51.3085 67.9296 51.3832 67.8496 51.4365 67.8283C51.4898 67.7963 51.5752 67.7803 51.6925 67.7803H52.4605C52.5672 67.7803 52.6525 67.8123 52.7165 67.8763C52.7912 67.9296 52.8232 68.0096 52.8125 68.1163C52.8018 68.2763 52.7165 68.4736 52.5565 68.7083C52.3965 68.9323 52.1672 69.1563 51.8685 69.3803C51.5698 69.6043 51.2072 69.7909 50.7805 69.9403C50.3538 70.0789 49.8632 70.1483 49.3085 70.1483ZM47.1325 65.2203H51.5165V65.1723C51.5165 64.6923 51.4258 64.2656 51.2445 63.8923C51.0738 63.5189 50.8232 63.2256 50.4925 63.0123C50.1618 62.7883 49.7672 62.6763 49.3085 62.6763C48.8498 62.6763 48.4552 62.7883 48.1245 63.0123C47.8045 63.2256 47.5592 63.5189 47.3885 63.8923C47.2178 64.2656 47.1325 64.6923 47.1325 65.1723V65.2203Z" fill="white"/>
</g>
<g filter="url(#filter1_f_2_26606)">
<path d="M20 21.9993L32 12.666L44 21.9993V36.666C44 37.3733 43.719 38.0515 43.219 38.5516C42.7189 39.0517 42.0406 39.3327 41.3333 39.3327H22.6667C21.9594 39.3327 21.2811 39.0517 20.781 38.5516C20.281 38.0515 20 37.3733 20 36.666V21.9993Z" stroke="white" stroke-width="2" stroke-linecap="round" stroke-linejoin="round"/>
<path d="M28 39.3333V26H36V39.3333" stroke="white" stroke-width="2" stroke-linecap="round" stroke-linejoin="round"/>
<path d="M11.76 69C11.6427 69 11.552 68.968 11.488 68.904C11.424 68.8293 11.392 68.7387 11.392 68.632V58.184C11.392 58.0667 11.424 57.976 11.488 57.912C11.552 57.8373 11.6427 57.8 11.76 57.8H12.576C12.6933 57.8 12.784 57.8373 12.848 57.912C12.9227 57.976 12.96 58.0667 12.96 58.184V62.6H18.464V58.184C18.464 58.0667 18.496 57.976 18.56 57.912C18.6347 57.8373 18.7253 57.8 18.832 57.8H19.648C19.7653 57.8 19.856 57.8373 19.92 57.912C19.9947 57.976 20.032 58.0667 20.032 58.184V68.632C20.032 68.7387 19.9947 68.8293 19.92 68.904C19.856 68.968 19.7653 69 19.648 69H18.832C18.7253 69 18.6347 68.968 18.56 68.904C18.496 68.8293 18.464 68.7387 18.464 68.632V64.04H12.96V68.632C12.96 68.7387 12.9227 68.8293 12.848 68.904C12.784 68.968 12.6933 69 12.576 69H11.76ZM25.9983 69.16C25.1876 69.16 24.5103 69.0053 23.9663 68.696C23.4223 68.3867 23.0063 67.96 22.7183 67.416C22.4303 66.8613 22.2703 66.232 22.2383 65.528C22.2276 65.3467 22.2223 65.1173 22.2223 64.84C22.2223 64.552 22.2276 64.3227 22.2383 64.152C22.2703 63.4373 22.4303 62.808 22.7183 62.264C23.0169 61.72 23.4383 61.2933 23.9823 60.984C24.5263 60.6747 25.1983 60.52 25.9983 60.52C26.7983 60.52 27.4703 60.6747 28.0143 60.984C28.5583 61.2933 28.9743 61.72 29.2623 62.264C29.5609 62.808 29.7263 63.4373 29.7583 64.152C29.7689 64.3227 29.7743 64.552 29.7743 64.84C29.7743 65.1173 29.7689 65.3467 29.7583 65.528C29.7263 66.232 29.5663 66.8613 29.2783 67.416C28.9903 67.96 28.5743 68.3867 28.0303 68.696C27.4863 69.0053 26.8089 69.16 25.9983 69.16ZM25.9983 67.928C26.6596 67.928 27.1876 67.72 27.5823 67.304C27.9769 66.8773 28.1903 66.2587 28.2223 65.448C28.2329 65.288 28.2383 65.0853 28.2383 64.84C28.2383 64.5947 28.2329 64.392 28.2223 64.232C28.1903 63.4213 27.9769 62.808 27.5823 62.392C27.1876 61.9653 26.6596 61.752 25.9983 61.752C25.3369 61.752 24.8036 61.9653 24.3983 62.392C24.0036 62.808 23.7956 63.4213 23.7743 64.232C23.7636 64.392 23.7582 64.5947 23.7582 64.84C23.7582 65.0853 23.7636 65.288 23.7743 65.448C23.7956 66.2587 24.0036 66.8773 24.3983 67.304C24.8036 67.72 25.3369 67.928 25.9983 67.928ZM32.1458 69C32.0391 69 31.9484 68.968 31.8738 68.904C31.8098 68.8293 31.7778 68.7387 31.7778 68.632V61.048C31.7778 60.9413 31.8098 60.856 31.8738 60.792C31.9484 60.7173 32.0391 60.68 32.1458 60.68H32.8658C32.9724 60.68 33.0578 60.7173 33.1218 60.792C33.1964 60.856 33.2338 60.9413 33.2338 61.048V61.608C33.4791 61.2773 33.7884 61.016 34.1618 60.824C34.5351 60.6213 34.9831 60.52 35.5058 60.52C36.7111 60.5093 37.5644 61 38.0658 61.992C38.3111 61.544 38.6684 61.1867 39.1378 60.92C39.6071 60.6533 40.1404 60.52 40.7378 60.52C41.2924 60.52 41.7938 60.648 42.2418 60.904C42.7004 61.16 43.0578 61.5493 43.3138 62.072C43.5804 62.584 43.7138 63.2293 43.7138 64.008V68.632C43.7138 68.7387 43.6764 68.8293 43.6018 68.904C43.5378 68.968 43.4524 69 43.3458 69H42.5938C42.4871 69 42.3964 68.968 42.3218 68.904C42.2578 68.8293 42.2258 68.7387 42.2258 68.632V64.152C42.2258 63.5547 42.1404 63.0853 41.9698 62.744C41.7991 62.4027 41.5698 62.1627 41.2818 62.024C40.9938 61.8853 40.6791 61.816 40.3378 61.816C40.0604 61.816 39.7778 61.8853 39.4898 62.024C39.2018 62.1627 38.9618 62.4027 38.7698 62.744C38.5884 63.0853 38.4978 63.5547 38.4978 64.152V68.632C38.4978 68.7387 38.4604 68.8293 38.3858 68.904C38.3218 68.968 38.2364 69 38.1298 69H37.3778C37.2711 69 37.1804 68.968 37.1058 68.904C37.0418 68.8293 37.0098 68.7387 37.0098 68.632V64.152C37.0098 63.5547 36.9191 63.0853 36.7378 62.744C36.5564 62.4027 36.3218 62.1627 36.0338 62.024C35.7458 61.8853 35.4418 61.816 35.1218 61.816C34.8444 61.816 34.5618 61.8853 34.2738 62.024C33.9858 62.1627 33.7458 62.4027 33.5538 62.744C33.3724 63.0853 33.2818 63.5493 33.2818 64.136V68.632C33.2818 68.7387 33.2444 68.8293 33.1698 68.904C33.1058 68.968 33.0204 69 32.9138 69H32.1458ZM49.3085 69.16C48.2098 69.16 47.3352 68.824 46.6845 68.152C46.0338 67.4693 45.6765 66.5413 45.6125 65.368C45.6018 65.2293 45.5965 65.0533 45.5965 64.84C45.5965 64.616 45.6018 64.4347 45.6125 64.296C45.6552 63.5387 45.8312 62.8773 46.1405 62.312C46.4498 61.736 46.8712 61.2933 47.4045 60.984C47.9485 60.6747 48.5832 60.52 49.3085 60.52C50.1192 60.52 50.7965 60.6907 51.3405 61.032C51.8952 61.3733 52.3165 61.8587 52.6045 62.488C52.8925 63.1173 53.0365 63.8533 53.0365 64.696V64.968C53.0365 65.0853 52.9992 65.176 52.9245 65.24C52.8605 65.304 52.7752 65.336 52.6685 65.336H47.1325C47.1325 65.3467 47.1325 65.368 47.1325 65.4C47.1325 65.432 47.1325 65.4587 47.1325 65.48C47.1538 65.9173 47.2498 66.328 47.4205 66.712C47.5912 67.0853 47.8365 67.3893 48.1565 67.624C48.4765 67.8587 48.8605 67.976 49.3085 67.976C49.6925 67.976 50.0125 67.9173 50.2685 67.8C50.5245 67.6827 50.7325 67.5547 50.8925 67.416C51.0525 67.2667 51.1592 67.1547 51.2125 67.08C51.3085 66.9413 51.3832 66.8613 51.4365 66.84C51.4898 66.808 51.5752 66.792 51.6925 66.792H52.4605C52.5672 66.792 52.6525 66.824 52.7165 66.888C52.7912 66.9413 52.8232 67.0213 52.8125 67.128C52.8018 67.288 52.7165 67.4853 52.5565 67.72C52.3965 67.944 52.1672 68.168 51.8685 68.392C51.5698 68.616 51.2072 68.8027 50.7805 68.952C50.3538 69.0907 49.8632 69.16 49.3085 69.16ZM47.1325 64.232H51.5165V64.184C51.5165 63.704 51.4258 63.2773 51.2445 62.904C51.0738 62.5307 50.8232 62.2373 50.4925 62.024C50.1618 61.8 49.7672 61.688 49.3085 61.688C48.8498 61.688 48.4552 61.8 48.1245 62.024C47.8045 62.2373 47.5592 62.5307 47.3885 62.904C47.2178 63.2773 47.1325 63.704 47.1325 64.184V64.232Z" fill="white"/>
</g>
<g filter="url(#filter2_f_2_26606)">
<path d="M20 21.9993L32 12.666L44 21.9993V36.666C44 37.3733 43.719 38.0515 43.219 38.5516C42.7189 39.0517 42.0406 39.3327 41.3333 39.3327H22.6667C21.9594 39.3327 21.2811 39.0517 20.781 38.5516C20.281 38.0515 20 37.3733 20 36.666V21.9993Z" stroke="white" stroke-width="2" stroke-linecap="round" stroke-linejoin="round"/>
<path d="M28 39.3333V26H36V39.3333" stroke="white" stroke-width="2" stroke-linecap="round" stroke-linejoin="round"/>
<path d="M11.76 69C11.6427 69 11.552 68.968 11.488 68.904C11.424 68.8293 11.392 68.7387 11.392 68.632V58.184C11.392 58.0667 11.424 57.976 11.488 57.912C11.552 57.8373 11.6427 57.8 11.76 57.8H12.576C12.6933 57.8 12.784 57.8373 12.848 57.912C12.9227 57.976 12.96 58.0667 12.96 58.184V62.6H18.464V58.184C18.464 58.0667 18.496 57.976 18.56 57.912C18.6347 57.8373 18.7253 57.8 18.832 57.8H19.648C19.7653 57.8 19.856 57.8373 19.92 57.912C19.9947 57.976 20.032 58.0667 20.032 58.184V68.632C20.032 68.7387 19.9947 68.8293 19.92 68.904C19.856 68.968 19.7653 69 19.648 69H18.832C18.7253 69 18.6347 68.968 18.56 68.904C18.496 68.8293 18.464 68.7387 18.464 68.632V64.04H12.96V68.632C12.96 68.7387 12.9227 68.8293 12.848 68.904C12.784 68.968 12.6933 69 12.576 69H11.76ZM25.9983 69.16C25.1876 69.16 24.5103 69.0053 23.9663 68.696C23.4223 68.3867 23.0063 67.96 22.7183 67.416C22.4303 66.8613 22.2703 66.232 22.2383 65.528C22.2276 65.3467 22.2223 65.1173 22.2223 64.84C22.2223 64.552 22.2276 64.3227 22.2383 64.152C22.2703 63.4373 22.4303 62.808 22.7183 62.264C23.0169 61.72 23.4383 61.2933 23.9823 60.984C24.5263 60.6747 25.1983 60.52 25.9983 60.52C26.7983 60.52 27.4703 60.6747 28.0143 60.984C28.5583 61.2933 28.9743 61.72 29.2623 62.264C29.5609 62.808 29.7263 63.4373 29.7583 64.152C29.7689 64.3227 29.7743 64.552 29.7743 64.84C29.7743 65.1173 29.7689 65.3467 29.7583 65.528C29.7263 66.232 29.5663 66.8613 29.2783 67.416C28.9903 67.96 28.5743 68.3867 28.0303 68.696C27.4863 69.0053 26.8089 69.16 25.9983 69.16ZM25.9983 67.928C26.6596 67.928 27.1876 67.72 27.5823 67.304C27.9769 66.8773 28.1903 66.2587 28.2223 65.448C28.2329 65.288 28.2383 65.0853 28.2383 64.84C28.2383 64.5947 28.2329 64.392 28.2223 64.232C28.1903 63.4213 27.9769 62.808 27.5823 62.392C27.1876 61.9653 26.6596 61.752 25.9983 61.752C25.3369 61.752 24.8036 61.9653 24.3983 62.392C24.0036 62.808 23.7956 63.4213 23.7743 64.232C23.7636 64.392 23.7582 64.5947 23.7582 64.84C23.7582 65.0853 23.7636 65.288 23.7743 65.448C23.7956 66.2587 24.0036 66.8773 24.3983 67.304C24.8036 67.72 25.3369 67.928 25.9983 67.928ZM32.1458 69C32.0391 69 31.9484 68.968 31.8738 68.904C31.8098 68.8293 31.7778 68.7387 31.7778 68.632V61.048C31.7778 60.9413 31.8098 60.856 31.8738 60.792C31.9484 60.7173 32.0391 60.68 32.1458 60.68H32.8658C32.9724 60.68 33.0578 60.7173 33.1218 60.792C33.1964 60.856 33.2338 60.9413 33.2338 61.048V61.608C33.4791 61.2773 33.7884 61.016 34.1618 60.824C34.5351 60.6213 34.9831 60.52 35.5058 60.52C36.7111 60.5093 37.5644 61 38.0658 61.992C38.3111 61.544 38.6684 61.1867 39.1378 60.92C39.6071 60.6533 40.1404 60.52 40.7378 60.52C41.2924 60.52 41.7938 60.648 42.2418 60.904C42.7004 61.16 43.0578 61.5493 43.3138 62.072C43.5804 62.584 43.7138 63.2293 43.7138 64.008V68.632C43.7138 68.7387 43.6764 68.8293 43.6018 68.904C43.5378 68.968 43.4524 69 43.3458 69H42.5938C42.4871 69 42.3964 68.968 42.3218 68.904C42.2578 68.8293 42.2258 68.7387 42.2258 68.632V64.152C42.2258 63.5547 42.1404 63.0853 41.9698 62.744C41.7991 62.4027 41.5698 62.1627 41.2818 62.024C40.9938 61.8853 40.6791 61.816 40.3378 61.816C40.0604 61.816 39.7778 61.8853 39.4898 62.024C39.2018 62.1627 38.9618 62.4027 38.7698 62.744C38.5884 63.0853 38.4978 63.5547 38.4978 64.152V68.632C38.4978 68.7387 38.4604 68.8293 38.3858 68.904C38.3218 68.968 38.2364 69 38.1298 69H37.3778C37.2711 69 37.1804 68.968 37.1058 68.904C37.0418 68.8293 37.0098 68.7387 37.0098 68.632V64.152C37.0098 63.5547 36.9191 63.0853 36.7378 62.744C36.5564 62.4027 36.3218 62.1627 36.0338 62.024C35.7458 61.8853 35.4418 61.816 35.1218 61.816C34.8444 61.816 34.5618 61.8853 34.2738 62.024C33.9858 62.1627 33.7458 62.4027 33.5538 62.744C33.3724 63.0853 33.2818 63.5493 33.2818 64.136V68.632C33.2818 68.7387 33.2444 68.8293 33.1698 68.904C33.1058 68.968 33.0204 69 32.9138 69H32.1458ZM49.3085 69.16C48.2098 69.16 47.3352 68.824 46.6845 68.152C46.0338 67.4693 45.6765 66.5413 45.6125 65.368C45.6018 65.2293 45.5965 65.0533 45.5965 64.84C45.5965 64.616 45.6018 64.4347 45.6125 64.296C45.6552 63.5387 45.8312 62.8773 46.1405 62.312C46.4498 61.736 46.8712 61.2933 47.4045 60.984C47.9485 60.6747 48.5832 60.52 49.3085 60.52C50.1192 60.52 50.7965 60.6907 51.3405 61.032C51.8952 61.3733 52.3165 61.8587 52.6045 62.488C52.8925 63.1173 53.0365 63.8533 53.0365 64.696V64.968C53.0365 65.0853 52.9992 65.176 52.9245 65.24C52.8605 65.304 52.7752 65.336 52.6685 65.336H47.1325C47.1325 65.3467 47.1325 65.368 47.1325 65.4C47.1325 65.432 47.1325 65.4587 47.1325 65.48C47.1538 65.9173 47.2498 66.328 47.4205 66.712C47.5912 67.0853 47.8365 67.3893 48.1565 67.624C48.4765 67.8587 48.8605 67.976 49.3085 67.976C49.6925 67.976 50.0125 67.9173 50.2685 67.8C50.5245 67.6827 50.7325 67.5547 50.8925 67.416C51.0525 67.2667 51.1592 67.1547 51.2125 67.08C51.3085 66.9413 51.3832 66.8613 51.4365 66.84C51.4898 66.808 51.5752 66.792 51.6925 66.792H52.4605C52.5672 66.792 52.6525 66.824 52.7165 66.888C52.7912 66.9413 52.8232 67.0213 52.8125 67.128C52.8018 67.288 52.7165 67.4853 52.5565 67.72C52.3965 67.944 52.1672 68.168 51.8685 68.392C51.5698 68.616 51.2072 68.8027 50.7805 68.952C50.3538 69.0907 49.8632 69.16 49.3085 69.16ZM47.1325 64.232H51.5165V64.184C51.5165 63.704 51.4258 63.2773 51.2445 62.904C51.0738 62.5307 50.8232 62.2373 50.4925 62.024C50.1618 61.8 49.7672 61.688 49.3085 61.688C48.8498 61.688 48.4552 61.8 48.1245 62.024C47.8045 62.2373 47.5592 62.5307 47.3885 62.904C47.2178 63.2773 47.1325 63.704 47.1325 64.184V64.232Z" fill="white"/>
</g>
<path d="M20 22.9876L32 13.6543L44 22.9876V37.6543C44 38.3615 43.719 39.0398 43.219 39.5399C42.7189 40.04 42.0406 40.321 41.3333 40.321H22.6667C21.9594 40.321 21.2811 40.04 20.781 39.5399C20.281 39.0398 20 38.3615 20 37.6543V22.9876Z" stroke="white" stroke-width="2" stroke-linecap="round" stroke-linejoin="round"/>
<path d="M28 40.3216V26.9883H36V40.3216" stroke="white" stroke-width="2" stroke-linecap="round" stroke-linejoin="round"/>
<path d="M11.76 69.9883C11.6427 69.9883 11.552 69.9563 11.488 69.8923C11.424 69.8176 11.392 69.7269 11.392 69.6203V59.1723C11.392 59.0549 11.424 58.9643 11.488 58.9003C11.552 58.8256 11.6427 58.7883 11.76 58.7883H12.576C12.6933 58.7883 12.784 58.8256 12.848 58.9003C12.9227 58.9643 12.96 59.0549 12.96 59.1723V63.5883H18.464V59.1723C18.464 59.0549 18.496 58.9643 18.56 58.9003C18.6347 58.8256 18.7253 58.7883 18.832 58.7883H19.648C19.7653 58.7883 19.856 58.8256 19.92 58.9003C19.9947 58.9643 20.032 59.0549 20.032 59.1723V69.6203C20.032 69.7269 19.9947 69.8176 19.92 69.8923C19.856 69.9563 19.7653 69.9883 19.648 69.9883H18.832C18.7253 69.9883 18.6347 69.9563 18.56 69.8923C18.496 69.8176 18.464 69.7269 18.464 69.6203V65.0283H12.96V69.6203C12.96 69.7269 12.9227 69.8176 12.848 69.8923C12.784 69.9563 12.6933 69.9883 12.576 69.9883H11.76ZM25.9983 70.1483C25.1876 70.1483 24.5103 69.9936 23.9663 69.6843C23.4223 69.3749 23.0063 68.9483 22.7183 68.4043C22.4303 67.8496 22.2703 67.2203 22.2383 66.5163C22.2276 66.3349 22.2223 66.1056 22.2223 65.8283C22.2223 65.5403 22.2276 65.3109 22.2383 65.1403C22.2703 64.4256 22.4303 63.7963 22.7183 63.2523C23.0169 62.7083 23.4383 62.2816 23.9823 61.9723C24.5263 61.6629 25.1983 61.5083 25.9983 61.5083C26.7983 61.5083 27.4703 61.6629 28.0143 61.9723C28.5583 62.2816 28.9743 62.7083 29.2623 63.2523C29.5609 63.7963 29.7263 64.4256 29.7583 65.1403C29.7689 65.3109 29.7743 65.5403 29.7743 65.8283C29.7743 66.1056 29.7689 66.3349 29.7583 66.5163C29.7263 67.2203 29.5663 67.8496 29.2783 68.4043C28.9903 68.9483 28.5743 69.3749 28.0303 69.6843C27.4863 69.9936 26.8089 70.1483 25.9983 70.1483ZM25.9983 68.9163C26.6596 68.9163 27.1876 68.7083 27.5823 68.2923C27.9769 67.8656 28.1903 67.2469 28.2223 66.4363C28.2329 66.2763 28.2383 66.0736 28.2383 65.8283C28.2383 65.5829 28.2329 65.3803 28.2223 65.2203C28.1903 64.4096 27.9769 63.7963 27.5823 63.3803C27.1876 62.9536 26.6596 62.7403 25.9983 62.7403C25.3369 62.7403 24.8036 62.9536 24.3983 63.3803C24.0036 63.7963 23.7956 64.4096 23.7743 65.2203C23.7636 65.3803 23.7582 65.5829 23.7582 65.8283C23.7582 66.0736 23.7636 66.2763 23.7743 66.4363C23.7956 67.2469 24.0036 67.8656 24.3983 68.2923C24.8036 68.7083 25.3369 68.9163 25.9983 68.9163ZM32.1458 69.9883C32.0391 69.9883 31.9484 69.9563 31.8738 69.8923C31.8098 69.8176 31.7778 69.7269 31.7778 69.6203V62.0363C31.7778 61.9296 31.8098 61.8443 31.8738 61.7803C31.9484 61.7056 32.0391 61.6683 32.1458 61.6683H32.8658C32.9724 61.6683 33.0578 61.7056 33.1218 61.7803C33.1964 61.8443 33.2338 61.9296 33.2338 62.0363V62.5963C33.4791 62.2656 33.7884 62.0043 34.1618 61.8123C34.5351 61.6096 34.9831 61.5083 35.5058 61.5083C36.7111 61.4976 37.5644 61.9883 38.0658 62.9803C38.3111 62.5323 38.6684 62.1749 39.1378 61.9083C39.6071 61.6416 40.1404 61.5083 40.7378 61.5083C41.2924 61.5083 41.7938 61.6363 42.2418 61.8923C42.7004 62.1483 43.0578 62.5376 43.3138 63.0603C43.5804 63.5723 43.7138 64.2176 43.7138 64.9963V69.6203C43.7138 69.7269 43.6764 69.8176 43.6018 69.8923C43.5378 69.9563 43.4524 69.9883 43.3458 69.9883H42.5938C42.4871 69.9883 42.3964 69.9563 42.3218 69.8923C42.2578 69.8176 42.2258 69.7269 42.2258 69.6203V65.1403C42.2258 64.5429 42.1404 64.0736 41.9698 63.7323C41.7991 63.3909 41.5698 63.1509 41.2818 63.0123C40.9938 62.8736 40.6791 62.8043 40.3378 62.8043C40.0604 62.8043 39.7778 62.8736 39.4898 63.0123C39.2018 63.1509 38.9618 63.3909 38.7698 63.7323C38.5884 64.0736 38.4978 64.5429 38.4978 65.1403V69.6203C38.4978 69.7269 38.4604 69.8176 38.3858 69.8923C38.3218 69.9563 38.2364 69.9883 38.1298 69.9883H37.3778C37.2711 69.9883 37.1804 69.9563 37.1058 69.8923C37.0418 69.8176 37.0098 69.7269 37.0098 69.6203V65.1403C37.0098 64.5429 36.9191 64.0736 36.7378 63.7323C36.5564 63.3909 36.3218 63.1509 36.0338 63.0123C35.7458 62.8736 35.4418 62.8043 35.1218 62.8043C34.8444 62.8043 34.5618 62.8736 34.2738 63.0123C33.9858 63.1509 33.7458 63.3909 33.5538 63.7323C33.3724 64.0736 33.2818 64.5376 33.2818 65.1243V69.6203C33.2818 69.7269 33.2444 69.8176 33.1698 69.8923C33.1058 69.9563 33.0204 69.9883 32.9138 69.9883H32.1458ZM49.3085 70.1483C48.2098 70.1483 47.3352 69.8123 46.6845 69.1403C46.0338 68.4576 45.6765 67.5296 45.6125 66.3563C45.6018 66.2176 45.5965 66.0416 45.5965 65.8283C45.5965 65.6043 45.6018 65.4229 45.6125 65.2843C45.6552 64.5269 45.8312 63.8656 46.1405 63.3003C46.4498 62.7243 46.8712 62.2816 47.4045 61.9723C47.9485 61.6629 48.5832 61.5083 49.3085 61.5083C50.1192 61.5083 50.7965 61.6789 51.3405 62.0203C51.8952 62.3616 52.3165 62.8469 52.6045 63.4763C52.8925 64.1056 53.0365 64.8416 53.0365 65.6843V65.9563C53.0365 66.0736 52.9992 66.1643 52.9245 66.2283C52.8605 66.2923 52.7752 66.3243 52.6685 66.3243H47.1325C47.1325 66.3349 47.1325 66.3563 47.1325 66.3883C47.1325 66.4203 47.1325 66.4469 47.1325 66.4683C47.1538 66.9056 47.2498 67.3163 47.4205 67.7003C47.5912 68.0736 47.8365 68.3776 48.1565 68.6123C48.4765 68.8469 48.8605 68.9643 49.3085 68.9643C49.6925 68.9643 50.0125 68.9056 50.2685 68.7883C50.5245 68.6709 50.7325 68.5429 50.8925 68.4043C51.0525 68.2549 51.1592 68.1429 51.2125 68.0683C51.3085 67.9296 51.3832 67.8496 51.4365 67.8283C51.4898 67.7963 51.5752 67.7803 51.6925 67.7803H52.4605C52.5672 67.7803 52.6525 67.8123 52.7165 67.8763C52.7912 67.9296 52.8232 68.0096 52.8125 68.1163C52.8018 68.2763 52.7165 68.4736 52.5565 68.7083C52.3965 68.9323 52.1672 69.1563 51.8685 69.3803C51.5698 69.6043 51.2072 69.7909 50.7805 69.9403C50.3538 70.0789 49.8632 70.1483 49.3085 70.1483ZM47.1325 65.2203H51.5165V65.1723C51.5165 64.6923 51.4258 64.2656 51.2445 63.8923C51.0738 63.5189 50.8232 63.2256 50.4925 63.0123C50.1618 62.7883 49.7672 62.6763 49.3085 62.6763C48.8498 62.6763 48.4552 62.7883 48.1245 63.0123C47.8045 63.2256 47.5592 63.5189 47.3885 63.8923C47.2178 64.2656 47.1325 64.6923 47.1325 65.1723V65.2203Z" fill="white"/>
<defs>
<filter id="filter0_f_2_26606" x="-4" y="-3.01172" width="72" height="94" filterUnits="userSpaceOnUse" color-interpolation-filters="sRGB">
<feFlood flood-opacity="0" result="BackgroundImageFix"/>
<feBlend mode="normal" in="SourceGraphic" in2="BackgroundImageFix" result="shape"/>
<feGaussianBlur stdDeviation="2" result="effect1_foregroundBlur_2_26606"/>
</filter>
<filter id="filter1_f_2_26606" x="-2" y="-2" width="68" height="90" filterUnits="userSpaceOnUse" color-interpolation-filters="sRGB">
<feFlood flood-opacity="0" result="BackgroundImageFix"/>
<feBlend mode="normal" in="SourceGraphic" in2="BackgroundImageFix" result="shape"/>
<feGaussianBlur stdDeviation="1" result="effect1_foregroundBlur_2_26606"/>
</filter>
<filter id="filter2_f_2_26606" x="-1" y="-1" width="66" height="88" filterUnits="userSpaceOnUse" color-interpolation-filters="sRGB">
<feFlood flood-opacity="0" result="BackgroundImageFix"/>
<feBlend mode="normal" in="SourceGraphic" in2="BackgroundImageFix" result="shape"/>
<feGaussianBlur stdDeviation="0.5" result="effect1_foregroundBlur_2_26606"/>
</filter>
</defs>
</svg>
