<svg width="14" height="19" viewBox="0 0 14 19" fill="none" xmlns="http://www.w3.org/2000/svg">
<path fill-rule="evenodd" clip-rule="evenodd" d="M0.43934 0.43934C0.720644 0.158036 1.10217 0 1.5 0H12C12.3978 0 12.7794 0.158035 13.0607 0.43934C13.342 0.720645 13.5 1.10218 13.5 1.5V18C13.5 18.2726 13.352 18.5238 13.1136 18.656C12.8751 18.7882 12.5837 18.7805 12.3525 18.636L6.75 15.1344L1.1475 18.636C0.916298 18.7805 0.62489 18.7882 0.386424 18.656C0.147958 18.5238 0 18.2726 0 18V1.5C0 1.10217 0.158036 0.720644 0.43934 0.43934ZM12 1.5H1.5L1.5 16.6468L6.3525 13.614C6.5957 13.462 6.9043 13.462 7.1475 13.614L12 16.6468V1.5Z" fill="#6C5CE7"/>
</svg>
